<svg height="16.997" viewBox="0 0 15.452 16.997" width="15.452" xmlns="http://www.w3.org/2000/svg">
  <path
    d="M8.953,10.271a.773.773,0,1,0,.773.773A.773.773,0,0,0,8.953,10.271Zm-3.09,0a.773.773,0,1,0,.773.773A.773.773,0,0,0,5.863,10.271ZM17.451,3.318A2.318,2.318,0,0,0,15.134,1H4.318A2.318,2.318,0,0,0,2,3.318v3.09a2.316,2.316,0,0,0,.6,1.545A2.316,2.316,0,0,0,2,9.5v3.09a2.318,2.318,0,0,0,2.318,2.318H8.953v1.545H2.773a.773.773,0,1,0,0,1.545H16.679a.773.773,0,0,0,0-1.545H10.5V14.906h4.635a2.318,2.318,0,0,0,2.318-2.318V9.5a2.316,2.316,0,0,0-.6-1.545,2.316,2.316,0,0,0,.6-1.545Zm-1.545,9.271a.773.773,0,0,1-.773.773H4.318a.773.773,0,0,1-.773-.773V9.5a.773.773,0,0,1,.773-.773H15.134a.773.773,0,0,1,.773.773Zm0-6.181a.773.773,0,0,1-.773.773H4.318a.773.773,0,0,1-.773-.773V3.318a.773.773,0,0,1,.773-.773H15.134a.773.773,0,0,1,.773.773ZM8.953,4.09a.773.773,0,1,0,.773.773A.773.773,0,0,0,8.953,4.09Zm-3.09,0a.773.773,0,1,0,.773.773A.773.773,0,0,0,5.863,4.09Z"
    data-name="Path 1015"
    fill="#ec1846"
    id="Path_1015" transform="translate(-2 -1)"/>
</svg>
