<svg xmlns="http://www.w3.org/2000/svg" width="22.495" height="22.718" viewBox="0 0 22.495 22.718">
  <path id="Path_1747" data-name="Path 1747" d="M23.534,2.083A14.78,14.78,0,0,0,21.1,1.87a14.537,14.537,0,0,0-7.863,2.3A14.532,14.532,0,0,0,5.371,1.926a14.78,14.78,0,0,0-2.437.213A1.124,1.124,0,0,0,2,3.263V16.742a1.123,1.123,0,0,0,1.106,1.139,1.073,1.073,0,0,0,.208-.016,12.242,12.242,0,0,1,9.267,2.145l.135.079h.124a1.026,1.026,0,0,0,.786,0h.124l.135-.079a12.244,12.244,0,0,1,9.267-2.269,1.124,1.124,0,0,0,1.3-.915,1.169,1.169,0,0,0,.016-.208V3.139A1.123,1.123,0,0,0,23.534,2.083ZM12.111,17.012a14.462,14.462,0,0,0-6.74-1.662H4.248V4.117a9.861,9.861,0,0,1,1.123,0,12.206,12.206,0,0,1,6.74,2.022ZM22.22,15.394H21.1a14.462,14.462,0,0,0-6.74,1.662V6.138A12.206,12.206,0,0,1,21.1,4.117a9.861,9.861,0,0,1,1.123,0Zm1.314,4.662a14.78,14.78,0,0,0-2.437-.213,14.537,14.537,0,0,0-7.863,2.3,14.537,14.537,0,0,0-7.863-2.3,14.78,14.78,0,0,0-2.437.213A1.124,1.124,0,0,0,2,21.341v.007a1.123,1.123,0,0,0,1.314.887,12.242,12.242,0,0,1,9.267,2.145,1.124,1.124,0,0,0,1.3,0,12.242,12.242,0,0,1,9.267-2.145,1.107,1.107,0,1,0,.389-2.178Z" transform="translate(-1.987 -1.87)" fill="#2a2b2c"/>
</svg>
