<svg height="141.372" viewBox="0 0 439.95 141.372" width="439.95" xmlns="http://www.w3.org/2000/svg">
  <g data-name="Group 465" id="Group_465" transform="translate(-35.332 535.997)">
    <path
      d="M474.35-359.185H36.264a.932.932,0,0,1-.932-.932.933.933,0,0,1,.932-.932H474.35a.933.933,0,0,1,.932.932A.932.932,0,0,1,474.35-359.185Z"
      data-name="Path 1"
      fill="#2a2b2c"
      id="Path_1" transform="translate(0 -35.44)"/>
    <path
      d="M108.787-365.36a.932.932,0,0,1-.932-.932V-388.55h-25.4v22.258a.933.933,0,0,1-.933.932.933.933,0,0,1-.932-.932v-23.19a.933.933,0,0,1,.932-.932h27.269a.933.933,0,0,1,.932.932v23.19A.933.933,0,0,1,108.787-365.36Z"
      data-name="Path 2"
      fill="#2a2b2c"
      id="Path_2" transform="translate(-9.167 -29.492)"/>
    <path
      d="M128.533-377.438a.933.933,0,0,1-.933-.932v-22.607a.933.933,0,0,1,.321-.7l3.293-2.868v-7.218l-.655-.05a.933.933,0,0,1-.86-.93v-35.426H116.646v46.613a.933.933,0,0,1-.932.932.932.932,0,0,1-.932-.932V-449.1a.932.932,0,0,1,.932-.932H130.63a.933.933,0,0,1,.932.932v35.495l.655.049a.934.934,0,0,1,.86.93v8.507a.929.929,0,0,1-.321.7l-3.292,2.868v22.183A.933.933,0,0,1,128.533-377.438Z"
      data-name="Path 3"
      fill="#2a2b2c"
      id="Path_3" transform="translate(-16.095 -17.414)"/>
    <path
      d="M157.411-402.433H136.319a.932.932,0,0,1-.932-.932.932.932,0,0,1,.932-.932h21.092a.933.933,0,0,1,.932.932A.932.932,0,0,1,157.411-402.433Z"
      data-name="Path 4"
      fill="#2a2b2c"
      id="Path_4" transform="translate(-20.269 -26.679)"/>
    <path
      d="M156.362-393.926H136.319a.932.932,0,0,1-.932-.932.932.932,0,0,1,.932-.932H155.43v-7.575a.932.932,0,0,1,.932-.932.933.933,0,0,1,.932.932v8.507A.933.933,0,0,1,156.362-393.926Z"
      data-name="Path 5"
      fill="#2a2b2c"
      id="Path_5" transform="translate(-20.269 -26.679)"/>
    <path
      d="M196.122-393.926H176.079a.933.933,0,0,1-.932-.932.933.933,0,0,1,.932-.932H195.19v-7.575a.933.933,0,0,1,.932-.932.932.932,0,0,1,.932.932v8.507A.932.932,0,0,1,196.122-393.926Z"
      data-name="Path 6"
      fill="#2a2b2c"
      id="Path_6" transform="translate(-28.323 -26.679)"/>
    <path
      d="M159.117-383.957a.932.932,0,0,1-.832-.507.934.934,0,0,1,.406-1.255l4.27-2.187v-1.805l-2.6-2.285a.932.932,0,0,1-.085-1.316.934.934,0,0,1,1.317-.084l2.913,2.564a.931.931,0,0,1,.317.7v2.8a.933.933,0,0,1-.507.83l-4.778,2.447A.929.929,0,0,1,159.117-383.957Z"
      data-name="Path 7"
      fill="#2a2b2c"
      id="Path_7" transform="translate(-24.887 -28.84)"/>
    <path
      d="M176.856-386.148a.93.93,0,0,1-.423-.1l-4.778-2.447a.933.933,0,0,1-.507-.83v-2.8a.931.931,0,0,1,.317-.7l2.6-2.285v-8.2a.933.933,0,0,1,.932-.932.932.932,0,0,1,.932.932v8.623a.931.931,0,0,1-.317.7l-2.6,2.285v1.805l4.27,2.188a.933.933,0,0,1,.406,1.255A.932.932,0,0,1,176.856-386.148Z"
      data-name="Path 8"
      fill="#2a2b2c"
      id="Path_8" transform="translate(-27.513 -26.65)"/>
    <path
      d="M161.454-364.27a.932.932,0,0,1-.932-.932v-18.9a.932.932,0,0,1,.932-.932.933.933,0,0,1,.932.932v18.9A.933.933,0,0,1,161.454-364.27Z"
      data-name="Path 9"
      fill="#2a2b2c"
      id="Path_9" transform="translate(-25.36 -30.581)"/>
    <path
      d="M176.079-364.092a.933.933,0,0,1-.932-.932v-18.2a.933.933,0,0,1,.932-.932.932.932,0,0,1,.932.932v18.2A.932.932,0,0,1,176.079-364.092Z"
      data-name="Path 10"
      fill="#2a2b2c"
      id="Path_10" transform="translate(-28.323 -30.759)"/>
    <path
      d="M170.665-385.413a.914.914,0,0,1-.433-.108l-2.331-1.229-2.364,1.231a.929.929,0,0,1-1.258-.4.932.932,0,0,1,.4-1.258l2.8-1.457a.931.931,0,0,1,.865,0l2.763,1.457a.93.93,0,0,1,.389,1.258A.93.93,0,0,1,170.665-385.413Z"
      data-name="Path 11"
      fill="#2a2b2c"
      id="Path_11" transform="translate(-26.1 -29.832)"/>
    <path
      d="M204.119-366.011a.933.933,0,0,1-.933-.932v-22.77L200.6-392a.932.932,0,0,1-.082-1.316.933.933,0,0,1,1.316-.083l2.9,2.564a.935.935,0,0,1,.316.7v23.19A.933.933,0,0,1,204.119-366.011Z"
      data-name="Path 12"
      fill="#2a2b2c"
      id="Path_12" transform="translate(-33.415 -28.84)"/>
    <path
      d="M196.725-405.359h-22.85a.935.935,0,0,1-.707-.323.935.935,0,0,1-.216-.746,13.524,13.524,0,0,1,9.758-11.143l4.915-.023c.154.01,8.277.762,10.018,11.15a.928.928,0,0,1-.207.756A.931.931,0,0,1,196.725-405.359ZM175-407.224h20.59c-1.814-7.875-7.777-8.488-8.04-8.51l-4.633,0A11.5,11.5,0,0,0,175-407.224Z"
      data-name="Path 13"
      fill="#2a2b2c"
      id="Path_13" transform="translate(-27.877 -23.985)"/>
    <path
      d="M156.964-405.359H134.115a.934.934,0,0,1-.706-.323.929.929,0,0,1-.216-.746,13.523,13.523,0,0,1,9.758-11.143l4.915-.023c.155.01,8.277.762,10.018,11.15a.928.928,0,0,1-.207.756A.93.93,0,0,1,156.964-405.359Zm-21.726-1.864H155.83c-1.815-7.875-7.777-8.488-8.041-8.51l-4.633,0A11.5,11.5,0,0,0,135.239-407.224Z"
      data-name="Path 14"
      fill="#2a2b2c"
      id="Path_14" transform="translate(-19.822 -23.985)"/>
    <path
      d="M185.213-405.359a.932.932,0,0,1-.932-.932v-10.371a.932.932,0,0,1,.932-.932.933.933,0,0,1,.932.932v10.371A.933.933,0,0,1,185.213-405.359Z"
      data-name="Path 15"
      fill="#2a2b2c"
      id="Path_15" transform="translate(-30.174 -23.985)"/>
    <path
      d="M191.85-405.359a.932.932,0,0,1-.932-.932v-10.371a.932.932,0,0,1,.932-.932.933.933,0,0,1,.932.932v10.371A.933.933,0,0,1,191.85-405.359Z"
      data-name="Path 16"
      fill="#2a2b2c"
      id="Path_16" transform="translate(-31.518 -23.985)"/>
    <path
      d="M145.568-405.119a.932.932,0,0,1-.932-.933v-10.371a.932.932,0,0,1,.932-.933.933.933,0,0,1,.932.933v10.371A.933.933,0,0,1,145.568-405.119Z"
      data-name="Path 17"
      fill="#2a2b2c"
      id="Path_17" transform="translate(-22.142 -24.034)"/>
    <path
      d="M152.205-405.119a.932.932,0,0,1-.932-.933v-10.371a.932.932,0,0,1,.932-.933.933.933,0,0,1,.932.933v10.371A.933.933,0,0,1,152.205-405.119Z"
      data-name="Path 18"
      fill="#2a2b2c"
      id="Path_18" transform="translate(-23.487 -24.034)"/>
    <path
      d="M112.813-429.537h-11.42a.933.933,0,0,1-.785-.43.93.93,0,0,1-.061-.893l5.71-12.352a.933.933,0,0,1,.846-.541h5.71a.933.933,0,0,1,.932.932.933.933,0,0,1-.932.932H107.7L102.851-431.4h9.962a.933.933,0,0,1,.932.932A.932.932,0,0,1,112.813-429.537Z"
      data-name="Path 19"
      fill="#2a2b2c"
      id="Path_19" transform="translate(-13.194 -18.686)"/>
    <path
      d="M94.086-373.027a.933.933,0,0,1-.932-.932v-18.9a.926.926,0,0,1,.152-.51l2.645-4.056v-5.083a8.062,8.062,0,0,1,5.244-7.484v-17.337a.933.933,0,0,1,.932-.932.932.932,0,0,1,.932.932v18a.936.936,0,0,1-.679.9c-.187.053-4.564,1.353-4.564,5.92v5.36a.926.926,0,0,1-.151.51l-2.645,4.056v18.625A.933.933,0,0,1,94.086-373.027Z"
      data-name="Path 20"
      fill="#2a2b2c"
      id="Path_20" transform="translate(-11.713 -21.824)"/>
    <path
      d="M81.517-393.138a.928.928,0,0,1-.576-.2.931.931,0,0,1-.155-1.309L95-412.709a.93.93,0,0,1,.732-.356h3.845a.932.932,0,0,1,.932.932.932.932,0,0,1-.932.932H96.188L82.25-393.494A.926.926,0,0,1,81.517-393.138Z"
      data-name="Path 21"
      fill="#2a2b2c"
      id="Path_21" transform="translate(-9.167 -24.903)"/>
    <path
      d="M201.075-432.278H181.148a.932.932,0,0,1-.932-.932.932.932,0,0,1,.932-.932H199.5l-5.738-10.488H166.839a.931.931,0,0,1-.841-.53l-4.328-9.074-4.328,9.074a.931.931,0,0,1-.841.53H134.419a.933.933,0,0,1-.932-.932.933.933,0,0,1,.932-.932h21.494l4.916-10.307a.971.971,0,0,1,1.683,0l4.916,10.307h26.888a.934.934,0,0,1,.818.484l6.759,12.353a.937.937,0,0,1-.016.924A.935.935,0,0,1,201.075-432.278Z"
      data-name="Path 22"
      fill="#2a2b2c"
      id="Path_22" transform="translate(-19.884 -15.945)"/>
    <path
      d="M141.062-426.4h-6.643a.932.932,0,0,1-.932-.932.933.933,0,0,1,.932-.932h6.643a.933.933,0,0,1,.932.932A.932.932,0,0,1,141.062-426.4Z"
      data-name="Path 23"
      fill="#2a2b2c"
      id="Path_23" transform="translate(-19.884 -21.824)"/>
    <path
      d="M155.316-419.981a.932.932,0,0,1-.932-.932v-9.556a.938.938,0,0,1,.079-.375l5.419-12.352a.927.927,0,0,1,1.229-.479.931.931,0,0,1,.478,1.228l-5.34,12.173v9.36A.932.932,0,0,1,155.316-419.981Z"
      data-name="Path 24"
      fill="#2a2b2c"
      id="Path_24" transform="translate(-24.117 -18.686)"/>
    <path
      d="M180.294-419.83a.933.933,0,0,1-.932-.932v-9.516l-5.146-12.179a.93.93,0,0,1,.5-1.221.929.929,0,0,1,1.222.5l5.219,12.352a.932.932,0,0,1,.074.363v9.706A.932.932,0,0,1,180.294-419.83Z"
      data-name="Path 25"
      fill="#2a2b2c"
      id="Path_25" transform="translate(-28.12 -18.686)"/>
    <path
      d="M176.292-426.4H155.316a.932.932,0,0,1-.932-.932.933.933,0,0,1,.932-.932h20.975a.932.932,0,0,1,.932.932A.932.932,0,0,1,176.292-426.4Z"
      data-name="Path 26"
      fill="#2a2b2c"
      id="Path_26" transform="translate(-24.117 -21.824)"/>
    <path
      d="M207.5-429.536a.933.933,0,0,1-.833-.51L200.383-442.4a.933.933,0,0,1,.409-1.254.937.937,0,0,1,1.254.409l6.283,12.353a.933.933,0,0,1-.409,1.254A.937.937,0,0,1,207.5-429.536Z"
      data-name="Path 27"
      fill="#2a2b2c"
      id="Path_27" transform="translate(-33.415 -18.687)"/>
    <path
      d="M198.134-429.536a.933.933,0,0,1-.832-.51L191.018-442.4a.934.934,0,0,1,.409-1.254.938.938,0,0,1,1.254.409l6.283,12.353a.932.932,0,0,1-.409,1.254A.937.937,0,0,1,198.134-429.536Z"
      data-name="Path 28"
      fill="#2a2b2c"
      id="Path_28" transform="translate(-31.518 -18.687)"/>
    <path
      d="M137.141-429.536a.94.94,0,0,1-.422-.1.934.934,0,0,1-.409-1.254l6.284-12.353a.938.938,0,0,1,1.254-.409.934.934,0,0,1,.409,1.254l-6.283,12.352A.933.933,0,0,1,137.141-429.536Z"
      data-name="Path 29"
      fill="#2a2b2c"
      id="Path_29" transform="translate(-20.435 -18.687)"/>
    <path
      d="M126.3-379.667H121.65a.933.933,0,0,1-.932-.932v-5.558c0-2.675,1.431-4.769,3.26-4.769s3.257,2.094,3.257,4.769v5.558A.932.932,0,0,1,126.3-379.667Zm-3.72-1.864h2.788v-4.626c0-1.773-.825-2.9-1.393-2.9-.645,0-1.395,1.268-1.395,2.9Z"
      data-name="Path 30"
      fill="#2a2b2c"
      id="Path_30" transform="translate(-17.297 -29.388)"/>
    <path
      d="M126.3-400.317H121.65a.933.933,0,0,1-.932-.933v-5.556c0-2.675,1.431-4.769,3.26-4.769s3.257,2.094,3.257,4.769v5.556A.932.932,0,0,1,126.3-400.317Zm-3.72-1.865h2.788v-4.624c0-1.773-.825-2.9-1.393-2.9-.645,0-1.395,1.268-1.395,2.9Z"
      data-name="Path 31"
      fill="#2a2b2c"
      id="Path_31" transform="translate(-17.297 -25.205)"/>
    <path
      d="M170.213-363.056h-4.648a.933.933,0,0,1-.932-.932v-10.318c0-2.715,1.395-4.761,3.244-4.761,1.832,0,3.269,2.091,3.269,4.761v10.318A.933.933,0,0,1,170.213-363.056Zm-3.716-1.864h2.784v-9.386c0-1.769-.832-2.9-1.4-2.9s-1.38,1.1-1.38,2.9Z"
      data-name="Path 32"
      fill="#2a2b2c"
      id="Path_32" transform="translate(-26.193 -31.79)"/>
    <path
      d="M170.056-411.165h-4.649a.932.932,0,0,1-.932-.932v-7.582a3.484,3.484,0,0,1,3.243-3.745,3.536,3.536,0,0,1,3.27,3.745v7.582A.932.932,0,0,1,170.056-411.165Zm-3.717-1.864h2.785v-6.65c0-1.019-.644-1.88-1.406-1.88s-1.379.844-1.379,1.88Z"
      data-name="Path 33"
      fill="#2a2b2c"
      id="Path_33" transform="translate(-26.161 -22.805)"/>
    <path
      d="M170.056-429.764h-4.649a.932.932,0,0,1-.932-.932v-9.662c0-2.533,1.425-4.517,3.243-4.517,1.834,0,3.27,1.984,3.27,4.517v9.662A.932.932,0,0,1,170.056-429.764Zm-3.717-1.864h2.785v-8.73c0-1.494-.755-2.653-1.406-2.653s-1.379,1.135-1.379,2.653Z"
      data-name="Path 34"
      fill="#2a2b2c"
      id="Path_34" transform="translate(-26.161 -18.459)"/>
    <path
      d="M209.807-410.911h-4.653a.932.932,0,0,1-.932-.932V-417.4c0-2.674,1.431-4.768,3.257-4.768s3.26,2.095,3.26,4.768v5.557A.932.932,0,0,1,209.807-410.911Zm-3.721-1.864h2.789V-417.4c0-1.773-.827-2.9-1.4-2.9-.644,0-1.393,1.269-1.393,2.9Z"
      data-name="Path 35"
      fill="#2a2b2c"
      id="Path_35" transform="translate(-34.213 -23.059)"/>
    <path
      d="M285.317-398.929h-4.653a.933.933,0,0,1-.932-.932v-5.557c0-2.675,1.431-4.768,3.259-4.768s3.258,2.093,3.258,4.768v5.557A.933.933,0,0,1,285.317-398.929Zm-3.721-1.864h2.789v-4.625c0-1.773-.825-2.9-1.394-2.9-.644,0-1.395,1.269-1.395,2.9Z"
      data-name="Path 36"
      fill="#2a2b2c"
      id="Path_36" transform="translate(-49.51 -25.486)"/>
    <path
      d="M308.223-398.929h-4.652a.933.933,0,0,1-.933-.932v-5.557c0-2.675,1.431-4.768,3.26-4.768s3.257,2.093,3.257,4.768v5.557A.932.932,0,0,1,308.223-398.929Zm-3.72-1.864h2.788v-4.625c0-1.773-.825-2.9-1.393-2.9-.645,0-1.395,1.269-1.395,2.9Z"
      data-name="Path 37"
      fill="#2a2b2c"
      id="Path_37" transform="translate(-54.15 -25.486)"/>
    <path
      d="M326.855-403.7H322.2a.932.932,0,0,1-.932-.932v-5.557c0-2.674,1.431-4.768,3.259-4.768s3.257,2.094,3.257,4.768v5.557A.932.932,0,0,1,326.855-403.7Zm-3.72-1.864h2.788v-4.625c0-1.772-.825-2.9-1.393-2.9-.645,0-1.395,1.269-1.395,2.9Z"
      data-name="Path 38"
      fill="#2a2b2c"
      id="Path_38" transform="translate(-57.924 -24.52)"/>
    <path
      d="M369.683-403.7h-4.652a.932.932,0,0,1-.933-.932v-5.557c0-2.674,1.431-4.768,3.26-4.768s3.258,2.094,3.258,4.768v5.557A.932.932,0,0,1,369.683-403.7Zm-3.72-1.864h2.788v-4.625c0-1.772-.825-2.9-1.393-2.9-.645,0-1.395,1.269-1.395,2.9Z"
      data-name="Path 39"
      fill="#2a2b2c"
      id="Path_39" transform="translate(-66.6 -24.52)"/>
    <path
      d="M343.776-445.579h-4.654a.933.933,0,0,1-.932-.933v-5.556c0-2.675,1.431-4.768,3.259-4.768s3.26,2.094,3.26,4.768v5.556A.933.933,0,0,1,343.776-445.579Zm-3.722-1.865h2.789v-4.624c0-1.773-.826-2.9-1.395-2.9-.644,0-1.395,1.268-1.395,2.9Z"
      data-name="Path 40"
      fill="#2a2b2c"
      id="Path_40" transform="translate(-61.352 -16.036)"/>
    <path
      d="M353.421-445.579h-4.654a.933.933,0,0,1-.932-.933v-5.556c0-2.675,1.431-4.768,3.259-4.768s3.259,2.094,3.259,4.768v5.556A.932.932,0,0,1,353.421-445.579Zm-3.722-1.865h2.789v-4.624c0-1.773-.826-2.9-1.395-2.9-.644,0-1.395,1.268-1.395,2.9Z"
      data-name="Path 41"
      fill="#2a2b2c"
      id="Path_41" transform="translate(-63.306 -16.036)"/>
    <path
      d="M126.3-426.631H121.65a.932.932,0,0,1-.932-.932v-5.557c0-2.674,1.431-4.769,3.26-4.769s3.257,2.095,3.257,4.769v5.557A.932.932,0,0,1,126.3-426.631Zm-3.72-1.864h2.788v-4.625c0-1.773-.825-2.9-1.393-2.9-.645,0-1.395,1.268-1.395,2.9Z"
      data-name="Path 42"
      fill="#2a2b2c"
      id="Path_42" transform="translate(-17.297 -19.874)"/>
    <path
      d="M126.3-458.369H121.65a.933.933,0,0,1-.932-.932v-5.557c0-2.674,1.431-4.768,3.26-4.768s3.257,2.093,3.257,4.768v5.557A.932.932,0,0,1,126.3-458.369Zm-3.72-1.864h2.788v-4.625c0-1.773-.825-2.9-1.393-2.9-.645,0-1.395,1.269-1.395,2.9Z"
      data-name="Path 43"
      fill="#2a2b2c"
      id="Path_43" transform="translate(-17.297 -13.445)"/>
    <path
      d="M153.576-456.744h-4.359a.933.933,0,0,1-.933-.932v-10.5c0-3.04.656-8.183,3.112-8.183s3.112,5.143,3.112,8.183v10.5A.933.933,0,0,1,153.576-456.744Zm-3.427-1.864h2.494v-9.572c0-3.978-.948-6.117-1.344-6.338-.208.216-1.151,2.344-1.151,6.338Z"
      data-name="Path 44"
      fill="#2a2b2c"
      id="Path_44" transform="translate(-22.881 -12.08)"/>
    <path
      d="M132.239-415.49h-19.3a.933.933,0,0,1-.932-.932.933.933,0,0,1,.932-.933h19.3a.932.932,0,0,1,.932.933A.932.932,0,0,1,132.239-415.49Z"
      data-name="Path 45"
      fill="#2a2b2c"
      id="Path_45" transform="translate(-15.532 -24.034)"/>
    <path
      d="M113.752-395.418H94.524a.933.933,0,0,1-.932-.932.932.932,0,0,1,.932-.932h19.227a.933.933,0,0,1,.933.932A.933.933,0,0,1,113.752-395.418Z"
      data-name="Path 46"
      fill="#2a2b2c"
      id="Path_46" transform="translate(-11.802 -28.1)"/>
    <path
      d="M113.374-397.12a.933.933,0,0,1-.923-.806c-.707-5.146-4.761-5.878-4.934-5.906l-3.348.012a.933.933,0,0,1-.932-.932.933.933,0,0,1,.932-.932h3.5c2.073.309,5.914,2.26,6.634,7.506a.931.931,0,0,1-.8,1.05A.846.846,0,0,1,113.374-397.12Z"
      data-name="Path 47"
      fill="#2a2b2c"
      id="Path_47" transform="translate(-13.756 -26.398)"/>
    <path
      d="M214.647-373.027a.933.933,0,0,1-.933-.932v-53.371a.933.933,0,0,1,.933-.932.933.933,0,0,1,.932.932v53.371A.933.933,0,0,1,214.647-373.027Z"
      data-name="Path 48"
      fill="#2a2b2c"
      id="Path_48" transform="translate(-36.136 -21.824)"/>
    <path
      d="M185.213-419.412a.932.932,0,0,1-.932-.932v-4.428a.936.936,0,0,1,.116-.452l2.383-4.312a.93.93,0,0,1,1.268-.364.933.933,0,0,1,.364,1.267l-2.267,4.1v4.188A.933.933,0,0,1,185.213-419.412Z"
      data-name="Path 49"
      fill="#2a2b2c"
      id="Path_49" transform="translate(-30.174 -21.469)"/>
    <path
      d="M190.915-419.412a.932.932,0,0,1-.932-.932v-4.188l-2.268-4.1a.932.932,0,0,1,.364-1.267.931.931,0,0,1,1.267.364l2.384,4.312a.936.936,0,0,1,.116.452v4.428A.933.933,0,0,1,190.915-419.412Z"
      data-name="Path 50"
      fill="#2a2b2c"
      id="Path_50" transform="translate(-30.846 -21.469)"/>
    <path
      d="M145.452-419.412a.933.933,0,0,1-.932-.932v-4.428a.937.937,0,0,1,.116-.452l2.384-4.312a.929.929,0,0,1,1.267-.364.932.932,0,0,1,.364,1.267l-2.268,4.1v4.188A.933.933,0,0,1,145.452-419.412Z"
      data-name="Path 51"
      fill="#2a2b2c"
      id="Path_51" transform="translate(-22.119 -21.469)"/>
    <path
      d="M151.155-419.412a.933.933,0,0,1-.932-.932v-4.188l-2.267-4.1a.933.933,0,0,1,.364-1.267.931.931,0,0,1,1.267.364l2.384,4.312a.936.936,0,0,1,.116.452v4.428A.932.932,0,0,1,151.155-419.412Z"
      data-name="Path 52"
      fill="#2a2b2c"
      id="Path_52" transform="translate(-22.791 -21.469)"/>
    <path
      d="M188.2-429.318a.933.933,0,0,1-.932-.933v-8.04a.933.933,0,0,1,.932-.932.932.932,0,0,1,.932.932v8.04A.932.932,0,0,1,188.2-429.318Z"
      data-name="Path 53"
      fill="#2a2b2c"
      id="Path_53" transform="translate(-30.779 -19.604)"/>
    <path
      d="M189.617-434.144H186a.932.932,0,0,1-.932-.932.933.933,0,0,1,.932-.932h3.612a.932.932,0,0,1,.932.932A.932.932,0,0,1,189.617-434.144Z"
      data-name="Path 54"
      fill="#2a2b2c"
      id="Path_54" transform="translate(-30.334 -20.255)"/>
    <path
      d="M148.375-429.318a.932.932,0,0,1-.932-.933v-8.04a.932.932,0,0,1,.932-.932.933.933,0,0,1,.932.932v8.04A.933.933,0,0,1,148.375-429.318Z"
      data-name="Path 55"
      fill="#2a2b2c"
      id="Path_55" transform="translate(-22.711 -19.604)"/>
    <path
      d="M149.79-434.144h-3.612a.932.932,0,0,1-.932-.932.932.932,0,0,1,.932-.932h3.612a.933.933,0,0,1,.932.932A.932.932,0,0,1,149.79-434.144Z"
      data-name="Path 56"
      fill="#2a2b2c"
      id="Path_56" transform="translate(-22.266 -20.255)"/>
    <path
      d="M147.95-395.849a2.611,2.611,0,0,1-2.608-2.608,2.611,2.611,0,0,1,2.608-2.608,2.611,2.611,0,0,1,2.607,2.608A2.611,2.611,0,0,1,147.95-395.849Zm0-3.351a.745.745,0,0,0-.743.743.745.745,0,0,0,.743.743.744.744,0,0,0,.742-.743A.744.744,0,0,0,147.95-399.2Z"
      data-name="Path 57"
      fill="#2a2b2c"
      id="Path_57" transform="translate(-22.285 -27.334)"/>
    <path
      d="M188.222-395.849a2.612,2.612,0,0,1-2.608-2.608,2.612,2.612,0,0,1,2.608-2.608,2.612,2.612,0,0,1,2.608,2.608A2.612,2.612,0,0,1,188.222-395.849Zm0-3.351a.745.745,0,0,0-.743.743.745.745,0,0,0,.743.743.744.744,0,0,0,.742-.743A.744.744,0,0,0,188.222-399.2Z"
      data-name="Path 58"
      fill="#2a2b2c"
      id="Path_58" transform="translate(-30.444 -27.334)"/>
    <path
      d="M154.853-370.88H128.866a.932.932,0,0,1-.932-.932.932.932,0,0,1,.932-.932h25.986a.933.933,0,0,1,.932.932A.933.933,0,0,1,154.853-370.88Z"
      data-name="Path 59"
      fill="#2a2b2c"
      id="Path_59" transform="translate(-18.759 -33.071)"/>
    <path
      d="M202.2-370.88H176.213a.933.933,0,0,1-.932-.932.933.933,0,0,1,.932-.932H202.2a.932.932,0,0,1,.932.932A.932.932,0,0,1,202.2-370.88Z"
      data-name="Path 60"
      fill="#2a2b2c"
      id="Path_60" transform="translate(-28.35 -33.071)"/>
    <path
      d="M113.041-370.98H91.017a.933.933,0,0,1-.932-.932.933.933,0,0,1,.932-.933h22.024a.933.933,0,0,1,.933.933A.933.933,0,0,1,113.041-370.98Z"
      data-name="Path 61"
      fill="#2a2b2c"
      id="Path_61" transform="translate(-11.092 -33.051)"/>
    <path
      d="M133.776-448.957h-3.962a.932.932,0,0,1-.932-.932.933.933,0,0,1,.932-.932h1.711l-1.223-1.223H114.22L113-450.821h1.712a.933.933,0,0,1,.932.932.932.932,0,0,1-.932.932h-3.962a.933.933,0,0,1-.862-.575.935.935,0,0,1,.2-1.016l3.088-3.088a.932.932,0,0,1,.659-.273h16.854a.935.935,0,0,1,.659.273l3.088,3.088a.933.933,0,0,1,.2,1.016A.932.932,0,0,1,133.776-448.957Z"
      data-name="Path 62"
      fill="#2a2b2c"
      id="Path_62" transform="translate(-15.088 -16.629)"/>
    <path
      d="M131.457-456.026a.933.933,0,0,1-.932-.932V-471.7H115.55v14.741a.933.933,0,0,1-.932.932.932.932,0,0,1-.932-.932v-15.673a.932.932,0,0,1,.932-.932h16.838a.932.932,0,0,1,.932.932v15.673A.932.932,0,0,1,131.457-456.026Z"
      data-name="Path 63"
      fill="#2a2b2c"
      id="Path_63" transform="translate(-15.873 -12.647)"/>
    <path
      d="M114.617-475.193a.925.925,0,0,1-.486-.137.933.933,0,0,1-.308-1.282l8.428-13.751a.932.932,0,0,1,.8-.445h0a.93.93,0,0,1,.795.445l8.41,13.751a.932.932,0,0,1-.308,1.282.931.931,0,0,1-1.282-.309l-7.617-12.452-7.631,12.452A.93.93,0,0,1,114.617-475.193Z"
      data-name="Path 64"
      fill="#2a2b2c"
      id="Path_64" transform="translate(-15.873 -9.154)"/>
    <path
      d="M161.956-461.594a.933.933,0,0,1-.932-.932v-5.425H158.46a.933.933,0,0,1-.932-.932v-14.8H141.049v14.8a.933.933,0,0,1-.932.932h-3.8a.932.932,0,0,1-.932-.932.932.932,0,0,1,.932-.932h2.866v-14.8a.932.932,0,0,1,.932-.932H158.46a.932.932,0,0,1,.932.932v14.8h2.564a.932.932,0,0,1,.932.932v6.357A.932.932,0,0,1,161.956-461.594Z"
      data-name="Path 65"
      fill="#2a2b2c"
      id="Path_65" transform="translate(-20.269 -10.22)"/>
    <path
      d="M159.665-485.074a.928.928,0,0,1-.709-.327l-4.4-5.151h-8.371l-4.4,5.151a.929.929,0,0,1-1.315.1.934.934,0,0,1-.1-1.315l4.677-5.477a.931.931,0,0,1,.709-.327h9.23a.933.933,0,0,1,.709.327l4.676,5.477a.934.934,0,0,1-.1,1.315A.929.929,0,0,1,159.665-485.074Z"
      data-name="Path 66"
      fill="#2a2b2c"
      id="Path_66" transform="translate(-21.234 -8.829)"/>
    <path
      d="M156.177-494.72a.932.932,0,0,1-.932-.932V-505.6l-3.683-4.928-3.682,4.928v9.945a.932.932,0,0,1-.932.932.932.932,0,0,1-.932-.932v-10.254a.935.935,0,0,1,.186-.559l4.615-6.176a.967.967,0,0,1,1.494,0l4.615,6.176a.936.936,0,0,1,.186.559v10.254A.932.932,0,0,1,156.177-494.72Z"
      data-name="Path 67"
      fill="#2a2b2c"
      id="Path_67" transform="translate(-22.422 -4.66)"/>
    <path
      d="M157.961-504H144.21a.932.932,0,0,1-.932-.932.933.933,0,0,1,.932-.932h13.751a.933.933,0,0,1,.932.932A.932.932,0,0,1,157.961-504Z"
      data-name="Path 68"
      fill="#2a2b2c"
      id="Path_68" transform="translate(-21.867 -6.105)"/>
    <path
      d="M152.734-512.429a.933.933,0,0,1-.932-.932v-5.011a.932.932,0,0,1,.932-.932.932.932,0,0,1,.932.932v5.011A.932.932,0,0,1,152.734-512.429Z"
      data-name="Path 69"
      fill="#2a2b2c"
      id="Path_69" transform="translate(-23.594 -3.382)"/>
    <path
      d="M182.643-445.937a.933.933,0,0,1-.932-.932v-6.06a.93.93,0,0,1,.323-.7l2.918-2.519V-462.8a.933.933,0,0,1,.933-.932.933.933,0,0,1,.932.932v7.079a.93.93,0,0,1-.323.7l-2.919,2.519v5.632A.932.932,0,0,1,182.643-445.937Z"
      data-name="Path 70"
      fill="#2a2b2c"
      id="Path_70" transform="translate(-29.653 -14.638)"/>
    <path
      d="M197-445.937a.933.933,0,0,1-.932-.932V-452.5l-2.918-2.519a.93.93,0,0,1-.323-.7V-462.8a.933.933,0,0,1,.932-.932.933.933,0,0,1,.932.932v6.652l2.918,2.519a.927.927,0,0,1,.323.7v6.06A.932.932,0,0,1,197-445.937Z"
      data-name="Path 71"
      fill="#2a2b2c"
      id="Path_71" transform="translate(-31.904 -14.638)"/>
    <path
      d="M194.865-461.873H183.228a.932.932,0,0,1-.932-.932.932.932,0,0,1,.932-.932h11.637a.932.932,0,0,1,.932.932A.932.932,0,0,1,194.865-461.873Z"
      data-name="Path 72"
      fill="#2a2b2c"
      id="Path_72" transform="translate(-29.771 -14.638)"/>
    <path
      d="M186.674-466.291a.932.932,0,0,1-.93-.891l-.128-2.942a.932.932,0,0,1,.257-.686.936.936,0,0,1,.674-.288h.743v-2.3a.9.9,0,0,1,.03-.234l1.069-4.113v-6.873a.932.932,0,0,1,.932-.932.932.932,0,0,1,.932.932v6.992a.9.9,0,0,1-.03.234l-1.069,4.113v3.11a.932.932,0,0,1-.932.932h-.7l.086,1.969a.932.932,0,0,1-.89.973Z"
      data-name="Path 73"
      fill="#2a2b2c"
      id="Path_73" transform="translate(-30.444 -10.22)"/>
    <path
      d="M192.8-464.515h-.042a.932.932,0,0,1-.89-.973l.086-1.969h-.7a.932.932,0,0,1-.932-.932v-3.11l-1.069-4.113a.93.93,0,0,1,.667-1.136.929.929,0,0,1,1.136.667l1.1,4.229a.894.894,0,0,1,.03.234v2.3h.743a.933.933,0,0,1,.673.288.929.929,0,0,1,.258.686l-.128,2.943A.932.932,0,0,1,192.8-464.515Z"
      data-name="Path 74"
      fill="#2a2b2c"
      id="Path_74" transform="translate(-31.174 -11.996)"/>
    <path
      d="M108.614-376.756h-8.39a.935.935,0,0,1-.724-.344.933.933,0,0,1-.189-.778c.045-.214,1.132-5.229,5.108-5.229s5.064,5.015,5.108,5.229a.93.93,0,0,1-.19.778A.932.932,0,0,1,108.614-376.756Zm-7.12-1.864h5.846c-.447-1.1-1.348-2.622-2.921-2.622S101.936-379.724,101.494-378.621Z"
      data-name="Path 75"
      fill="#2a2b2c"
      id="Path_75" transform="translate(-12.957 -30.972)"/>
    <g data-name="Group 2" id="Group_2" transform="translate(39.452 -415.933)">
      <path
        d="M47.5-370.038H41.431a.932.932,0,0,1-.727-.349.932.932,0,0,1-.183-.785l3.036-13.621a.968.968,0,0,1,1.821,0l3.036,13.621a.932.932,0,0,1-.183.785A.934.934,0,0,1,47.5-370.038ZM42.594-371.9h3.745l-1.872-8.4Z"
        data-name="Path 76"
        fill="#2a2b2c"
        id="Path_76" transform="translate(-40.498 385.433)"/>
      <g data-name="Group 1" id="Group_1" transform="translate(3.036 4.493)">
        <path
          d="M52.587-369.026H48.608a.932.932,0,0,1-.932-.932.933.933,0,0,1,.932-.932h2.677l-1.733-5.085-.636,1.865a.937.937,0,0,1-1.184.581.934.934,0,0,1-.581-1.183l1.519-4.454a.931.931,0,0,1,.882-.631h0a.932.932,0,0,1,.883.631l3.035,8.908a.936.936,0,0,1-.124.844A.937.937,0,0,1,52.587-369.026Z"
          data-name="Path 77"
          fill="#2a2b2c"
          id="Path_77" transform="translate(-44.872 379.798)"/>
        <path
          d="M45.238-361.6a.932.932,0,0,1-.932-.932v-5a.932.932,0,0,1,.932-.932.933.933,0,0,1,.932.932v5A.933.933,0,0,1,45.238-361.6Z"
          data-name="Path 78"
          fill="#2a2b2c"
          id="Path_78" transform="translate(-44.306 377.502)"/>
        <path
          d="M49.8-361.6a.933.933,0,0,1-.932-.932v-5a.933.933,0,0,1,.932-.932.932.932,0,0,1,.932.932v5A.932.932,0,0,1,49.8-361.6Z"
          data-name="Path 79"
          fill="#2a2b2c"
          id="Path_79" transform="translate(-45.231 377.502)"/>
      </g>
    </g>
    <g data-name="Group 3" id="Group_3" transform="translate(52.37 -416.762)">
      <path
        d="M63.3-373.277a6.6,6.6,0,0,1-6.6-6.6,6.6,6.6,0,0,1,6.6-6.6,6.606,6.606,0,0,1,6.6,6.6A6.605,6.605,0,0,1,63.3-373.277Zm0-11.33a4.738,4.738,0,0,0-4.733,4.733,4.738,4.738,0,0,0,4.733,4.733,4.738,4.738,0,0,0,4.734-4.733A4.738,4.738,0,0,0,63.3-384.607Z"
        data-name="Path 80"
        fill="#2a2b2c"
        id="Path_80" transform="translate(-56.698 386.472)"/>
      <path
        d="M64.734-362.437a.933.933,0,0,1-.932-.932v-7.809a.933.933,0,0,1,.932-.932.932.932,0,0,1,.932.932v7.809A.932.932,0,0,1,64.734-362.437Z"
        data-name="Path 81"
        fill="#2a2b2c"
        id="Path_81" transform="translate(-58.137 383.563)"/>
    </g>
    <g data-name="Group 5" id="Group_5" transform="translate(199.114 -415.933)">
      <path
        d="M252.425-370.038h-6.072a.932.932,0,0,1-.727-.349.935.935,0,0,1-.183-.785l3.036-13.621a.968.968,0,0,1,1.821,0l3.036,13.621a.935.935,0,0,1-.183.785A.932.932,0,0,1,252.425-370.038Zm-4.909-1.864h3.746l-1.873-8.4Z"
        data-name="Path 82"
        fill="#2a2b2c"
        id="Path_82" transform="translate(-241.673 385.433)"/>
      <g data-name="Group 4" id="Group_4" transform="translate(0 4.558)">
        <path
          d="M245.634-369.01h-3.98a.935.935,0,0,1-.758-.389.931.931,0,0,1-.124-.844l3.036-8.908a.971.971,0,0,1,1.765,0l1.517,4.454a.932.932,0,0,1-.581,1.183.935.935,0,0,1-1.183-.581l-.635-1.865-1.734,5.085h2.678a.932.932,0,0,1,.932.932A.932.932,0,0,1,245.634-369.01Z"
          data-name="Path 83"
          fill="#2a2b2c"
          id="Path_83" transform="translate(-240.721 379.716)"/>
        <path
          d="M250.16-361.6a.933.933,0,0,1-.932-.932v-5a.933.933,0,0,1,.932-.932.932.932,0,0,1,.932.932v5A.932.932,0,0,1,250.16-361.6Z"
          data-name="Path 84"
          fill="#2a2b2c"
          id="Path_84" transform="translate(-242.444 377.437)"/>
        <path
          d="M245.6-361.6a.933.933,0,0,1-.932-.932v-5a.933.933,0,0,1,.932-.932.933.933,0,0,1,.932.932v5A.933.933,0,0,1,245.6-361.6Z"
          data-name="Path 85"
          fill="#2a2b2c"
          id="Path_85" transform="translate(-241.52 377.437)"/>
      </g>
    </g>
    <g data-name="Group 6" id="Group_6" transform="translate(184.687 -416.762)">
      <path
        d="M229.226-373.277a6.6,6.6,0,0,1-6.6-6.6,6.6,6.6,0,0,1,6.6-6.6,6.6,6.6,0,0,1,6.6,6.6A6.6,6.6,0,0,1,229.226-373.277Zm0-11.33a4.738,4.738,0,0,0-4.733,4.733,4.738,4.738,0,0,0,4.733,4.733,4.738,4.738,0,0,0,4.732-4.733A4.738,4.738,0,0,0,229.226-384.607Z"
        data-name="Path 86"
        fill="#2a2b2c"
        id="Path_86" transform="translate(-222.629 386.472)"/>
      <path
        d="M230.665-362.437a.932.932,0,0,1-.932-.932v-7.809a.932.932,0,0,1,.932-.932.933.933,0,0,1,.932.932v7.809A.933.933,0,0,1,230.665-362.437Z"
        data-name="Path 87"
        fill="#2a2b2c"
        id="Path_87" transform="translate(-224.068 383.563)"/>
    </g>
    <g data-name="Group 8" id="Group_8" transform="translate(456.876 -415.933)">
      <path
        d="M575.667-370.038H569.6a.933.933,0,0,1-.727-.349.934.934,0,0,1-.183-.785l3.036-13.621a.968.968,0,0,1,1.821,0l3.036,13.621a.931.931,0,0,1-.183.785A.931.931,0,0,1,575.667-370.038Zm-4.908-1.864H574.5l-1.873-8.4Z"
        data-name="Path 88"
        fill="#2a2b2c"
        id="Path_88" transform="translate(-564.916 385.433)"/>
      <g data-name="Group 7" id="Group_7" transform="translate(0 4.493)">
        <path
          d="M568.877-369.026H564.9a.938.938,0,0,1-.758-.389.933.933,0,0,1-.124-.844l3.036-8.908a.931.931,0,0,1,.882-.631h0a.932.932,0,0,1,.883.631l1.517,4.454a.933.933,0,0,1-.581,1.183.936.936,0,0,1-1.184-.581l-.635-1.865-1.733,5.085h2.678a.933.933,0,0,1,.932.932A.932.932,0,0,1,568.877-369.026Z"
          data-name="Path 89"
          fill="#2a2b2c"
          id="Path_89" transform="translate(-563.964 379.798)"/>
        <path
          d="M573.4-361.6a.933.933,0,0,1-.932-.932v-5a.933.933,0,0,1,.932-.932.932.932,0,0,1,.932.932v5A.932.932,0,0,1,573.4-361.6Z"
          data-name="Path 90"
          fill="#2a2b2c"
          id="Path_90" transform="translate(-565.687 377.502)"/>
        <path
          d="M568.837-361.6a.933.933,0,0,1-.932-.932v-5a.933.933,0,0,1,.932-.932.932.932,0,0,1,.932.932v5A.932.932,0,0,1,568.837-361.6Z"
          data-name="Path 91"
          fill="#2a2b2c"
          id="Path_91" transform="translate(-564.763 377.502)"/>
      </g>
    </g>
    <g data-name="Group 9" id="Group_9" transform="translate(442.447 -416.762)">
      <path
        d="M552.467-373.277a6.605,6.605,0,0,1-6.6-6.6,6.606,6.606,0,0,1,6.6-6.6,6.6,6.6,0,0,1,6.6,6.6A6.6,6.6,0,0,1,552.467-373.277Zm0-11.33a4.737,4.737,0,0,0-4.733,4.733,4.738,4.738,0,0,0,4.733,4.733,4.738,4.738,0,0,0,4.733-4.733A4.738,4.738,0,0,0,552.467-384.607Z"
        data-name="Path 92"
        fill="#2a2b2c"
        id="Path_92" transform="translate(-545.869 386.472)"/>
      <path
        d="M553.906-362.437a.932.932,0,0,1-.932-.932v-7.809a.932.932,0,0,1,.932-.932.933.933,0,0,1,.932.932v7.809A.933.933,0,0,1,553.906-362.437Z"
        data-name="Path 93"
        fill="#2a2b2c"
        id="Path_93" transform="translate(-547.308 383.563)"/>
    </g>
    <g data-name="Group 11" id="Group_11" transform="translate(359.631 -416.024)">
      <path
        d="M449.02-370.061h-6.072a.931.931,0,0,1-.726-.349.932.932,0,0,1-.183-.785l3.036-13.621a.933.933,0,0,1,.91-.73h0a.934.934,0,0,1,.911.73l3.036,13.621a.932.932,0,0,1-.183.785A.931.931,0,0,1,449.02-370.061Zm-4.909-1.864h3.745l-1.873-8.4Z"
        data-name="Path 94"
        fill="#2a2b2c"
        id="Path_94" transform="translate(-442.015 385.546)"/>
      <g data-name="Group 10" id="Group_10" transform="translate(3.035 4.649)">
        <path
          d="M454.1-369.01h-3.981a.932.932,0,0,1-.932-.932.933.933,0,0,1,.932-.932H452.8l-1.733-5.085-.635,1.865a.935.935,0,0,1-1.183.581.934.934,0,0,1-.581-1.183l1.518-4.454a.971.971,0,0,1,1.765,0l3.036,8.908a.934.934,0,0,1-.124.844A.938.938,0,0,1,454.1-369.01Z"
          data-name="Path 95"
          fill="#2a2b2c"
          id="Path_95" transform="translate(-446.388 379.716)"/>
        <path
          d="M446.754-361.6a.933.933,0,0,1-.932-.932v-5a.933.933,0,0,1,.932-.932.933.933,0,0,1,.933.932v5A.933.933,0,0,1,446.754-361.6Z"
          data-name="Path 96"
          fill="#2a2b2c"
          id="Path_96" transform="translate(-445.822 377.437)"/>
        <path
          d="M451.32-361.6a.932.932,0,0,1-.932-.932v-5a.932.932,0,0,1,.932-.932.933.933,0,0,1,.932.932v5A.933.933,0,0,1,451.32-361.6Z"
          data-name="Path 97"
          fill="#2a2b2c"
          id="Path_97" transform="translate(-446.747 377.437)"/>
      </g>
    </g>
    <g data-name="Group 12" id="Group_12" transform="translate(372.549 -416.762)">
      <path
        d="M464.812-373.277a6.6,6.6,0,0,1-6.6-6.6,6.605,6.605,0,0,1,6.6-6.6,6.6,6.6,0,0,1,6.6,6.6A6.6,6.6,0,0,1,464.812-373.277Zm0-11.33a4.738,4.738,0,0,0-4.733,4.733,4.738,4.738,0,0,0,4.733,4.733,4.738,4.738,0,0,0,4.732-4.733A4.738,4.738,0,0,0,464.812-384.607Z"
        data-name="Path 98"
        fill="#2a2b2c"
        id="Path_98" transform="translate(-458.215 386.472)"/>
      <path
        d="M466.251-362.437a.933.933,0,0,1-.932-.932v-7.809a.933.933,0,0,1,.932-.932.932.932,0,0,1,.932.932v7.809A.932.932,0,0,1,466.251-362.437Z"
        data-name="Path 99"
        fill="#2a2b2c"
        id="Path_99" transform="translate(-459.654 383.563)"/>
    </g>
    <path
      d="M142.553-379a.931.931,0,0,1-.584-.2l-2.8-2.244a.934.934,0,0,1-.144-1.311.934.934,0,0,1,1.311-.143l2.23,1.789,2.4-1.806a.928.928,0,0,1,1.305.183.932.932,0,0,1-.183,1.305l-2.974,2.243A.929.929,0,0,1,142.553-379Z"
      data-name="Path 100"
      fill="#2a2b2c"
      id="Path_100" transform="translate(-20.965 -30.971)"/>
    <path
      d="M149.7-379a.929.929,0,0,1-.584-.2l-2.8-2.244a.933.933,0,0,1-.144-1.311.934.934,0,0,1,1.311-.143l2.23,1.789,2.4-1.806a.927.927,0,0,1,1.305.183.931.931,0,0,1-.183,1.305l-2.974,2.243A.929.929,0,0,1,149.7-379Z"
      data-name="Path 101"
      fill="#2a2b2c"
      id="Path_101" transform="translate(-22.412 -30.971)"/>
    <path
      d="M186.354-379a.929.929,0,0,1-.584-.2l-2.8-2.244a.934.934,0,0,1-.143-1.311.934.934,0,0,1,1.311-.143l2.23,1.789,2.4-1.806a.927.927,0,0,1,1.3.183.931.931,0,0,1-.183,1.305l-2.974,2.243A.931.931,0,0,1,186.354-379Z"
      data-name="Path 102"
      fill="#2a2b2c"
      id="Path_102" transform="translate(-29.838 -30.971)"/>
    <path
      d="M193.5-379a.933.933,0,0,1-.584-.2l-2.8-2.244a.934.934,0,0,1-.143-1.311.934.934,0,0,1,1.311-.143l2.23,1.789,2.4-1.806a.926.926,0,0,1,1.3.183.931.931,0,0,1-.183,1.305l-2.974,2.243A.931.931,0,0,1,193.5-379Z"
      data-name="Path 103"
      fill="#2a2b2c"
      id="Path_103" transform="translate(-31.285 -30.971)"/>
    <path d="M260.364-360.159" data-name="Path 104" fill="#2a2b2c" id="Path_104"
          transform="translate(-45.586 -35.621)"/>
    <path
      d="M260.128-364.645a.932.932,0,0,1-.932-.932v-20.4a.932.932,0,0,1,.932-.932h43a.932.932,0,0,1,.932.932v20.393a.932.932,0,0,1-.932.932.933.933,0,0,1-.932-.932v-19.461H261.06v19.466A.933.933,0,0,1,260.128-364.645Z"
      data-name="Path 105"
      fill="#2a2b2c"
      id="Path_105" transform="translate(-45.349 -30.202)"/>
    <path
      d="M379.571-364.645a.932.932,0,0,1-.932-.932v-20.4a.932.932,0,0,1,.932-.932h43a.932.932,0,0,1,.932.932v20.393a.932.932,0,0,1-.932.932.933.933,0,0,1-.932-.932v-19.461H380.5v19.466A.933.933,0,0,1,379.571-364.645Z"
      data-name="Path 106"
      fill="#2a2b2c"
      id="Path_106" transform="translate(-69.546 -30.202)"/>
    <g data-name="Group 13" id="Group_13" transform="translate(217.629 -411.096)">
      <path
        d="M264.871-363.907a.933.933,0,0,1-.932-.932v-8.709a.922.922,0,0,1,.1-.429c.465-.9,2.922-5.379,5.63-5.389h0a.933.933,0,0,1,.933.928.933.933,0,0,1-.929.936c-1.128,0-2.931,2.429-3.877,4.184v8.479A.933.933,0,0,1,264.871-363.907Z"
        data-name="Path 107"
        fill="#2a2b2c"
        id="Path_107" transform="translate(-263.939 379.367)"/>
      <path
        d="M275.7-363.907a.933.933,0,0,1-.932-.932v-8.478c-.95-1.755-2.754-4.182-3.877-4.185a.932.932,0,0,1-.929-.936.932.932,0,0,1,.932-.928h0c2.708.01,5.165,4.491,5.63,5.389a.923.923,0,0,1,.1.429v8.709A.933.933,0,0,1,275.7-363.907Z"
        data-name="Path 108"
        fill="#2a2b2c"
        id="Path_108" transform="translate(-265.16 379.367)"/>
    </g>
    <g data-name="Group 14" id="Group_14" transform="translate(230.501 -411.045)">
      <path
        d="M281.013-363.841a.932.932,0,0,1-.932-.932v-8.711a.929.929,0,0,1,.1-.428c.465-.9,2.922-5.38,5.631-5.39h0a.933.933,0,0,1,.932.929.932.932,0,0,1-.928.935c-1.128,0-2.931,2.429-3.877,4.184v8.481A.933.933,0,0,1,281.013-363.841Z"
        data-name="Path 109"
        fill="#2a2b2c"
        id="Path_109" transform="translate(-280.081 379.302)"/>
      <path
        d="M291.846-363.841a.933.933,0,0,1-.932-.932v-8.479c-.951-1.755-2.754-4.182-3.878-4.186a.932.932,0,0,1-.929-.935.933.933,0,0,1,.932-.929h0c2.708.01,5.166,4.491,5.631,5.39a.929.929,0,0,1,.1.428v8.711A.932.932,0,0,1,291.846-363.841Z"
        data-name="Path 110"
        fill="#2a2b2c"
        id="Path_110" transform="translate(-281.302 379.302)"/>
    </g>
    <g data-name="Group 15" id="Group_15" transform="translate(243.372 -411.096)">
      <path
        d="M297.154-363.907a.933.933,0,0,1-.932-.932v-8.709a.922.922,0,0,1,.1-.429c.465-.9,2.922-5.379,5.63-5.389h0a.932.932,0,0,1,.932.928.932.932,0,0,1-.929.936c-1.128,0-2.93,2.429-3.877,4.184v8.479A.932.932,0,0,1,297.154-363.907Z"
        data-name="Path 111"
        fill="#2a2b2c"
        id="Path_111" transform="translate(-296.222 379.367)"/>
      <path
        d="M307.988-363.907a.932.932,0,0,1-.932-.932v-8.478c-.951-1.755-2.754-4.182-3.879-4.185a.932.932,0,0,1-.928-.936.932.932,0,0,1,.932-.928h0c2.709.01,5.166,4.491,5.631,5.389a.942.942,0,0,1,.1.429v8.709A.933.933,0,0,1,307.988-363.907Z"
        data-name="Path 112"
        fill="#2a2b2c"
        id="Path_112" transform="translate(-297.443 379.367)"/>
    </g>
    <g data-name="Group 16" id="Group_16" transform="translate(312.915 -411.096)">
      <path
        d="M384.364-363.907a.933.933,0,0,1-.932-.932v-8.709a.92.92,0,0,1,.1-.429c.465-.9,2.922-5.379,5.63-5.389h0a.932.932,0,0,1,.932.928.933.933,0,0,1-.929.936c-1.127,0-2.93,2.429-3.877,4.185v8.478A.932.932,0,0,1,384.364-363.907Z"
        data-name="Path 113"
        fill="#2a2b2c"
        id="Path_113" transform="translate(-383.432 379.367)"/>
      <path
        d="M395.2-363.907a.933.933,0,0,1-.932-.932v-8.478c-.949-1.755-2.753-4.182-3.877-4.185a.932.932,0,0,1-.928-.936.932.932,0,0,1,.932-.928h0c2.709.01,5.166,4.491,5.631,5.389a.932.932,0,0,1,.1.429v8.709A.932.932,0,0,1,395.2-363.907Z"
        data-name="Path 114"
        fill="#2a2b2c"
        id="Path_114" transform="translate(-384.653 379.367)"/>
    </g>
    <g data-name="Group 17" id="Group_17" transform="translate(325.787 -411.045)">
      <path
        d="M400.506-363.841a.933.933,0,0,1-.932-.932v-8.711a.922.922,0,0,1,.1-.428c.465-.9,2.922-5.38,5.63-5.39h0a.933.933,0,0,1,.932.929.932.932,0,0,1-.929.935c-1.128,0-2.93,2.429-3.877,4.186v8.479A.932.932,0,0,1,400.506-363.841Z"
        data-name="Path 115"
        fill="#2a2b2c"
        id="Path_115" transform="translate(-399.574 379.302)"/>
      <path
        d="M411.34-363.841a.932.932,0,0,1-.932-.932v-8.479c-.95-1.755-2.754-4.182-3.879-4.186a.932.932,0,0,1-.928-.935.933.933,0,0,1,.932-.929h0c2.708.01,5.166,4.491,5.631,5.39a.94.94,0,0,1,.1.428v8.711A.933.933,0,0,1,411.34-363.841Z"
        data-name="Path 116"
        fill="#2a2b2c"
        id="Path_116" transform="translate(-400.795 379.302)"/>
    </g>
    <g data-name="Group 18" id="Group_18" transform="translate(338.659 -411.096)">
      <path
        d="M416.648-363.907a.932.932,0,0,1-.932-.932v-8.709a.932.932,0,0,1,.1-.429c.465-.9,2.923-5.379,5.631-5.389h0a.932.932,0,0,1,.932.928.933.933,0,0,1-.929.936c-1.128,0-2.93,2.429-3.878,4.185v8.478A.933.933,0,0,1,416.648-363.907Z"
        data-name="Path 117"
        fill="#2a2b2c"
        id="Path_117" transform="translate(-415.716 379.367)"/>
      <path
        d="M427.481-363.907a.933.933,0,0,1-.932-.932v-8.478c-.949-1.755-2.753-4.182-3.877-4.185a.932.932,0,0,1-.928-.936.932.932,0,0,1,.932-.928h0c2.709.01,5.165,4.491,5.631,5.389a.932.932,0,0,1,.1.429v8.709A.932.932,0,0,1,427.481-363.907Z"
        data-name="Path 118"
        fill="#2a2b2c"
        id="Path_118" transform="translate(-416.937 379.367)"/>
    </g>
    <g data-name="Group 19" id="Group_19" transform="translate(264.317 -411.096)">
      <path
        d="M323.42-363.907a.933.933,0,0,1-.932-.932v-8.709a.926.926,0,0,1,.118-.453c.5-.895,3.119-5.355,5.967-5.365h0a.931.931,0,0,1,.932.928.933.933,0,0,1-.929.936c-1.258,0-3.178,2.392-4.228,4.2v8.463A.932.932,0,0,1,323.42-363.907Z"
        data-name="Path 119"
        fill="#2a2b2c"
        id="Path_119" transform="translate(-322.488 379.367)"/>
      <path
        d="M335.043-363.907a.933.933,0,0,1-.932-.932V-373.3c-1.049-1.809-2.969-4.2-4.228-4.2a.932.932,0,0,1-.928-.936.931.931,0,0,1,.932-.928h0c2.849.01,5.471,4.47,5.968,5.365a.924.924,0,0,1,.117.453v8.709A.932.932,0,0,1,335.043-363.907Z"
        data-name="Path 120"
        fill="#2a2b2c"
        id="Path_120" transform="translate(-323.798 379.367)"/>
    </g>
    <g data-name="Group 20" id="Group_20" transform="translate(278.128 -411.045)">
      <path
        d="M340.739-363.841a.932.932,0,0,1-.932-.932v-8.711a.928.928,0,0,1,.117-.453c.5-.894,3.119-5.355,5.968-5.365h0a.932.932,0,0,1,.932.929.932.932,0,0,1-.928.935c-1.259,0-3.179,2.391-4.228,4.2v8.465A.933.933,0,0,1,340.739-363.841Z"
        data-name="Path 121"
        fill="#2a2b2c"
        id="Path_121" transform="translate(-339.807 379.302)"/>
      <path
        d="M352.362-363.841a.932.932,0,0,1-.932-.932v-8.465c-1.049-1.809-2.97-4.2-4.228-4.2a.932.932,0,0,1-.929-.935.932.932,0,0,1,.932-.929h0c2.848.01,5.471,4.471,5.967,5.365a.92.92,0,0,1,.118.453v8.711A.933.933,0,0,1,352.362-363.841Z"
        data-name="Path 122"
        fill="#2a2b2c"
        id="Path_122" transform="translate(-341.117 379.302)"/>
    </g>
    <g data-name="Group 21" id="Group_21" transform="translate(291.939 -411.096)">
      <path
        d="M358.059-363.907a.932.932,0,0,1-.932-.932v-8.709a.924.924,0,0,1,.117-.453c.5-.895,3.119-5.355,5.968-5.365h0a.931.931,0,0,1,.932.928.932.932,0,0,1-.928.936c-1.259,0-3.179,2.392-4.228,4.2v8.463A.933.933,0,0,1,358.059-363.907Z"
        data-name="Path 123"
        fill="#2a2b2c"
        id="Path_123" transform="translate(-357.127 379.367)"/>
      <path
        d="M369.682-363.907a.932.932,0,0,1-.932-.932V-373.3c-1.049-1.809-2.97-4.2-4.228-4.2a.933.933,0,0,1-.929-.936.931.931,0,0,1,.932-.928h0c2.848.01,5.47,4.47,5.967,5.365a.925.925,0,0,1,.118.453v8.709A.933.933,0,0,1,369.682-363.907Z"
        data-name="Path 124"
        fill="#2a2b2c"
        id="Path_124" transform="translate(-358.437 379.367)"/>
    </g>
    <path
      d="M366.024-365.717a.932.932,0,0,1-.932-.932v-23.687H314.983v3.289a.932.932,0,0,1-.932.932.932.932,0,0,1-.932-.932v-4.222a.932.932,0,0,1,.932-.932h51.973a.932.932,0,0,1,.932.932v24.62A.933.933,0,0,1,366.024-365.717Z"
      data-name="Path 125"
      fill="#2a2b2c"
      id="Path_125" transform="translate(-56.273 -29.129)"/>
    <path
      d="M365.184-399.211a.932.932,0,0,1-.932-.932v-34H316.3v34a.932.932,0,0,1-.932.932.933.933,0,0,1-.932-.932v-34.933a.933.933,0,0,1,.932-.932h49.817a.933.933,0,0,1,.932.932v34.933A.933.933,0,0,1,365.184-399.211Z"
      data-name="Path 126"
      fill="#2a2b2c"
      id="Path_126" transform="translate(-56.539 -20.255)"/>
    <path
      d="M364.23-434.95a.93.93,0,0,1-.725-.344.934.934,0,0,1,.137-1.313l1.872-1.516H313.206l1.809,1.529a.934.934,0,0,1,.111,1.314.938.938,0,0,1-1.315.111l-3.754-3.173a.935.935,0,0,1-.273-1.033.931.931,0,0,1,.875-.612h57.486a.933.933,0,0,1,.879.62.935.935,0,0,1-.291,1.037l-3.915,3.173A.933.933,0,0,1,364.23-434.95Z"
      data-name="Path 127"
      fill="#2a2b2c"
      id="Path_127" transform="translate(-55.586 -19.449)"/>
    <path
      d="M354.1-442.563a.933.933,0,0,1-.932-.932v-16.547H335.807V-443.5a.932.932,0,0,1-.932.932.933.933,0,0,1-.932-.932v-17.48a.933.933,0,0,1,.932-.932H354.1a.932.932,0,0,1,.932.932v17.48A.932.932,0,0,1,354.1-442.563Z"
      data-name="Path 128"
      fill="#2a2b2c"
      id="Path_128" transform="translate(-60.491 -15.009)"/>
    <path
      d="M294.053-427.6a3.3,3.3,0,0,1-3.292-3.292,3.3,3.3,0,0,1,3.292-3.292,3.3,3.3,0,0,1,3.292,3.292A3.3,3.3,0,0,1,294.053-427.6Zm0-4.719a1.43,1.43,0,0,0-1.427,1.427,1.429,1.429,0,0,0,1.427,1.427,1.43,1.43,0,0,0,1.427-1.427A1.43,1.43,0,0,0,294.053-432.317Z"
      data-name="Path 129"
      fill="#2a2b2c"
      id="Path_129" transform="translate(-51.744 -20.626)"/>
    <path
      d="M271.914-427.6a3.3,3.3,0,0,1-3.292-3.292,3.3,3.3,0,0,1,3.292-3.292,3.3,3.3,0,0,1,3.292,3.292A3.3,3.3,0,0,1,271.914-427.6Zm0-4.719a1.43,1.43,0,0,0-1.428,1.427,1.43,1.43,0,0,0,1.428,1.427,1.43,1.43,0,0,0,1.427-1.427A1.43,1.43,0,0,0,271.914-432.317Z"
      data-name="Path 130"
      fill="#2a2b2c"
      id="Path_130" transform="translate(-47.259 -20.626)"/>
    <path
      d="M269.553-394.02a.932.932,0,0,1-.932-.932V-430.29a.933.933,0,0,1,.932-.932.932.932,0,0,1,.932.932v35.338A.932.932,0,0,1,269.553-394.02Z"
      data-name="Path 131"
      fill="#2a2b2c"
      id="Path_131" transform="translate(-47.259 -21.225)"/>
    <path
      d="M275.472-394.02a.932.932,0,0,1-.932-.932V-430.29a.932.932,0,0,1,.932-.932.933.933,0,0,1,.932.932v35.338A.932.932,0,0,1,275.472-394.02Z"
      data-name="Path 132"
      fill="#2a2b2c"
      id="Path_132" transform="translate(-48.458 -21.225)"/>
    <path
      d="M291.693-394.02a.932.932,0,0,1-.932-.932V-430.29a.932.932,0,0,1,.932-.932.933.933,0,0,1,.932.932v35.338A.932.932,0,0,1,291.693-394.02Z"
      data-name="Path 133"
      fill="#2a2b2c"
      id="Path_133" transform="translate(-51.744 -21.225)"/>
    <path
      d="M297.611-394.02a.932.932,0,0,1-.932-.932V-430.29a.933.933,0,0,1,.932-.932.933.933,0,0,1,.932.932v35.338A.932.932,0,0,1,297.611-394.02Z"
      data-name="Path 134"
      fill="#2a2b2c"
      id="Path_134" transform="translate(-52.943 -21.225)"/>
    <path
      d="M305.153-412.24h-40.2a.933.933,0,0,1-.932-.933.933.933,0,0,1,.932-.932h40.2a.932.932,0,0,1,.932.932A.932.932,0,0,1,305.153-412.24Z"
      data-name="Path 135"
      fill="#2a2b2c"
      id="Path_135" transform="translate(-46.326 -24.692)"/>
    <path
      d="M305.153-421.56h-40.2a.932.932,0,0,1-.932-.932.933.933,0,0,1,.932-.932h40.2a.932.932,0,0,1,.932.932A.932.932,0,0,1,305.153-421.56Z"
      data-name="Path 136"
      fill="#2a2b2c"
      id="Path_136" transform="translate(-46.326 -22.805)"/>
    <path
      d="M284.595-423.646a5.814,5.814,0,0,1-4.71-2.447,3.668,3.668,0,0,0-1.528-1.262,2.024,2.024,0,0,0-2.167.4.937.937,0,0,1-1.307.114.924.924,0,0,1-.139-1.29,3.826,3.826,0,0,1,4.137-1.012,5.175,5.175,0,0,1,2.4,1.819c.876,1,1.667,1.875,3.43,1.814a2.654,2.654,0,0,0,2.761-2.739.932.932,0,0,1,.932-.932.933.933,0,0,1,.932.932,4.492,4.492,0,0,1-4.581,4.6Z"
      data-name="Path 137"
      fill="#2a2b2c"
      id="Path_137" transform="translate(-48.458 -21.605)"/>
    <path
      d="M301.424-423.646h-.163a4.492,4.492,0,0,1-4.581-4.6.933.933,0,0,1,.932-.932.933.933,0,0,1,.932.932,2.645,2.645,0,0,0,2.761,2.739,4.041,4.041,0,0,0,3.43-1.814,5.178,5.178,0,0,1,2.4-1.819,3.835,3.835,0,0,1,4.137,1.012.931.931,0,0,1-.147,1.31.933.933,0,0,1-1.3-.135,2.022,2.022,0,0,0-2.166-.4,3.663,3.663,0,0,0-1.528,1.262A5.819,5.819,0,0,1,301.424-423.646Z"
      data-name="Path 138"
      fill="#2a2b2c"
      id="Path_138" transform="translate(-52.943 -21.605)"/>
    <path
      d="M411.357-398.929h-4.652a.932.932,0,0,1-.932-.932v-5.557c0-2.675,1.43-4.768,3.257-4.768s3.259,2.093,3.259,4.768v5.557A.932.932,0,0,1,411.357-398.929Zm-3.72-1.864h2.788v-4.625c0-1.635-.75-2.9-1.395-2.9-.568,0-1.393,1.131-1.393,2.9Z"
      data-name="Path 139"
      fill="#2a2b2c"
      id="Path_139" transform="translate(-75.042 -25.486)"/>
    <path
      d="M493.229-437.373h-4.653a.933.933,0,0,1-.932-.932v-5.557c0-2.674,1.431-4.769,3.258-4.769s3.259,2.1,3.259,4.769v5.557A.933.933,0,0,1,493.229-437.373Zm-3.721-1.864H492.3v-4.625c0-1.636-.75-2.905-1.395-2.905-.569,0-1.394,1.132-1.394,2.905Z"
      data-name="Path 140"
      fill="#2a2b2c"
      id="Path_140" transform="translate(-91.628 -17.698)"/>
    <path
      d="M493.229-409.25h-4.653a.933.933,0,0,1-.932-.932v-5.557c0-2.674,1.431-4.769,3.258-4.769s3.259,2.1,3.259,4.769v5.557A.933.933,0,0,1,493.229-409.25Zm-3.721-1.864H492.3v-4.625c0-1.636-.75-2.9-1.395-2.9-.569,0-1.394,1.131-1.394,2.9Z"
      data-name="Path 141"
      fill="#2a2b2c"
      id="Path_141" transform="translate(-91.628 -23.395)"/>
    <path
      d="M493.229-385.563h-4.653a.932.932,0,0,1-.932-.932v-5.556c0-2.675,1.431-4.769,3.258-4.769s3.259,2.095,3.259,4.769v5.556A.932.932,0,0,1,493.229-385.563Zm-3.721-1.864H492.3v-4.624c0-1.636-.75-2.9-1.395-2.9-.569,0-1.394,1.132-1.394,2.9Z"
      data-name="Path 142"
      fill="#2a2b2c"
      id="Path_142" transform="translate(-91.628 -28.194)"/>
    <path
      d="M528.3-437.373h-4.653a.933.933,0,0,1-.932-.932v-5.557c0-2.674,1.431-4.769,3.258-4.769s3.259,2.1,3.259,4.769v5.557A.933.933,0,0,1,528.3-437.373Zm-3.721-1.864h2.788v-4.625c0-1.636-.75-2.905-1.395-2.905-.568,0-1.394,1.132-1.394,2.905Z"
      data-name="Path 143"
      fill="#2a2b2c"
      id="Path_143" transform="translate(-98.732 -17.698)"/>
    <path
      d="M528.3-409.25h-4.653a.933.933,0,0,1-.932-.932v-5.557c0-2.674,1.431-4.769,3.258-4.769s3.259,2.1,3.259,4.769v5.557A.933.933,0,0,1,528.3-409.25Zm-3.721-1.864h2.788v-4.625c0-1.636-.75-2.9-1.395-2.9-.568,0-1.394,1.131-1.394,2.9Z"
      data-name="Path 144"
      fill="#2a2b2c"
      id="Path_144" transform="translate(-98.732 -23.395)"/>
    <path
      d="M528.3-385.563h-4.653a.932.932,0,0,1-.932-.932v-5.556c0-2.675,1.431-4.769,3.258-4.769s3.259,2.095,3.259,4.769v5.556A.932.932,0,0,1,528.3-385.563Zm-3.721-1.864h2.788v-4.624c0-1.636-.75-2.9-1.395-2.9-.568,0-1.394,1.132-1.394,2.9Z"
      data-name="Path 145"
      fill="#2a2b2c"
      id="Path_145" transform="translate(-98.732 -28.194)"/>
    <path
      d="M510.875-361.678h-4.653a.932.932,0,0,1-.932-.932v-5.159c0-2.52,1.431-4.493,3.258-4.493s3.26,1.974,3.26,4.493v5.159A.933.933,0,0,1,510.875-361.678Zm-3.721-1.864h2.788v-4.227c0-1.5-.737-2.629-1.395-2.629s-1.393,1.148-1.393,2.629Z"
      data-name="Path 146"
      fill="#2a2b2c"
      id="Path_146" transform="translate(-95.202 -33.169)"/>
    <path
      d="M510.875-406.763h-4.653a.932.932,0,0,1-.932-.932v-5.556c0-2.675,1.431-4.769,3.258-4.769s3.26,2.095,3.26,4.769v5.556A.932.932,0,0,1,510.875-406.763Zm-3.721-1.864h2.788v-4.624c0-1.636-.75-2.9-1.395-2.9-.568,0-1.393,1.132-1.393,2.9Z"
      data-name="Path 147"
      fill="#2a2b2c"
      id="Path_147" transform="translate(-95.202 -23.899)"/>
    <path
      d="M388.451-398.929H383.8a.933.933,0,0,1-.932-.932v-5.557c0-2.675,1.431-4.768,3.258-4.768s3.259,2.093,3.259,4.768v5.557A.933.933,0,0,1,388.451-398.929Zm-3.721-1.864h2.789v-4.625c0-1.635-.75-2.9-1.395-2.9-.568,0-1.394,1.131-1.394,2.9Z"
      data-name="Path 148"
      fill="#2a2b2c"
      id="Path_148" transform="translate(-70.402 -25.486)"/>
    <path
      d="M397.953-427.6a3.3,3.3,0,0,1-3.293-3.292,3.3,3.3,0,0,1,3.293-3.292,3.3,3.3,0,0,1,3.292,3.292A3.3,3.3,0,0,1,397.953-427.6Zm0-4.719a1.43,1.43,0,0,0-1.428,1.427,1.43,1.43,0,0,0,1.428,1.427,1.43,1.43,0,0,0,1.427-1.427A1.43,1.43,0,0,0,397.953-432.317Z"
      data-name="Path 149"
      fill="#2a2b2c"
      id="Path_149" transform="translate(-72.791 -20.626)"/>
    <path
      d="M346.606-481.923a3.3,3.3,0,0,1-3.292-3.292,3.3,3.3,0,0,1,3.292-3.292,3.3,3.3,0,0,1,3.293,3.292A3.3,3.3,0,0,1,346.606-481.923Zm0-4.719a1.43,1.43,0,0,0-1.427,1.427,1.43,1.43,0,0,0,1.427,1.427,1.429,1.429,0,0,0,1.427-1.427A1.429,1.429,0,0,0,346.606-486.642Z"
      data-name="Path 150"
      fill="#2a2b2c"
      id="Path_150" transform="translate(-62.39 -9.62)"/>
    <path
      d="M420.092-427.6a3.3,3.3,0,0,1-3.292-3.292,3.3,3.3,0,0,1,3.292-3.292,3.3,3.3,0,0,1,3.292,3.292A3.3,3.3,0,0,1,420.092-427.6Zm0-4.719a1.43,1.43,0,0,0-1.427,1.427,1.43,1.43,0,0,0,1.427,1.427,1.43,1.43,0,0,0,1.427-1.427A1.43,1.43,0,0,0,420.092-432.317Z"
      data-name="Path 151"
      fill="#2a2b2c"
      id="Path_151" transform="translate(-77.276 -20.626)"/>
    <path
      d="M423.65-394.02a.932.932,0,0,1-.932-.932V-430.29a.933.933,0,0,1,.932-.932.933.933,0,0,1,.932.932v35.338A.932.932,0,0,1,423.65-394.02Z"
      data-name="Path 152"
      fill="#2a2b2c"
      id="Path_152" transform="translate(-78.475 -21.225)"/>
    <path
      d="M417.732-394.02a.932.932,0,0,1-.932-.932V-430.29a.932.932,0,0,1,.932-.932.933.933,0,0,1,.932.932v35.338A.932.932,0,0,1,417.732-394.02Z"
      data-name="Path 153"
      fill="#2a2b2c"
      id="Path_153" transform="translate(-77.276 -21.225)"/>
    <path
      d="M401.511-394.02a.932.932,0,0,1-.932-.932V-430.29a.932.932,0,0,1,.932-.932.933.933,0,0,1,.932.932v35.338A.932.932,0,0,1,401.511-394.02Z"
      data-name="Path 154"
      fill="#2a2b2c"
      id="Path_154" transform="translate(-73.99 -21.225)"/>
    <path
      d="M395.592-394.02a.932.932,0,0,1-.932-.932V-430.29a.933.933,0,0,1,.932-.932.932.932,0,0,1,.932.932v35.338A.932.932,0,0,1,395.592-394.02Z"
      data-name="Path 155"
      fill="#2a2b2c"
      id="Path_155" transform="translate(-72.791 -21.225)"/>
    <path
      d="M418.041-412.24h-40.2a.932.932,0,0,1-.932-.933.932.932,0,0,1,.932-.932h40.2a.932.932,0,0,1,.932.932A.932.932,0,0,1,418.041-412.24Z"
      data-name="Path 156"
      fill="#2a2b2c"
      id="Path_156" transform="translate(-69.195 -24.692)"/>
    <path
      d="M418.041-421.56h-40.2a.932.932,0,0,1-.932-.932.932.932,0,0,1,.932-.932h40.2a.932.932,0,0,1,.932.932A.932.932,0,0,1,418.041-421.56Z"
      data-name="Path 157"
      fill="#2a2b2c"
      id="Path_157" transform="translate(-69.195 -22.805)"/>
    <path
      d="M405.324-423.646h-.163a4.492,4.492,0,0,1-4.581-4.6.932.932,0,0,1,.932-.932.933.933,0,0,1,.932.932,2.644,2.644,0,0,0,2.76,2.739,4,4,0,0,0,3.43-1.814,5.178,5.178,0,0,1,2.4-1.819,3.831,3.831,0,0,1,4.137,1.012.932.932,0,0,1-.147,1.31.934.934,0,0,1-1.3-.135,2.019,2.019,0,0,0-2.165-.4,3.669,3.669,0,0,0-1.529,1.262A5.817,5.817,0,0,1,405.324-423.646Z"
      data-name="Path 158"
      fill="#2a2b2c"
      id="Path_158" transform="translate(-73.99 -21.605)"/>
    <path
      d="M388.494-423.645a5.813,5.813,0,0,1-4.71-2.447,3.663,3.663,0,0,0-1.529-1.262,2.042,2.042,0,0,0-2.155.386.929.929,0,0,1-1.309.148.932.932,0,0,1-.147-1.31,3.834,3.834,0,0,1,4.135-1.012,5.176,5.176,0,0,1,2.4,1.819,4.006,4.006,0,0,0,3.43,1.814,2.653,2.653,0,0,0,2.76-2.739.933.933,0,0,1,.932-.932.932.932,0,0,1,.932.932,4.492,4.492,0,0,1-4.58,4.6Z"
      data-name="Path 159"
      fill="#2a2b2c"
      id="Path_159" transform="translate(-69.506 -21.605)"/>
    <path
      d="M353.363-404.54H334.875a.933.933,0,0,1-.932-.932v-20.535a.933.933,0,0,1,.932-.932h18.488a.933.933,0,0,1,.932.932v20.535A.933.933,0,0,1,353.363-404.54ZM335.807-406.4h16.623v-18.671H335.807Z"
      data-name="Path 160"
      fill="#2a2b2c"
      id="Path_160" transform="translate(-60.491 -22.092)"/>
    <path
      d="M353.363-418.395H334.875a.932.932,0,0,1-.932-.932.933.933,0,0,1,.932-.932h18.488a.933.933,0,0,1,.932.932A.932.932,0,0,1,353.363-418.395Z"
      data-name="Path 161"
      fill="#2a2b2c"
      id="Path_161" transform="translate(-60.491 -23.446)"/>
    <path
      d="M342.766-404.54a.933.933,0,0,1-.932-.932v-20.535a.933.933,0,0,1,.932-.932.933.933,0,0,1,.933.932v20.535A.933.933,0,0,1,342.766-404.54Z"
      data-name="Path 162"
      fill="#2a2b2c"
      id="Path_162" transform="translate(-62.09 -22.092)"/>
    <path
      d="M350.438-404.54a.933.933,0,0,1-.932-.932v-20.535a.933.933,0,0,1,.932-.932.933.933,0,0,1,.933.932v20.535A.933.933,0,0,1,350.438-404.54Z"
      data-name="Path 163"
      fill="#2a2b2c"
      id="Path_163" transform="translate(-63.644 -22.092)"/>
    <path
      d="M323.7-441.536a.933.933,0,0,1-.932-.932.933.933,0,0,1,.932-.932c2.285,0,6.076-7.5,8.04-12.827a.936.936,0,0,1,1.2-.553.934.934,0,0,1,.553,1.2C332.62-453.236,328.085-441.536,323.7-441.536Z"
      data-name="Path 164"
      fill="#2a2b2c"
      id="Path_164" transform="translate(-58.227 -16.036)"/>
    <path
      d="M367.9-441.535c-4.39,0-8.925-11.7-9.79-14.046a.935.935,0,0,1,.552-1.2.938.938,0,0,1,1.2.553c1.964,5.326,5.756,12.827,8.04,12.827a.933.933,0,0,1,.932.932A.933.933,0,0,1,367.9-441.535Z"
      data-name="Path 165"
      fill="#2a2b2c"
      id="Path_165" transform="translate(-65.376 -16.036)"/>
    <path
      d="M347.205-464.232a.933.933,0,0,1-.932-.932v-16.492a.933.933,0,0,1,.932-.932.932.932,0,0,1,.932.932v16.492A.932.932,0,0,1,347.205-464.232Z"
      data-name="Path 166"
      fill="#2a2b2c"
      id="Path_166" transform="translate(-62.989 -10.819)"/>
    <path
      d="M356.415-471.582a3.3,3.3,0,0,1-3.292-3.293,3.3,3.3,0,0,1,3.292-3.292,3.3,3.3,0,0,1,3.293,3.292A3.3,3.3,0,0,1,356.415-471.582Zm0-4.72a1.43,1.43,0,0,0-1.427,1.427,1.43,1.43,0,0,0,1.427,1.427,1.43,1.43,0,0,0,1.428-1.427A1.43,1.43,0,0,0,356.415-476.3Z"
      data-name="Path 167"
      fill="#2a2b2c"
      id="Path_167" transform="translate(-64.377 -11.715)"/>
    <path
      d="M356.92-462.55a.932.932,0,0,1-.932-.932v-6.992a.933.933,0,0,1,.932-.932.932.932,0,0,1,.932.932v6.992A.932.932,0,0,1,356.92-462.55Z"
      data-name="Path 168"
      fill="#2a2b2c"
      id="Path_168" transform="translate(-64.957 -13.085)"/>
    <path
      d="M336.2-471.582a3.3,3.3,0,0,1-3.293-3.293,3.3,3.3,0,0,1,3.293-3.292,3.3,3.3,0,0,1,3.292,3.292A3.3,3.3,0,0,1,336.2-471.582Zm0-4.72a1.43,1.43,0,0,0-1.427,1.427,1.429,1.429,0,0,0,1.427,1.427,1.43,1.43,0,0,0,1.427-1.427A1.43,1.43,0,0,0,336.2-476.3Z"
      data-name="Path 169"
      fill="#2a2b2c"
      id="Path_169" transform="translate(-60.281 -11.715)"/>
    <path
      d="M336.7-462.55a.932.932,0,0,1-.932-.932v-6.992a.932.932,0,0,1,.932-.932.933.933,0,0,1,.932.932v6.992A.932.932,0,0,1,336.7-462.55Z"
      data-name="Path 170"
      fill="#2a2b2c"
      id="Path_170" transform="translate(-60.861 -13.085)"/>
    <path
      d="M481.519-381.6a.933.933,0,0,1-.932-.932v-87.206a.932.932,0,0,1,.932-.932h15.906a.932.932,0,0,1,.932.932v74.694a.932.932,0,0,1-.932.932.933.933,0,0,1-.932-.932v-73.762H482.451v86.274A.932.932,0,0,1,481.519-381.6Z"
      data-name="Path 171"
      fill="#2a2b2c"
      id="Path_171" transform="translate(-90.198 -13.233)"/>
    <path
      d="M532.5-379.739a.933.933,0,0,1-.933-.932V-459.6H517.523v64.985a.933.933,0,0,1-.932.933.933.933,0,0,1-.932-.933v-65.917a.933.933,0,0,1,.932-.932H532.5a.933.933,0,0,1,.932.932v79.865A.933.933,0,0,1,532.5-379.739Z"
      data-name="Path 172"
      fill="#2a2b2c"
      id="Path_172" transform="translate(-97.303 -15.098)"/>
    <path
      d="M514.562-362.629a.933.933,0,0,1-.932-.932v-8.73a.935.935,0,0,1,.086-.391l1.136-2.459H498.73l1.424,2.369a.939.939,0,0,1,.133.481v8.721a.933.933,0,0,1-.932.932.933.933,0,0,1-.932-.932v-8.462l-2.139-3.56a.929.929,0,0,1-.012-.94.929.929,0,0,1,.81-.473h19.228a.933.933,0,0,1,.785.43.93.93,0,0,1,.061.893l-1.661,3.6v8.525A.933.933,0,0,1,514.562-362.629Z"
      data-name="Path 173"
      fill="#2a2b2c"
      id="Path_173" transform="translate(-93.351 -32.208)"/>
    <path
      d="M510.875-388.612h-4.653a.932.932,0,0,1-.932-.932v-15.765a.932.932,0,0,1,.932-.932.933.933,0,0,1,.932.932v14.832h2.788v-14.832a.933.933,0,0,1,.933-.932.933.933,0,0,1,.932.932v15.765A.933.933,0,0,1,510.875-388.612Z"
      data-name="Path 174"
      fill="#2a2b2c"
      id="Path_174" transform="translate(-95.202 -26.285)"/>
    <path
      d="M526.668-426.816H479.327a.932.932,0,0,1-.932-.932.933.933,0,0,1,.932-.932h47.341a.933.933,0,0,1,.932.932A.932.932,0,0,1,526.668-426.816Z"
      data-name="Path 175"
      fill="#2a2b2c"
      id="Path_175" transform="translate(-89.754 -21.74)"/>
    <path
      d="M496.981-399.7H479.327a.933.933,0,0,1-.932-.932.932.932,0,0,1,.932-.932h17.654a.932.932,0,0,1,.932.932A.932.932,0,0,1,496.981-399.7Z"
      data-name="Path 176"
      fill="#2a2b2c"
      id="Path_176" transform="translate(-89.754 -27.233)"/>
    <path
      d="M534.217-399.627H516.591a.933.933,0,0,1-.932-.932.932.932,0,0,1,.932-.932h17.626a.932.932,0,0,1,.932.932A.933.933,0,0,1,534.217-399.627Z"
      data-name="Path 177"
      fill="#2a2b2c"
      id="Path_177" transform="translate(-97.303 -27.248)"/>
    <path
      d="M510.486-442.206h-3.613a.932.932,0,0,1-.932-.932.933.933,0,0,1,.932-.932h3.613a.933.933,0,0,1,.932.932A.932.932,0,0,1,510.486-442.206Z"
      data-name="Path 178"
      fill="#2a2b2c"
      id="Path_178" transform="translate(-95.334 -18.622)"/>
    <path
      d="M501.466-430.585a.921.921,0,0,1-.62-.237.932.932,0,0,1-.076-1.316l5.828-6.53v-7.685a.933.933,0,0,1,.932-.932.933.933,0,0,1,.933.932v8.041a.928.928,0,0,1-.237.62l-6.064,6.795A.93.93,0,0,1,501.466-430.585Z"
      data-name="Path 179"
      fill="#2a2b2c"
      id="Path_179" transform="translate(-94.239 -17.971)"/>
    <path
      d="M515.068-428.542a.933.933,0,0,1-.7-.316l-6-6.795a.932.932,0,0,1,.082-1.316.931.931,0,0,1,1.316.082l6,6.8a.933.933,0,0,1-.082,1.316A.93.93,0,0,1,515.068-428.542Z"
      data-name="Path 180"
      fill="#2a2b2c"
      id="Path_180" transform="translate(-95.779 -20.013)"/>
    <path
      d="M497.425-453h-4.37a.933.933,0,0,1-.932-.932v-3.262H487v3.262a.932.932,0,0,1-.932.932h-4.544a.933.933,0,0,1-.932-.932.933.933,0,0,1,.932-.932h3.612v-3.262a.933.933,0,0,1,.932-.933h6.992a.932.932,0,0,1,.932.933v3.262h3.438a.932.932,0,0,1,.932.932A.932.932,0,0,1,497.425-453Z"
      data-name="Path 181"
      fill="#2a2b2c"
      id="Path_181" transform="translate(-90.198 -15.586)"/>
    <path
      d="M486.582-471.836H480.93a.933.933,0,0,1-.932-.932v-11.91a.933.933,0,0,1,.932-.932h5.652a.933.933,0,0,1,.932.932v11.91A.933.933,0,0,1,486.582-471.836Zm-4.72-1.864h3.787v-10.045h-3.787Z"
      data-name="Path 182"
      fill="#2a2b2c"
      id="Path_182" transform="translate(-90.079 -10.207)"/>
    <path
      d="M493.668-471.836h-5.65a.933.933,0,0,1-.933-.932v-11.91a.933.933,0,0,1,.933-.932h5.65a.933.933,0,0,1,.933.932v11.91A.933.933,0,0,1,493.668-471.836ZM488.95-473.7h3.786v-10.045H488.95Z"
      data-name="Path 183"
      fill="#2a2b2c"
      id="Path_183" transform="translate(-91.514 -10.207)"/>
    <path
      d="M500.755-471.836H495.1a.933.933,0,0,1-.932-.932v-11.91a.933.933,0,0,1,.932-.932h5.652a.933.933,0,0,1,.932.932v11.91A.933.933,0,0,1,500.755-471.836Zm-4.719-1.864h3.787v-10.045h-3.787Z"
      data-name="Path 184"
      fill="#2a2b2c"
      id="Path_184" transform="translate(-92.95 -10.207)"/>
    <path
      d="M497.883-487.574a.932.932,0,0,1-.915-.761l-1.91-10.252-1.909,10.252a.966.966,0,0,1-1.833,0l-1.909-10.251L487.5-488.335a.966.966,0,0,1-1.833,0l-1.909-10.252-1.91,10.252a.924.924,0,0,1-1.088.746.933.933,0,0,1-.745-1.088l2.825-15.173a.966.966,0,0,1,1.833,0l1.91,10.252,1.907-10.252a.966.966,0,0,1,1.833,0l1.909,10.253,1.91-10.253a.966.966,0,0,1,1.833,0l2.825,15.173a.933.933,0,0,1-.745,1.088A.979.979,0,0,1,497.883-487.574Z"
      data-name="Path 185"
      fill="#2a2b2c"
      id="Path_185" transform="translate(-90.079 -6.378)"/>
    <path
      d="M495.208-502.982a.932.932,0,0,1-.907-.721l-3.984-17.138L486.333-503.7a.928.928,0,0,1-1.12.7.932.932,0,0,1-.7-1.119l4.891-21.045a.967.967,0,0,1,1.816,0l4.892,21.045a.933.933,0,0,1-.7,1.119A.925.925,0,0,1,495.208-502.982Z"
      data-name="Path 186"
      fill="#2a2b2c"
      id="Path_186" transform="translate(-90.989 -2.065)"/>
    <path
      d="M522.187-467.027h-5.751a.93.93,0,0,1-.683-.3.93.93,0,0,1-.246-.7c.354-4.729,2.573-5.855,2.824-5.967a.94.94,0,0,1,.381-.081H519.9c.577.079,2.766.686,3.219,6.039a.932.932,0,0,1-.244.71A.927.927,0,0,1,522.187-467.027Zm-4.706-1.864h3.662c-.435-2.959-1.451-3.344-1.462-3.348l-.691.02C518.693-471.986,517.836-471.134,517.482-468.891Z"
      data-name="Path 187"
      fill="#2a2b2c"
      id="Path_187" transform="translate(-97.271 -12.543)"/>
    <path
      d="M529.853-473.871h-9.811a.932.932,0,0,1-.707-.325.929.929,0,0,1-.214-.75,6.151,6.151,0,0,1,4.607-5.04l2.218-.02c1.428.1,4.167,1.288,4.825,5.043a.931.931,0,0,1-.205.76A.93.93,0,0,1,529.853-473.871Zm-8.588-1.864h7.375a3.511,3.511,0,0,0-2.762-2.409l-1.954,0A4.5,4.5,0,0,0,521.265-475.735Z"
      data-name="Path 188"
      fill="#2a2b2c"
      id="Path_188" transform="translate(-98.002 -11.342)"/>
    <path
      d="M535.262-467.027h-5.75a.93.93,0,0,1-.683-.3.929.929,0,0,1-.247-.7c.353-4.729,2.572-5.855,2.824-5.967a.934.934,0,0,1,.381-.081h1.184c.578.079,2.768.686,3.219,6.039a.927.927,0,0,1-.242.71A.93.93,0,0,1,535.262-467.027Zm-4.706-1.864h3.662c-.435-2.959-1.45-3.344-1.463-3.348l-.691.02C531.767-471.986,530.911-471.132,530.556-468.891Z"
      data-name="Path 189"
      fill="#2a2b2c"
      id="Path_189" transform="translate(-99.92 -12.543)"/>
    <path
      d="M526.565-485.687a.933.933,0,0,1-.932-.932V-491.5a.933.933,0,0,1,.932-.932.933.933,0,0,1,.932.932v4.883A.933.933,0,0,1,526.565-485.687Z"
      data-name="Path 190"
      fill="#2a2b2c"
      id="Path_190" transform="translate(-99.323 -8.825)"/>
    <path
      d="M491.56-526.092a.932.932,0,0,1-.932-.932v-8.04a.932.932,0,0,1,.932-.932.933.933,0,0,1,.932.932v8.04A.932.932,0,0,1,491.56-526.092Z"
      data-name="Path 191"
      fill="#2a2b2c"
      id="Path_191" transform="translate(-92.232 0)"/>
    <path
      d="M495.209-513.966h-9.784a.933.933,0,0,1-.932-.933.933.933,0,0,1,.932-.932h9.784a.932.932,0,0,1,.932.932A.932.932,0,0,1,495.209-513.966Z"
      data-name="Path 192"
      fill="#2a2b2c"
      id="Path_192" transform="translate(-90.989 -4.085)"/>
    <path
      d="M516.436-459.909a.932.932,0,0,1-.932-.932v-5.8a.932.932,0,0,1,.932-.932.932.932,0,0,1,.932.932v5.8A.932.932,0,0,1,516.436-459.909Z"
      data-name="Path 193"
      fill="#2a2b2c"
      id="Path_193" transform="translate(-97.271 -13.861)"/>
    <path
      d="M536.539-459.909h-.023a.933.933,0,0,1-.91-.955l.148-5.8a.918.918,0,0,1,.955-.909.933.933,0,0,1,.909.955l-.147,5.8A.933.933,0,0,1,536.539-459.909Z"
      data-name="Path 194"
      fill="#2a2b2c"
      id="Path_194" transform="translate(-101.343 -13.861)"/>
    <path
      d="M523.648-460.841a.932.932,0,0,1-.932-.932v-4.868a.932.932,0,0,1,.932-.932.932.932,0,0,1,.932.932v4.868A.932.932,0,0,1,523.648-460.841Z"
      data-name="Path 195"
      fill="#2a2b2c"
      id="Path_195" transform="translate(-98.732 -13.861)"/>
    <path
      d="M529.512-460.841a.932.932,0,0,1-.932-.932v-4.868a.932.932,0,0,1,.932-.932.932.932,0,0,1,.932.932v4.868A.932.932,0,0,1,529.512-460.841Z"
      data-name="Path 196"
      fill="#2a2b2c"
      id="Path_196" transform="translate(-99.92 -13.861)"/>
    <path
      d="M527.925-479.264a.933.933,0,0,1-.932-.932v-3.486h-1.781v3.486a.933.933,0,0,1-.932.932.933.933,0,0,1-.933-.932v-4.419a.933.933,0,0,1,.933-.932h3.646a.932.932,0,0,1,.932.932v4.419A.932.932,0,0,1,527.925-479.264Z"
      data-name="Path 197"
      fill="#2a2b2c"
      id="Path_197" transform="translate(-98.86 -10.22)"/>
    <path
      d="M530.166-484.883h-9.81a.932.932,0,0,1-.932-.932.932.932,0,0,1,.932-.932h9.81a.932.932,0,0,1,.932.932A.932.932,0,0,1,530.166-484.883Z"
      data-name="Path 198"
      fill="#2a2b2c"
      id="Path_198" transform="translate(-98.065 -9.977)"/>
    <g data-name="Group 24" id="Group_24" transform="translate(327.828 -532.771)">
      <path
        d="M419.776-520.172a3.875,3.875,0,0,0-3.875-3.875,3.875,3.875,0,0,0-3.875,3.875,3.879,3.879,0,0,0,.145,1.042h0s1.916,6,3.714,6,3.747-5.987,3.747-5.987h0A3.9,3.9,0,0,0,419.776-520.172Zm-3.875-1.534a1.534,1.534,0,0,1,1.533,1.534,1.534,1.534,0,0,1-1.533,1.534,1.534,1.534,0,0,1-1.534-1.534A1.534,1.534,0,0,1,415.9-521.706Z"
        data-name="Path 199"
        fill="#2a2b2c"
        id="Path_199" transform="translate(-404.137 530.35)"/>
      <g data-name="Group 23" id="Group_23">
        <path
          d="M413.9-508.424a11.776,11.776,0,0,1-11.764-11.764A11.776,11.776,0,0,1,413.9-531.951a11.777,11.777,0,0,1,11.764,11.764A11.777,11.777,0,0,1,413.9-508.424Zm0-21.663a9.91,9.91,0,0,0-9.9,9.9,9.91,9.91,0,0,0,9.9,9.9,9.911,9.911,0,0,0,9.9-9.9A9.911,9.911,0,0,0,413.9-530.087Z"
          data-name="Path 200"
          fill="#2a2b2c"
          id="Path_200" transform="translate(-402.133 531.951)"/>
        <g data-name="Group 22" id="Group_22" transform="translate(2.441 25.794)">
          <path
            d="M406.126-437.787a.933.933,0,0,1-.932-.932v-2.486a.933.933,0,0,1,.932-.932.932.932,0,0,1,.932.932v2.486A.932.932,0,0,1,406.126-437.787Z"
            data-name="Path 201"
            fill="#2a2b2c"
            id="Path_201" transform="translate(-405.194 487.963)"/>
          <path
            d="M406.126-452.769a.933.933,0,0,1-.932-.933v-4.951a.933.933,0,0,1,.932-.932.932.932,0,0,1,.932.932v4.951A.932.932,0,0,1,406.126-452.769Zm0-9.9a.933.933,0,0,1-.932-.932v-4.952a.933.933,0,0,1,.932-.932.932.932,0,0,1,.932.932v4.952A.932.932,0,0,1,406.126-462.671Zm0-9.9a.932.932,0,0,1-.932-.932v-4.95a.932.932,0,0,1,.932-.932.932.932,0,0,1,.932.932v4.95A.932.932,0,0,1,406.126-472.574Z"
            data-name="Path 202"
            fill="#2a2b2c"
            id="Path_202" transform="translate(-405.194 495.509)"/>
          <path
            d="M406.126-484.366a.933.933,0,0,1-.932-.932v-2.486a.933.933,0,0,1,.932-.932h2.486a.933.933,0,0,1,.932.932.933.933,0,0,1-.932.933h-1.554v1.553A.932.932,0,0,1,406.126-484.366Z"
            data-name="Path 203"
            fill="#2a2b2c"
            id="Path_203" transform="translate(-405.194 497.399)"/>
          <path
            d="M416.017-487.483H413.53a.933.933,0,0,1-.932-.933.933.933,0,0,1,.932-.932h1.554V-490.9a.932.932,0,0,1,.932-.932.932.932,0,0,1,.932.932v2.486A.933.933,0,0,1,416.017-487.483Z"
            data-name="Path 204"
            fill="#2a2b2c"
            id="Path_204" transform="translate(-406.694 498.03)"/>
          <path
            d="M416.648-495.253a.932.932,0,0,1-.932-.932v-2.487a.932.932,0,0,1,.932-.932.933.933,0,0,1,.932.932v2.487A.933.933,0,0,1,416.648-495.253Z"
            data-name="Path 205"
            fill="#2a2b2c"
            id="Path_205" transform="translate(-407.326 499.604)"/>
        </g>
      </g>
    </g>
    <g data-name="Group 28" id="Group_28" transform="translate(166.746 -535.03)">
      <g data-name="Group 26" id="Group_26">
        <path
          d="M211.9-511.255a11.778,11.778,0,0,1-11.765-11.764A11.779,11.779,0,0,1,211.9-534.784a11.777,11.777,0,0,1,11.763,11.765A11.777,11.777,0,0,1,211.9-511.255Zm0-21.664a9.912,9.912,0,0,0-9.9,9.9,9.911,9.911,0,0,0,9.9,9.9,9.909,9.909,0,0,0,9.9-9.9A9.911,9.911,0,0,0,211.9-532.92Z"
          data-name="Path 206"
          fill="#2a2b2c"
          id="Path_206" transform="translate(-200.13 534.784)"/>
        <g data-name="Group 25" id="Group_25" transform="translate(6.171 6.257)">
          <path
            d="M218.433-519.109H208.49a.621.621,0,0,1-.621-.621v-6.585a.622.622,0,0,1,.621-.622h9.943a.621.621,0,0,1,.621.622v6.585A.62.62,0,0,1,218.433-519.109Zm-9.321-1.243h8.7v-5.342h-8.7Z"
            data-name="Path 207"
            fill="#2a2b2c"
            id="Path_207" transform="translate(-207.869 526.937)"/>
          <path
            d="M215.349-515.486h-1.674a.621.621,0,0,1-.621-.621.621.621,0,0,1,.621-.622h1.674a.622.622,0,0,1,.622.622A.622.622,0,0,1,215.349-515.486Z"
            data-name="Path 208"
            fill="#2a2b2c"
            id="Path_208" transform="translate(-208.919 524.869)"/>
          <path
            d="M216.907-513.44h-5.852a.621.621,0,0,1-.621-.621.622.622,0,0,1,.621-.622h5.852a.621.621,0,0,1,.621.622A.621.621,0,0,1,216.907-513.44Z"
            data-name="Path 209"
            fill="#2a2b2c"
            id="Path_209" transform="translate(-208.389 524.455)"/>
        </g>
      </g>
      <g data-name="Group 27" id="Group_27" transform="translate(7.87 25.931)">
        <path
          d="M214.647-497.915a.933.933,0,0,1-.933-.932v-2.486a.933.933,0,0,1,.933-.932.933.933,0,0,1,.932.932v2.486A.933.933,0,0,1,214.647-497.915Z"
          data-name="Path 210"
          fill="#2a2b2c"
          id="Path_210" transform="translate(-210.752 502.266)"/>
        <path
          d="M214.647-478.38a.933.933,0,0,1-.933-.932v-4.443a.933.933,0,0,1,.933-.932.933.933,0,0,1,.932.932v4.443A.933.933,0,0,1,214.647-478.38Zm0-8.887a.932.932,0,0,1-.933-.932v-4.444a.933.933,0,0,1,.933-.932.933.933,0,0,1,.932.932v4.444A.932.932,0,0,1,214.647-487.268Z"
          data-name="Path 211"
          fill="#2a2b2c"
          id="Path_211" transform="translate(-210.752 500.506)"/>
        <path
          d="M210.931-464.449a.932.932,0,0,1-.932-.932v-2.486a.932.932,0,0,1,.932-.932h2.03v-1.554a.933.933,0,0,1,.933-.932.933.933,0,0,1,.932.932v2.486a.933.933,0,0,1-.932.932h-2.031v1.554A.933.933,0,0,1,210.931-464.449Z"
          data-name="Path 212"
          fill="#2a2b2c"
          id="Path_212" transform="translate(-209.999 495.99)"/>
        <path
          d="M210.931-456.064A.932.932,0,0,1,210-457v-3.159a.932.932,0,0,1,.932-.932.932.932,0,0,1,.932.932V-457A.932.932,0,0,1,210.931-456.064Z"
          data-name="Path 213"
          fill="#2a2b2c"
          id="Path_213" transform="translate(-209.999 493.924)"/>
        <path
          d="M210.931-448.814a.932.932,0,0,1-.932-.932v-2.486a.932.932,0,0,1,.932-.932.933.933,0,0,1,.932.932v2.486A.933.933,0,0,1,210.931-448.814Z"
          data-name="Path 214"
          fill="#2a2b2c"
          id="Path_214" transform="translate(-209.999 492.319)"/>
      </g>
    </g>
    <path
      d="M73.719-451.523h2.374a2.841,2.841,0,0,0,2.635-1.79,2.819,2.819,0,0,0-1.566-3.678,2.856,2.856,0,0,0-1.343-.2,3.338,3.338,0,0,0,.075-.721,4.562,4.562,0,0,0-4.574-4.574,4.537,4.537,0,0,0-4.276,2.983,3.8,3.8,0,0,0-.547-.273,3.552,3.552,0,0,0-4.624,1.964,2.693,2.693,0,0,0-.2.77,2.835,2.835,0,0,0-3.605,1.616,2.857,2.857,0,0,0,1.566,3.7,3.151,3.151,0,0,0,1.069.2H73.719"
      data-name="Path 215"
      fill="#2a2b2c"
      id="Path_215" transform="translate(-4.564 -14.892)"/>
    <g data-name="Group 30" id="Group_30" transform="translate(53.813 -515.04)">
      <path
        d="M70.272-486.187a11.778,11.778,0,0,1-11.764-11.765,11.776,11.776,0,0,1,11.764-11.764,11.777,11.777,0,0,1,11.764,11.764A11.778,11.778,0,0,1,70.272-486.187Zm0-21.664a9.91,9.91,0,0,0-9.9,9.9,9.91,9.91,0,0,0,9.9,9.9,9.911,9.911,0,0,0,9.9-9.9A9.911,9.911,0,0,0,70.272-507.852Z"
        data-name="Path 216"
        fill="#2a2b2c"
        id="Path_216" transform="translate(-58.508 509.716)"/>
      <g data-name="Group 29" id="Group_29" transform="translate(6.171 7.85)">
        <path
          d="M76.811-492.044H66.868a.621.621,0,0,1-.621-.621v-6.585a.622.622,0,0,1,.621-.622h9.943a.621.621,0,0,1,.621.622v6.585A.62.62,0,0,1,76.811-492.044Zm-9.321-1.242h8.7v-5.343h-8.7Z"
          data-name="Path 217"
          fill="#2a2b2c"
          id="Path_217" transform="translate(-66.247 499.872)"/>
        <path
          d="M71.839-495.336a.617.617,0,0,1-.344-.1l-4.97-3.292a.624.624,0,0,1-.175-.862.627.627,0,0,1,.862-.175l4.627,3.064,4.628-3.064a.626.626,0,0,1,.862.175.624.624,0,0,1-.175.862l-4.972,3.292A.621.621,0,0,1,71.839-495.336Z"
          data-name="Path 218"
          fill="#2a2b2c"
          id="Path_218" transform="translate(-66.247 499.872)"/>
      </g>
    </g>
    <g data-name="Group 31" id="Group_31" transform="translate(64.645 -488.923)">
      <path
        d="M87.831-404.744a.933.933,0,0,1-.932-.932v-2.486a.933.933,0,0,1,.932-.932.932.932,0,0,1,.932.932v2.486A.932.932,0,0,1,87.831-404.744Z"
        data-name="Path 219"
        fill="#2a2b2c"
        id="Path_219" transform="translate(-75.091 463.216)"/>
      <path
        d="M87.831-412.768a.932.932,0,0,1-.932-.932v-3.671a.932.932,0,0,1,.932-.932.932.932,0,0,1,.932.932v3.671A.932.932,0,0,1,87.831-412.768Z"
        data-name="Path 220"
        fill="#2a2b2c"
        id="Path_220" transform="translate(-75.091 465.082)"/>
      <path
        d="M87.2-421.674a.933.933,0,0,1-.932-.933v-1.553H84.714a.932.932,0,0,1-.932-.932.932.932,0,0,1,.932-.932H87.2a.932.932,0,0,1,.932.932v2.486A.932.932,0,0,1,87.2-421.674Z"
        data-name="Path 221"
        fill="#2a2b2c"
        id="Path_221" transform="translate(-74.459 466.646)"/>
      <path
        d="M75.509-424.792H73.023a.932.932,0,0,1-.932-.932v-2.486a.932.932,0,0,1,.932-.932.933.933,0,0,1,.932.932v1.554h1.553a.932.932,0,0,1,.932.932A.932.932,0,0,1,75.509-424.792Z"
        data-name="Path 222"
        fill="#2a2b2c"
        id="Path_222" transform="translate(-72.091 467.278)"/>
      <path
        d="M73.023-440.134a.932.932,0,0,1-.932-.932v-5.092a.932.932,0,0,1,.932-.932.933.933,0,0,1,.932.932v5.092A.932.932,0,0,1,73.023-440.134Zm0-10.186a.932.932,0,0,1-.932-.932v-5.092a.932.932,0,0,1,.932-.932.933.933,0,0,1,.932.932v5.092A.932.932,0,0,1,73.023-450.319Zm0-10.184a.932.932,0,0,1-.932-.932v-5.092a.932.932,0,0,1,.932-.932.932.932,0,0,1,.932.932v5.092A.933.933,0,0,1,73.023-460.5Z"
        data-name="Path 223"
        fill="#2a2b2c"
        id="Path_223" transform="translate(-72.091 475.039)"/>
      <path
        d="M73.023-472.614a.932.932,0,0,1-.932-.932v-2.487a.932.932,0,0,1,.932-.932.933.933,0,0,1,.932.932v2.487A.933.933,0,0,1,73.023-472.614Z"
        data-name="Path 224"
        fill="#2a2b2c"
        id="Path_224" transform="translate(-72.091 476.965)"/>
    </g>
    <path
      d="M450.58-468.689H435.19a4.053,4.053,0,0,1-1.383-.254,3.82,3.82,0,0,1-2.09-2.046,3.71,3.71,0,0,1-.022-2.892,3.813,3.813,0,0,1,3.79-2.352c0-.009.007-.016.01-.025a4.512,4.512,0,0,1,2.409-2.452,4.414,4.414,0,0,1,3.179-.124,5.487,5.487,0,0,1,4.723-2.683,5.513,5.513,0,0,1,5.5,5.358,4.148,4.148,0,0,1,.675.2,3.727,3.727,0,0,1,2.073,2.031,3.692,3.692,0,0,1,.015,2.875A3.747,3.747,0,0,1,450.58-468.689ZM435.2-474.38a1.915,1.915,0,0,0-1.774,1.2,1.858,1.858,0,0,0,.01,1.46,1.93,1.93,0,0,0,1.045,1.038,2.142,2.142,0,0,0,.712.128H450.58a1.9,1.9,0,0,0,1.769-1.2,1.853,1.853,0,0,0-.007-1.446,1.871,1.871,0,0,0-1.037-1.021,1.979,1.979,0,0,0-.89-.138.954.954,0,0,1-.8-.3.931.931,0,0,1-.219-.827,2.41,2.41,0,0,0,.054-.519,3.647,3.647,0,0,0-3.643-3.643,3.6,3.6,0,0,0-3.4,2.364.928.928,0,0,1-.553.561.93.93,0,0,1-.786-.064,2.815,2.815,0,0,0-.411-.209,2.568,2.568,0,0,0-2.021,0,2.643,2.643,0,0,0-1.415,1.439,1.755,1.755,0,0,0-.132.5.934.934,0,0,1-.432.7.939.939,0,0,1-.82.086A1.855,1.855,0,0,0,435.2-474.38Z"
      data-name="Path 225"
      fill="#2a2b2c"
      id="Path_225" transform="translate(-80.236 -11.037)"/>
    <path
      d="M285.456-473.84h-13.8a3.721,3.721,0,0,1-3.716-3.717,3.823,3.823,0,0,1,1.506-3.008c-.01-.155-.015-.315-.015-.472a6.2,6.2,0,0,1,6.178-6.2,6.2,6.2,0,0,1,4.254,1.69,4.555,4.555,0,0,1,5.551,4.252,3.821,3.821,0,0,1,3.781,3.742A3.734,3.734,0,0,1,285.456-473.84Zm-9.844-11.536a4.33,4.33,0,0,0-4.314,4.339,4.813,4.813,0,0,0,.063.791.933.933,0,0,1-.494.982,1.948,1.948,0,0,0-1.06,1.707,1.855,1.855,0,0,0,1.852,1.852h13.8a1.844,1.844,0,0,0,1.876-1.852,1.88,1.88,0,0,0-1.876-1.877,1.533,1.533,0,0,0-.7.15.934.934,0,0,1-1.019-.122.931.931,0,0,1-.289-.986,2.547,2.547,0,0,0,.108-.745,2.665,2.665,0,0,0-3.637-2.484.931.931,0,0,1-1.032-.262A4.33,4.33,0,0,0,275.612-485.376Z"
      data-name="Path 226"
      fill="#2a2b2c"
      id="Path_226" transform="translate(-47.121 -9.877)"/>
    <g data-name="Group 32" id="Group_32" transform="translate(365.116 -448.101)">
      <path
        d="M454.076-421.936a.933.933,0,0,1-.9-.693A1.729,1.729,0,0,0,451.7-423.9a1.677,1.677,0,0,0-1.276.383.931.931,0,0,1-1.312-.122.931.931,0,0,1,.122-1.312,3.554,3.554,0,0,1,2.665-.8,3.6,3.6,0,0,1,3.081,2.644.93.93,0,0,1-.661,1.139A.886.886,0,0,1,454.076-421.936Z"
        data-name="Path 227"
        fill="#2a2b2c"
        id="Path_227" transform="translate(-448.894 425.772)"/>
      <path
        d="M455.162-421.847a.929.929,0,0,1-.451-.117.934.934,0,0,1-.364-1.268,3.581,3.581,0,0,1,3.512-1.825,3.556,3.556,0,0,1,2.451,1.369.932.932,0,0,1-.167,1.308.926.926,0,0,1-1.307-.167,1.7,1.7,0,0,0-1.175-.656,1.724,1.724,0,0,0-1.683.874A.934.934,0,0,1,455.162-421.847Z"
        data-name="Path 228"
        fill="#2a2b2c"
        id="Path_228" transform="translate(-449.975 425.631)"/>
    </g>
    <g data-name="Group 33" id="Group_33" transform="translate(195.005 -463.277)">
      <path
        d="M236.5-439.333a.93.93,0,0,1-.386-.084.931.931,0,0,1-.462-1.234,3.547,3.547,0,0,1,2.045-1.887,3.61,3.61,0,0,1,3.927,1.032.931.931,0,0,1-.1,1.314.93.93,0,0,1-1.315-.1,1.725,1.725,0,0,0-1.881-.494,1.7,1.7,0,0,0-.981.9A.934.934,0,0,1,236.5-439.333Z"
        data-name="Path 229"
        fill="#2a2b2c"
        id="Path_229" transform="translate(-235.567 444.386)"/>
      <path
        d="M242.019-440.431c-.017,0-.033,0-.052,0a.933.933,0,0,1-.88-.982,3.577,3.577,0,0,1,2.361-3.175,3.548,3.548,0,0,1,2.8.16.931.931,0,0,1,.421,1.249.931.931,0,0,1-1.249.422,1.715,1.715,0,0,0-1.344-.077,1.713,1.713,0,0,0-1.132,1.522A.932.932,0,0,1,242.019-440.431Z"
        data-name="Path 230"
        fill="#2a2b2c"
        id="Path_230" transform="translate(-236.685 444.803)"/>
    </g>
  </g>
</svg>
