<svg height="20.001" viewBox="0 0 20.017 20.001" width="20.017" xmlns="http://www.w3.org/2000/svg">
  <path
    d="M20.83,7.32h0a10.11,10.11,0,0,0-3.44-3.73h0A10,10,0,1,0,12,22h.29A10,10,0,0,0,20.83,7.32ZM11,19.93A8,8,0,0,1,11,4.07ZM13,4.07a8.067,8.067,0,0,1,2.49.74L13,9.12Zm0,9L17.17,5.9a8.151,8.151,0,0,1,1.58,1.83L13,17.69Zm1.15,6.58L19.74,10A8.176,8.176,0,0,1,20,12a8,8,0,0,1-5.85,7.7Z"
    data-name="Path 949"
    fill="#2a2b2c"
    id="Path_949" transform="translate(-1.979 -1.999)"/>
</svg>
