<svg height="20" viewBox="0 0 16 20" width="16" xmlns="http://www.w3.org/2000/svg">
  <path
    d="M20,12a1,1,0,0,0-1-1H11.41l2.3-2.29a1,1,0,0,0-1.42-1.42l-4,4a1.034,1.034,0,0,0,0,1.42l4,4a1,1,0,0,0,1.414.006l.006-.006a1,1,0,0,0,.006-1.414l-.006-.006L11.41,13H19A1,1,0,0,0,20,12ZM17,2H7A3,3,0,0,0,4,5V19a3,3,0,0,0,3,3H17a3,3,0,0,0,3-3V16a1,1,0,0,0-2,0v3a1,1,0,0,1-1,1H7a1,1,0,0,1-1-1V5A1,1,0,0,1,7,4H17a1,1,0,0,1,1,1V8a1,1,0,0,0,2,0V5A3,3,0,0,0,17,2Z"
    data-name="Path 973"
    fill="#ec1846"
    id="Path_973" transform="translate(-4 -2)"/>
</svg>
