<svg height="20" viewBox="0 0 20 20" width="20" xmlns="http://www.w3.org/2000/svg">
  <path
    d="M11.29,15.29a1.713,1.713,0,0,0-.12.15.758.758,0,0,0-.09.18.636.636,0,0,0-.06.18,1.335,1.335,0,0,0,0,.2.846.846,0,0,0,.08.38.9.9,0,0,0,.54.54.94.94,0,0,0,.76,0,.9.9,0,0,0,.54-.54,1.011,1.011,0,0,0-1.644-1.1ZM12,2A10,10,0,1,0,22,12,10,10,0,0,0,12,2Zm0,18a8,8,0,1,1,8-8A8,8,0,0,1,12,20ZM12,7A3,3,0,0,0,9.4,8.5a1,1,0,0,0,1.688,1.073c.015-.024.029-.048.042-.073A1,1,0,1,1,12,11a1,1,0,0,0-1,1v1a1,1,0,0,0,2,0v-.18A3,3,0,0,0,12,7Z"
    data-name="Path 1037"
    fill="#471479"
    id="Path_1037" transform="translate(-2 -2)"/>
</svg>
