<svg xmlns="http://www.w3.org/2000/svg" width="18" height="20" viewBox="0 0 18 20">
  <path id="Path_1976" data-name="Path 1976" d="M21,8.94a1.317,1.317,0,0,0-.06-.27V8.58a1.065,1.065,0,0,0-.19-.28h0l-6-6h0a1.065,1.065,0,0,0-.28-.19.339.339,0,0,0-.09,0A.882.882,0,0,0,14.05,2H10A3,3,0,0,0,7,5V6H6A3,3,0,0,0,3,9V19a3,3,0,0,0,3,3h8a3,3,0,0,0,3-3V18h1a3,3,0,0,0,3-3V8.94ZM15,5.41,17.59,8H16a1,1,0,0,1-1-1ZM15,19a1,1,0,0,1-1,1H6a1,1,0,0,1-1-1V9A1,1,0,0,1,6,8H7v7a3,3,0,0,0,3,3h5Zm4-4a1,1,0,0,1-1,1H10a1,1,0,0,1-1-1V5a1,1,0,0,1,1-1h3V7a3,3,0,0,0,3,3h3Z" transform="translate(-3 -2)" fill="#2a2b2c"/>
</svg>
