<svg height="20" viewBox="0 0 19.955 20" width="19.955" xmlns="http://www.w3.org/2000/svg">
  <g data-name="show filters" id="show_filters" transform="translate(-188 -224)">
    <path
      d="M20,8.18V3a1,1,0,0,0-2,0V8.18a3,3,0,0,0,0,5.64V21a1,1,0,0,0,2,0V13.82a3,3,0,0,0,0-5.64ZM19,12a1,1,0,1,1,1-1A1,1,0,0,1,19,12Zm-6,2.18V3a1,1,0,0,0-2,0V14.18a3,3,0,0,0,0,5.64V21a1,1,0,0,0,2,0V19.82a3,3,0,0,0,0-5.64ZM12,18a1,1,0,1,1,1-1A1,1,0,0,1,12,18ZM6,6.18V3A1,1,0,0,0,4,3V6.18a3,3,0,0,0,0,5.64V21a1,1,0,0,0,2,0V11.82A3,3,0,0,0,6,6.18ZM5,10A1,1,0,1,1,6,9,1,1,0,0,1,5,10Z"
      data-name="Path 1029"
      fill="#471479"
      id="Path_1029" transform="translate(185.978 222)"/>
  </g>
</svg>
