<svg height="222.603" viewBox="0 0 692.738 222.603" width="692.738" xmlns="http://www.w3.org/2000/svg">
  <g data-name="Group 461" id="Group_461" transform="translate(-35.332 535.997)">
    <path
      d="M726.6-358.113H36.8a1.468,1.468,0,0,1-1.468-1.468,1.469,1.469,0,0,1,1.468-1.468H726.6a1.469,1.469,0,0,1,1.468,1.468A1.468,1.468,0,0,1,726.6-358.113Z"
      data-name="Path 1"
      fill="#f2f2f2"
      id="Path_1" transform="translate(0 44.719)"/>
    <path
      d="M124.991-350.964a1.468,1.468,0,0,1-1.468-1.468v-35.047h-40v35.047a1.469,1.469,0,0,1-1.469,1.468,1.469,1.469,0,0,1-1.468-1.468v-36.514a1.469,1.469,0,0,1,1.468-1.468h42.937a1.469,1.469,0,0,1,1.468,1.468v36.514A1.469,1.469,0,0,1,124.991-350.964Z"
      data-name="Path 2"
      fill="#f2f2f2"
      id="Path_2" transform="translate(11.567 37.213)"/>
    <path
      d="M136.434-335.724a1.469,1.469,0,0,1-1.469-1.468v-35.6a1.47,1.47,0,0,1,.5-1.107l5.184-4.517v-11.366l-1.031-.079a1.469,1.469,0,0,1-1.355-1.464V-447.1H117.718v73.4a1.469,1.469,0,0,1-1.468,1.468,1.468,1.468,0,0,1-1.468-1.468v-74.863a1.468,1.468,0,0,1,1.468-1.468h23.486a1.469,1.469,0,0,1,1.468,1.468v55.89l1.031.078a1.47,1.47,0,0,1,1.355,1.464v13.395a1.463,1.463,0,0,1-.5,1.106L137.9-372.12v34.929A1.469,1.469,0,0,1,136.434-335.724Z"
      data-name="Path 3"
      fill="#f2f2f2"
      id="Path_3" transform="translate(20.308 21.972)"/>
    <path
      d="M170.066-401.361H136.855a1.467,1.467,0,0,1-1.468-1.468,1.468,1.468,0,0,1,1.468-1.468h33.211a1.469,1.469,0,0,1,1.468,1.468A1.468,1.468,0,0,1,170.066-401.361Z"
      data-name="Path 4"
      fill="#f2f2f2"
      id="Path_4" transform="translate(25.575 33.664)"/>
    <path
      d="M168.415-387.966h-31.56a1.468,1.468,0,0,1-1.468-1.468,1.468,1.468,0,0,1,1.468-1.468h30.092v-11.927a1.468,1.468,0,0,1,1.468-1.468,1.469,1.469,0,0,1,1.468,1.468v13.395A1.469,1.469,0,0,1,168.415-387.966Z"
      data-name="Path 5"
      fill="#f2f2f2"
      id="Path_5" transform="translate(25.575 33.664)"/>
    <path
      d="M208.175-387.966h-31.56a1.469,1.469,0,0,1-1.468-1.468,1.469,1.469,0,0,1,1.468-1.468h30.092v-11.927a1.469,1.469,0,0,1,1.468-1.468,1.468,1.468,0,0,1,1.468,1.468v13.395A1.468,1.468,0,0,1,208.175-387.966Z"
      data-name="Path 6"
      fill="#f2f2f2"
      id="Path_6" transform="translate(35.738 33.664)"/>
    <path
      d="M159.653-378.4a1.468,1.468,0,0,1-1.31-.8,1.47,1.47,0,0,1,.639-1.976l6.724-3.444v-2.843l-4.088-3.6a1.467,1.467,0,0,1-.134-2.072,1.47,1.47,0,0,1,2.073-.133l4.587,4.037a1.465,1.465,0,0,1,.5,1.1v4.4a1.468,1.468,0,0,1-.8,1.307l-7.524,3.854A1.463,1.463,0,0,1,159.653-378.4Z"
      data-name="Path 7"
      fill="#f2f2f2"
      id="Path_7" transform="translate(31.402 36.391)"/>
    <path
      d="M180.136-375.635a1.464,1.464,0,0,1-.667-.161l-7.524-3.853a1.469,1.469,0,0,1-.8-1.307v-4.4a1.466,1.466,0,0,1,.5-1.1l4.088-3.6v-12.915a1.469,1.469,0,0,1,1.468-1.468,1.468,1.468,0,0,1,1.468,1.468V-389.4a1.466,1.466,0,0,1-.5,1.1l-4.088,3.6v2.843l6.724,3.444a1.47,1.47,0,0,1,.639,1.976A1.468,1.468,0,0,1,180.136-375.635Z"
      data-name="Path 8"
      fill="#f2f2f2"
      id="Path_8" transform="translate(34.716 33.627)"/>
    <path
      d="M161.99-352.339a1.468,1.468,0,0,1-1.468-1.468v-29.762a1.468,1.468,0,0,1,1.468-1.468,1.469,1.469,0,0,1,1.468,1.468v29.762A1.469,1.469,0,0,1,161.99-352.339Z"
      data-name="Path 9"
      fill="#f2f2f2"
      id="Path_9" transform="translate(32 38.587)"/>
    <path
      d="M176.615-352.564a1.469,1.469,0,0,1-1.468-1.468v-28.656a1.469,1.469,0,0,1,1.468-1.468,1.468,1.468,0,0,1,1.468,1.468v28.656A1.468,1.468,0,0,1,176.615-352.564Z"
      data-name="Path 10"
      fill="#f2f2f2"
      id="Path_10" transform="translate(35.738 38.813)"/>
    <path
      d="M174.395-383.5a1.438,1.438,0,0,1-.682-.169l-3.67-1.935-3.722,1.939a1.463,1.463,0,0,1-1.98-.623,1.468,1.468,0,0,1,.624-1.98l4.4-2.294a1.466,1.466,0,0,1,1.362,0l4.351,2.294a1.464,1.464,0,0,1,.613,1.981A1.464,1.464,0,0,1,174.395-383.5Z"
      data-name="Path 11"
      fill="#f2f2f2"
      id="Path_11" transform="translate(32.934 37.642)"/>
    <path
      d="M206.323-350.142a1.469,1.469,0,0,1-1.469-1.468v-35.853l-4.074-3.6a1.468,1.468,0,0,1-.129-2.072,1.469,1.469,0,0,1,2.072-.131l4.572,4.037a1.473,1.473,0,0,1,.5,1.1v36.514A1.469,1.469,0,0,1,206.323-350.142Z"
      data-name="Path 12"
      fill="#f2f2f2"
      id="Path_12" transform="translate(42.163 36.391)"/>
    <path
      d="M210.391-398.329h-35.98a1.473,1.473,0,0,1-1.112-.509,1.472,1.472,0,0,1-.34-1.175,21.294,21.294,0,0,1,15.365-17.546l7.74-.037c.242.015,13.033,1.2,15.774,17.556a1.461,1.461,0,0,1-.326,1.19A1.466,1.466,0,0,1,210.391-398.329Zm-34.209-2.936H208.6c-2.857-12.4-12.246-13.365-12.66-13.4l-7.3.005A18.108,18.108,0,0,0,176.181-401.264Z"
      data-name="Path 13"
      fill="#f2f2f2"
      id="Path_13" transform="translate(35.175 30.265)"/>
    <path
      d="M170.629-398.329H134.651a1.471,1.471,0,0,1-1.112-.509,1.463,1.463,0,0,1-.34-1.175,21.293,21.293,0,0,1,15.365-17.546l7.738-.037c.244.015,13.033,1.2,15.774,17.556a1.461,1.461,0,0,1-.326,1.19A1.464,1.464,0,0,1,170.629-398.329Zm-34.209-2.936h32.422c-2.858-12.4-12.246-13.365-12.662-13.4l-7.3.005A18.11,18.11,0,0,0,136.42-401.264Z"
      data-name="Path 14"
      fill="#f2f2f2"
      id="Path_14" transform="translate(25.012 30.265)"/>
    <path
      d="M185.749-398.329a1.468,1.468,0,0,1-1.468-1.468v-16.331a1.468,1.468,0,0,1,1.468-1.468,1.469,1.469,0,0,1,1.468,1.468V-399.8A1.469,1.469,0,0,1,185.749-398.329Z"
      data-name="Path 15"
      fill="#f2f2f2"
      id="Path_15" transform="translate(38.073 30.265)"/>
    <path
      d="M192.386-398.329a1.468,1.468,0,0,1-1.468-1.468v-16.331a1.468,1.468,0,0,1,1.468-1.468,1.469,1.469,0,0,1,1.468,1.468V-399.8A1.469,1.469,0,0,1,192.386-398.329Z"
      data-name="Path 16"
      fill="#f2f2f2"
      id="Path_16" transform="translate(39.77 30.265)"/>
    <path
      d="M146.1-398.088a1.468,1.468,0,0,1-1.468-1.469v-16.329a1.468,1.468,0,0,1,1.468-1.469,1.469,1.469,0,0,1,1.468,1.469v16.329A1.469,1.469,0,0,1,146.1-398.088Z"
      data-name="Path 17"
      fill="#f2f2f2"
      id="Path_17" transform="translate(27.939 30.326)"/>
    <path
      d="M152.741-398.088a1.468,1.468,0,0,1-1.468-1.469v-16.329a1.468,1.468,0,0,1,1.468-1.469,1.469,1.469,0,0,1,1.468,1.469v16.329A1.469,1.469,0,0,1,152.741-398.088Z"
      data-name="Path 18"
      fill="#f2f2f2"
      id="Path_18" transform="translate(29.636 30.326)"/>
    <path
      d="M119.911-421.368H101.929a1.469,1.469,0,0,1-1.237-.677,1.464,1.464,0,0,1-.1-1.406l8.99-19.449a1.47,1.47,0,0,1,1.332-.852h8.991a1.469,1.469,0,0,1,1.468,1.468,1.469,1.469,0,0,1-1.468,1.468h-8.052L104.224-424.3h15.686a1.469,1.469,0,0,1,1.468,1.468A1.468,1.468,0,0,1,119.911-421.368Z"
      data-name="Path 19"
      fill="#f2f2f2"
      id="Path_19" transform="translate(16.648 23.579)"/>
    <path
      d="M94.622-341.289a1.469,1.469,0,0,1-1.468-1.468v-29.762a1.458,1.458,0,0,1,.239-.8l4.165-6.386v-8a12.694,12.694,0,0,1,8.257-11.784v-27.3a1.469,1.469,0,0,1,1.468-1.468,1.468,1.468,0,0,1,1.468,1.468v28.349a1.473,1.473,0,0,1-1.07,1.413c-.3.084-7.187,2.131-7.187,9.322v8.44a1.457,1.457,0,0,1-.239.8l-4.165,6.386v29.326A1.469,1.469,0,0,1,94.622-341.289Z"
      data-name="Path 20"
      fill="#f2f2f2"
      id="Path_20" transform="translate(14.78 27.538)"/>
    <path
      d="M82.052-381.688a1.461,1.461,0,0,1-.907-.315,1.465,1.465,0,0,1-.244-2.061l22.385-28.441a1.464,1.464,0,0,1,1.153-.56h6.055a1.468,1.468,0,0,1,1.468,1.468,1.467,1.467,0,0,1-1.468,1.468h-5.341L83.206-382.248A1.458,1.458,0,0,1,82.052-381.688Z"
      data-name="Path 21"
      fill="#f2f2f2"
      id="Path_21" transform="translate(11.568 31.423)"/>
    <path
      d="M239.91-417.908H208.534a1.467,1.467,0,0,1-1.468-1.468,1.468,1.468,0,0,1,1.468-1.468h28.9L228.4-437.358H186a1.466,1.466,0,0,1-1.325-.835l-6.814-14.288-6.814,14.288a1.466,1.466,0,0,1-1.325.835h-34.77a1.469,1.469,0,0,1-1.468-1.468,1.469,1.469,0,0,1,1.468-1.468H168.8l7.741-16.229a1.529,1.529,0,0,1,2.649,0l7.741,16.229h42.338a1.47,1.47,0,0,1,1.288.762L241.2-420.081a1.476,1.476,0,0,1-.025,1.454A1.472,1.472,0,0,1,239.91-417.908Z"
      data-name="Path 22"
      fill="#f2f2f2"
      id="Path_22" transform="translate(25.09 20.119)"/>
    <path
      d="M145.414-425.327H134.955a1.468,1.468,0,0,1-1.468-1.468,1.469,1.469,0,0,1,1.468-1.468h10.459a1.469,1.469,0,0,1,1.468,1.468A1.468,1.468,0,0,1,145.414-425.327Z"
      data-name="Path 23"
      fill="#f2f2f2"
      id="Path_23" transform="translate(25.09 27.538)"/>
    <path
      d="M155.852-406.321a1.468,1.468,0,0,1-1.468-1.468v-15.046a1.478,1.478,0,0,1,.124-.59l8.532-19.449a1.46,1.46,0,0,1,1.935-.754,1.466,1.466,0,0,1,.752,1.934l-8.408,19.167v14.739A1.467,1.467,0,0,1,155.852-406.321Z"
      data-name="Path 24"
      fill="#f2f2f2"
      id="Path_24" transform="translate(30.431 23.578)"/>
    <path
      d="M183.829-406.084a1.469,1.469,0,0,1-1.468-1.468v-14.984l-8.1-19.177a1.465,1.465,0,0,1,.78-1.922,1.463,1.463,0,0,1,1.924.78l8.218,19.449a1.467,1.467,0,0,1,.117.571v15.283A1.468,1.468,0,0,1,183.829-406.084Z"
      data-name="Path 25"
      fill="#f2f2f2"
      id="Path_25" transform="translate(35.482 23.578)"/>
    <path
      d="M188.879-425.327H155.852a1.468,1.468,0,0,1-1.468-1.468,1.469,1.469,0,0,1,1.468-1.468h33.028a1.468,1.468,0,0,1,1.468,1.468A1.467,1.467,0,0,1,188.879-425.327Z"
      data-name="Path 26"
      fill="#f2f2f2"
      id="Path_26" transform="translate(30.431 27.538)"/>
    <path
      d="M211.645-421.368a1.469,1.469,0,0,1-1.311-.8l-9.893-19.449a1.469,1.469,0,0,1,.644-1.975,1.475,1.475,0,0,1,1.974.644l9.893,19.451a1.469,1.469,0,0,1-.644,1.974A1.475,1.475,0,0,1,211.645-421.368Z"
      data-name="Path 27"
      fill="#f2f2f2"
      id="Path_27" transform="translate(42.163 23.579)"/>
    <path
      d="M202.28-421.368a1.469,1.469,0,0,1-1.311-.8l-9.893-19.449a1.47,1.47,0,0,1,.644-1.975,1.476,1.476,0,0,1,1.974.644l9.893,19.451a1.468,1.468,0,0,1-.644,1.974A1.475,1.475,0,0,1,202.28-421.368Z"
      data-name="Path 28"
      fill="#f2f2f2"
      id="Path_28" transform="translate(39.769 23.579)"/>
    <path
      d="M137.677-421.368a1.48,1.48,0,0,1-.664-.158,1.47,1.47,0,0,1-.644-1.974l9.894-19.451a1.476,1.476,0,0,1,1.974-.644,1.471,1.471,0,0,1,.644,1.975l-9.893,19.449A1.469,1.469,0,0,1,137.677-421.368Z"
      data-name="Path 29"
      fill="#f2f2f2"
      id="Path_29" transform="translate(25.785 23.579)"/>
    <path
      d="M129.512-373.2h-7.327a1.469,1.469,0,0,1-1.468-1.468v-8.752c0-4.211,2.254-7.509,5.133-7.509s5.129,3.3,5.129,7.509v8.752A1.468,1.468,0,0,1,129.512-373.2Zm-5.857-2.936h4.39v-7.284c0-2.791-1.3-4.572-2.194-4.572-1.016,0-2.2,2-2.2,4.572Z"
      data-name="Path 30"
      fill="#f2f2f2"
      id="Path_30" transform="translate(21.826 37.082)"/>
    <path
      d="M129.512-393.848h-7.327a1.469,1.469,0,0,1-1.468-1.469v-8.749c0-4.211,2.254-7.509,5.133-7.509s5.129,3.3,5.129,7.509v8.749A1.468,1.468,0,0,1,129.512-393.848Zm-5.857-2.937h4.39v-7.281c0-2.791-1.3-4.572-2.194-4.572-1.016,0-2.2,2-2.2,4.572Z"
      data-name="Path 31"
      fill="#f2f2f2"
      id="Path_31" transform="translate(21.826 31.804)"/>
    <path
      d="M173.42-353.857H166.1a1.469,1.469,0,0,1-1.468-1.468v-16.246c0-4.274,2.2-7.5,5.108-7.5,2.885,0,5.147,3.292,5.147,7.5v16.246A1.469,1.469,0,0,1,173.42-353.857Zm-5.851-2.936h4.383v-14.779c0-2.785-1.31-4.56-2.211-4.56s-2.172,1.735-2.172,4.56Z"
      data-name="Path 32"
      fill="#f2f2f2"
      id="Path_32" transform="translate(33.051 40.113)"/>
    <path
      d="M173.263-404.121h-7.32a1.468,1.468,0,0,1-1.468-1.468v-11.938c0-3.306,2.244-5.9,5.107-5.9,2.839,0,5.149,2.646,5.149,5.9v11.938A1.467,1.467,0,0,1,173.263-404.121Zm-5.852-2.936H171.8v-10.47c0-1.6-1.013-2.961-2.214-2.961s-2.171,1.328-2.171,2.961Z"
      data-name="Path 33"
      fill="#f2f2f2"
      id="Path_33" transform="translate(33.011 28.775)"/>
    <path
      d="M173.263-421.081h-7.32a1.468,1.468,0,0,1-1.468-1.468v-15.214c0-3.989,2.244-7.113,5.107-7.113,2.888,0,5.149,3.124,5.149,7.113v15.214A1.467,1.467,0,0,1,173.263-421.081Zm-5.852-2.936H171.8v-13.747c0-2.353-1.189-4.178-2.214-4.178s-2.171,1.787-2.171,4.178Z"
      data-name="Path 34"
      fill="#f2f2f2"
      id="Path_34" transform="translate(33.011 23.292)"/>
    <path
      d="M213.016-404.442H205.69a1.467,1.467,0,0,1-1.468-1.468v-8.75c0-4.21,2.254-7.508,5.129-7.508s5.133,3.3,5.133,7.508v8.75A1.468,1.468,0,0,1,213.016-404.442Zm-5.859-2.936h4.391v-7.283c0-2.791-1.3-4.573-2.2-4.573-1.015,0-2.194,2-2.194,4.573Z"
      data-name="Path 35"
      fill="#f2f2f2"
      id="Path_35" transform="translate(43.17 29.096)"/>
    <path
      d="M288.526-392.46H281.2a1.469,1.469,0,0,1-1.468-1.468v-8.75c0-4.211,2.254-7.507,5.132-7.507s5.13,3.3,5.13,7.507v8.75A1.469,1.469,0,0,1,288.526-392.46Zm-5.859-2.936h4.391v-7.282c0-2.791-1.3-4.572-2.195-4.572-1.015,0-2.2,2-2.2,4.572Z"
      data-name="Path 36"
      fill="#f2f2f2"
      id="Path_36" transform="translate(62.472 32.159)"/>
    <path
      d="M311.432-392.46h-7.325a1.469,1.469,0,0,1-1.469-1.468v-8.75c0-4.211,2.254-7.507,5.133-7.507s5.129,3.3,5.129,7.507v8.75A1.468,1.468,0,0,1,311.432-392.46Zm-5.858-2.936h4.39v-7.282c0-2.791-1.3-4.572-2.193-4.572-1.016,0-2.2,2-2.2,4.572Z"
      data-name="Path 37"
      fill="#f2f2f2"
      id="Path_37" transform="translate(68.327 32.159)"/>
    <path
      d="M330.064-397.229h-7.325a1.467,1.467,0,0,1-1.468-1.468v-8.75c0-4.21,2.253-7.507,5.132-7.507s5.129,3.3,5.129,7.507v8.75A1.467,1.467,0,0,1,330.064-397.229Zm-5.857-2.936h4.39v-7.283c0-2.79-1.3-4.572-2.193-4.572-1.016,0-2.2,2-2.2,4.572Z"
      data-name="Path 38"
      fill="#f2f2f2"
      id="Path_38" transform="translate(73.09 30.94)"/>
    <path
      d="M372.892-397.229h-7.325A1.468,1.468,0,0,1,364.1-398.7v-8.75c0-4.21,2.254-7.507,5.133-7.507s5.129,3.3,5.129,7.507v8.75A1.467,1.467,0,0,1,372.892-397.229Zm-5.858-2.936h4.39v-7.283c0-2.79-1.3-4.572-2.193-4.572-1.016,0-2.2,2-2.2,4.572Z"
      data-name="Path 39"
      fill="#f2f2f2"
      id="Path_39" transform="translate(84.037 30.94)"/>
    <path
      d="M346.986-439.11h-7.328a1.469,1.469,0,0,1-1.468-1.469v-8.749c0-4.211,2.254-7.508,5.132-7.508s5.133,3.3,5.133,7.508v8.749A1.469,1.469,0,0,1,346.986-439.11Zm-5.86-2.937h4.392v-7.281c0-2.791-1.3-4.572-2.2-4.572-1.015,0-2.2,2-2.2,4.572Z"
      data-name="Path 40"
      fill="#f2f2f2"
      id="Path_40" transform="translate(77.414 20.234)"/>
    <path
      d="M356.631-439.11H349.3a1.469,1.469,0,0,1-1.468-1.469v-8.749c0-4.211,2.254-7.508,5.132-7.508s5.132,3.3,5.132,7.508v8.749A1.468,1.468,0,0,1,356.631-439.11Zm-5.86-2.937h4.392v-7.281c0-2.791-1.3-4.572-2.2-4.572-1.015,0-2.2,2-2.2,4.572Z"
      data-name="Path 41"
      fill="#f2f2f2"
      id="Path_41" transform="translate(79.88 20.234)"/>
    <path
      d="M129.512-420.162h-7.327a1.468,1.468,0,0,1-1.468-1.468v-8.75c0-4.21,2.254-7.509,5.133-7.509s5.129,3.3,5.129,7.509v8.75A1.467,1.467,0,0,1,129.512-420.162Zm-5.857-2.936h4.39v-7.283c0-2.792-1.3-4.573-2.194-4.573-1.016,0-2.2,2-2.2,4.573Z"
      data-name="Path 42"
      fill="#f2f2f2"
      id="Path_42" transform="translate(21.826 25.078)"/>
    <path
      d="M129.512-451.9h-7.327a1.469,1.469,0,0,1-1.468-1.468v-8.75c0-4.211,2.254-7.507,5.133-7.507s5.129,3.3,5.129,7.507v8.75A1.468,1.468,0,0,1,129.512-451.9Zm-5.857-2.936h4.39v-7.283c0-2.791-1.3-4.572-2.194-4.572-1.016,0-2.2,2-2.2,4.572Z"
      data-name="Path 43"
      fill="#f2f2f2"
      id="Path_43" transform="translate(21.826 16.965)"/>
    <path
      d="M156.616-445.471h-6.863a1.469,1.469,0,0,1-1.469-1.468v-16.54c0-4.786,1.032-12.885,4.9-12.885s4.9,8.1,4.9,12.885v16.54A1.469,1.469,0,0,1,156.616-445.471Zm-5.4-2.936h3.928v-15.072c0-6.264-1.493-9.632-2.116-9.98-.328.34-1.812,3.69-1.812,9.98Z"
      data-name="Path 44"
      fill="#f2f2f2"
      id="Path_44" transform="translate(28.872 15.243)"/>
    <path
      d="M143.865-414.418H113.473A1.469,1.469,0,0,1,112-415.886a1.469,1.469,0,0,1,1.468-1.469h30.392a1.468,1.468,0,0,1,1.468,1.469A1.468,1.468,0,0,1,143.865-414.418Z"
      data-name="Path 45"
      fill="#f2f2f2"
      id="Path_45" transform="translate(19.599 30.326)"/>
    <path
      d="M125.335-394.346H95.06a1.469,1.469,0,0,1-1.468-1.468,1.468,1.468,0,0,1,1.468-1.468h30.275a1.468,1.468,0,0,1,1.469,1.468A1.469,1.469,0,0,1,125.335-394.346Z"
      data-name="Path 46"
      fill="#f2f2f2"
      id="Path_46" transform="translate(14.892 35.457)"/>
    <path
      d="M119.2-392.2a1.47,1.47,0,0,1-1.453-1.269c-1.112-8.1-7.5-9.255-7.768-9.3l-5.272.019a1.469,1.469,0,0,1-1.468-1.468,1.469,1.469,0,0,1,1.468-1.468h5.5c3.265.487,9.313,3.558,10.445,11.819a1.466,1.466,0,0,1-1.256,1.654A1.335,1.335,0,0,1,119.2-392.2Z"
      data-name="Path 47"
      fill="#f2f2f2"
      id="Path_47" transform="translate(17.357 33.309)"/>
    <path
      d="M215.183-341.289a1.469,1.469,0,0,1-1.469-1.468V-426.8a1.469,1.469,0,0,1,1.469-1.468,1.469,1.469,0,0,1,1.468,1.468v84.038A1.469,1.469,0,0,1,215.183-341.289Z"
      data-name="Path 48"
      fill="#f2f2f2"
      id="Path_48" transform="translate(45.597 27.538)"/>
    <path
      d="M185.749-413.319a1.468,1.468,0,0,1-1.468-1.468v-6.972a1.473,1.473,0,0,1,.183-.712l3.753-6.789a1.465,1.465,0,0,1,2-.573,1.469,1.469,0,0,1,.573,2l-3.57,6.456v6.595A1.469,1.469,0,0,1,185.749-413.319Z"
      data-name="Path 49"
      fill="#f2f2f2"
      id="Path_49" transform="translate(38.073 27.09)"/>
    <path
      d="M192.821-413.319a1.468,1.468,0,0,1-1.468-1.468v-6.595l-3.571-6.456a1.468,1.468,0,0,1,.574-2,1.466,1.466,0,0,1,2,.573l3.754,6.789a1.474,1.474,0,0,1,.183.712v6.972A1.469,1.469,0,0,1,192.821-413.319Z"
      data-name="Path 50"
      fill="#f2f2f2"
      id="Path_50" transform="translate(38.921 27.09)"/>
    <path
      d="M145.988-413.319a1.469,1.469,0,0,1-1.468-1.468v-6.972a1.475,1.475,0,0,1,.183-.712l3.754-6.789a1.464,1.464,0,0,1,2-.573,1.468,1.468,0,0,1,.574,2l-3.571,6.456v6.595A1.469,1.469,0,0,1,145.988-413.319Z"
      data-name="Path 51"
      fill="#f2f2f2"
      id="Path_51" transform="translate(27.91 27.09)"/>
    <path
      d="M153.06-413.319a1.469,1.469,0,0,1-1.468-1.468v-6.595l-3.57-6.456a1.469,1.469,0,0,1,.573-2,1.465,1.465,0,0,1,2,.573l3.754,6.789a1.473,1.473,0,0,1,.183.712v6.972A1.468,1.468,0,0,1,153.06-413.319Z"
      data-name="Path 52"
      fill="#f2f2f2"
      id="Path_52" transform="translate(28.758 27.09)"/>
    <path
      d="M188.738-423.626a1.469,1.469,0,0,1-1.468-1.469v-12.66a1.469,1.469,0,0,1,1.468-1.468,1.468,1.468,0,0,1,1.468,1.468v12.66A1.468,1.468,0,0,1,188.738-423.626Z"
      data-name="Path 53"
      fill="#f2f2f2"
      id="Path_53" transform="translate(38.837 24.737)"/>
    <path
      d="M192.228-433.072H186.54a1.468,1.468,0,0,1-1.468-1.468,1.469,1.469,0,0,1,1.468-1.468h5.688a1.468,1.468,0,0,1,1.468,1.468A1.467,1.467,0,0,1,192.228-433.072Z"
      data-name="Path 54"
      fill="#f2f2f2"
      id="Path_54" transform="translate(38.275 25.558)"/>
    <path
      d="M148.911-423.626a1.468,1.468,0,0,1-1.468-1.469v-12.66a1.468,1.468,0,0,1,1.468-1.468,1.469,1.469,0,0,1,1.468,1.468v12.66A1.469,1.469,0,0,1,148.911-423.626Z"
      data-name="Path 55"
      fill="#f2f2f2"
      id="Path_55" transform="translate(28.657 24.737)"/>
    <path
      d="M152.4-433.072h-5.688a1.467,1.467,0,0,1-1.468-1.468,1.468,1.468,0,0,1,1.468-1.468H152.4a1.469,1.469,0,0,1,1.468,1.468A1.468,1.468,0,0,1,152.4-433.072Z"
      data-name="Path 56"
      fill="#f2f2f2"
      id="Path_56" transform="translate(28.095 25.558)"/>
    <path
      d="M149.448-392.852a4.112,4.112,0,0,1-4.106-4.106,4.112,4.112,0,0,1,4.106-4.106,4.111,4.111,0,0,1,4.1,4.106A4.111,4.111,0,0,1,149.448-392.852Zm0-5.276a1.173,1.173,0,0,0-1.17,1.17,1.173,1.173,0,0,0,1.17,1.17,1.172,1.172,0,0,0,1.169-1.17A1.172,1.172,0,0,0,149.448-398.128Z"
      data-name="Path 57"
      fill="#f2f2f2"
      id="Path_57" transform="translate(28.12 34.491)"/>
    <path
      d="M189.72-392.852a4.112,4.112,0,0,1-4.106-4.106,4.112,4.112,0,0,1,4.106-4.106,4.112,4.112,0,0,1,4.106,4.106A4.112,4.112,0,0,1,189.72-392.852Zm0-5.276a1.173,1.173,0,0,0-1.17,1.17,1.173,1.173,0,0,0,1.17,1.17,1.172,1.172,0,0,0,1.169-1.17A1.172,1.172,0,0,0,189.72-398.128Z"
      data-name="Path 58"
      fill="#f2f2f2"
      id="Path_58" transform="translate(38.414 34.491)"/>
    <path
      d="M170.32-369.808H129.4a1.468,1.468,0,0,1-1.468-1.468,1.468,1.468,0,0,1,1.468-1.468H170.32a1.469,1.469,0,0,1,1.468,1.468A1.469,1.469,0,0,1,170.32-369.808Z"
      data-name="Path 59"
      fill="#f2f2f2"
      id="Path_59" transform="translate(23.67 41.729)"/>
    <path
      d="M217.667-369.808H176.749a1.469,1.469,0,0,1-1.468-1.468,1.469,1.469,0,0,1,1.468-1.468h40.918a1.468,1.468,0,0,1,1.468,1.468A1.468,1.468,0,0,1,217.667-369.808Z"
      data-name="Path 60"
      fill="#f2f2f2"
      id="Path_60" transform="translate(35.773 41.729)"/>
    <path
      d="M126.232-369.908H91.553a1.469,1.469,0,0,1-1.468-1.468,1.469,1.469,0,0,1,1.468-1.469h34.679a1.469,1.469,0,0,1,1.469,1.469A1.469,1.469,0,0,1,126.232-369.908Z"
      data-name="Path 61"
      fill="#f2f2f2"
      id="Path_61" transform="translate(13.996 41.704)"/>
    <path
      d="M147.544-446.112h-6.238a1.468,1.468,0,0,1-1.468-1.468,1.469,1.469,0,0,1,1.468-1.468H144l-1.926-1.926H116.752l-1.927,1.926h2.7a1.469,1.469,0,0,1,1.468,1.468,1.468,1.468,0,0,1-1.468,1.468h-6.239a1.469,1.469,0,0,1-1.357-.905,1.472,1.472,0,0,1,.32-1.6l4.862-4.863a1.468,1.468,0,0,1,1.038-.429h26.539a1.472,1.472,0,0,1,1.038.429l4.862,4.863a1.469,1.469,0,0,1,.319,1.6A1.467,1.467,0,0,1,147.544-446.112Z"
      data-name="Path 62"
      fill="#f2f2f2"
      id="Path_62" transform="translate(19.038 20.983)"/>
    <path
      d="M141.667-445.949a1.469,1.469,0,0,1-1.468-1.468v-23.211H116.622v23.211a1.469,1.469,0,0,1-1.468,1.468,1.468,1.468,0,0,1-1.468-1.468V-472.1a1.467,1.467,0,0,1,1.468-1.468h26.513a1.467,1.467,0,0,1,1.468,1.468v24.679A1.468,1.468,0,0,1,141.667-445.949Z"
      data-name="Path 63"
      fill="#f2f2f2"
      id="Path_63" transform="translate(20.028 15.959)"/>
    <path
      d="M115.151-466.221a1.457,1.457,0,0,1-.765-.216,1.468,1.468,0,0,1-.485-2.019l13.271-21.652a1.468,1.468,0,0,1,1.252-.7h0a1.464,1.464,0,0,1,1.252.7l13.243,21.652a1.468,1.468,0,0,1-.485,2.019,1.466,1.466,0,0,1-2.019-.486l-11.994-19.606-12.016,19.606A1.465,1.465,0,0,1,115.151-466.221Z"
      data-name="Path 64"
      fill="#f2f2f2"
      id="Path_64" transform="translate(20.028 11.551)"/>
    <path
      d="M177.222-447.831a1.469,1.469,0,0,1-1.468-1.468v-8.542h-4.037a1.469,1.469,0,0,1-1.468-1.468v-23.3H144.3v23.3a1.469,1.469,0,0,1-1.468,1.468h-5.98a1.468,1.468,0,0,1-1.468-1.468,1.467,1.467,0,0,1,1.468-1.468h4.513v-23.3a1.467,1.467,0,0,1,1.468-1.468h28.882a1.467,1.467,0,0,1,1.468,1.468v23.3h4.037a1.467,1.467,0,0,1,1.468,1.468v10.01A1.468,1.468,0,0,1,177.222-447.831Z"
      data-name="Path 65"
      fill="#f2f2f2"
      id="Path_65" transform="translate(25.575 12.896)"/>
    <path
      d="M170.879-480.856a1.461,1.461,0,0,1-1.116-.515l-6.923-8.11h-13.18l-6.925,8.11a1.464,1.464,0,0,1-2.07.163,1.47,1.47,0,0,1-.162-2.07l7.364-8.624a1.467,1.467,0,0,1,1.116-.515h14.534a1.468,1.468,0,0,1,1.116.515l7.363,8.624a1.471,1.471,0,0,1-.163,2.07A1.463,1.463,0,0,1,170.879-480.856Z"
      data-name="Path 66"
      fill="#f2f2f2"
      id="Path_66" transform="translate(26.793 11.14)"/>
    <path
      d="M162.017-484.22a1.467,1.467,0,0,1-1.468-1.468v-15.659l-5.8-7.76-5.8,7.76v15.659a1.468,1.468,0,0,1-1.468,1.468,1.467,1.467,0,0,1-1.468-1.468v-16.146a1.473,1.473,0,0,1,.293-.88l7.266-9.725a1.522,1.522,0,0,1,2.352,0l7.266,9.725a1.473,1.473,0,0,1,.293.88v16.146A1.468,1.468,0,0,1,162.017-484.22Z"
      data-name="Path 67"
      fill="#f2f2f2"
      id="Path_67" transform="translate(28.292 5.88)"/>
    <path
      d="M166.4-502.924H144.746a1.468,1.468,0,0,1-1.468-1.468,1.469,1.469,0,0,1,1.468-1.468H166.4a1.469,1.469,0,0,1,1.468,1.468A1.468,1.468,0,0,1,166.4-502.924Z"
      data-name="Path 68"
      fill="#f2f2f2"
      id="Path_68" transform="translate(27.592 7.703)"/>
    <path
      d="M153.27-508.478a1.469,1.469,0,0,1-1.468-1.468v-7.89a1.468,1.468,0,0,1,1.468-1.468,1.467,1.467,0,0,1,1.468,1.468v7.89A1.468,1.468,0,0,1,153.27-508.478Z"
      data-name="Path 69"
      fill="#f2f2f2"
      id="Path_69" transform="translate(29.771 4.267)"/>
    <path
      d="M183.179-435.709a1.469,1.469,0,0,1-1.468-1.468v-9.541a1.464,1.464,0,0,1,.508-1.11l4.594-3.967v-10.474a1.469,1.469,0,0,1,1.469-1.468,1.469,1.469,0,0,1,1.468,1.468v11.147a1.464,1.464,0,0,1-.509,1.11l-4.6,3.967v8.868A1.468,1.468,0,0,1,183.179-435.709Z"
      data-name="Path 70"
      fill="#f2f2f2"
      id="Path_70" transform="translate(37.416 18.471)"/>
    <path
      d="M199.4-435.709a1.469,1.469,0,0,1-1.468-1.468v-8.868l-4.594-3.967a1.464,1.464,0,0,1-.508-1.11v-11.147a1.469,1.469,0,0,1,1.468-1.468,1.469,1.469,0,0,1,1.468,1.468V-451.8l4.594,3.967a1.46,1.46,0,0,1,.508,1.11v9.541A1.468,1.468,0,0,1,199.4-435.709Z"
      data-name="Path 71"
      fill="#f2f2f2"
      id="Path_71" transform="translate(40.257 18.471)"/>
    <path
      d="M202.087-460.8H183.764a1.467,1.467,0,0,1-1.468-1.468,1.468,1.468,0,0,1,1.468-1.468h18.323a1.468,1.468,0,0,1,1.468,1.468A1.467,1.467,0,0,1,202.087-460.8Z"
      data-name="Path 72"
      fill="#f2f2f2"
      id="Path_72" transform="translate(37.566 18.471)"/>
    <path
      d="M187.283-455.227a1.467,1.467,0,0,1-1.464-1.4l-.2-4.633a1.467,1.467,0,0,1,.4-1.08,1.475,1.475,0,0,1,1.061-.453h1.17v-3.616a1.413,1.413,0,0,1,.048-.369l1.684-6.476v-10.822a1.468,1.468,0,0,1,1.468-1.468,1.468,1.468,0,0,1,1.468,1.468v11.009a1.414,1.414,0,0,1-.048.369l-1.684,6.476v4.9a1.468,1.468,0,0,1-1.468,1.468h-1.1l.136,3.1a1.467,1.467,0,0,1-1.4,1.532Z"
      data-name="Path 73"
      fill="#f2f2f2"
      id="Path_73" transform="translate(38.414 12.896)"/>
    <path
      d="M194.855-457.467h-.067a1.467,1.467,0,0,1-1.4-1.532l.136-3.1h-1.1a1.468,1.468,0,0,1-1.468-1.468v-4.9l-1.684-6.477a1.464,1.464,0,0,1,1.051-1.789,1.464,1.464,0,0,1,1.789,1.051l1.731,6.659a1.407,1.407,0,0,1,.048.369v3.616h1.17a1.469,1.469,0,0,1,1.06.453,1.463,1.463,0,0,1,.406,1.08l-.2,4.633A1.468,1.468,0,0,1,194.855-457.467Z"
      data-name="Path 74"
      fill="#f2f2f2"
      id="Path_74" transform="translate(39.335 15.137)"/>
    <path
      d="M113.97-373.107H100.76a1.472,1.472,0,0,1-1.14-.541,1.468,1.468,0,0,1-.3-1.226c.07-.337,1.783-8.233,8.042-8.233s7.973,7.9,8.043,8.233a1.465,1.465,0,0,1-.3,1.226A1.467,1.467,0,0,1,113.97-373.107Zm-11.211-2.936h9.2c-.7-1.738-2.122-4.129-4.6-4.129C104.868-380.171,103.456-377.781,102.759-376.043Z"
      data-name="Path 75"
      fill="#f2f2f2"
      id="Path_75" transform="translate(16.349 39.081)"/>
    <g data-name="Group 2" id="Group_2" transform="translate(41.819 -346.947)">
      <path
        d="M51.527-361.192h-9.56a1.467,1.467,0,0,1-1.145-.55,1.468,1.468,0,0,1-.289-1.237l4.78-21.447a1.524,1.524,0,0,1,2.867,0l4.78,21.447a1.467,1.467,0,0,1-.288,1.237A1.471,1.471,0,0,1,51.527-361.192Zm-7.73-2.936h5.9l-2.948-13.233Z"
        data-name="Path 76"
        fill="#f2f2f2"
        id="Path_76" transform="translate(-40.498 385.433)"/>
      <g data-name="Group 1" id="Group_1" transform="translate(4.781 7.075)">
        <path
          d="M55.74-362.837H49.474a1.468,1.468,0,0,1-1.468-1.468,1.469,1.469,0,0,1,1.468-1.468h4.215l-2.728-8.007-1,2.937a1.475,1.475,0,0,1-1.865.915,1.47,1.47,0,0,1-.915-1.863l2.392-7.014a1.466,1.466,0,0,1,1.389-.993h0a1.467,1.467,0,0,1,1.39.993l4.779,14.026a1.473,1.473,0,0,1-.2,1.328A1.475,1.475,0,0,1,55.74-362.837Z"
          data-name="Path 77"
          fill="#f2f2f2"
          id="Path_77" transform="translate(-43.591 379.798)"/>
        <path
          d="M45.774-357.66a1.468,1.468,0,0,1-1.468-1.468V-367a1.468,1.468,0,0,1,1.468-1.468A1.469,1.469,0,0,1,47.242-367v7.869A1.469,1.469,0,0,1,45.774-357.66Z"
          data-name="Path 78"
          fill="#f2f2f2"
          id="Path_78" transform="translate(-44.306 382.695)"/>
        <path
          d="M50.34-357.66a1.469,1.469,0,0,1-1.468-1.468V-367a1.469,1.469,0,0,1,1.468-1.468A1.468,1.468,0,0,1,51.808-367v7.869A1.468,1.468,0,0,1,50.34-357.66Z"
          data-name="Path 79"
          fill="#f2f2f2"
          id="Path_79" transform="translate(-43.139 382.695)"/>
      </g>
    </g>
    <g data-name="Group 3" id="Group_3" transform="translate(62.159 -348.252)">
      <path
        d="M67.086-365.7A10.4,10.4,0,0,1,56.7-376.083a10.4,10.4,0,0,1,10.388-10.389,10.4,10.4,0,0,1,10.389,10.389A10.4,10.4,0,0,1,67.086-365.7Zm0-17.84a7.461,7.461,0,0,0-7.452,7.452,7.461,7.461,0,0,0,7.452,7.452,7.461,7.461,0,0,0,7.453-7.452A7.461,7.461,0,0,0,67.086-383.535Z"
        data-name="Path 80"
        fill="#f2f2f2"
        id="Path_80" transform="translate(-56.698 386.472)"/>
      <path
        d="M65.27-356.879a1.469,1.469,0,0,1-1.468-1.468v-12.3a1.469,1.469,0,0,1,1.468-1.468,1.468,1.468,0,0,1,1.468,1.468v12.3A1.468,1.468,0,0,1,65.27-356.879Z"
        data-name="Path 81"
        fill="#f2f2f2"
        id="Path_81" transform="translate(-54.882 390.143)"/>
    </g>
    <g data-name="Group 5" id="Group_5" transform="translate(293.221 -346.947)">
      <path
        d="M256.449-361.192h-9.56a1.467,1.467,0,0,1-1.145-.55,1.472,1.472,0,0,1-.289-1.237l4.78-21.447a1.525,1.525,0,0,1,2.868,0l4.78,21.447a1.472,1.472,0,0,1-.289,1.237A1.467,1.467,0,0,1,256.449-361.192Zm-7.73-2.936h5.9l-2.949-13.233Z"
        data-name="Path 82"
        fill="#f2f2f2"
        id="Path_82" transform="translate(-239.52 385.433)"/>
      <g data-name="Group 4" id="Group_4" transform="translate(0 7.177)">
        <path
          d="M248.457-362.858H242.19a1.472,1.472,0,0,1-1.194-.613,1.467,1.467,0,0,1-.2-1.328l4.78-14.026a1.53,1.53,0,0,1,2.78,0l2.388,7.014a1.468,1.468,0,0,1-.915,1.863,1.472,1.472,0,0,1-1.863-.915l-1-2.937-2.73,8.007h4.216a1.468,1.468,0,0,1,1.468,1.468A1.467,1.467,0,0,1,248.457-362.858Z"
          data-name="Path 83"
          fill="#f2f2f2"
          id="Path_83" transform="translate(-240.721 379.716)"/>
        <path
          d="M250.7-357.66a1.469,1.469,0,0,1-1.468-1.468V-367a1.469,1.469,0,0,1,1.468-1.468A1.468,1.468,0,0,1,252.164-367v7.869A1.468,1.468,0,0,1,250.7-357.66Z"
          data-name="Path 84"
          fill="#f2f2f2"
          id="Path_84" transform="translate(-238.547 382.592)"/>
        <path
          d="M246.131-357.66a1.469,1.469,0,0,1-1.468-1.468V-367a1.469,1.469,0,0,1,1.468-1.468A1.469,1.469,0,0,1,247.6-367v7.869A1.469,1.469,0,0,1,246.131-357.66Z"
          data-name="Path 85"
          fill="#f2f2f2"
          id="Path_85" transform="translate(-239.714 382.592)"/>
      </g>
    </g>
    <g data-name="Group 6" id="Group_6" transform="translate(270.504 -348.252)">
      <path
        d="M233.017-365.7a10.4,10.4,0,0,1-10.388-10.388,10.4,10.4,0,0,1,10.388-10.389A10.4,10.4,0,0,1,243.4-376.083,10.4,10.4,0,0,1,233.017-365.7Zm0-17.84a7.46,7.46,0,0,0-7.452,7.452,7.46,7.46,0,0,0,7.452,7.452,7.46,7.46,0,0,0,7.451-7.452A7.46,7.46,0,0,0,233.017-383.535Z"
        data-name="Path 86"
        fill="#f2f2f2"
        id="Path_86" transform="translate(-222.629 386.472)"/>
      <path
        d="M231.2-356.879a1.468,1.468,0,0,1-1.468-1.468v-12.3a1.468,1.468,0,0,1,1.468-1.468,1.469,1.469,0,0,1,1.468,1.468v12.3A1.469,1.469,0,0,1,231.2-356.879Z"
        data-name="Path 87"
        fill="#f2f2f2"
        id="Path_87" transform="translate(-220.813 390.143)"/>
    </g>
    <g data-name="Group 8" id="Group_8" transform="translate(699.089 -346.947)">
      <path
        d="M579.691-361.192h-9.56a1.47,1.47,0,0,1-1.145-.55,1.471,1.471,0,0,1-.288-1.237l4.78-21.447a1.524,1.524,0,0,1,2.867,0l4.78,21.447a1.467,1.467,0,0,1-.289,1.237A1.466,1.466,0,0,1,579.691-361.192Zm-7.728-2.936h5.9l-2.949-13.23Z"
        data-name="Path 88"
        fill="#f2f2f2"
        id="Path_88" transform="translate(-562.763 385.433)"/>
      <g data-name="Group 7" id="Group_7" transform="translate(0 7.075)">
        <path
          d="M571.7-362.837h-6.268a1.476,1.476,0,0,1-1.194-.613,1.47,1.47,0,0,1-.195-1.328l4.78-14.026a1.466,1.466,0,0,1,1.389-.993h0a1.467,1.467,0,0,1,1.39.993l2.389,7.014a1.47,1.47,0,0,1-.915,1.863,1.474,1.474,0,0,1-1.865-.915l-1-2.937-2.728,8.007H571.7a1.469,1.469,0,0,1,1.468,1.468A1.468,1.468,0,0,1,571.7-362.837Z"
          data-name="Path 89"
          fill="#f2f2f2"
          id="Path_89" transform="translate(-563.964 379.798)"/>
        <path
          d="M573.938-357.66a1.469,1.469,0,0,1-1.468-1.468V-367a1.469,1.469,0,0,1,1.468-1.468A1.468,1.468,0,0,1,575.406-367v7.869A1.468,1.468,0,0,1,573.938-357.66Z"
          data-name="Path 90"
          fill="#f2f2f2"
          id="Path_90" transform="translate(-561.79 382.695)"/>
        <path
          d="M569.373-357.66a1.469,1.469,0,0,1-1.468-1.468V-367a1.469,1.469,0,0,1,1.468-1.468A1.468,1.468,0,0,1,570.84-367v7.869A1.468,1.468,0,0,1,569.373-357.66Z"
          data-name="Path 91"
          fill="#f2f2f2"
          id="Path_91" transform="translate(-562.957 382.695)"/>
      </g>
    </g>
    <g data-name="Group 9" id="Group_9" transform="translate(676.369 -348.252)">
      <path
        d="M556.258-365.7a10.4,10.4,0,0,1-10.389-10.388,10.4,10.4,0,0,1,10.389-10.389,10.4,10.4,0,0,1,10.388,10.389A10.4,10.4,0,0,1,556.258-365.7Zm0-17.84a7.46,7.46,0,0,0-7.452,7.452,7.46,7.46,0,0,0,7.452,7.452,7.461,7.461,0,0,0,7.452-7.452A7.461,7.461,0,0,0,556.258-383.535Z"
        data-name="Path 92"
        fill="#f2f2f2"
        id="Path_92" transform="translate(-545.869 386.472)"/>
      <path
        d="M554.442-356.879a1.468,1.468,0,0,1-1.468-1.468v-12.3a1.468,1.468,0,0,1,1.468-1.468,1.469,1.469,0,0,1,1.468,1.468v12.3A1.469,1.469,0,0,1,554.442-356.879Z"
        data-name="Path 93"
        fill="#f2f2f2"
        id="Path_93" transform="translate(-544.053 390.143)"/>
    </g>
    <g data-name="Group 11" id="Group_11" transform="translate(545.969 -347.089)">
      <path
        d="M453.044-361.163h-9.562a1.465,1.465,0,0,1-1.144-.55,1.467,1.467,0,0,1-.289-1.237l4.78-21.447a1.469,1.469,0,0,1,1.433-1.149h0A1.471,1.471,0,0,1,449.7-384.4l4.78,21.447a1.468,1.468,0,0,1-.289,1.237A1.466,1.466,0,0,1,453.044-361.163Zm-7.729-2.936h5.9l-2.95-13.233Z"
        data-name="Path 94"
        fill="#f2f2f2"
        id="Path_94" transform="translate(-442.015 385.546)"/>
      <g data-name="Group 10" id="Group_10" transform="translate(4.779 7.32)">
        <path
          d="M457.256-362.858h-6.268a1.468,1.468,0,0,1-1.468-1.468,1.469,1.469,0,0,1,1.468-1.468H455.2l-2.729-8.007-1,2.937a1.472,1.472,0,0,1-1.863.915,1.47,1.47,0,0,1-.915-1.863l2.39-7.014a1.529,1.529,0,0,1,2.779,0l4.78,14.026a1.471,1.471,0,0,1-.195,1.328A1.476,1.476,0,0,1,457.256-362.858Z"
          data-name="Path 95"
          fill="#f2f2f2"
          id="Path_95" transform="translate(-445.107 379.716)"/>
        <path
          d="M447.29-357.66a1.469,1.469,0,0,1-1.468-1.468V-367a1.469,1.469,0,0,1,1.468-1.468A1.469,1.469,0,0,1,448.759-367v7.869A1.469,1.469,0,0,1,447.29-357.66Z"
          data-name="Path 96"
          fill="#f2f2f2"
          id="Path_96" transform="translate(-445.822 382.592)"/>
        <path
          d="M451.856-357.66a1.468,1.468,0,0,1-1.468-1.468V-367a1.468,1.468,0,0,1,1.468-1.468A1.469,1.469,0,0,1,453.324-367v7.869A1.469,1.469,0,0,1,451.856-357.66Z"
          data-name="Path 97"
          fill="#f2f2f2"
          id="Path_97" transform="translate(-444.655 382.592)"/>
      </g>
    </g>
    <g data-name="Group 12" id="Group_12" transform="translate(566.309 -348.252)">
      <path
        d="M468.6-365.7a10.4,10.4,0,0,1-10.388-10.388A10.4,10.4,0,0,1,468.6-386.472a10.4,10.4,0,0,1,10.386,10.389A10.4,10.4,0,0,1,468.6-365.7Zm0-17.84a7.46,7.46,0,0,0-7.452,7.452,7.46,7.46,0,0,0,7.452,7.452,7.46,7.46,0,0,0,7.451-7.452A7.46,7.46,0,0,0,468.6-383.535Z"
        data-name="Path 98"
        fill="#f2f2f2"
        id="Path_98" transform="translate(-458.215 386.472)"/>
      <path
        d="M466.787-356.879a1.469,1.469,0,0,1-1.468-1.468v-12.3a1.469,1.469,0,0,1,1.468-1.468,1.468,1.468,0,0,1,1.468,1.468v12.3A1.468,1.468,0,0,1,466.787-356.879Z"
        data-name="Path 99"
        fill="#f2f2f2"
        id="Path_99" transform="translate(-456.399 390.143)"/>
    </g>
    <path
      d="M144.7-376.639a1.466,1.466,0,0,1-.919-.323l-4.4-3.533a1.47,1.47,0,0,1-.226-2.064,1.471,1.471,0,0,1,2.064-.225l3.511,2.818,3.773-2.844a1.461,1.461,0,0,1,2.055.287,1.467,1.467,0,0,1-.289,2.055l-4.683,3.532A1.463,1.463,0,0,1,144.7-376.639Z"
      data-name="Path 100"
      fill="#f2f2f2"
      id="Path_100" transform="translate(26.454 39.08)"/>
    <path
      d="M151.839-376.639a1.463,1.463,0,0,1-.919-.323l-4.4-3.533a1.469,1.469,0,0,1-.226-2.064,1.471,1.471,0,0,1,2.064-.225l3.511,2.818,3.773-2.844a1.46,1.46,0,0,1,2.055.287,1.467,1.467,0,0,1-.289,2.055l-4.683,3.532A1.463,1.463,0,0,1,151.839-376.639Z"
      data-name="Path 101"
      fill="#f2f2f2"
      id="Path_101" transform="translate(28.28 39.08)"/>
    <path
      d="M188.5-376.639a1.463,1.463,0,0,1-.919-.323l-4.4-3.533a1.47,1.47,0,0,1-.225-2.064,1.471,1.471,0,0,1,2.064-.225l3.511,2.818,3.773-2.844a1.459,1.459,0,0,1,2.054.287,1.466,1.466,0,0,1-.289,2.055l-4.682,3.532A1.466,1.466,0,0,1,188.5-376.639Z"
      data-name="Path 102"
      fill="#f2f2f2"
      id="Path_102" transform="translate(37.65 39.08)"/>
    <path
      d="M195.64-376.639a1.469,1.469,0,0,1-.92-.323l-4.4-3.533a1.47,1.47,0,0,1-.225-2.064,1.471,1.471,0,0,1,2.064-.225l3.511,2.818,3.773-2.844a1.459,1.459,0,0,1,2.054.287,1.465,1.465,0,0,1-.289,2.055l-4.682,3.532A1.466,1.466,0,0,1,195.64-376.639Z"
      data-name="Path 103"
      fill="#f2f2f2"
      id="Path_103" transform="translate(39.476 39.08)"/>
    <path d="M260.364-360.159" data-name="Path 104" fill="#f2f2f2" id="Path_104" transform="translate(57.521 44.946)"/>
    <path
      d="M260.664-351.853a1.468,1.468,0,0,1-1.468-1.468v-32.119a1.468,1.468,0,0,1,1.468-1.468H328.37a1.468,1.468,0,0,1,1.468,1.468v32.111a1.468,1.468,0,0,1-1.468,1.468,1.469,1.469,0,0,1-1.468-1.468v-30.643H262.132v30.651A1.469,1.469,0,0,1,260.664-351.853Z"
      data-name="Path 105"
      fill="#f2f2f2"
      id="Path_105" transform="translate(57.222 38.109)"/>
    <path
      d="M380.107-351.853a1.468,1.468,0,0,1-1.468-1.468v-32.119a1.468,1.468,0,0,1,1.468-1.468h67.707a1.468,1.468,0,0,1,1.468,1.468v32.111a1.468,1.468,0,0,1-1.468,1.468,1.469,1.469,0,0,1-1.468-1.468v-30.643H381.575v30.651A1.469,1.469,0,0,1,380.107-351.853Z"
      data-name="Path 106"
      fill="#f2f2f2"
      id="Path_106" transform="translate(87.754 38.109)"/>
    <g data-name="Group 13" id="Group_13" transform="translate(322.374 -339.33)">
      <path
        d="M265.407-355.025a1.469,1.469,0,0,1-1.468-1.468v-13.714a1.451,1.451,0,0,1,.164-.675c.732-1.414,4.6-8.47,8.865-8.485h.005a1.469,1.469,0,0,1,1.469,1.461,1.469,1.469,0,0,1-1.463,1.474c-1.775.005-4.614,3.825-6.1,6.588v13.351A1.469,1.469,0,0,1,265.407-355.025Z"
        data-name="Path 107"
        fill="#f2f2f2"
        id="Path_107" transform="translate(-263.939 379.367)"/>
      <path
        d="M279-355.025a1.469,1.469,0,0,1-1.468-1.468v-13.35c-1.5-2.764-4.336-6.584-6.1-6.589a1.468,1.468,0,0,1-1.463-1.474,1.468,1.468,0,0,1,1.468-1.461h.006c4.264.015,8.133,7.072,8.865,8.485a1.453,1.453,0,0,1,.164.675v13.714A1.469,1.469,0,0,1,279-355.025Z"
        data-name="Path 108"
        fill="#f2f2f2"
        id="Path_108" transform="translate(-262.399 379.367)"/>
    </g>
    <g data-name="Group 14" id="Group_14" transform="translate(342.642 -339.249)">
      <path
        d="M281.549-354.957a1.468,1.468,0,0,1-1.468-1.468v-13.716a1.463,1.463,0,0,1,.163-.674c.732-1.415,4.6-8.472,8.866-8.487h.005a1.469,1.469,0,0,1,1.468,1.463,1.468,1.468,0,0,1-1.462,1.473c-1.775.006-4.614,3.825-6.1,6.588v13.354A1.469,1.469,0,0,1,281.549-354.957Z"
        data-name="Path 109"
        fill="#f2f2f2"
        id="Path_109" transform="translate(-280.081 379.302)"/>
      <path
        d="M295.144-354.957a1.469,1.469,0,0,1-1.468-1.468v-13.351c-1.5-2.764-4.337-6.585-6.106-6.591a1.468,1.468,0,0,1-1.463-1.473,1.469,1.469,0,0,1,1.468-1.463h.006c4.264.015,8.134,7.072,8.866,8.487a1.463,1.463,0,0,1,.165.674v13.716A1.468,1.468,0,0,1,295.144-354.957Z"
        data-name="Path 110"
        fill="#f2f2f2"
        id="Path_110" transform="translate(-278.541 379.302)"/>
    </g>
    <g data-name="Group 15" id="Group_15" transform="translate(362.909 -339.33)">
      <path
        d="M297.69-355.025a1.469,1.469,0,0,1-1.468-1.468v-13.714a1.452,1.452,0,0,1,.164-.675c.732-1.414,4.6-8.47,8.865-8.485h.006a1.468,1.468,0,0,1,1.468,1.461,1.468,1.468,0,0,1-1.463,1.474c-1.776.005-4.613,3.825-6.1,6.588v13.351A1.468,1.468,0,0,1,297.69-355.025Z"
        data-name="Path 111"
        fill="#f2f2f2"
        id="Path_111" transform="translate(-296.222 379.367)"/>
      <path
        d="M311.286-355.025a1.468,1.468,0,0,1-1.468-1.468v-13.35c-1.5-2.764-4.337-6.584-6.107-6.589a1.468,1.468,0,0,1-1.462-1.474,1.468,1.468,0,0,1,1.468-1.461h.005c4.265.015,8.135,7.072,8.867,8.485a1.482,1.482,0,0,1,.165.675v13.714A1.469,1.469,0,0,1,311.286-355.025Z"
        data-name="Path 112"
        fill="#f2f2f2"
        id="Path_112" transform="translate(-294.681 379.367)"/>
    </g>
    <g data-name="Group 16" id="Group_16" transform="translate(472.411 -339.33)">
      <path
        d="M384.9-355.025a1.469,1.469,0,0,1-1.468-1.468v-13.714a1.45,1.45,0,0,1,.165-.675c.732-1.414,4.6-8.47,8.865-8.485h.006a1.467,1.467,0,0,1,1.468,1.461,1.468,1.468,0,0,1-1.463,1.474c-1.775.005-4.613,3.825-6.1,6.589v13.35A1.468,1.468,0,0,1,384.9-355.025Z"
        data-name="Path 113"
        fill="#f2f2f2"
        id="Path_113" transform="translate(-383.432 379.367)"/>
      <path
        d="M398.493-355.025a1.469,1.469,0,0,1-1.468-1.468v-13.35c-1.494-2.764-4.334-6.584-6.1-6.589a1.468,1.468,0,0,1-1.461-1.474,1.467,1.467,0,0,1,1.468-1.461h.005c4.265.015,8.134,7.072,8.866,8.485a1.467,1.467,0,0,1,.163.675v13.714A1.468,1.468,0,0,1,398.493-355.025Z"
        data-name="Path 114"
        fill="#f2f2f2"
        id="Path_114" transform="translate(-381.891 379.367)"/>
    </g>
    <g data-name="Group 17" id="Group_17" transform="translate(492.679 -339.249)">
      <path
        d="M401.042-354.957a1.469,1.469,0,0,1-1.468-1.468v-13.716a1.452,1.452,0,0,1,.164-.674c.732-1.415,4.6-8.472,8.865-8.487h.006a1.469,1.469,0,0,1,1.468,1.463,1.468,1.468,0,0,1-1.463,1.473c-1.775.006-4.613,3.825-6.1,6.591v13.351A1.468,1.468,0,0,1,401.042-354.957Z"
        data-name="Path 115"
        fill="#f2f2f2"
        id="Path_115" transform="translate(-399.574 379.302)"/>
      <path
        d="M414.638-354.957a1.468,1.468,0,0,1-1.468-1.468v-13.351c-1.5-2.764-4.337-6.585-6.107-6.591a1.467,1.467,0,0,1-1.461-1.473,1.469,1.469,0,0,1,1.468-1.463h0c4.264.015,8.135,7.072,8.867,8.487a1.481,1.481,0,0,1,.165.674v13.716A1.469,1.469,0,0,1,414.638-354.957Z"
        data-name="Path 116"
        fill="#f2f2f2"
        id="Path_116" transform="translate(-398.034 379.302)"/>
    </g>
    <g data-name="Group 18" id="Group_18" transform="translate(512.947 -339.33)">
      <path
        d="M417.184-355.025a1.468,1.468,0,0,1-1.468-1.468v-13.714a1.468,1.468,0,0,1,.164-.675c.732-1.414,4.6-8.47,8.866-8.485h.006a1.468,1.468,0,0,1,1.468,1.461,1.468,1.468,0,0,1-1.463,1.474c-1.776.005-4.613,3.825-6.106,6.589v13.35A1.469,1.469,0,0,1,417.184-355.025Z"
        data-name="Path 117"
        fill="#f2f2f2"
        id="Path_117" transform="translate(-415.716 379.367)"/>
      <path
        d="M430.778-355.025a1.469,1.469,0,0,1-1.468-1.468v-13.35c-1.494-2.764-4.334-6.584-6.1-6.589a1.468,1.468,0,0,1-1.461-1.474,1.467,1.467,0,0,1,1.468-1.461h0c4.265.015,8.133,7.072,8.866,8.485a1.466,1.466,0,0,1,.163.675v13.714A1.468,1.468,0,0,1,430.778-355.025Z"
        data-name="Path 118"
        fill="#f2f2f2"
        id="Path_118" transform="translate(-414.175 379.367)"/>
    </g>
    <g data-name="Group 19" id="Group_19" transform="translate(395.889 -339.33)">
      <path
        d="M323.956-355.025a1.469,1.469,0,0,1-1.468-1.468v-13.714a1.458,1.458,0,0,1,.186-.713c.782-1.409,4.911-8.433,9.4-8.448h.006a1.467,1.467,0,0,1,1.468,1.461,1.469,1.469,0,0,1-1.463,1.474c-1.981.008-5,3.766-6.657,6.613v13.326A1.468,1.468,0,0,1,323.956-355.025Z"
        data-name="Path 119"
        fill="#f2f2f2"
        id="Path_119" transform="translate(-322.488 379.367)"/>
      <path
        d="M338.542-355.025a1.469,1.469,0,0,1-1.468-1.468v-13.326c-1.651-2.848-4.675-6.606-6.657-6.613a1.468,1.468,0,0,1-1.461-1.474,1.466,1.466,0,0,1,1.468-1.461h.005c4.486.015,8.615,7.039,9.4,8.448a1.454,1.454,0,0,1,.185.713v13.714A1.468,1.468,0,0,1,338.542-355.025Z"
        data-name="Path 120"
        fill="#f2f2f2"
        id="Path_120" transform="translate(-320.835 379.367)"/>
    </g>
    <g data-name="Group 20" id="Group_20" transform="translate(417.635 -339.249)">
      <path
        d="M341.275-354.957a1.468,1.468,0,0,1-1.468-1.468v-13.716a1.461,1.461,0,0,1,.185-.713c.782-1.408,4.911-8.433,9.4-8.448h.005a1.467,1.467,0,0,1,1.468,1.463,1.467,1.467,0,0,1-1.462,1.473c-1.983.007-5.006,3.765-6.657,6.613v13.328A1.469,1.469,0,0,1,341.275-354.957Z"
        data-name="Path 121"
        fill="#f2f2f2"
        id="Path_121" transform="translate(-339.807 379.302)"/>
      <path
        d="M355.861-354.957a1.468,1.468,0,0,1-1.468-1.468v-13.328c-1.652-2.848-4.676-6.606-6.657-6.613a1.468,1.468,0,0,1-1.463-1.473,1.468,1.468,0,0,1,1.468-1.463h.006c4.485.015,8.615,7.04,9.4,8.448a1.449,1.449,0,0,1,.186.713v13.716A1.469,1.469,0,0,1,355.861-354.957Z"
        data-name="Path 122"
        fill="#f2f2f2"
        id="Path_122" transform="translate(-338.154 379.302)"/>
    </g>
    <g data-name="Group 21" id="Group_21" transform="translate(439.382 -339.33)">
      <path
        d="M358.595-355.025a1.468,1.468,0,0,1-1.468-1.468v-13.714a1.455,1.455,0,0,1,.185-.713c.782-1.409,4.911-8.433,9.4-8.448h0a1.466,1.466,0,0,1,1.468,1.461,1.468,1.468,0,0,1-1.462,1.474c-1.983.008-5.006,3.766-6.657,6.613v13.326A1.469,1.469,0,0,1,358.595-355.025Z"
        data-name="Path 123"
        fill="#f2f2f2"
        id="Path_123" transform="translate(-357.127 379.367)"/>
      <path
        d="M373.181-355.025a1.468,1.468,0,0,1-1.468-1.468v-13.326c-1.652-2.848-4.676-6.606-6.657-6.613a1.469,1.469,0,0,1-1.463-1.474,1.467,1.467,0,0,1,1.468-1.461h.006c4.485.015,8.613,7.039,9.4,8.448a1.457,1.457,0,0,1,.186.713v13.714A1.469,1.469,0,0,1,373.181-355.025Z"
        data-name="Path 124"
        fill="#f2f2f2"
        id="Path_124" transform="translate(-355.474 379.367)"/>
    </g>
    <path
      d="M396.423-350.5a1.468,1.468,0,0,1-1.468-1.468v-37.3h-78.9v5.179a1.467,1.467,0,0,1-1.468,1.468,1.468,1.468,0,0,1-1.468-1.468v-6.647a1.468,1.468,0,0,1,1.468-1.468h81.836a1.468,1.468,0,0,1,1.468,1.468v38.766A1.469,1.469,0,0,1,396.423-350.5Z"
      data-name="Path 125"
      fill="#f2f2f2"
      id="Path_125" transform="translate(71.006 36.756)"/>
    <path
      d="M394.344-378.068a1.468,1.468,0,0,1-1.468-1.468v-53.537H317.37v53.537a1.468,1.468,0,0,1-1.468,1.468,1.469,1.469,0,0,1-1.468-1.468v-55a1.469,1.469,0,0,1,1.468-1.468h78.442a1.469,1.469,0,0,1,1.468,1.468v55A1.469,1.469,0,0,1,394.344-378.068Z"
      data-name="Path 126"
      fill="#f2f2f2"
      id="Path_126" transform="translate(71.342 25.558)"/>
    <path
      d="M395.547-432.055a1.465,1.465,0,0,1-1.141-.542,1.47,1.47,0,0,1,.216-2.067l2.947-2.387H315.205l2.848,2.407a1.47,1.47,0,0,1,.175,2.069,1.477,1.477,0,0,1-2.071.175l-5.911-5a1.472,1.472,0,0,1-.429-1.627,1.466,1.466,0,0,1,1.377-.963h90.517a1.469,1.469,0,0,1,1.384.977,1.472,1.472,0,0,1-.458,1.632l-6.165,5A1.469,1.469,0,0,1,395.547-432.055Z"
      data-name="Path 127"
      fill="#f2f2f2"
      id="Path_127" transform="translate(70.139 24.541)"/>
    <path
      d="M365.686-431.448a1.469,1.469,0,0,1-1.468-1.468v-26.055h-27.34v26.055a1.468,1.468,0,0,1-1.468,1.468,1.469,1.469,0,0,1-1.468-1.468v-27.523a1.469,1.469,0,0,1,1.468-1.468h30.275a1.468,1.468,0,0,1,1.468,1.468v27.523A1.468,1.468,0,0,1,365.686-431.448Z"
      data-name="Path 128"
      fill="#f2f2f2"
      id="Path_128" transform="translate(76.329 18.938)"/>
    <path
      d="M295.944-423.815A5.189,5.189,0,0,1,290.761-429a5.189,5.189,0,0,1,5.183-5.183A5.189,5.189,0,0,1,301.127-429,5.189,5.189,0,0,1,295.944-423.815Zm0-7.431A2.251,2.251,0,0,0,293.7-429a2.251,2.251,0,0,0,2.247,2.247A2.252,2.252,0,0,0,298.192-429,2.252,2.252,0,0,0,295.944-431.245Z"
      data-name="Path 129"
      fill="#f2f2f2"
      id="Path_129" transform="translate(65.291 26.025)"/>
    <path
      d="M273.805-423.815A5.19,5.19,0,0,1,268.621-429a5.19,5.19,0,0,1,5.184-5.183A5.19,5.19,0,0,1,278.989-429,5.19,5.19,0,0,1,273.805-423.815Zm0-7.431A2.252,2.252,0,0,0,271.557-429a2.252,2.252,0,0,0,2.249,2.247A2.252,2.252,0,0,0,276.053-429,2.252,2.252,0,0,0,273.805-431.245Z"
      data-name="Path 130"
      fill="#f2f2f2"
      id="Path_130" transform="translate(59.631 26.025)"/>
    <path
      d="M270.089-372.644a1.468,1.468,0,0,1-1.468-1.468v-55.642a1.469,1.469,0,0,1,1.468-1.468,1.468,1.468,0,0,1,1.468,1.468v55.642A1.467,1.467,0,0,1,270.089-372.644Z"
      data-name="Path 131"
      fill="#f2f2f2"
      id="Path_131" transform="translate(59.631 26.782)"/>
    <path
      d="M276.008-372.644a1.467,1.467,0,0,1-1.468-1.468v-55.642a1.468,1.468,0,0,1,1.468-1.468,1.469,1.469,0,0,1,1.468,1.468v55.642A1.468,1.468,0,0,1,276.008-372.644Z"
      data-name="Path 132"
      fill="#f2f2f2"
      id="Path_132" transform="translate(61.145 26.782)"/>
    <path
      d="M292.229-372.644a1.467,1.467,0,0,1-1.468-1.468v-55.642a1.468,1.468,0,0,1,1.468-1.468,1.469,1.469,0,0,1,1.468,1.468v55.642A1.468,1.468,0,0,1,292.229-372.644Z"
      data-name="Path 133"
      fill="#f2f2f2"
      id="Path_133" transform="translate(65.291 26.782)"/>
    <path
      d="M298.147-372.644a1.468,1.468,0,0,1-1.468-1.468v-55.642a1.469,1.469,0,0,1,1.468-1.468,1.469,1.469,0,0,1,1.468,1.468v55.642A1.468,1.468,0,0,1,298.147-372.644Z"
      data-name="Path 134"
      fill="#f2f2f2"
      id="Path_134" transform="translate(66.803 26.782)"/>
    <path
      d="M328.789-411.168h-63.3a1.469,1.469,0,0,1-1.468-1.469,1.469,1.469,0,0,1,1.468-1.468h63.3a1.468,1.468,0,0,1,1.468,1.468A1.468,1.468,0,0,1,328.789-411.168Z"
      data-name="Path 135"
      fill="#f2f2f2"
      id="Path_135" transform="translate(58.455 31.157)"/>
    <path
      d="M328.789-420.488h-63.3a1.468,1.468,0,0,1-1.468-1.468,1.469,1.469,0,0,1,1.468-1.468h63.3a1.468,1.468,0,0,1,1.468,1.468A1.467,1.467,0,0,1,328.789-420.488Z"
      data-name="Path 136"
      fill="#f2f2f2"
      id="Path_136" transform="translate(58.455 28.775)"/>
    <path
      d="M290.37-420.369c-4.023,0-5.978-2.221-7.416-3.853a5.776,5.776,0,0,0-2.406-1.988,3.188,3.188,0,0,0-3.413.629,1.476,1.476,0,0,1-2.058.18,1.455,1.455,0,0,1-.219-2.032,6.025,6.025,0,0,1,6.514-1.593,8.148,8.148,0,0,1,3.785,2.864c1.38,1.568,2.624,2.953,5.4,2.857a4.179,4.179,0,0,0,4.347-4.313,1.468,1.468,0,0,1,1.468-1.468,1.469,1.469,0,0,1,1.468,1.468,7.073,7.073,0,0,1-7.214,7.249Z"
      data-name="Path 137"
      fill="#f2f2f2"
      id="Path_137" transform="translate(61.145 27.261)"/>
    <path
      d="M304.15-420.369h-.257a7.073,7.073,0,0,1-7.214-7.249,1.469,1.469,0,0,1,1.468-1.468,1.469,1.469,0,0,1,1.468,1.468,4.165,4.165,0,0,0,4.347,4.313c2.706.082,4.02-1.288,5.4-2.857a8.154,8.154,0,0,1,3.784-2.864,6.038,6.038,0,0,1,6.514,1.593,1.466,1.466,0,0,1-.231,2.063,1.469,1.469,0,0,1-2.047-.212,3.184,3.184,0,0,0-3.41-.628,5.768,5.768,0,0,0-2.406,1.988C310.129-422.59,308.174-420.369,304.15-420.369Z"
      data-name="Path 138"
      fill="#f2f2f2"
      id="Path_138" transform="translate(66.803 27.261)"/>
    <path
      d="M414.566-392.46h-7.325a1.468,1.468,0,0,1-1.468-1.468v-8.75c0-4.211,2.252-7.507,5.129-7.507s5.132,3.3,5.132,7.507v8.75A1.468,1.468,0,0,1,414.566-392.46Zm-5.857-2.936h4.39v-7.282c0-2.574-1.18-4.572-2.2-4.572-.894,0-2.193,1.78-2.193,4.572Z"
      data-name="Path 139"
      fill="#f2f2f2"
      id="Path_139" transform="translate(94.689 32.159)"/>
    <path
      d="M496.438-430.9h-7.327a1.469,1.469,0,0,1-1.468-1.468v-8.75c0-4.21,2.254-7.51,5.13-7.51s5.132,3.3,5.132,7.51v8.75A1.469,1.469,0,0,1,496.438-430.9Zm-5.859-2.936h4.391v-7.282c0-2.577-1.182-4.574-2.2-4.574-.9,0-2.195,1.782-2.195,4.574Z"
      data-name="Path 140"
      fill="#f2f2f2"
      id="Path_140" transform="translate(115.617 22.332)"/>
    <path
      d="M496.438-402.781h-7.327a1.469,1.469,0,0,1-1.468-1.468V-413c0-4.21,2.254-7.51,5.13-7.51s5.132,3.3,5.132,7.51v8.75A1.469,1.469,0,0,1,496.438-402.781Zm-5.859-2.936h4.391V-413c0-2.576-1.182-4.573-2.2-4.573-.9,0-2.195,1.78-2.195,4.573Z"
      data-name="Path 141"
      fill="#f2f2f2"
      id="Path_141" transform="translate(115.617 29.52)"/>
    <path
      d="M496.438-379.094h-7.327a1.468,1.468,0,0,1-1.468-1.468v-8.749c0-4.211,2.254-7.51,5.13-7.51s5.132,3.3,5.132,7.51v8.749A1.468,1.468,0,0,1,496.438-379.094Zm-5.859-2.936h4.391v-7.281c0-2.577-1.182-4.574-2.2-4.574-.9,0-2.195,1.782-2.195,4.574Z"
      data-name="Path 142"
      fill="#f2f2f2"
      id="Path_142" transform="translate(115.617 35.575)"/>
    <path
      d="M531.51-430.9h-7.326a1.469,1.469,0,0,1-1.468-1.468v-8.75c0-4.21,2.254-7.51,5.131-7.51s5.132,3.3,5.132,7.51v8.75A1.469,1.469,0,0,1,531.51-430.9Zm-5.858-2.936h4.391v-7.282c0-2.577-1.181-4.574-2.2-4.574-.894,0-2.195,1.782-2.195,4.574Z"
      data-name="Path 143"
      fill="#f2f2f2"
      id="Path_143" transform="translate(124.581 22.332)"/>
    <path
      d="M531.51-402.781h-7.326a1.469,1.469,0,0,1-1.468-1.468V-413c0-4.21,2.254-7.51,5.131-7.51s5.132,3.3,5.132,7.51v8.75A1.469,1.469,0,0,1,531.51-402.781Zm-5.858-2.936h4.391V-413c0-2.576-1.181-4.573-2.2-4.573-.894,0-2.195,1.78-2.195,4.573Z"
      data-name="Path 144"
      fill="#f2f2f2"
      id="Path_144" transform="translate(124.581 29.52)"/>
    <path
      d="M531.51-379.094h-7.326a1.468,1.468,0,0,1-1.468-1.468v-8.749c0-4.211,2.254-7.51,5.131-7.51s5.132,3.3,5.132,7.51v8.749A1.468,1.468,0,0,1,531.51-379.094Zm-5.858-2.936h4.391v-7.281c0-2.577-1.181-4.574-2.2-4.574-.894,0-2.195,1.782-2.195,4.574Z"
      data-name="Path 145"
      fill="#f2f2f2"
      id="Path_145" transform="translate(124.581 35.575)"/>
    <path
      d="M514.084-355.6h-7.327a1.468,1.468,0,0,1-1.468-1.468v-8.124c0-3.968,2.253-7.075,5.129-7.075s5.133,3.108,5.133,7.075v8.124A1.469,1.469,0,0,1,514.084-355.6Zm-5.859-2.936h4.39v-6.656c0-2.369-1.16-4.14-2.2-4.14-1.015,0-2.193,1.808-2.193,4.14Z"
      data-name="Path 146"
      fill="#f2f2f2"
      id="Path_146" transform="translate(120.127 41.852)"/>
    <path
      d="M514.084-400.294h-7.327a1.467,1.467,0,0,1-1.468-1.468v-8.749c0-4.211,2.253-7.51,5.129-7.51s5.133,3.3,5.133,7.51v8.749A1.468,1.468,0,0,1,514.084-400.294Zm-5.859-2.936h4.39v-7.281c0-2.577-1.18-4.574-2.2-4.574-.894,0-2.193,1.782-2.193,4.574Z"
      data-name="Path 147"
      fill="#f2f2f2"
      id="Path_147" transform="translate(120.127 30.156)"/>
    <path
      d="M391.66-392.46h-7.327a1.469,1.469,0,0,1-1.468-1.468v-8.75c0-4.211,2.254-7.507,5.13-7.507s5.132,3.3,5.132,7.507v8.75A1.469,1.469,0,0,1,391.66-392.46ZM385.8-395.4h4.391v-7.282c0-2.574-1.182-4.572-2.2-4.572-.9,0-2.195,1.78-2.195,4.572Z"
      data-name="Path 148"
      fill="#f2f2f2"
      id="Path_148" transform="translate(88.834 32.159)"/>
    <path
      d="M399.844-423.815A5.19,5.19,0,0,1,394.66-429a5.19,5.19,0,0,1,5.184-5.183A5.19,5.19,0,0,1,405.028-429,5.19,5.19,0,0,1,399.844-423.815Zm0-7.431A2.252,2.252,0,0,0,397.6-429a2.252,2.252,0,0,0,2.249,2.247A2.252,2.252,0,0,0,402.092-429,2.252,2.252,0,0,0,399.844-431.245Z"
      data-name="Path 149"
      fill="#f2f2f2"
      id="Path_149" transform="translate(91.849 26.025)"/>
    <path
      d="M348.5-478.139a5.191,5.191,0,0,1-5.183-5.183,5.191,5.191,0,0,1,5.183-5.184,5.191,5.191,0,0,1,5.184,5.184A5.191,5.191,0,0,1,348.5-478.139Zm0-7.431a2.251,2.251,0,0,0-2.247,2.248,2.252,2.252,0,0,0,2.247,2.248,2.251,2.251,0,0,0,2.247-2.248A2.25,2.25,0,0,0,348.5-485.57Z"
      data-name="Path 150"
      fill="#f2f2f2"
      id="Path_150" transform="translate(78.724 12.139)"/>
    <path
      d="M421.983-423.815A5.189,5.189,0,0,1,416.8-429a5.189,5.189,0,0,1,5.183-5.183A5.189,5.189,0,0,1,427.166-429,5.189,5.189,0,0,1,421.983-423.815Zm0-7.431A2.251,2.251,0,0,0,419.736-429a2.251,2.251,0,0,0,2.248,2.247A2.252,2.252,0,0,0,424.231-429,2.252,2.252,0,0,0,421.983-431.245Z"
      data-name="Path 151"
      fill="#f2f2f2"
      id="Path_151" transform="translate(97.508 26.025)"/>
    <path
      d="M424.186-372.644a1.468,1.468,0,0,1-1.468-1.468v-55.642a1.469,1.469,0,0,1,1.468-1.468,1.469,1.469,0,0,1,1.468,1.468v55.642A1.468,1.468,0,0,1,424.186-372.644Z"
      data-name="Path 152"
      fill="#f2f2f2"
      id="Path_152" transform="translate(99.021 26.782)"/>
    <path
      d="M418.268-372.644a1.467,1.467,0,0,1-1.468-1.468v-55.642a1.468,1.468,0,0,1,1.468-1.468,1.469,1.469,0,0,1,1.468,1.468v55.642A1.468,1.468,0,0,1,418.268-372.644Z"
      data-name="Path 153"
      fill="#f2f2f2"
      id="Path_153" transform="translate(97.508 26.782)"/>
    <path
      d="M402.047-372.644a1.467,1.467,0,0,1-1.468-1.468v-55.642a1.468,1.468,0,0,1,1.468-1.468,1.469,1.469,0,0,1,1.468,1.468v55.642A1.468,1.468,0,0,1,402.047-372.644Z"
      data-name="Path 154"
      fill="#f2f2f2"
      id="Path_154" transform="translate(93.362 26.782)"/>
    <path
      d="M396.128-372.644a1.468,1.468,0,0,1-1.468-1.468v-55.642a1.469,1.469,0,0,1,1.468-1.468,1.468,1.468,0,0,1,1.468,1.468v55.642A1.467,1.467,0,0,1,396.128-372.644Z"
      data-name="Path 155"
      fill="#f2f2f2"
      id="Path_155" transform="translate(91.849 26.782)"/>
    <path
      d="M441.675-411.168h-63.3a1.468,1.468,0,0,1-1.468-1.469,1.468,1.468,0,0,1,1.468-1.468h63.3a1.468,1.468,0,0,1,1.468,1.468A1.468,1.468,0,0,1,441.675-411.168Z"
      data-name="Path 156"
      fill="#f2f2f2"
      id="Path_156" transform="translate(87.311 31.157)"/>
    <path
      d="M441.675-420.488h-63.3a1.467,1.467,0,0,1-1.468-1.468,1.468,1.468,0,0,1,1.468-1.468h63.3a1.468,1.468,0,0,1,1.468,1.468A1.467,1.467,0,0,1,441.675-420.488Z"
      data-name="Path 157"
      fill="#f2f2f2"
      id="Path_157" transform="translate(87.311 28.775)"/>
    <path
      d="M408.05-420.369h-.257a7.073,7.073,0,0,1-7.214-7.249,1.468,1.468,0,0,1,1.468-1.468,1.469,1.469,0,0,1,1.468,1.468,4.163,4.163,0,0,0,4.346,4.313c2.76.082,4.02-1.288,5.4-2.857a8.154,8.154,0,0,1,3.784-2.864,6.033,6.033,0,0,1,6.514,1.593,1.468,1.468,0,0,1-.231,2.063,1.471,1.471,0,0,1-2.048-.212,3.18,3.18,0,0,0-3.409-.628,5.778,5.778,0,0,0-2.407,1.988C414.029-422.59,412.073-420.369,408.05-420.369Z"
      data-name="Path 158"
      fill="#f2f2f2"
      id="Path_158" transform="translate(93.362 27.261)"/>
    <path
      d="M394.27-420.369c-4.023,0-5.979-2.221-7.416-3.853a5.767,5.767,0,0,0-2.407-1.988,3.215,3.215,0,0,0-3.393.608,1.463,1.463,0,0,1-2.062.232,1.467,1.467,0,0,1-.231-2.063,6.037,6.037,0,0,1,6.512-1.593,8.149,8.149,0,0,1,3.784,2.864c1.38,1.568,2.678,2.953,5.4,2.856a4.177,4.177,0,0,0,4.346-4.313,1.469,1.469,0,0,1,1.468-1.468,1.468,1.468,0,0,1,1.468,1.468,7.073,7.073,0,0,1-7.212,7.249Z"
      data-name="Path 159"
      fill="#f2f2f2"
      id="Path_159" transform="translate(87.703 27.261)"/>
    <path
      d="M364.521-391.67h-29.11a1.469,1.469,0,0,1-1.468-1.468v-32.334a1.469,1.469,0,0,1,1.468-1.468h29.11a1.469,1.469,0,0,1,1.468,1.468v32.334A1.469,1.469,0,0,1,364.521-391.67Zm-27.642-2.936h26.175V-424H336.879Z"
      data-name="Path 160"
      fill="#f2f2f2"
      id="Path_160" transform="translate(76.329 27.876)"/>
    <path
      d="M364.521-417.323h-29.11a1.468,1.468,0,0,1-1.468-1.468,1.469,1.469,0,0,1,1.468-1.468h29.11a1.469,1.469,0,0,1,1.468,1.468A1.468,1.468,0,0,1,364.521-417.323Z"
      data-name="Path 161"
      fill="#f2f2f2"
      id="Path_161" transform="translate(76.329 29.584)"/>
    <path
      d="M343.3-391.67a1.469,1.469,0,0,1-1.468-1.468v-32.334a1.469,1.469,0,0,1,1.468-1.468,1.469,1.469,0,0,1,1.469,1.468v32.334A1.469,1.469,0,0,1,343.3-391.67Z"
      data-name="Path 162"
      fill="#f2f2f2"
      id="Path_162" transform="translate(78.346 27.876)"/>
    <path
      d="M350.974-391.67a1.469,1.469,0,0,1-1.468-1.468v-32.334a1.469,1.469,0,0,1,1.468-1.468,1.469,1.469,0,0,1,1.469,1.468v32.334A1.469,1.469,0,0,1,350.974-391.67Z"
      data-name="Path 163"
      fill="#f2f2f2"
      id="Path_163" transform="translate(80.307 27.876)"/>
    <path
      d="M324.232-432.745a1.469,1.469,0,0,1-1.468-1.468,1.469,1.469,0,0,1,1.468-1.468c3.6,0,9.568-11.81,12.659-20.2a1.474,1.474,0,0,1,1.886-.87,1.471,1.471,0,0,1,.87,1.886C338.283-451.168,331.143-432.745,324.232-432.745Z"
      data-name="Path 164"
      fill="#f2f2f2"
      id="Path_164" transform="translate(73.471 20.235)"/>
    <path
      d="M373.561-432.745c-6.912,0-14.053-18.424-15.415-22.116a1.472,1.472,0,0,1,.869-1.886,1.477,1.477,0,0,1,1.887.87c3.093,8.386,9.063,20.2,12.659,20.2a1.469,1.469,0,0,1,1.468,1.468A1.469,1.469,0,0,1,373.561-432.745Z"
      data-name="Path 165"
      fill="#f2f2f2"
      id="Path_165" transform="translate(82.492 20.235)"/>
    <path
      d="M347.741-453.685a1.469,1.469,0,0,1-1.468-1.468V-481.12a1.469,1.469,0,0,1,1.468-1.468,1.468,1.468,0,0,1,1.468,1.468v25.967A1.468,1.468,0,0,1,347.741-453.685Z"
      data-name="Path 166"
      fill="#f2f2f2"
      id="Path_166" transform="translate(79.48 13.652)"/>
    <path
      d="M358.306-467.8a5.191,5.191,0,0,1-5.183-5.184,5.19,5.19,0,0,1,5.183-5.183,5.19,5.19,0,0,1,5.185,5.183A5.192,5.192,0,0,1,358.306-467.8Zm0-7.432a2.252,2.252,0,0,0-2.248,2.248,2.251,2.251,0,0,0,2.248,2.248,2.251,2.251,0,0,0,2.249-2.248A2.252,2.252,0,0,0,358.306-475.23Z"
      data-name="Path 167"
      fill="#f2f2f2"
      id="Path_167" transform="translate(81.231 14.782)"/>
    <path
      d="M357.456-457.461a1.468,1.468,0,0,1-1.468-1.468v-11.009a1.469,1.469,0,0,1,1.468-1.468,1.468,1.468,0,0,1,1.468,1.468v11.009A1.467,1.467,0,0,1,357.456-457.461Z"
      data-name="Path 168"
      fill="#f2f2f2"
      id="Path_168" transform="translate(81.964 16.51)"/>
    <path
      d="M338.087-467.8a5.192,5.192,0,0,1-5.185-5.184,5.19,5.19,0,0,1,5.185-5.183,5.19,5.19,0,0,1,5.183,5.183A5.191,5.191,0,0,1,338.087-467.8Zm0-7.432a2.251,2.251,0,0,0-2.248,2.248,2.25,2.25,0,0,0,2.248,2.248,2.251,2.251,0,0,0,2.248-2.248A2.252,2.252,0,0,0,338.087-475.23Z"
      data-name="Path 169"
      fill="#f2f2f2"
      id="Path_169" transform="translate(76.063 14.782)"/>
    <path
      d="M337.238-457.461a1.467,1.467,0,0,1-1.468-1.468v-11.009a1.468,1.468,0,0,1,1.468-1.468,1.469,1.469,0,0,1,1.468,1.468v11.009A1.468,1.468,0,0,1,337.238-457.461Z"
      data-name="Path 170"
      fill="#f2f2f2"
      id="Path_170" transform="translate(76.796 16.51)"/>
    <path
      d="M482.055-330.425a1.469,1.469,0,0,1-1.468-1.468V-469.207a1.468,1.468,0,0,1,1.468-1.468H507.1a1.467,1.467,0,0,1,1.468,1.468V-351.6a1.468,1.468,0,0,1-1.468,1.468,1.469,1.469,0,0,1-1.468-1.468V-467.739h-22.11v135.846A1.468,1.468,0,0,1,482.055-330.425Z"
      data-name="Path 171"
      fill="#f2f2f2"
      id="Path_171" transform="translate(113.813 16.697)"/>
    <path
      d="M542.174-332.779a1.469,1.469,0,0,1-1.469-1.468V-458.533h-22.11v102.325a1.468,1.468,0,0,1-1.468,1.469,1.469,1.469,0,0,1-1.468-1.469V-460a1.469,1.469,0,0,1,1.468-1.468h25.047A1.469,1.469,0,0,1,543.642-460v125.755A1.469,1.469,0,0,1,542.174-332.779Z"
      data-name="Path 172"
      fill="#f2f2f2"
      id="Path_172" transform="translate(122.778 19.05)"/>
    <path
      d="M525.141-354.368a1.469,1.469,0,0,1-1.468-1.468v-13.747a1.471,1.471,0,0,1,.136-.615l1.789-3.872H500.212l2.242,3.73a1.479,1.479,0,0,1,.21.757v13.731a1.469,1.469,0,0,1-1.468,1.468,1.469,1.469,0,0,1-1.468-1.468v-13.325l-3.367-5.605a1.462,1.462,0,0,1-.019-1.48,1.463,1.463,0,0,1,1.275-.745h30.277a1.469,1.469,0,0,1,1.235.677,1.465,1.465,0,0,1,.1,1.406l-2.616,5.663v13.424A1.469,1.469,0,0,1,525.141-354.368Z"
      data-name="Path 173"
      fill="#f2f2f2"
      id="Path_173" transform="translate(117.791 40.64)"/>
    <path
      d="M514.084-378.482h-7.327a1.468,1.468,0,0,1-1.468-1.468v-24.824a1.468,1.468,0,0,1,1.468-1.468,1.469,1.469,0,0,1,1.468,1.468v23.354h4.39v-23.354a1.469,1.469,0,0,1,1.469-1.468,1.469,1.469,0,0,1,1.468,1.468v24.824A1.469,1.469,0,0,1,514.084-378.482Z"
      data-name="Path 174"
      fill="#f2f2f2"
      id="Path_174" transform="translate(120.127 33.167)"/>
    <path
      d="M554.4-425.744H479.863a1.468,1.468,0,0,1-1.468-1.468,1.469,1.469,0,0,1,1.468-1.468H554.4a1.469,1.469,0,0,1,1.468,1.468A1.468,1.468,0,0,1,554.4-425.744Z"
      data-name="Path 175"
      fill="#f2f2f2"
      id="Path_175" transform="translate(113.252 27.432)"/>
    <path
      d="M507.661-398.628h-27.8a1.469,1.469,0,0,1-1.468-1.468,1.468,1.468,0,0,1,1.468-1.468h27.8a1.467,1.467,0,0,1,1.468,1.468A1.468,1.468,0,0,1,507.661-398.628Z"
      data-name="Path 176"
      fill="#f2f2f2"
      id="Path_176" transform="translate(113.252 34.363)"/>
    <path
      d="M544.88-398.555H517.127a1.469,1.469,0,0,1-1.468-1.468,1.468,1.468,0,0,1,1.468-1.468H544.88a1.468,1.468,0,0,1,1.468,1.468A1.469,1.469,0,0,1,544.88-398.555Z"
      data-name="Path 177"
      fill="#f2f2f2"
      id="Path_177" transform="translate(122.778 34.381)"/>
    <path
      d="M513.1-441.134h-5.689a1.468,1.468,0,0,1-1.468-1.468,1.469,1.469,0,0,1,1.468-1.468H513.1a1.469,1.469,0,0,1,1.468,1.468A1.468,1.468,0,0,1,513.1-441.134Z"
      data-name="Path 178"
      fill="#f2f2f2"
      id="Path_178" transform="translate(120.293 23.498)"/>
    <path
      d="M502-420.989a1.451,1.451,0,0,1-.976-.373,1.467,1.467,0,0,1-.119-2.072l9.176-10.282v-12.1a1.469,1.469,0,0,1,1.468-1.468,1.469,1.469,0,0,1,1.469,1.468v12.662a1.462,1.462,0,0,1-.373.977l-9.549,10.7A1.465,1.465,0,0,1,502-420.989Z"
      data-name="Path 179"
      fill="#f2f2f2"
      id="Path_179" transform="translate(118.912 22.676)"/>
    <path
      d="M519.049-423.566a1.469,1.469,0,0,1-1.1-.5l-9.441-10.7a1.468,1.468,0,0,1,.129-2.072,1.466,1.466,0,0,1,2.072.129L520.15-426a1.469,1.469,0,0,1-.13,2.072A1.464,1.464,0,0,1,519.049-423.566Z"
      data-name="Path 180"
      fill="#f2f2f2"
      id="Path_180" transform="translate(120.855 25.253)"/>
    <path
      d="M507.1-449.517H500.22a1.468,1.468,0,0,1-1.468-1.468v-5.136h-8.074v5.136a1.467,1.467,0,0,1-1.468,1.468h-7.156a1.468,1.468,0,0,1-1.468-1.468,1.469,1.469,0,0,1,1.468-1.468h5.688v-5.137a1.469,1.469,0,0,1,1.468-1.469H500.22a1.468,1.468,0,0,1,1.468,1.469v5.137H507.1a1.468,1.468,0,0,1,1.468,1.468A1.467,1.467,0,0,1,507.1-449.517Z"
      data-name="Path 181"
      fill="#f2f2f2"
      id="Path_181" transform="translate(113.813 19.667)"/>
    <path
      d="M490.366-463.922h-8.9A1.469,1.469,0,0,1,480-465.39v-18.753a1.469,1.469,0,0,1,1.468-1.468h8.9a1.469,1.469,0,0,1,1.468,1.468v18.753A1.469,1.469,0,0,1,490.366-463.922Zm-7.432-2.936H488.9v-15.817h-5.963Z"
      data-name="Path 182"
      fill="#f2f2f2"
      id="Path_182" transform="translate(113.662 12.88)"/>
    <path
      d="M497.45-463.922h-8.9a1.469,1.469,0,0,1-1.469-1.468v-18.753a1.469,1.469,0,0,1,1.469-1.468h8.9a1.469,1.469,0,0,1,1.469,1.468v18.753A1.469,1.469,0,0,1,497.45-463.922Zm-7.428-2.936h5.961v-15.817h-5.961Z"
      data-name="Path 183"
      fill="#f2f2f2"
      id="Path_183" transform="translate(115.474 12.88)"/>
    <path
      d="M504.539-463.922h-8.9a1.469,1.469,0,0,1-1.468-1.468v-18.753a1.469,1.469,0,0,1,1.468-1.468h8.9a1.469,1.469,0,0,1,1.468,1.468v18.753A1.469,1.469,0,0,1,504.539-463.922Zm-7.431-2.936h5.963v-15.817h-5.963Z"
      data-name="Path 184"
      fill="#f2f2f2"
      id="Path_184" transform="translate(117.285 12.88)"/>
    <path
      d="M508.159-477.843a1.467,1.467,0,0,1-1.44-1.2l-3.007-16.143-3.006,16.143a1.521,1.521,0,0,1-2.887,0l-3.006-16.141-3,16.141a1.521,1.521,0,0,1-2.887,0l-3.006-16.143-3.007,16.143a1.455,1.455,0,0,1-1.713,1.174,1.469,1.469,0,0,1-1.173-1.713l4.449-23.891a1.521,1.521,0,0,1,2.887,0l3.007,16.142,3-16.142a1.521,1.521,0,0,1,2.887,0l3.006,16.143,3.007-16.143a1.521,1.521,0,0,1,2.887,0L509.6-479.58a1.468,1.468,0,0,1-1.173,1.713A1.545,1.545,0,0,1,508.159-477.843Z"
      data-name="Path 185"
      fill="#f2f2f2"
      id="Path_185" transform="translate(113.662 8.048)"/>
    <path
      d="M501.365-489.869A1.467,1.467,0,0,1,499.937-491l-6.273-26.986L487.391-491a1.462,1.462,0,0,1-1.763,1.1,1.468,1.468,0,0,1-1.1-1.763l7.7-33.137a1.523,1.523,0,0,1,2.859,0l7.7,33.137a1.469,1.469,0,0,1-1.1,1.763A1.459,1.459,0,0,1,501.365-489.869Z"
      data-name="Path 186"
      fill="#f2f2f2"
      id="Path_186" transform="translate(114.811 2.605)"/>
    <path
      d="M526.027-462.976h-9.055a1.464,1.464,0,0,1-1.076-.471,1.464,1.464,0,0,1-.388-1.106c.557-7.447,4.052-9.219,4.447-9.4a1.481,1.481,0,0,1,.6-.128h1.866c.909.124,4.355,1.08,5.069,9.509a1.468,1.468,0,0,1-.383,1.117A1.459,1.459,0,0,1,526.027-462.976Zm-7.409-2.936h5.766c-.685-4.658-2.284-5.266-2.3-5.272l-1.088.031C520.525-470.785,519.175-469.442,518.618-465.912Z"
      data-name="Path 187"
      fill="#f2f2f2"
      id="Path_187" transform="translate(122.738 15.828)"/>
    <path
      d="M536.026-470.345H520.578a1.467,1.467,0,0,1-1.114-.512,1.463,1.463,0,0,1-.336-1.18,9.685,9.685,0,0,1,7.254-7.937l3.493-.031c2.248.163,6.562,2.028,7.6,7.94a1.466,1.466,0,0,1-.323,1.2A1.465,1.465,0,0,1,536.026-470.345ZM522.5-473.281h11.612a5.529,5.529,0,0,0-4.348-3.793l-3.076,0A7.079,7.079,0,0,0,522.5-473.281Z"
      data-name="Path 188"
      fill="#f2f2f2"
      id="Path_188" transform="translate(123.66 14.312)"/>
    <path
      d="M539.1-462.976h-9.054a1.464,1.464,0,0,1-1.076-.471,1.464,1.464,0,0,1-.388-1.106c.556-7.447,4.051-9.219,4.446-9.4a1.472,1.472,0,0,1,.6-.128h1.864c.911.124,4.359,1.08,5.069,9.509a1.46,1.46,0,0,1-.382,1.117A1.464,1.464,0,0,1,539.1-462.976Zm-7.41-2.936h5.767c-.684-4.658-2.284-5.266-2.3-5.272l-1.087.031C533.6-470.785,532.25-469.44,531.692-465.912Z"
      data-name="Path 189"
      fill="#f2f2f2"
      id="Path_189" transform="translate(126.08 15.828)"/>
    <path
      d="M527.1-481.81a1.469,1.469,0,0,1-1.468-1.468v-7.688a1.469,1.469,0,0,1,1.468-1.468,1.469,1.469,0,0,1,1.468,1.468v7.688A1.469,1.469,0,0,1,527.1-481.81Z"
      data-name="Path 190"
      fill="#f2f2f2"
      id="Path_190" transform="translate(125.327 11.135)"/>
    <path
      d="M492.1-520.4a1.467,1.467,0,0,1-1.468-1.468v-12.66A1.468,1.468,0,0,1,492.1-536a1.469,1.469,0,0,1,1.468,1.468v12.66A1.468,1.468,0,0,1,492.1-520.4Z"
      data-name="Path 191"
      fill="#f2f2f2"
      id="Path_191" transform="translate(116.379 0)"/>
    <path
      d="M501.366-512.894H485.961a1.469,1.469,0,0,1-1.468-1.469,1.469,1.469,0,0,1,1.468-1.468h15.405a1.468,1.468,0,0,1,1.468,1.468A1.468,1.468,0,0,1,501.366-512.894Z"
      data-name="Path 192"
      fill="#f2f2f2"
      id="Path_192" transform="translate(114.811 5.155)"/>
    <path
      d="M516.972-455.505a1.468,1.468,0,0,1-1.468-1.468v-9.133a1.468,1.468,0,0,1,1.468-1.468,1.468,1.468,0,0,1,1.468,1.468v9.133A1.468,1.468,0,0,1,516.972-455.505Z"
      data-name="Path 193"
      fill="#f2f2f2"
      id="Path_193" transform="translate(122.738 17.49)"/>
    <path
      d="M537.075-455.5h-.036a1.47,1.47,0,0,1-1.433-1.5l.232-9.133a1.445,1.445,0,0,1,1.5-1.431,1.469,1.469,0,0,1,1.431,1.5l-.231,9.133A1.47,1.47,0,0,1,537.075-455.5Z"
      data-name="Path 194"
      fill="#f2f2f2"
      id="Path_194" transform="translate(127.876 17.489)"/>
    <path
      d="M524.184-456.973a1.468,1.468,0,0,1-1.468-1.468v-7.665a1.468,1.468,0,0,1,1.468-1.468,1.467,1.467,0,0,1,1.468,1.468v7.665A1.467,1.467,0,0,1,524.184-456.973Z"
      data-name="Path 195"
      fill="#f2f2f2"
      id="Path_195" transform="translate(124.581 17.49)"/>
    <path
      d="M530.048-456.973a1.468,1.468,0,0,1-1.468-1.468v-7.665a1.468,1.468,0,0,1,1.468-1.468,1.468,1.468,0,0,1,1.468,1.468v7.665A1.468,1.468,0,0,1,530.048-456.973Z"
      data-name="Path 196"
      fill="#f2f2f2"
      id="Path_196" transform="translate(126.08 17.49)"/>
    <path
      d="M530.556-475.654a1.469,1.469,0,0,1-1.468-1.468v-5.489h-2.8v5.489a1.469,1.469,0,0,1-1.468,1.468,1.469,1.469,0,0,1-1.469-1.468v-6.957a1.468,1.468,0,0,1,1.469-1.468h5.741a1.467,1.467,0,0,1,1.468,1.468v6.957A1.468,1.468,0,0,1,530.556-475.654Z"
      data-name="Path 197"
      fill="#f2f2f2"
      id="Path_197" transform="translate(124.742 12.896)"/>
    <path
      d="M536.338-483.811H520.892a1.467,1.467,0,0,1-1.468-1.468,1.468,1.468,0,0,1,1.468-1.468h15.446a1.468,1.468,0,0,1,1.468,1.468A1.467,1.467,0,0,1,536.338-483.811Z"
      data-name="Path 198"
      fill="#f2f2f2"
      id="Path_198" transform="translate(123.74 12.589)"/>
    <g data-name="Group 24" id="Group_24" transform="translate(495.892 -530.917)">
      <path
        d="M424.229-517.945a6.1,6.1,0,0,0-6.1-6.1,6.1,6.1,0,0,0-6.1,6.1,6.107,6.107,0,0,0,.229,1.641h-.005s3.017,9.455,5.849,9.455,5.9-9.427,5.9-9.427h-.005A6.137,6.137,0,0,0,424.229-517.945Zm-6.1-2.416a2.415,2.415,0,0,1,2.414,2.416,2.416,2.416,0,0,1-2.414,2.416,2.416,2.416,0,0,1-2.416-2.416A2.415,2.415,0,0,1,418.128-520.36Z"
        data-name="Path 199"
        fill="#f2f2f2"
        id="Path_199" transform="translate(-399.604 533.971)"/>
      <g data-name="Group 23" id="Group_23">
        <path
          d="M420.656-494.905a18.543,18.543,0,0,1-18.523-18.523,18.543,18.543,0,0,1,18.523-18.523,18.544,18.544,0,0,1,18.524,18.523A18.544,18.544,0,0,1,420.656-494.905Zm0-34.11a15.6,15.6,0,0,0-15.587,15.587,15.6,15.6,0,0,0,15.587,15.587,15.606,15.606,0,0,0,15.588-15.587A15.605,15.605,0,0,0,420.656-529.015Z"
          data-name="Path 200"
          fill="#f2f2f2"
          id="Path_200" transform="translate(-402.133 531.951)"/>
        <g data-name="Group 22" id="Group_22" transform="translate(3.843 40.615)">
          <path
            d="M406.662-435.287a1.469,1.469,0,0,1-1.468-1.468v-3.915a1.469,1.469,0,0,1,1.468-1.468,1.468,1.468,0,0,1,1.468,1.468v3.915A1.468,1.468,0,0,1,406.662-435.287Z"
            data-name="Path 201"
            fill="#f2f2f2"
            id="Path_201" transform="translate(-405.194 514.293)"/>
          <path
            d="M406.662-437.474a1.469,1.469,0,0,1-1.468-1.469v-7.8a1.469,1.469,0,0,1,1.468-1.468,1.468,1.468,0,0,1,1.468,1.468v7.8A1.468,1.468,0,0,1,406.662-437.474Zm0-15.591a1.469,1.469,0,0,1-1.468-1.468v-7.8a1.469,1.469,0,0,1,1.468-1.468,1.468,1.468,0,0,1,1.468,1.468v7.8A1.468,1.468,0,0,1,406.662-453.065Zm0-15.593a1.468,1.468,0,0,1-1.468-1.468v-7.794a1.468,1.468,0,0,1,1.468-1.468,1.467,1.467,0,0,1,1.468,1.468v7.794A1.467,1.467,0,0,1,406.662-468.659Z"
            data-name="Path 202"
            fill="#f2f2f2"
            id="Path_202" transform="translate(-405.194 504.771)"/>
          <path
            d="M406.662-481.866a1.469,1.469,0,0,1-1.468-1.468v-3.915a1.469,1.469,0,0,1,1.468-1.468h3.915a1.469,1.469,0,0,1,1.468,1.468,1.469,1.469,0,0,1-1.468,1.469H408.13v2.446A1.468,1.468,0,0,1,406.662-481.866Z"
            data-name="Path 203"
            fill="#f2f2f2"
            id="Path_203" transform="translate(-405.194 502.387)"/>
          <path
            d="M417.981-484.983h-3.915a1.469,1.469,0,0,1-1.468-1.469,1.469,1.469,0,0,1,1.468-1.468h2.447v-2.446a1.467,1.467,0,0,1,1.468-1.468,1.468,1.468,0,0,1,1.468,1.468v3.914A1.469,1.469,0,0,1,417.981-484.983Z"
            data-name="Path 204"
            fill="#f2f2f2"
            id="Path_204" transform="translate(-403.301 501.59)"/>
          <path
            d="M417.184-492.753a1.468,1.468,0,0,1-1.468-1.468v-3.915a1.468,1.468,0,0,1,1.468-1.468,1.469,1.469,0,0,1,1.468,1.468v3.915A1.469,1.469,0,0,1,417.184-492.753Z"
            data-name="Path 205"
            fill="#f2f2f2"
            id="Path_205" transform="translate(-402.504 499.604)"/>
        </g>
      </g>
    </g>
    <g data-name="Group 28" id="Group_28" transform="translate(242.254 -534.474)">
      <g data-name="Group 26" id="Group_26">
        <path
          d="M218.655-497.736a18.546,18.546,0,0,1-18.525-18.523,18.547,18.547,0,0,1,18.525-18.525,18.544,18.544,0,0,1,18.521,18.525A18.543,18.543,0,0,1,218.655-497.736Zm0-34.113a15.608,15.608,0,0,0-15.59,15.59,15.605,15.605,0,0,0,15.59,15.586,15.6,15.6,0,0,0,15.586-15.586A15.605,15.605,0,0,0,218.655-531.849Z"
          data-name="Path 206"
          fill="#f2f2f2"
          id="Path_206" transform="translate(-200.13 534.784)"/>
        <g data-name="Group 25" id="Group_25" transform="translate(9.717 9.853)">
          <path
            d="M224.5-514.611H208.847a.978.978,0,0,1-.978-.978v-10.369a.979.979,0,0,1,.978-.979H224.5a.978.978,0,0,1,.978.979v10.369A.977.977,0,0,1,224.5-514.611Zm-14.677-1.957h13.7v-8.411h-13.7Z"
            data-name="Path 207"
            fill="#f2f2f2"
            id="Path_207" transform="translate(-207.869 526.937)"/>
          <path
            d="M216.668-514.772h-2.636a.977.977,0,0,1-.978-.978.978.978,0,0,1,.978-.979h2.636a.979.979,0,0,1,.979.979A.979.979,0,0,1,216.668-514.772Z"
            data-name="Path 208"
            fill="#f2f2f2"
            id="Path_208" transform="translate(-206.544 529.546)"/>
          <path
            d="M220.627-512.725h-9.215a.979.979,0,0,1-.978-.978.979.979,0,0,1,.978-.979h9.215a.978.978,0,0,1,.978.979A.978.978,0,0,1,220.627-512.725Z"
            data-name="Path 209"
            fill="#f2f2f2"
            id="Path_209" transform="translate(-207.213 530.069)"/>
        </g>
      </g>
      <g data-name="Group 27" id="Group_27" transform="translate(12.392 40.83)">
        <path
          d="M215.183-495.415a1.469,1.469,0,0,1-1.469-1.468V-500.8a1.469,1.469,0,0,1,1.469-1.468,1.469,1.469,0,0,1,1.468,1.468v3.915A1.469,1.469,0,0,1,215.183-495.415Z"
          data-name="Path 210"
          fill="#f2f2f2"
          id="Path_210" transform="translate(-209.049 502.266)"/>
        <path
          d="M215.183-469.649a1.469,1.469,0,0,1-1.469-1.468v-7a1.469,1.469,0,0,1,1.469-1.468,1.469,1.469,0,0,1,1.468,1.468v7A1.469,1.469,0,0,1,215.183-469.649Zm0-13.994a1.468,1.468,0,0,1-1.469-1.468v-7a1.469,1.469,0,0,1,1.469-1.468,1.469,1.469,0,0,1,1.468,1.468v7A1.468,1.468,0,0,1,215.183-483.643Z"
          data-name="Path 211"
          fill="#f2f2f2"
          id="Path_211" transform="translate(-209.049 504.487)"/>
        <path
          d="M211.467-460.52A1.468,1.468,0,0,1,210-461.988V-465.9a1.468,1.468,0,0,1,1.468-1.468h3.2v-2.447a1.469,1.469,0,0,1,1.469-1.468,1.469,1.469,0,0,1,1.468,1.468v3.915a1.469,1.469,0,0,1-1.468,1.468h-3.2v2.447A1.469,1.469,0,0,1,211.467-460.52Z"
          data-name="Path 212"
          fill="#f2f2f2"
          id="Path_212" transform="translate(-209.999 510.185)"/>
        <path
          d="M211.467-453.178A1.467,1.467,0,0,1,210-454.645v-4.975a1.467,1.467,0,0,1,1.468-1.468,1.468,1.468,0,0,1,1.468,1.468v4.975A1.468,1.468,0,0,1,211.467-453.178Z"
          data-name="Path 213"
          fill="#f2f2f2"
          id="Path_213" transform="translate(-209.999 512.792)"/>
        <path
          d="M211.467-446.314A1.468,1.468,0,0,1,210-447.782V-451.7a1.468,1.468,0,0,1,1.468-1.468,1.469,1.469,0,0,1,1.468,1.468v3.915A1.469,1.469,0,0,1,211.467-446.314Z"
          data-name="Path 214"
          fill="#f2f2f2"
          id="Path_214" transform="translate(-209.999 514.817)"/>
      </g>
    </g>
    <path
      d="M82.832-445.224H86.57a4.473,4.473,0,0,0,4.15-2.819,4.439,4.439,0,0,0-2.466-5.792,4.5,4.5,0,0,0-2.114-.314,5.255,5.255,0,0,0,.118-1.135,7.183,7.183,0,0,0-7.2-7.2,7.143,7.143,0,0,0-6.733,4.7,5.972,5.972,0,0,0-.861-.431,5.594,5.594,0,0,0-7.281,3.092,4.241,4.241,0,0,0-.313,1.213,4.463,4.463,0,0,0-5.677,2.545,4.5,4.5,0,0,0,2.466,5.832,4.963,4.963,0,0,0,1.684.313H82.832"
      data-name="Path 215"
      fill="#f2f2f2"
      id="Path_215" transform="translate(5.758 18.79)"/>
    <g data-name="Group 30" id="Group_30" transform="translate(64.432 -502.998)">
      <path
        d="M77.031-472.668a18.545,18.545,0,0,1-18.523-18.525,18.543,18.543,0,0,1,18.523-18.523,18.544,18.544,0,0,1,18.524,18.523A18.546,18.546,0,0,1,77.031-472.668Zm0-34.113a15.6,15.6,0,0,0-15.587,15.587A15.6,15.6,0,0,0,77.031-475.6a15.606,15.606,0,0,0,15.588-15.588A15.606,15.606,0,0,0,77.031-506.78Z"
        data-name="Path 216"
        fill="#f2f2f2"
        id="Path_216" transform="translate(-58.508 509.716)"/>
      <g data-name="Group 29" id="Group_29" transform="translate(9.717 12.36)">
        <path
          d="M82.881-487.546H67.225a.978.978,0,0,1-.978-.978v-10.369a.979.979,0,0,1,.978-.979H82.881a.978.978,0,0,1,.978.979v10.369A.977.977,0,0,1,82.881-487.546ZM68.2-489.5H81.9v-8.413H68.2Z"
          data-name="Path 217"
          fill="#f2f2f2"
          id="Path_217" transform="translate(-66.247 499.872)"/>
        <path
          d="M75.053-492.731a.971.971,0,0,1-.541-.163l-7.826-5.183a.982.982,0,0,1-.276-1.357.987.987,0,0,1,1.357-.275l7.286,4.825,7.288-4.825a.986.986,0,0,1,1.357.275.983.983,0,0,1-.275,1.357l-7.829,5.183A.977.977,0,0,1,75.053-492.731Z"
          data-name="Path 218"
          fill="#f2f2f2"
          id="Path_218" transform="translate(-66.247 499.873)"/>
      </g>
    </g>
    <g data-name="Group 31" id="Group_31" transform="translate(81.487 -461.876)">
      <path
        d="M88.367-402.244a1.469,1.469,0,0,1-1.468-1.468v-3.915a1.469,1.469,0,0,1,1.468-1.468,1.468,1.468,0,0,1,1.468,1.468v3.915A1.468,1.468,0,0,1,88.367-402.244Z"
        data-name="Path 219"
        fill="#f2f2f2"
        id="Path_219" transform="translate(-68.306 494.313)"/>
      <path
        d="M88.367-409.588a1.468,1.468,0,0,1-1.468-1.468v-5.781a1.468,1.468,0,0,1,1.468-1.468,1.467,1.467,0,0,1,1.468,1.468v5.781A1.467,1.467,0,0,1,88.367-409.588Z"
        data-name="Path 220"
        fill="#f2f2f2"
        id="Path_220" transform="translate(-68.306 491.959)"/>
      <path
        d="M89.164-419.174a1.469,1.469,0,0,1-1.468-1.469v-2.446H85.25a1.468,1.468,0,0,1-1.468-1.468,1.467,1.467,0,0,1,1.468-1.468h3.914a1.467,1.467,0,0,1,1.468,1.468v3.914A1.468,1.468,0,0,1,89.164-419.174Z"
        data-name="Path 221"
        fill="#f2f2f2"
        id="Path_221" transform="translate(-69.103 489.986)"/>
      <path
        d="M77.473-422.292H73.559a1.468,1.468,0,0,1-1.468-1.468v-3.915a1.468,1.468,0,0,1,1.468-1.468,1.469,1.469,0,0,1,1.468,1.468v2.447h2.446a1.467,1.467,0,0,1,1.468,1.468A1.468,1.468,0,0,1,77.473-422.292Z"
        data-name="Path 222"
        fill="#f2f2f2"
        id="Path_222" transform="translate(-72.091 489.189)"/>
      <path
        d="M73.559-424.433a1.467,1.467,0,0,1-1.468-1.468v-8.018a1.468,1.468,0,0,1,1.468-1.468,1.469,1.469,0,0,1,1.468,1.468v8.018A1.468,1.468,0,0,1,73.559-424.433Zm0-16.038a1.467,1.467,0,0,1-1.468-1.468v-8.018a1.468,1.468,0,0,1,1.468-1.468,1.469,1.469,0,0,1,1.468,1.468v8.018A1.468,1.468,0,0,1,73.559-440.471Zm0-16.035a1.468,1.468,0,0,1-1.468-1.468v-8.018a1.467,1.467,0,0,1,1.468-1.468,1.468,1.468,0,0,1,1.468,1.468v8.018A1.469,1.469,0,0,1,73.559-456.506Z"
        data-name="Path 223"
        fill="#f2f2f2"
        id="Path_223" transform="translate(-72.091 479.395)"/>
      <path
        d="M73.559-470.115a1.468,1.468,0,0,1-1.468-1.468V-475.5a1.468,1.468,0,0,1,1.468-1.468,1.469,1.469,0,0,1,1.468,1.468v3.915A1.469,1.469,0,0,1,73.559-470.115Z"
        data-name="Path 224"
        fill="#f2f2f2"
        id="Path_224" transform="translate(-72.091 476.965)"/>
    </g>
    <path
      d="M461.593-461.318H437.361a6.382,6.382,0,0,1-2.178-.4,6.015,6.015,0,0,1-3.291-3.222,5.842,5.842,0,0,1-.035-4.553,6,6,0,0,1,5.968-3.7c0-.014.011-.025.015-.039a7.1,7.1,0,0,1,3.793-3.861,6.95,6.95,0,0,1,5.006-.195,8.641,8.641,0,0,1,7.437-4.225,8.681,8.681,0,0,1,8.667,8.436,6.534,6.534,0,0,1,1.064.313,5.868,5.868,0,0,1,3.265,3.2,5.814,5.814,0,0,1,.024,4.526A5.9,5.9,0,0,1,461.593-461.318Zm-24.222-8.961a3.015,3.015,0,0,0-2.793,1.89,2.924,2.924,0,0,0,.015,2.3,3.039,3.039,0,0,0,1.646,1.635,3.372,3.372,0,0,0,1.121.2h24.232a2.99,2.99,0,0,0,2.785-1.9,2.918,2.918,0,0,0-.011-2.276,2.946,2.946,0,0,0-1.632-1.607,3.115,3.115,0,0,0-1.4-.217,1.5,1.5,0,0,1-1.262-.475,1.466,1.466,0,0,1-.344-1.3,3.8,3.8,0,0,0,.084-.817,5.742,5.742,0,0,0-5.736-5.736,5.672,5.672,0,0,0-5.35,3.723,1.46,1.46,0,0,1-.871.883,1.464,1.464,0,0,1-1.237-.1,4.431,4.431,0,0,0-.648-.329,4.044,4.044,0,0,0-3.182.008,4.162,4.162,0,0,0-2.229,2.266,2.765,2.765,0,0,0-.208.79,1.471,1.471,0,0,1-.681,1.106,1.479,1.479,0,0,1-1.291.135A2.921,2.921,0,0,0,437.371-470.28Z"
      data-name="Path 225"
      fill="#f2f2f2"
      id="Path_225" transform="translate(101.243 13.926)"/>
    <path
      d="M295.519-466.141H273.793a5.859,5.859,0,0,1-5.851-5.852,6.019,6.019,0,0,1,2.372-4.736c-.016-.245-.024-.5-.024-.743a9.758,9.758,0,0,1,9.728-9.767,9.754,9.754,0,0,1,6.7,2.661,7.172,7.172,0,0,1,8.74,6.695,6.016,6.016,0,0,1,5.954,5.891A5.88,5.88,0,0,1,295.519-466.141Zm-15.5-18.164a6.819,6.819,0,0,0-6.793,6.832,7.581,7.581,0,0,0,.1,1.246,1.469,1.469,0,0,1-.779,1.546,3.068,3.068,0,0,0-1.669,2.688,2.921,2.921,0,0,0,2.916,2.917h21.726a2.9,2.9,0,0,0,2.954-2.917,2.96,2.96,0,0,0-2.954-2.956,2.413,2.413,0,0,0-1.1.236,1.47,1.47,0,0,1-1.6-.192,1.466,1.466,0,0,1-.456-1.552,4.011,4.011,0,0,0,.171-1.173,4.2,4.2,0,0,0-5.727-3.911,1.466,1.466,0,0,1-1.625-.413A6.818,6.818,0,0,0,280.018-484.3Z"
      data-name="Path 226"
      fill="#f2f2f2"
      id="Path_226" transform="translate(59.458 12.463)"/>
    <g data-name="Group 32" id="Group_32" transform="translate(554.606 -397.597)">
      <path
        d="M457.054-419.733a1.469,1.469,0,0,1-1.419-1.091,2.723,2.723,0,0,0-2.328-2,2.64,2.64,0,0,0-2.009.6,1.465,1.465,0,0,1-2.065-.192,1.466,1.466,0,0,1,.192-2.067,5.6,5.6,0,0,1,4.2-1.266,5.674,5.674,0,0,1,4.851,4.163,1.465,1.465,0,0,1-1.041,1.794A1.4,1.4,0,0,1,457.054-419.733Z"
        data-name="Path 227"
        fill="#f2f2f2"
        id="Path_227" transform="translate(-448.894 425.772)"/>
      <path
        d="M455.7-419.991a1.464,1.464,0,0,1-.709-.183,1.47,1.47,0,0,1-.574-2,5.638,5.638,0,0,1,5.53-2.874,5.6,5.6,0,0,1,3.86,2.156,1.468,1.468,0,0,1-.262,2.059,1.458,1.458,0,0,1-2.058-.262,2.681,2.681,0,0,0-1.851-1.032,2.714,2.714,0,0,0-2.649,1.376A1.471,1.471,0,0,1,455.7-419.991Z"
        data-name="Path 228"
        fill="#f2f2f2"
        id="Path_228" transform="translate(-447.53 425.949)"/>
    </g>
    <g data-name="Group 33" id="Group_33" transform="translate(286.75 -421.493)">
      <path
        d="M237.036-437.372a1.465,1.465,0,0,1-.608-.132,1.467,1.467,0,0,1-.728-1.944,5.586,5.586,0,0,1,3.221-2.971,5.684,5.684,0,0,1,6.183,1.625,1.465,1.465,0,0,1-.154,2.07,1.465,1.465,0,0,1-2.071-.155,2.716,2.716,0,0,0-2.962-.777,2.674,2.674,0,0,0-1.544,1.424A1.471,1.471,0,0,1,237.036-437.372Z"
        data-name="Path 229"
        fill="#f2f2f2"
        id="Path_229" transform="translate(-235.567 445.33)"/>
      <path
        d="M242.555-437.918c-.026,0-.053,0-.082,0a1.469,1.469,0,0,1-1.386-1.546,5.632,5.632,0,0,1,3.718-5,5.587,5.587,0,0,1,4.415.252,1.467,1.467,0,0,1,.663,1.966,1.466,1.466,0,0,1-1.966.664,2.7,2.7,0,0,0-2.116-.121,2.7,2.7,0,0,0-1.782,2.4A1.467,1.467,0,0,1,242.555-437.918Z"
        data-name="Path 230"
        fill="#f2f2f2"
        id="Path_230" transform="translate(-234.157 444.803)"/>
    </g>
  </g>
</svg>
