<svg height="19.99" viewBox="0 0 19.039 19.99" width="19.039" xmlns="http://www.w3.org/2000/svg">
  <path
    d="M21.21,10.29,19.48,8.57a4.369,4.369,0,0,0,.65-2.26A4.3,4.3,0,1,0,18.07,10l1.72,1.73a1,1,0,0,0,1.414.006l.006-.006a1,1,0,0,0,.026-1.414ZM17.45,8A2.32,2.32,0,0,1,13.5,6.31a2.3,2.3,0,0,1,.68-1.63,2.312,2.312,0,0,1,3.273,3.267l0,0Zm2.05,6a1,1,0,0,0-1.219.717v0A7,7,0,0,1,11.5,20H5.91l.64-.63a1,1,0,0,0,0-1.41A7.069,7.069,0,0,1,8.87,6.52a1,1,0,1,0-.74-1.86,9,9,0,0,0-3.66,14L2.79,20.29A1.006,1.006,0,0,0,3.5,22h8a9,9,0,0,0,8.72-6.75,1,1,0,0,0-.681-1.239Z"
    data-name="Path 1040"
    fill="#471479"
    id="Path_1040" transform="translate(-2.477 -2.01)"/>
</svg>
