<svg xmlns="http://www.w3.org/2000/svg" width="17.996" height="19" viewBox="0 0 17.996 19">
  <path id="Path_1952" data-name="Path 1952" d="M14.77,5.87a1,1,0,0,0,1.36-.37A1,1,0,1,1,17,7a1,1,0,0,0,0,2,3,3,0,1,0-2.6-4.5,1,1,0,0,0,.364,1.367ZM19.07,13a1,1,0,0,0-1.12.86A7,7,0,0,1,11,20H5.41l.65-.65a1,1,0,0,0,0-1.41A7,7,0,0,1,11,6a1,1,0,0,0,0-2A9,9,0,0,0,4,18.61L2.29,20.29A1.006,1.006,0,0,0,3,22h8a9,9,0,0,0,8.93-7.87A1,1,0,0,0,19.078,13Zm-1.69-2.93A1,1,0,0,0,16.8,10l-.18.06-.18.09-.15.13a1,1,0,0,0-.21.32A.837.837,0,0,0,16,11a1,1,0,0,0,2,0,.846.846,0,0,0-.08-.38,1.069,1.069,0,0,0-.54-.54Z" transform="translate(-2.002 -3)" fill="#2a2b2c"/>
</svg>
