<svg height="17.998" viewBox="0 0 17.997 17.998" width="17.997" xmlns="http://www.w3.org/2000/svg">
  <path
    d="M2.88,16.88a3,3,0,0,0,4.24,4.24,3,3,0,0,0-4.24-4.24Zm2.83,2.83A1,1,0,1,1,5.7,18.284l.006.006A1,1,0,0,1,5.716,19.7ZM5,12a1,1,0,0,0,0,2,5,5,0,0,1,5,5,1,1,0,0,0,2,0A7,7,0,0,0,5,12ZM5,8a1,1,0,0,0,0,2,9,9,0,0,1,9,9,1,1,0,0,0,2,0,11.083,11.083,0,0,0-3.22-7.78A11.083,11.083,0,0,0,5,8Zm10.61.39A15.11,15.11,0,0,0,5,4,1,1,0,0,0,5,6,13,13,0,0,1,18,19a1,1,0,0,0,2,0A15.11,15.11,0,0,0,15.61,8.39Z"
    data-name="Path 947"
    fill="#2a2b2c"
    id="Path_947" transform="translate(-2.003 -4)"/>
</svg>
