<svg height="19.995" viewBox="0 0 20.002 19.995" width="20.002" xmlns="http://www.w3.org/2000/svg">
  <path
    d="M20.34,9.32l-14-7a3,3,0,0,0-4.08,3.9l2.4,5.37h0a1.06,1.06,0,0,1,0,.82l-2.4,5.37A3,3,0,0,0,5,22a3.147,3.147,0,0,0,1.35-.32l14-7a3,3,0,0,0,0-5.36Zm-.89,3.57-14,7a1,1,0,0,1-1.35-1.3l2.39-5.37A1.928,1.928,0,0,0,6.57,13h6.89a1,1,0,1,0,0-2H6.57a1.928,1.928,0,0,0-.08-.22L4.1,5.41a1,1,0,0,1,1.35-1.3l14,7a1,1,0,0,1,0,1.78Z"
    data-name="Path 972"
    fill="#fff"
    id="Path_972" transform="translate(-2 -2.005)"/>
</svg>
