<svg xmlns="http://www.w3.org/2000/svg" width="65.011" height="58.704" viewBox="0 0 65.011 58.704">
  <path id="Intersection_2" data-name="Intersection 2" d="M59.445,0V7.673a14.445,14.445,0,0,0-5.777,2.541,25.774,25.774,0,0,0-10.051-3.3V0h-5.66V6.925a25.339,25.339,0,0,0-8.7,2.587,19.013,19.013,0,0,0-7.052-2.534V0H16.547V6.977a19.517,19.517,0,0,0,1.908,38.779,25.807,25.807,0,0,0,46.555-3.839V23.6a26.045,26.045,0,0,0-6.441-9.712,8.871,8.871,0,0,1,6.441-.373V0Zm-34.7,45.014a19.532,19.532,0,0,0,9.346-31.405,20.071,20.071,0,0,1,15.639.939,14.456,14.456,0,0,0-2.046,7.432A14.656,14.656,0,0,0,60.661,36.55a20.172,20.172,0,0,1-35.918,8.463ZM5.66,26.314A13.807,13.807,0,0,1,19.377,12.453a13.412,13.412,0,0,1,4.431.749A26.109,26.109,0,0,0,15.9,39.65,13.811,13.811,0,0,1,5.66,26.314Zm14.979,6.461a20.35,20.35,0,0,1,8.274-16.408,13.831,13.831,0,0,1-7.006,23.486A20.345,20.345,0,0,1,20.639,32.775Zm32.7-10.795a8.807,8.807,0,0,1,1.065-4.215,20.3,20.3,0,0,1,6.516,13.086A8.97,8.97,0,0,1,53.341,21.98Z" transform="translate(65.011 58.704) rotate(180)" fill="#009444"/>
</svg>
