<svg xmlns="http://www.w3.org/2000/svg" width="67.187" height="51.125" viewBox="0 0 67.187 51.125">
  <g id="language" transform="translate(-510 -101.759)">
    <path id="Path_2211" data-name="Path 2211" d="M319.81,273.819a22.615,22.615,0,1,1,22.649-22.649A22.64,22.64,0,0,1,319.81,273.819Zm0-40.277a17.662,17.662,0,1,0,17.7,17.628A17.648,17.648,0,0,0,319.81,233.542Z" transform="translate(225.877 -126.83)" fill="#009444"/>
    <path id="Path_2212" data-name="Path 2212" d="M360.038,287.658a12.734,12.734,0,1,1,12.7-12.7A12.749,12.749,0,0,1,360.038,287.658Zm0-20.516a7.782,7.782,0,1,0,7.747,7.816A7.825,7.825,0,0,0,360.038,267.142Z" transform="translate(204.449 -141.218)" fill="#009444"/>
    <path id="Path_2213" data-name="Path 2213" d="M291.263,282.246a16.989,16.989,0,1,1,16.954-17.023A17.008,17.008,0,0,1,291.263,282.246Zm0-29.024a12.036,12.036,0,1,0,12,12A12.015,12.015,0,0,0,291.263,253.222Z" transform="translate(235.691 -135.257)" fill="#009444"/>
    <rect id="Rectangle_316" data-name="Rectangle 316" width="4.953" height="8.371" transform="translate(524.479 144.513)" fill="#009444"/>
    <rect id="Rectangle_317" data-name="Rectangle 317" width="4.953" height="8.371" transform="translate(543.211 144.513)" fill="#009444"/>
    <rect id="Rectangle_318" data-name="Rectangle 318" width="4.953" height="8.92" transform="translate(562.012 143.964)" fill="#009444"/>
  </g>
</svg>
