<svg xmlns="http://www.w3.org/2000/svg" width="15" height="14.331" viewBox="0 0 15 14.331">
  <path id="Path_1043" data-name="Path 1043" d="M16.982,7.854a.749.749,0,0,0-.644-.5l-4.262-.622-1.91-3.872a.749.749,0,0,0-1.348,0L6.908,6.723l-4.262.629a.738.738,0,0,0-.419,1.258l3.093,3-.749,4.254a.749.749,0,0,0,1.1.809l3.82-2,3.82,2a.694.694,0,0,0,.345.09.753.753,0,0,0,.742-.891l-.749-4.254,3.093-3A.749.749,0,0,0,16.982,7.854Zm-4.606,3a.749.749,0,0,0-.217.659l.539,3.146-2.816-1.5a.792.792,0,0,0-.7,0l-2.816,1.5L6.9,11.509a.749.749,0,0,0-.217-.659L4.436,8.6l3.153-.457a.749.749,0,0,0,.569-.412L9.492,4.881,10.9,7.742a.749.749,0,0,0,.569.412s2.927-.217,3.153.457S12.375,10.85,12.375,10.85Z" transform="translate(-2.006 -2.436)" fill="#cbcbcb"/>
</svg>
