<svg xmlns="http://www.w3.org/2000/svg" width="465" height="353.833" viewBox="0 0 465 353.833">
  <g id="Group_744" data-name="Group 744" transform="translate(-274.309 -228.589)">
    <path id="Path_1814" data-name="Path 1814" d="M453.51,541.626c-86.176,0-156.281-70.319-156.281-156.756,0-86.172,70.1-156.281,156.281-156.281,86.437,0,156.756,70.109,156.756,156.281C610.266,471.307,539.947,541.626,453.51,541.626Zm0-278.758a122.141,122.141,0,0,0-122,122c0,67.533,54.731,122.477,122,122.477A122.617,122.617,0,0,0,575.987,384.87C575.987,317.6,521.043,262.868,453.51,262.868Z" transform="translate(67.783 0)" fill="#009444"/>
    <path id="Path_1815" data-name="Path 1815" d="M435.641,438.459c-48.727,0-88.372-39.431-88.372-87.9a88.474,88.474,0,0,1,88.372-88.372c48.466,0,87.9,39.645,87.9,88.372A88,88,0,0,1,435.641,438.459Zm0-141.991a54.155,54.155,0,0,0-54.093,54.093c0,29.566,24.267,53.619,54.093,53.619a53.679,53.679,0,0,0,53.619-53.619C489.26,320.734,465.207,296.468,435.641,296.468Z" transform="translate(215.77 99.368)" fill="#009444"/>
    <path id="Path_1816" data-name="Path 1816" d="M391.649,483.424c-64.7,0-117.34-52.851-117.34-117.815a117.34,117.34,0,1,1,234.681,0C508.99,430.574,456.353,483.424,391.649,483.424Zm0-200.877a83.157,83.157,0,0,0-83.061,83.062c0,46.06,37.263,83.536,83.061,83.536s83.062-37.476,83.062-83.536A83.157,83.157,0,0,0,391.649,282.548Z" transform="translate(0 58.201)" fill="#009444"/>
    <rect id="Rectangle_152" data-name="Rectangle 152" width="34.279" height="57.937" transform="translate(374.51 524.486)" fill="#009444"/>
    <rect id="Rectangle_153" data-name="Rectangle 153" width="34.279" height="57.937" transform="translate(504.154 524.486)" fill="#009444"/>
    <rect id="Rectangle_154" data-name="Rectangle 154" width="34.279" height="61.736" transform="translate(634.272 520.687)" fill="#009444"/>
  </g>
</svg>
