<svg xmlns="http://www.w3.org/2000/svg" width="22.014" height="15.469" viewBox="0 0 22.014 15.469">
  <path id="Path_2075" data-name="Path 2075" d="M23,9.71a8.511,8.511,0,0,0-.91-4.13,2.924,2.924,0,0,0-1.72-1A78.464,78.464,0,0,0,12,4.27a78.441,78.441,0,0,0-8.34.3,2.876,2.876,0,0,0-1.46.74c-.9.83-1,2.25-1.1,3.45a48.319,48.319,0,0,0,0,6.48,9.525,9.525,0,0,0,.3,2,3.152,3.152,0,0,0,.71,1.36,2.862,2.862,0,0,0,1.49.78,45.254,45.254,0,0,0,6.5.33c3.5.05,6.57,0,10.2-.28a2.877,2.877,0,0,0,1.53-.78,2.491,2.491,0,0,0,.61-1,10.576,10.576,0,0,0,.52-3.4C23,13.69,23,10.31,23,9.71ZM9.74,14.85V8.66l5.92,3.11C14,12.69,11.81,13.73,9.74,14.85Z" transform="translate(-0.991 -4.258)" fill="#2a2b2c"/>
</svg>
