<svg data-name="Group 378" height="42.01" id="Group_378" viewBox="0 0 89.289 42.01" width="89.289"
     xmlns="http://www.w3.org/2000/svg">
  <g data-name="Group 377" id="Group_377" transform="translate(25.915 6.477)">
    <path
      d="M39.707,48.884A10.741,10.741,0,1,1,50.447,38.141,10.754,10.754,0,0,1,39.707,48.884Zm0-19.239a8.5,8.5,0,1,0,8.5,8.5A8.507,8.507,0,0,0,39.707,29.645Z"
      data-name="Path 738"
      fill="#14212e"
      id="Path_738" transform="translate(-19.824 -27.402)"/>
    <path
      d="M27.257,42.768a1.181,1.181,0,0,1-.948-1.893,23.3,23.3,0,0,1,3.63-3.855,1.184,1.184,0,0,1,1.529,1.807A21.325,21.325,0,0,0,28.2,42.294,1.172,1.172,0,0,1,27.257,42.768Z"
      data-name="Path 739"
      fill="#14212e"
      id="Path_739" transform="translate(-26.072 -7.235)"/>
    <path d="M27.538,37.115" data-name="Path 740" fill="none" id="Path_740" stroke="#14212e"
          stroke-linecap="round" stroke-linejoin="round" stroke-width="0.75" transform="translate(-22.906 -6.426)"/>
    <path
      d="M54.864,45.331a1.125,1.125,0,0,1-.9-.449,19.777,19.777,0,0,0-22.749-6.724,1.105,1.105,0,0,1-1.441-.657,1.12,1.12,0,0,1,.657-1.444,22.022,22.022,0,0,1,25.33,7.479,1.124,1.124,0,0,1-.228,1.57A1.11,1.11,0,0,1,54.864,45.331Z"
      data-name="Path 741"
      fill="#14212e"
      id="Path_741" transform="translate(-18.232 -11.691)"/>
  </g>
  <path
    d="M29.458,44.578a9.613,9.613,0,1,1,9.615-9.615A9.624,9.624,0,0,1,29.458,44.578Zm0-16.856A7.243,7.243,0,1,0,36.7,34.963,7.249,7.249,0,0,0,29.458,27.722Z"
    data-name="Path 742"
    fill="#14212e"
    id="Path_742" transform="translate(-13.601 -25.352)"/>
  <path
    d="M48.407,41.467a1.191,1.191,0,0,1-.951-.474,17.108,17.108,0,0,0-27.453,0,1.185,1.185,0,1,1-1.9-1.422,19.481,19.481,0,0,1,31.248,0,1.185,1.185,0,0,1-.24,1.659A1.164,1.164,0,0,1,48.407,41.467Z"
    data-name="Path 743"
    fill="#14212e"
    id="Path_743" transform="translate(-17.87 -11.587)"/>
  <path
    d="M47.683,44.578a9.613,9.613,0,1,1,9.611-9.615A9.625,9.625,0,0,1,47.683,44.578Zm0-16.856a7.243,7.243,0,1,0,7.242,7.242A7.25,7.25,0,0,0,47.683,27.722Z"
    data-name="Path 744"
    fill="#14212e"
    id="Path_744" transform="translate(25.749 -25.352)"/>
  <path
    d="M66.629,41.467a1.186,1.186,0,0,1-.951-.474,17.108,17.108,0,0,0-27.453,0,1.186,1.186,0,0,1-1.9-1.422,19.481,19.481,0,0,1,31.248,0,1.184,1.184,0,0,1-.237,1.659A1.17,1.17,0,0,1,66.629,41.467Z"
    data-name="Path 745"
    fill="#14212e"
    id="Path_745" transform="translate(21.478 -11.587)"/>
</svg>
