<svg height="51.702" viewBox="0 0 83.057 51.702" width="83.057" xmlns="http://www.w3.org/2000/svg">
  <g data-name="Group 359" id="Group_359" transform="translate(0)">
    <path
      d="M228.064-194.1a1.255,1.255,0,0,1-.454-.083l-40.277-15.658a1.251,1.251,0,0,1-.8-1.178,1.247,1.247,0,0,1,.818-1.161l13.459-4.983a1.26,1.26,0,0,1,1.609.741,1.256,1.256,0,0,1-.741,1.609l-10.365,3.834,36.75,14.287,36.75-14.287-36.75-13.6-14.47,5.35a1.244,1.244,0,0,1-1.605-.737,1.251,1.251,0,0,1,.741-1.609l14.9-5.513a1.252,1.252,0,0,1,.868,0l40.277,14.9a1.252,1.252,0,0,1,.818,1.161,1.255,1.255,0,0,1-.8,1.178l-40.274,15.658A1.255,1.255,0,0,1,228.064-194.1Z"
      data-name="Path 629"
      fill="#14212e"
      id="Path_629" transform="translate(-186.535 227.167)"/>
    <path
      d="M219.731-202.714c-16.893,0-29.631-4.962-29.631-11.544a1.252,1.252,0,0,1,1.251-1.251,1.252,1.252,0,0,1,1.251,1.251c0,4.275,11.143,9.041,27.128,9.041a71.387,71.387,0,0,0,11.433-.888,1.248,1.248,0,0,1,1.435,1.035,1.253,1.253,0,0,1-1.031,1.438A74.087,74.087,0,0,1,219.731-202.714Z"
      data-name="Path 630"
      fill="#14212e"
      id="Path_630" transform="translate(-178.203 254.415)"/>
    <path
      d="M207.057-206.3a1.3,1.3,0,0,1-.224-.02c-10.479-1.9-16.733-5.8-16.733-10.442a1.252,1.252,0,0,1,1.251-1.251,1.252,1.252,0,0,1,1.251,1.251c0,3.18,5.9,6.387,14.677,7.979a1.253,1.253,0,0,1,1.008,1.455A1.253,1.253,0,0,1,207.057-206.3Z"
      data-name="Path 631"
      fill="#14212e"
      id="Path_631" transform="translate(-178.203 248.57)"/>
    <path
      d="M203.5-212.3c-1.805,0-3.571-.06-5.283-.177a1.247,1.247,0,0,1-1.165-1.332,1.254,1.254,0,0,1,1.332-1.165c1.659.114,3.367.17,5.116.17a1.252,1.252,0,0,1,1.251,1.251A1.252,1.252,0,0,1,203.5-212.3Z"
      data-name="Path 632"
      fill="#14212e"
      id="Path_632" transform="translate(-161.968 255.658)"/>
    <path
      d="M205.852-205.708a1.254,1.254,0,0,1-1.178-.828,1.253,1.253,0,0,1,.751-1.6c4.722-1.705,7.542-3.991,7.542-6.12a1.252,1.252,0,0,1,1.251-1.251,1.252,1.252,0,0,1,1.251,1.251c0,3.327-3.264,6.337-9.194,8.473A1.265,1.265,0,0,1,205.852-205.708Z"
      data-name="Path 633"
      fill="#14212e"
      id="Path_633" transform="translate(-144.313 254.415)"/>
    <path
      d="M191.352-202.93a1.252,1.252,0,0,1-1.251-1.251v-14.387a1.252,1.252,0,0,1,1.251-1.251,1.252,1.252,0,0,1,1.251,1.251v14.387A1.252,1.252,0,0,1,191.352-202.93Z"
      data-name="Path 634"
      fill="#14212e"
      id="Path_634" transform="translate(-178.203 244.34)"/>
    <path
      d="M208.358-199.434a1.252,1.252,0,0,1-1.251-1.251v-19.379a1.252,1.252,0,0,1,1.251-1.251,1.252,1.252,0,0,1,1.251,1.251v19.379A1.252,1.252,0,0,1,208.358-199.434Z"
      data-name="Path 635"
      fill="#14212e"
      id="Path_635" transform="translate(-138.453 240.843)"/>
    <path
      d="M213.081-208.849A4.59,4.59,0,0,1,208.6-212.5a.833.833,0,0,1,.651-.984.84.84,0,0,1,.984.651,2.912,2.912,0,0,0,2.85,2.319,2.911,2.911,0,0,0,2.907-2.907,2.909,2.909,0,0,0-2.907-2.907,2.907,2.907,0,0,0-2.209,1.011.828.828,0,0,1-1.175.087.828.828,0,0,1-.087-1.175A4.577,4.577,0,0,1,213.081-218a4.583,4.583,0,0,1,4.575,4.575A4.583,4.583,0,0,1,213.081-208.849Z"
      data-name="Path 636"
      fill="#14212e"
      id="Path_636" transform="translate(-135.016 248.593)"/>
    <path
      d="M210.511-206.653a.832.832,0,0,1-.834-.834v-13.82a.832.832,0,0,1,.834-.834.835.835,0,0,1,.834.834v13.82A.835.835,0,0,1,210.511-206.653Z"
      data-name="Path 637"
      fill="#14212e"
      id="Path_637" transform="translate(-132.447 238.915)"/>
  </g>
</svg>
