<svg data-name="Group 356" height="67.406" id="Group_356" viewBox="0 0 46.226 67.406" width="46.226"
     xmlns="http://www.w3.org/2000/svg">
  <path d="M38.037,22.336" data-name="Path 610" fill="#ec1846" id="Path_610" stroke="#14212e"
        stroke-linecap="round" stroke-linejoin="round" stroke-width="0.75" transform="translate(6.792 -8.703)"/>
  <path
    d="M42.364,78.191c-.23,0-.462,0-.691-.008A19.987,19.987,0,0,1,21.73,58.211c-.021-13.938,12.876-21.064,24.257-27.348,7.374-4.071,14.339-7.918,16.84-13.009a1.118,1.118,0,0,1,2.1.294,124.346,124.346,0,0,1,1.45,12.644,1.118,1.118,0,0,1-2.232.15c-.262-3.94-.662-7.283-.972-9.5-3.468,4.4-9.638,7.806-16.109,11.381C35.7,39.1,23.949,45.589,23.967,58.211A17.752,17.752,0,0,0,41.7,75.943c5.577.168,10.161-1.527,13.671-4.95,7.47-7.28,9.045-21.379,9.053-31.924a1.118,1.118,0,0,1,1.119-1.116h0a1.116,1.116,0,0,1,1.116,1.119C66.65,55.037,63.377,66.313,56.932,72.6A20.1,20.1,0,0,1,42.364,78.191Z"
    data-name="Path 611"
    fill="#ec1846"
    id="Path_611" transform="translate(-20.436 -17.229)"/>
  <path
    d="M22.363,71.676A1.119,1.119,0,0,1,21.64,69.7c.283-.24,28.365-24.145,34.276-43.911a1.119,1.119,0,1,1,2.144.641c-6.1,20.407-33.8,43.986-34.973,44.979A1.111,1.111,0,0,1,22.363,71.676Z"
    data-name="Path 612"
    fill="#ec1846"
    id="Path_612" transform="translate(-21.245 -4.269)"/>
  <path
    d="M30.488,31.437a1.253,1.253,0,0,1-.243-.027,1.119,1.119,0,0,1-.852-1.332,21.729,21.729,0,0,1,1.009-3.31,1.119,1.119,0,0,1,2.08.825,19.382,19.382,0,0,0-.9,2.966A1.122,1.122,0,0,1,30.488,31.437Z"
    data-name="Path 613"
    fill="#ec1846"
    id="Path_613" transform="translate(-7.684 -2.48)"/>
  <path
    d="M31.792,41.8a1.117,1.117,0,0,1-1.049-.729,30.7,30.7,0,0,1-1.535-11.4,1.14,1.14,0,0,1,1.185-1.052,1.12,1.12,0,0,1,1.049,1.185,29.026,29.026,0,0,0,1.4,10.487,1.119,1.119,0,0,1-.662,1.436A1.1,1.1,0,0,1,31.792,41.8Z"
    data-name="Path 614"
    fill="#ec1846"
    id="Path_614" transform="translate(-8.032 1.796)"/>
  <path
    d="M32.937,39.627a28.053,28.053,0,0,1-4.37-.323,1.116,1.116,0,0,1-.918-1.289,1.1,1.1,0,0,1,1.289-.916c.08.016,8.348,1.356,12.876-1.928a1.119,1.119,0,0,1,1.313,1.813C40.15,39.141,36.036,39.627,32.937,39.627Z"
    data-name="Path 615"
    fill="#ec1846"
    id="Path_615" transform="translate(-10.581 12.37)"/>
</svg>
