<svg height="63.262" viewBox="0 0 56.823 63.262" width="56.823" xmlns="http://www.w3.org/2000/svg">
  <g data-name="Group 362" id="Group_362" transform="translate(0)">
    <path d="M375.354-230.527" data-name="Path 647" fill="none" id="Path_647" stroke="#14212e"
          stroke-linecap="round" stroke-linejoin="round" stroke-width="0.75" transform="translate(-327.196 237.976)"/>
    <path
      d="M390.173-228.887H363.818a1.007,1.007,0,0,1-1.007-1.007,1.007,1.007,0,0,1,1.007-1.007h26.355a1.007,1.007,0,0,1,1.007,1.007A1.007,1.007,0,0,1,390.173-228.887Z"
      data-name="Path 648"
      fill="#14212e"
      id="Path_648" transform="translate(-348.333 237.345)"/>
    <path
      d="M358.426-212.784a1.007,1.007,0,0,1-1.007-1.007v-16.1a1.007,1.007,0,0,1,1.007-1.007h8.16a1.007,1.007,0,0,1,1.007,1.007,1.007,1.007,0,0,1-1.007,1.007h-7.153v15.1A1.007,1.007,0,0,1,358.426-212.784Z"
      data-name="Path 649"
      fill="#14212e"
      id="Path_649" transform="translate(-357.419 237.345)"/>
    <path d="M357.8-224.529" data-name="Path 650" fill="none" id="Path_650" stroke="#14212e"
          stroke-linecap="round" stroke-linejoin="round" stroke-width="0.75" transform="translate(-356.785 248.083)"/>
    <path
      d="M413.235-189.106H358.426a1.007,1.007,0,0,1-1.007-1.007v-30.866a1.007,1.007,0,0,1,1.007-1.007,1.007,1.007,0,0,1,1.007,1.007v29.859h52.8v-7.935a1.006,1.006,0,0,1,1.007-1.007,1.007,1.007,0,0,1,1.007,1.007v8.941A1.007,1.007,0,0,1,413.235-189.106Z"
      data-name="Path 651"
      fill="#14212e"
      id="Path_651" transform="translate(-357.419 252.368)"/>
    <path
      d="M367.783-216.629h-6.318a1.007,1.007,0,0,1-1.007-1.007v-14.658a1.007,1.007,0,0,1,1.007-1.007h6.318a1.007,1.007,0,0,1,1.007,1.007v14.658A1.007,1.007,0,0,1,367.783-216.629Zm-5.311-2.014h4.3v-12.644h-4.3Z"
      data-name="Path 652"
      fill="#14212e"
      id="Path_652" transform="translate(-352.298 233.301)"/>
    <path
      d="M379.951-220.673h-6.318a1.007,1.007,0,0,1-1.007-1.007v-8.214a1.007,1.007,0,0,1,1.007-1.007,1.007,1.007,0,0,1,1.007,1.007v7.207h4.3v-7.207a1.007,1.007,0,0,1,1.007-1.007,1.007,1.007,0,0,1,1.007,1.007v8.214A1.007,1.007,0,0,1,379.951-220.673Z"
      data-name="Path 653"
      fill="#14212e"
      id="Path_653" transform="translate(-331.793 237.345)"/>
    <path
      d="M379.951-224.843a1.007,1.007,0,0,1-1.007-1.007v-5.437h-4.3v5.437a1.007,1.007,0,0,1-1.007,1.007,1.007,1.007,0,0,1-1.007-1.007v-6.444a1.007,1.007,0,0,1,1.007-1.007h6.318a1.007,1.007,0,0,1,1.007,1.007v6.444A1.007,1.007,0,0,1,379.951-224.843Z"
      data-name="Path 654"
      fill="#14212e"
      id="Path_654" transform="translate(-331.793 233.301)"/>
    <path
      d="M393.862-224.057H358.426a1.007,1.007,0,0,1-1.007-1.007,1.007,1.007,0,0,1,1.007-1.007h35.436a1.007,1.007,0,0,1,1.007,1.007A1.007,1.007,0,0,1,393.862-224.057Z"
      data-name="Path 655"
      fill="#14212e"
      id="Path_655" transform="translate(-357.419 245.485)"/>
    <path
      d="M379.1-224.057h-6.042a1.007,1.007,0,0,1-1.007-1.007,1.007,1.007,0,0,1,1.007-1.007H379.1a1.007,1.007,0,0,1,1.007,1.007A1.007,1.007,0,0,1,379.1-224.057Z"
      data-name="Path 656"
      fill="#14212e"
      id="Path_656" transform="translate(-332.769 245.485)"/>
    <path
      d="M381.984-224.057h-5.013a1.007,1.007,0,0,1-1.007-1.007,1.007,1.007,0,0,1,1.007-1.007h5.013a1.007,1.007,0,0,1,1.007,1.007A1.007,1.007,0,0,1,381.984-224.057Z"
      data-name="Path 657"
      fill="#14212e"
      id="Path_657" transform="translate(-326.168 245.485)"/>
    <path
      d="M403.746-181.011h-45.32a1.007,1.007,0,0,1-1.007-1.007,1.007,1.007,0,0,1,1.007-1.007h44.313v-7.167a1.007,1.007,0,0,1,1.007-1.007h8.482v-37.689h-6.651a1.007,1.007,0,0,1-1.007-1.007,1.007,1.007,0,0,1,1.007-1.007h7.658a1.007,1.007,0,0,1,1.007,1.007v39.7a1.007,1.007,0,0,1-1.007,1.007h-8.482v7.167A1.007,1.007,0,0,1,403.746-181.011Z"
      data-name="Path 658"
      fill="#14212e"
      id="Path_658" transform="translate(-357.419 237.345)"/>
    <path
      d="M375.3-205.928a1,1,0,0,1-.763-.349,1,1,0,0,1,.107-1.42l9.487-8.174a1.006,1.006,0,0,1,1.42.107,1,1,0,0,1-.107,1.418l-9.487,8.174A1.006,1.006,0,0,1,375.3-205.928Z"
      data-name="Path 659"
      fill="#14212e"
      id="Path_659" transform="translate(-328.977 262.262)"/>
    <g data-name="Group 361" id="Group_361" transform="translate(16.691 26.125)">
      <path
        d="M369.746-211.351a1.007,1.007,0,0,1-1.007-1.007,1.007,1.007,0,0,1,1.007-1.007,4.1,4.1,0,0,0,4.095-4.1,4.1,4.1,0,0,0-4.095-4.095,4.1,4.1,0,0,0-4.1,4.095,1.006,1.006,0,0,1-1.007,1.007,1.006,1.006,0,0,1-1.007-1.007,6.118,6.118,0,0,1,6.111-6.109,6.117,6.117,0,0,1,6.109,6.109A6.118,6.118,0,0,1,369.746-211.351Z"
        data-name="Path 660"
        fill="#14212e"
        id="Path_660" transform="translate(-363.635 223.572)"/>
      <path d="M365.911-219.335" data-name="Path 661" fill="none" id="Path_661" stroke="#14212e"
            stroke-linecap="round" stroke-linejoin="round" stroke-width="0.75" transform="translate(-359.8 230.71)"/>
      <path
        d="M369.746-207.49a6.118,6.118,0,0,1-6.111-6.111,1.007,1.007,0,0,1,1.007-1.007,1.007,1.007,0,0,1,1.007,1.007,4.1,4.1,0,0,0,4.1,4.1,4.1,4.1,0,0,0,4.095-4.1,4.1,4.1,0,0,0-4.095-4.095,1.007,1.007,0,0,1-1.007-1.007,1.007,1.007,0,0,1,1.007-1.007,6.115,6.115,0,0,1,6.109,6.109A6.118,6.118,0,0,1,369.746-207.49Z"
        data-name="Path 662"
        fill="#14212e"
        id="Path_662" transform="translate(-363.635 230.078)"/>
      <path
        d="M370.244-216.455a1,1,0,0,1-.693-.277,1,1,0,0,1-.038-1.42l4.836-5.1a1,1,0,0,1,1.42-.038,1.006,1.006,0,0,1,.04,1.423l-4.836,5.1A1,1,0,0,1,370.244-216.455Z"
        data-name="Path 663"
        fill="#14212e"
        id="Path_663" transform="translate(-354.195 223.571)"/>
      <path
        d="M372.045-200.984a1.007,1.007,0,0,1-1.007-1.007v-20.574a1.007,1.007,0,0,1,1.007-1.007,1.007,1.007,0,0,1,1.007,1.007v20.574A1.007,1.007,0,0,1,372.045-200.984Z"
        data-name="Path 664"
        fill="#14212e"
        id="Path_664" transform="translate(-351.16 223.572)"/>
    </g>
  </g>
</svg>
