<svg height="61.542" viewBox="0 0 109.953 61.542" width="109.953" xmlns="http://www.w3.org/2000/svg">
  <g data-name="Group 369" id="Group_369" transform="translate(0)">
    <path
      d="M106.427-127.636h0a.89.89,0,0,1-.883-.809,6.5,6.5,0,0,0-4.789-5.676,6.461,6.461,0,0,0-1.667-.22.887.887,0,0,1-.887-.887.885.885,0,0,1,.887-.887,6.788,6.788,0,0,0,1.667-.22,6.5,6.5,0,0,0,4.789-5.68.89.89,0,0,1,.883-.809.89.89,0,0,1,.883.809,6.5,6.5,0,0,0,4.793,5.68,6.744,6.744,0,0,0,1.667.22.884.884,0,0,1,.883.887.887.887,0,0,1-.887.887,6.567,6.567,0,0,0-1.664.216,6.468,6.468,0,0,0-2.2,1.061h0a6.5,6.5,0,0,0-2.59,4.619A.89.89,0,0,1,106.427-127.636Zm-3.626-7.592a8.284,8.284,0,0,1,3.622,3.594,8.332,8.332,0,0,1,2.423-2.856h0a8.529,8.529,0,0,1,1.2-.741,8.322,8.322,0,0,1-3.619-3.6A8.309,8.309,0,0,1,102.8-135.228Z"
      data-name="Path 665"
      fill="#14212e"
      id="Path_665" transform="translate(-98.2 153.442)"/>
    <path
      d="M109.283-134.287a.89.89,0,0,1-.883-.805,4.481,4.481,0,0,0-3.306-3.92,4.356,4.356,0,0,0-1.149-.153.887.887,0,0,1-.887-.887.887.887,0,0,1,.887-.887,4.308,4.308,0,0,0,1.146-.153,4.479,4.479,0,0,0,3.31-3.917.89.89,0,0,1,.883-.809h0a.89.89,0,0,1,.883.809,4.477,4.477,0,0,0,3.3,3.917,4.393,4.393,0,0,0,1.149.153.887.887,0,0,1,.887.887.887.887,0,0,1-.887.887,4.349,4.349,0,0,0-1.146.153,4.445,4.445,0,0,0-1.522.731,4.487,4.487,0,0,0-1.785,3.189A.89.89,0,0,1,109.283-134.287Zm-2.136-5.765a6.319,6.319,0,0,1,2.132,2.122,6.266,6.266,0,0,1,1.614-1.777h0a5.906,5.906,0,0,1,.514-.344,6.288,6.288,0,0,1-2.129-2.125A6.308,6.308,0,0,1,107.147-140.052Z"
      data-name="Path 666"
      fill="#14212e"
      id="Path_666" transform="translate(-85.826 145.817)"/>
    <g data-name="Group 367" id="Group_367" transform="translate(32.039 9.884)">
      <path d="M107.606-133.52" data-name="Path 667" fill="none" id="Path_667" stroke="#14212e"
            stroke-linecap="round" stroke-linejoin="round" stroke-width="0.75" transform="translate(-106.276 167.262)"/>
      <path d="M107.606-133.271" data-name="Path 668" fill="none" id="Path_668" stroke="#14212e"
            stroke-linecap="round" stroke-linejoin="round" stroke-width="0.75" transform="translate(-106.276 167.896)"/>
      <path d="M107.808-130.789" data-name="Path 669" fill="none" id="Path_669" stroke="#14212e"
            stroke-linecap="round" stroke-linejoin="round" stroke-width="0.75" transform="translate(-105.761 174.22)"/>
      <path
        d="M182.921-107.044H108.912a1.331,1.331,0,0,1-1.33-1.33,1.331,1.331,0,0,1,1.33-1.33H181.59v-28.552a1.331,1.331,0,0,1,1.33-1.33,1.331,1.331,0,0,1,1.33,1.33v29.882A1.331,1.331,0,0,1,182.921-107.044Z"
        data-name="Path 670"
        fill="#14212e"
        id="Path_670" transform="translate(-106.337 151.805)"/>
      <path
        d="M108.561-131.533a1.331,1.331,0,0,1-1.33-1.33V-141.7a1.331,1.331,0,0,1,1.33-1.33h75.253a1.331,1.331,0,0,1,1.33,1.33v7a1.331,1.331,0,0,1-1.33,1.33,1.331,1.331,0,0,1-1.33-1.33v-5.669H109.892v7.507A1.331,1.331,0,0,1,108.561-131.533Z"
        data-name="Path 671"
        fill="#14212e"
        id="Path_671" transform="translate(-107.231 143.031)"/>
      <path
        d="M108.561-137.3a1.331,1.331,0,0,1-1.33-1.33v-.582a1.331,1.331,0,0,1,1.33-1.33,1.331,1.331,0,0,1,1.33,1.33v.582A1.331,1.331,0,0,1,108.561-137.3Z"
        data-name="Path 672"
        fill="#14212e"
        id="Path_672" transform="translate(-107.231 149.377)"/>
      <path d="M109.8-139.212" data-name="Path 673" fill="#fff" id="Path_673" stroke="#14212e"
            stroke-linecap="round" stroke-linejoin="round" stroke-width="0.75" transform="translate(-100.681 152.761)"/>
      <g data-name="Group 363" id="Group_363" transform="translate(7.791 7)">
        <path
          d="M128.782-112.582h37.073a6.43,6.43,0,0,1,3.619-5.357v-19.168a6.442,6.442,0,0,1-3.246-3.576H113.861a6.43,6.43,0,0,1-4.059,3.892v.514"
          data-name="Path 674"
          fill="none"
          id="Path_674" transform="translate(-108.472 142.013)"/>
        <path
          d="M166.807-110.3h-37.07a1.331,1.331,0,0,1-1.33-1.33,1.331,1.331,0,0,1,1.33-1.33h35.931a7.817,7.817,0,0,1,3.431-4.807v-17.6a7.757,7.757,0,0,1-2.785-3.03H115.682a7.719,7.719,0,0,1-3.658,3.494,1.337,1.337,0,0,1-1.267.915,1.331,1.331,0,0,1-1.33-1.33v-.518a1.324,1.324,0,0,1,.919-1.263,5.094,5.094,0,0,0,3.225-3.09,1.327,1.327,0,0,1,1.245-.869H167.18a1.331,1.331,0,0,1,1.249.869,5.116,5.116,0,0,0,2.583,2.842,1.325,1.325,0,0,1,.749,1.2v19.168a1.325,1.325,0,0,1-.749,1.2,5.141,5.141,0,0,0-2.877,4.254A1.327,1.327,0,0,1,166.807-110.3Z"
          data-name="Path 675"
          fill="#14212e"
          id="Path_675" transform="translate(-109.427 141.058)"/>
      </g>
      <g data-name="Group 364" id="Group_364" transform="translate(9.746 30.458)">
        <path d="M110.353-134.07a6.411,6.411,0,0,1,2.476,4.64h8.043" data-name="Path 676" fill="#fff"
              id="Path_676" transform="translate(-109.024 135.403)"/>
        <path
          d="M121.827-127.142h-8.043a1.33,1.33,0,0,1-1.327-1.238,5.089,5.089,0,0,0-1.965-3.679,1.331,1.331,0,0,1-.234-1.866,1.315,1.315,0,0,1,1.863-.238,7.748,7.748,0,0,1,2.8,4.36h6.9a1.331,1.331,0,0,1,1.33,1.33A1.331,1.331,0,0,1,121.827-127.142Z"
          data-name="Path 677"
          fill="#14212e"
          id="Path_677" transform="translate(-109.978 134.446)"/>
      </g>
      <g data-name="Group 366" id="Group_366" transform="translate(33.401 12.977)">
        <g data-name="Group 365" id="Group_365" transform="translate(0 3.109)">
          <path
            d="M117.728-126.723c-1.809-.866-1.178-2.31.621-1.408a7.051,7.051,0,0,0,4.584.929c2.373-.252,3.26-1.16,3.129-2.395-.348-3.25-8.163.17-8.688-4.764-.216-2.04,1.38-3.743,4.555-4.08a8.31,8.31,0,0,1,4.537.692c1.192.631,1.1,2.033-.592,1.43a7.628,7.628,0,0,0-3.789-.678c-2.253.241-3.157,1.224-3.033,2.409.358,3.37,8.181-.028,8.688,4.765.231,2.161-1.518,3.761-4.772,4.1A8.708,8.708,0,0,1,117.728-126.723Z"
            data-name="Path 678"
            fill="#14212e"
            id="Path_678" transform="translate(-116.646 138.497)"/>
        </g>
        <path
          d="M118.972-120.567a.887.887,0,0,1-.887-.887v-17.032a.887.887,0,0,1,.887-.887.887.887,0,0,1,.887.887v17.032A.887.887,0,0,1,118.972-120.567Z"
          data-name="Path 679"
          fill="#14212e"
          id="Path_679" transform="translate(-112.979 139.373)"/>
      </g>
    </g>
    <g data-name="Group 368" id="Group_368" transform="translate(2.867 20.285)">
      <path
        d="M115.061-121.36c-9,0-16.053-3.558-16.053-8.1,0-1.944,1.249-3.736,3.612-5.18a.892.892,0,0,1,1.22.294.894.894,0,0,1-.294,1.22c-1.785,1.089-2.764,2.391-2.764,3.665,0,3.055,5.737,6.325,14.279,6.325s14.279-3.271,14.279-6.325a.887.887,0,0,1,.887-.887.887.887,0,0,1,.887.887C131.115-124.918,124.062-121.36,115.061-121.36Z"
        data-name="Path 680"
        fill="#14212e"
        id="Path_680" transform="translate(-99.008 153.684)"/>
      <path
        d="M102.131-133.084a.893.893,0,0,1-.862-.667.887.887,0,0,1,.639-1.078,27.007,27.007,0,0,1,3.4-.646.891.891,0,0,1,.99.766.887.887,0,0,1-.766.993,25.027,25.027,0,0,0-3.175.6A.96.96,0,0,1,102.131-133.084Z"
        data-name="Path 681"
        fill="#14212e"
        id="Path_681" transform="translate(-93.319 151.86)"/>
      <path
        d="M115.061-122.019c-9,0-16.053-3.558-16.053-8.1a.885.885,0,0,1,.887-.887.885.885,0,0,1,.887.887c0,3.051,5.737,6.322,14.279,6.322s14.279-3.271,14.279-6.322a.885.885,0,0,1,.887-.887.885.885,0,0,1,.887.887C131.115-125.578,124.062-122.019,115.061-122.019Z"
        data-name="Path 682"
        fill="#14212e"
        id="Path_682" transform="translate(-99.008 163.276)"/>
      <path
        d="M99.895-122.736a.887.887,0,0,1-.887-.887v-9.011a.887.887,0,0,1,.887-.887.887.887,0,0,1,.887.887v9.011A.887.887,0,0,1,99.895-122.736Z"
        data-name="Path 683"
        fill="#14212e"
        id="Path_683" transform="translate(-99.008 156.859)"/>
      <path
        d="M108.445-122.736a.887.887,0,0,1-.887-.887v-9.011a.887.887,0,0,1,.887-.887.887.887,0,0,1,.887.887v9.011A.887.887,0,0,1,108.445-122.736Z"
        data-name="Path 684"
        fill="#14212e"
        id="Path_684" transform="translate(-77.225 156.859)"/>
      <path
        d="M101.156-122.619a.887.887,0,0,1-.887-.887v-7.564a.887.887,0,0,1,.887-.887.887.887,0,0,1,.887.887v7.564A.887.887,0,0,1,101.156-122.619Z"
        data-name="Path 685"
        fill="#14212e"
        id="Path_685" transform="translate(-95.795 160.846)"/>
      <path
        d="M102.295-122.862a.887.887,0,0,1-.887-.887v-6.712a.887.887,0,0,1,.887-.887.887.887,0,0,1,.887.887v6.712A.887.887,0,0,1,102.295-122.862Z"
        data-name="Path 686"
        fill="#14212e"
        id="Path_686" transform="translate(-92.894 162.395)"/>
      <path
        d="M106.85-122.16a.885.885,0,0,1-.887-.887v-8.007a.885.885,0,0,1,.887-.887.885.885,0,0,1,.887.887v8.007A.885.885,0,0,1,106.85-122.16Z"
        data-name="Path 687"
        fill="#14212e"
        id="Path_687" transform="translate(-81.289 160.884)"/>
      <path
        d="M118.212-124.551c-9,0-16.05-3.558-16.05-8.1,0-1.944,1.249-3.736,3.612-5.18a.891.891,0,0,1,1.217.294.888.888,0,0,1-.294,1.22c-1.781,1.089-2.76,2.391-2.76,3.665,0,3.055,5.737,6.326,14.276,6.326s14.279-3.271,14.279-6.326c0-2.168-2.817-4.31-7.177-5.456a.885.885,0,0,1-.632-1.082.879.879,0,0,1,1.082-.632c5.322,1.4,8.5,4.08,8.5,7.17C134.265-128.109,127.216-124.551,118.212-124.551Z"
        data-name="Path 688"
        fill="#14212e"
        id="Path_688" transform="translate(-90.973 140.73)"/>
      <path
        d="M119.848-137.448a.805.805,0,0,1-.223-.028,30.153,30.153,0,0,0-14.12-.021.884.884,0,0,1-1.082-.635.89.89,0,0,1,.639-1.082,31.872,31.872,0,0,1,15.014.025.885.885,0,0,1,.631,1.082A.886.886,0,0,1,119.848-137.448Z"
        data-name="Path 689"
        fill="#14212e"
        id="Path_689" transform="translate(-85.283 140.099)"/>
      <path
        d="M118.212-126.57c-9,0-16.05-3.555-16.05-8.1a.885.885,0,0,1,.887-.887.887.887,0,0,1,.887.887c0,3.055,5.737,6.322,14.276,6.322s14.279-3.267,14.279-6.322a.887.887,0,0,1,.887-.887.885.885,0,0,1,.887.887C134.265-130.125,127.216-126.57,118.212-126.57Z"
        data-name="Path 690"
        fill="#14212e"
        id="Path_690" transform="translate(-90.973 151.682)"/>
      <path
        d="M103.049-127.287a.885.885,0,0,1-.887-.887v-9.011a.885.885,0,0,1,.887-.887.887.887,0,0,1,.887.887v9.011A.887.887,0,0,1,103.049-127.287Z"
        data-name="Path 691"
        fill="#14212e"
        id="Path_691" transform="translate(-90.973 145.264)"/>
      <path
        d="M111.6-127.287a.887.887,0,0,1-.887-.887v-9.011a.887.887,0,0,1,.887-.887.885.885,0,0,1,.887.887v9.011A.885.885,0,0,1,111.6-127.287Z"
        data-name="Path 692"
        fill="#14212e"
        id="Path_692" transform="translate(-69.192 145.264)"/>
      <path
        d="M104.31-127.172a.887.887,0,0,1-.887-.887v-7.56a.885.885,0,0,1,.887-.887.885.885,0,0,1,.887.887v7.56A.887.887,0,0,1,104.31-127.172Z"
        data-name="Path 693"
        fill="#14212e"
        id="Path_693" transform="translate(-87.76 149.254)"/>
      <path
        d="M105.449-127.413a.887.887,0,0,1-.887-.887v-6.712a.887.887,0,0,1,.887-.887.887.887,0,0,1,.887.887v6.712A.887.887,0,0,1,105.449-127.413Z"
        data-name="Path 694"
        fill="#14212e"
        id="Path_694" transform="translate(-84.858 150.8)"/>
      <path
        d="M110-126.711a.887.887,0,0,1-.887-.887v-8.007a.887.887,0,0,1,.887-.887.887.887,0,0,1,.887.887v8.007A.887.887,0,0,1,110-126.711Z"
        data-name="Path 695"
        fill="#14212e"
        id="Path_695" transform="translate(-73.253 149.289)"/>
    </g>
  </g>
</svg>
