<svg height="56.835" viewBox="0 0 72.296 56.835" width="72.296" xmlns="http://www.w3.org/2000/svg">
  <g data-name="Group 375" id="Group_375" transform="translate(0)">
    <path
      d="M305.818-44.614a1.286,1.286,0,0,1-1.286-1.286A13.745,13.745,0,0,0,290.8-59.633,13.746,13.746,0,0,0,277.07-45.9a1.286,1.286,0,0,1-1.286,1.286A1.286,1.286,0,0,1,274.5-45.9a16.323,16.323,0,0,1,16.3-16.3,16.32,16.32,0,0,1,16.3,16.3A1.284,1.284,0,0,1,305.818-44.614Z"
      data-name="Path 712"
      fill="#14212e"
      id="Path_712" transform="translate(-265.346 62.205)"/>
    <path
      d="M284.684-44.614A1.286,1.286,0,0,1,283.4-45.9a16.323,16.323,0,0,1,16.3-16.3,16.373,16.373,0,0,1,14.124,8.147,1.292,1.292,0,0,1-.47,1.759,1.291,1.291,0,0,1-1.759-.47,13.783,13.783,0,0,0-11.9-6.865A13.748,13.748,0,0,0,285.97-45.9,1.286,1.286,0,0,1,284.684-44.614Z"
      data-name="Path 713"
      fill="#14212e"
      id="Path_713" transform="translate(-243.728 62.205)"/>
    <path
      d="M284.545-16.018a1.286,1.286,0,0,1-1.138-.686,1.287,1.287,0,0,1,.538-1.738c.3-.158,29.849-16.017,29.849-38.092a1.286,1.286,0,0,1,1.286-1.286,1.286,1.286,0,0,1,1.286,1.286c0,23.629-29.949,39.7-31.224,40.366A1.244,1.244,0,0,1,284.545-16.018Z"
      data-name="Path 714"
      fill="#14212e"
      id="Path_714" transform="translate(-244.069 72.854)"/>
    <path
      d="M301.16-29.916a1.267,1.267,0,0,1-.6-.151c-.59-.309-14.583-7.777-23.684-19.981a1.287,1.287,0,0,1,.264-1.8,1.292,1.292,0,0,1,1.8.264c8.754,11.744,22.679,19.171,22.82,19.243A1.29,1.29,0,0,1,302.3-30.6,1.289,1.289,0,0,1,301.16-29.916Z"
      data-name="Path 715"
      fill="#14212e"
      id="Path_715" transform="translate(-260.188 86.751)"/>
    <path
      d="M284.589-42.476l-.117,0a1.3,1.3,0,0,1-1.056-.754l-3.388-7.516a1.287,1.287,0,0,1,.641-1.7,1.292,1.292,0,0,1,1.7.641l2.452,5.445L290-53.83a1.282,1.282,0,0,1,1.056-.555h8.284a1.286,1.286,0,0,1,1.286,1.286,1.286,1.286,0,0,1-1.286,1.286h-7.612l-6.08,8.782A1.278,1.278,0,0,1,284.589-42.476Z"
      data-name="Path 716"
      fill="#14212e"
      id="Path_716" transform="translate(-252.189 81.2)"/>
    <path
      d="M288.974-44.827H273.115a1.286,1.286,0,0,1-1.286-1.286,1.286,1.286,0,0,1,1.286-1.286h15.166l6.151-9.33a1.333,1.333,0,0,1,1.176-.576,1.3,1.3,0,0,1,1.07.754l2.832,6.289a1.287,1.287,0,0,1-.641,1.7,1.289,1.289,0,0,1-1.7-.645l-1.872-4.156-5.246,7.955A1.287,1.287,0,0,1,288.974-44.827Z"
      data-name="Path 717"
      fill="#14212e"
      id="Path_717" transform="translate(-271.829 74.104)"/>
  </g>
</svg>
