<svg height="67.62" viewBox="0 0 65.709 67.62" width="65.709" xmlns="http://www.w3.org/2000/svg">
  <g data-name="Group 360" id="Group_360" transform="translate(0)">
    <path
      d="M308.049-207.784H277.027a1.158,1.158,0,0,1-1.158-1.158,1.158,1.158,0,0,1,1.158-1.158h29.864v-6.937H278.185v1.534a1.158,1.158,0,0,1-1.158,1.158,1.158,1.158,0,0,1-1.158-1.158v-2.692a1.158,1.158,0,0,1,1.158-1.158h31.022a1.158,1.158,0,0,1,1.158,1.158v9.253A1.158,1.158,0,0,1,308.049-207.784Z"
      data-name="Path 638"
      fill="#14212e"
      id="Path_638" transform="translate(-274.518 256.9)"/>
    <path
      d="M308.049-204.787H277.027a1.158,1.158,0,0,1-1.158-1.158V-215.2a1.158,1.158,0,0,1,1.158-1.158h31.022a1.158,1.158,0,0,1,1.158,1.158v9.253A1.158,1.158,0,0,1,308.049-204.787ZM278.185-207.1h28.706v-6.937H278.185Z"
      data-name="Path 639"
      fill="#14212e"
      id="Path_639" transform="translate(-274.518 263.156)"/>
    <path
      d="M308.049-201.793H277.027a1.158,1.158,0,0,1-1.158-1.158v-9.25a1.156,1.156,0,0,1,1.158-1.158h31.022a1.156,1.156,0,0,1,1.158,1.158v9.25A1.158,1.158,0,0,1,308.049-201.793Zm-29.864-2.316h28.706v-6.934H278.185Z"
      data-name="Path 640"
      fill="#14212e"
      id="Path_640" transform="translate(-274.518 269.412)"/>
    <path
      d="M318.1-204.785H300.665a1.158,1.158,0,0,1-1.158-1.158,1.156,1.156,0,0,1,1.158-1.158h16.273v-6.94H288.232v6.94h4.773a1.156,1.156,0,0,1,1.158,1.158,1.158,1.158,0,0,1-1.158,1.158h-5.931a1.158,1.158,0,0,1-1.158-1.158V-215.2a1.158,1.158,0,0,1,1.158-1.158H318.1a1.158,1.158,0,0,1,1.158,1.158v9.256A1.158,1.158,0,0,1,318.1-204.785Z"
      data-name="Path 641"
      fill="#14212e"
      id="Path_641" transform="translate(-253.545 263.154)"/>
    <path
      d="M318.1-201.791H287.075a1.158,1.158,0,0,1-1.158-1.158V-212.2a1.158,1.158,0,0,1,1.158-1.158h5.931a1.158,1.158,0,0,1,1.158,1.158,1.158,1.158,0,0,1-1.158,1.158h-4.773v6.937h28.706v-6.937H300.665a1.158,1.158,0,0,1-1.158-1.158,1.158,1.158,0,0,1,1.158-1.158H318.1a1.158,1.158,0,0,1,1.158,1.158v9.253A1.158,1.158,0,0,1,318.1-201.791Z"
      data-name="Path 642"
      fill="#14212e"
      id="Path_642" transform="translate(-253.545 269.41)"/>
    <path
      d="M284.609-213.969a12.731,12.731,0,0,1-2.044-.167,1.168,1.168,0,0,1-.9-.744,12.426,12.426,0,0,1,.655-10.12,1.163,1.163,0,0,1,1.565-.479,1.157,1.157,0,0,1,.479,1.565,10.071,10.071,0,0,0-.741,7.583,9.92,9.92,0,0,0,8.74-3.566,9.948,9.948,0,0,0,1.865-9.253,10.182,10.182,0,0,0-4.869.707,1.151,1.151,0,0,1-1.51-.63,1.155,1.155,0,0,1,.63-1.51,12.511,12.511,0,0,1,6.8-.763,1.152,1.152,0,0,1,.9.744,12.43,12.43,0,0,1-2.035,12.183A12.4,12.4,0,0,1,284.609-213.969Z"
      data-name="Path 643"
      fill="#14212e"
      id="Path_643" transform="translate(-264.031 231.514)"/>
    <path
      d="M287.742-211.387a12.333,12.333,0,0,1-7.86-2.8,12.431,12.431,0,0,1-4.282-11.587,1.158,1.158,0,0,1,.744-.9,12.417,12.417,0,0,1,12.183,2.035,12.437,12.437,0,0,1,4.282,11.584,1.156,1.156,0,0,1-.744.9A12.48,12.48,0,0,1,287.742-211.387Zm-9.948-13.331a9.954,9.954,0,0,0,3.563,8.743,9.95,9.95,0,0,0,9.256,1.862,9.955,9.955,0,0,0-3.563-8.74A9.949,9.949,0,0,0,277.795-224.719Z"
      data-name="Path 644"
      fill="#14212e"
      id="Path_644" transform="translate(-275.432 240.007)"/>
    <path
      d="M282.28-201.845A1.158,1.158,0,0,1,281.122-203v-22.47a1.158,1.158,0,0,1,1.158-1.158,1.158,1.158,0,0,1,1.158,1.158V-203A1.158,1.158,0,0,1,282.28-201.845Z"
      data-name="Path 645"
      fill="#14212e"
      id="Path_645" transform="translate(-263.554 241.708)"/>
    <path
      d="M298.845-205.528h0a1.155,1.155,0,0,1-1.152-1.053,9.191,9.191,0,0,0-6.771-8.03,9.106,9.106,0,0,0-2.356-.309,1.158,1.158,0,0,1-1.158-1.158,1.156,1.156,0,0,1,1.158-1.158,9.11,9.11,0,0,0,2.356-.312,9.191,9.191,0,0,0,6.771-8.03,1.157,1.157,0,0,1,1.152-1.053A1.158,1.158,0,0,1,300-225.577a9.2,9.2,0,0,0,6.774,8.03,9.11,9.11,0,0,0,2.356.312,1.156,1.156,0,0,1,1.158,1.158,1.158,1.158,0,0,1-1.158,1.158,9.106,9.106,0,0,0-2.356.309,9.176,9.176,0,0,0-3.109,1.494h0A9.186,9.186,0,0,0,300-206.581,1.158,1.158,0,0,1,298.845-205.528Zm-5.264-10.549a11.542,11.542,0,0,1,5.264,5.221,11.443,11.443,0,0,1,3.436-4.115h0a11.392,11.392,0,0,1,1.828-1.108,11.577,11.577,0,0,1-5.264-5.224A11.555,11.555,0,0,1,293.581-216.077Z"
      data-name="Path 646"
      fill="#14212e"
      id="Path_646" transform="translate(-250.43 241.708)"/>
  </g>
</svg>
