<svg height="52.259" viewBox="0 0 77.838 52.259" width="77.838" xmlns="http://www.w3.org/2000/svg">
  <g data-name="Group 358" id="Group_358" transform="translate(0)">
    <g data-name="Group 357" id="Group_357" transform="translate(22.866)">
      <path
        d="M123.38-217.482a1.033,1.033,0,0,1-1.033-1.033,13.941,13.941,0,0,0-1.87-6.977,1.033,1.033,0,0,1,.377-1.413,1.029,1.029,0,0,1,1.41.377,16.011,16.011,0,0,1,2.148,8.013A1.033,1.033,0,0,1,123.38-217.482Z"
        data-name="Path 616"
        fill="#14212e"
        id="Path_616" transform="translate(-92.34 234.531)"/>
      <path
        d="M111.215-212.713a1.033,1.033,0,0,1-1.033-1.033,16.036,16.036,0,0,1,16.02-16.017,15.958,15.958,0,0,1,8.687,2.558,1.029,1.029,0,0,1,.306,1.426,1.032,1.032,0,0,1-1.426.308A13.891,13.891,0,0,0,126.2-227.7a13.97,13.97,0,0,0-13.955,13.952A1.033,1.033,0,0,1,111.215-212.713Z"
        data-name="Path 617"
        fill="#14212e"
        id="Path_617" transform="translate(-110.149 229.763)"/>
      <path
        d="M126.223-197.343a1.031,1.031,0,0,1-.669-.245c-.664-.562-16.224-13.9-15.348-25.776a1.051,1.051,0,0,1,1.107-.955,1.033,1.033,0,0,1,.953,1.107c-.8,10.83,14.47,23.92,14.624,24.049a1.034,1.034,0,0,1,.121,1.457A1.033,1.033,0,0,1,126.223-197.343Z"
        data-name="Path 618"
        fill="#14212e"
        id="Path_618" transform="translate(-110.17 239.307)"/>
      <path
        d="M116.658-197.343a1.033,1.033,0,0,1-.788-.363,1.034,1.034,0,0,1,.118-1.457c.154-.129,15.428-13.22,14.627-24.049a1.035,1.035,0,0,1,.953-1.107,1.037,1.037,0,0,1,1.107.955c.878,11.876-14.687,25.214-15.351,25.776A1.018,1.018,0,0,1,116.658-197.343Z"
        data-name="Path 619"
        fill="#14212e"
        id="Path_619" transform="translate(-100.605 239.307)"/>
      <path d="M113.7-223.946" data-name="Path 620" fill="none" id="Path_620" stroke="#14212e"
            stroke-linecap="round" stroke-linejoin="round" stroke-width="0.75" transform="translate(-103.986 239.963)"/>
      <path
        d="M120.273-211.873a7.338,7.338,0,0,1-6.6-4.083,1.03,1.03,0,0,1,.463-1.385,1.032,1.032,0,0,1,1.385.463,5.287,5.287,0,0,0,4.753,2.941,5.318,5.318,0,0,0,5.309-5.312,5.315,5.315,0,0,0-5.309-5.309,5.313,5.313,0,0,0-4.4,2.34,1.03,1.03,0,0,1-1.435.278,1.03,1.03,0,0,1-.275-1.435,7.367,7.367,0,0,1,6.113-3.249,7.385,7.385,0,0,1,7.374,7.374A7.385,7.385,0,0,1,120.273-211.873Z"
        data-name="Path 621"
        fill="#14212e"
        id="Path_621" transform="translate(-104.22 235.267)"/>
    </g>
    <path
      d="M178.673-187.287H102.9a1.034,1.034,0,0,1-.821-.4,1.034,1.034,0,0,1-.176-.9l9.425-34.829a1.026,1.026,0,0,1,.994-.763h7.647A1.033,1.033,0,0,1,121-223.151a1.033,1.033,0,0,1-1.033,1.033h-6.856l-8.866,32.767h73.106L169.2-222.119h-7.6a1.033,1.033,0,0,1-1.033-1.033,1.033,1.033,0,0,1,1.033-1.033H170a1.028,1.028,0,0,1,1,.782l8.671,34.832a1.035,1.035,0,0,1-.187.887A1.039,1.039,0,0,1,178.673-187.287Z"
      data-name="Path 622"
      fill="#14212e"
      id="Path_622" transform="translate(-101.866 239.546)"/>
    <path
      d="M117.731-215.245h-.011l-13.233-.135a1.031,1.031,0,0,1-1.022-1.041,1.033,1.033,0,0,1,1.033-1.024h.011l13.233.135a1.033,1.033,0,0,1,1.022,1.044A1.034,1.034,0,0,1,117.731-215.245Z"
      data-name="Path 623"
      fill="#14212e"
      id="Path_623" transform="translate(-99.061 251.363)"/>
    <path
      d="M137.576-213.1h-.008l-13.236-.132a1.033,1.033,0,0,1-1.022-1.044,1.032,1.032,0,0,1,1.033-1.022h.011l13.233.132a1.033,1.033,0,0,1,1.022,1.044A1.029,1.029,0,0,1,137.576-213.1Z"
      data-name="Path 624"
      fill="#14212e"
      id="Path_624" transform="translate(-64.263 255.129)"/>
    <path
      d="M117.43-202.871a1.03,1.03,0,0,1-.909-.54,1.033,1.033,0,0,1,.413-1.4l19.04-10.361a1.038,1.038,0,0,1,1.4.416,1.03,1.03,0,0,1-.413,1.4L117.92-203A1.024,1.024,0,0,1,117.43-202.871Z"
      data-name="Path 625"
      fill="#14212e"
      id="Path_625" transform="translate(-76.388 255.13)"/>
    <path
      d="M108.174-199.188a.985.985,0,0,1-.2-.019,1.034,1.034,0,0,1-.818-1.212l3.117-16.141a1.012,1.012,0,0,1,1.209-.815,1.032,1.032,0,0,1,.818,1.209l-3.114,16.141A1.036,1.036,0,0,1,108.174-199.188Z"
      data-name="Path 626"
      fill="#14212e"
      id="Path_626" transform="translate(-92.619 251.446)"/>
    <path
      d="M114.38-219.158H105.52a1.033,1.033,0,0,1-1.033-1.033,1.033,1.033,0,0,1,1.033-1.033h8.861a1.033,1.033,0,0,1,1.033,1.033A1.033,1.033,0,0,1,114.38-219.158Z"
      data-name="Path 627"
      fill="#14212e"
      id="Path_627" transform="translate(-97.269 244.738)"/>
    <path
      d="M124.01-207.937a1.033,1.033,0,0,1-1.033-1.033v-8.861a1.033,1.033,0,0,1,1.033-1.033,1.033,1.033,0,0,1,1.033,1.033v8.861A1.033,1.033,0,0,1,124.01-207.937Z"
      data-name="Path 628"
      fill="#14212e"
      id="Path_628" transform="translate(-64.847 248.876)"/>
  </g>
</svg>
