<svg height="62.834" viewBox="0 0 73.223 62.834" width="73.223" xmlns="http://www.w3.org/2000/svg">
  <g data-name="Group 374" id="Group_374" transform="translate(0)">
    <path
      d="M368.126-122.26a1.05,1.05,0,0,1-1.044-.952,8.317,8.317,0,0,0-6.124-7.263,8.273,8.273,0,0,0-2.133-.279,1.048,1.048,0,0,1-1.047-1.047,1.048,1.048,0,0,1,1.047-1.047,8.527,8.527,0,0,0,2.133-.282,8.32,8.32,0,0,0,6.124-7.263,1.05,1.05,0,0,1,1.044-.952h0a1.047,1.047,0,0,1,1.042.952,8.313,8.313,0,0,0,6.124,7.263,8.51,8.51,0,0,0,2.133.282,1.045,1.045,0,0,1,1.044,1.047,1.048,1.048,0,0,1-1.047,1.047,8.268,8.268,0,0,0-2.131.279,8.165,8.165,0,0,0-2.809,1.354h0a8.294,8.294,0,0,0-3.315,5.909A1.047,1.047,0,0,1,368.126-122.26Zm-4.764-9.541a10.451,10.451,0,0,1,4.761,4.722,10.4,10.4,0,0,1,3.108-3.722,10.09,10.09,0,0,1,1.65-1,10.438,10.438,0,0,1-4.755-4.727A10.476,10.476,0,0,1,363.362-131.8Zm8.494,1.84h0Z"
      data-name="Path 696"
      fill="#14212e"
      id="Path_696" transform="translate(-349.975 157.835)"/>
    <path
      d="M361.782-122.041h0a1.045,1.045,0,0,1-1.042-.952,4.75,4.75,0,0,0-3.5-4.147,4.759,4.759,0,0,0-1.215-.159,1.048,1.048,0,0,1-1.047-1.047,1.048,1.048,0,0,1,1.047-1.047,4.8,4.8,0,0,0,1.217-.162,4.748,4.748,0,0,0,3.493-4.144,1.045,1.045,0,0,1,1.042-.952,1.05,1.05,0,0,1,1.044.952,4.753,4.753,0,0,0,3.5,4.147,4.868,4.868,0,0,0,1.215.159,1.048,1.048,0,0,1,1.047,1.047,1.048,1.048,0,0,1-1.047,1.047,4.743,4.743,0,0,0-1.215.159,4.7,4.7,0,0,0-1.606.773h0a4.732,4.732,0,0,0-1.89,3.373A1.05,1.05,0,0,1,361.782-122.041Zm-2.128-6.305a6.894,6.894,0,0,1,2.128,2.114,6.845,6.845,0,0,1,1.684-1.815h0c.145-.106.29-.207.441-.3a6.915,6.915,0,0,1-2.125-2.114A6.872,6.872,0,0,1,359.655-128.346Zm4.437,1.139h0Z"
      data-name="Path 697"
      fill="#14212e"
      id="Path_697" transform="translate(-354.983 169.835)"/>
    <path d="M378.015-144.289" data-name="Path 698" fill="none" id="Path_698" stroke="#14212e"
          stroke-linecap="round" stroke-linejoin="round" stroke-width="0.75" transform="translate(-313.701 152.56)"/>
    <g data-name="Group 373" id="Group_373" transform="translate(16.677)">
      <g data-name="Group 371" id="Group_371" transform="translate(11.409 29.105)">
        <path
          d="M381.9-103.1a16.884,16.884,0,0,1-16.863-16.866A16.882,16.882,0,0,1,381.9-136.828a16.882,16.882,0,0,1,13.912,7.324,1.051,1.051,0,0,1-.271,1.458,1.046,1.046,0,0,1-1.455-.271,14.784,14.784,0,0,0-12.186-6.417,14.787,14.787,0,0,0-14.769,14.769A14.787,14.787,0,0,0,381.9-105.193a14.788,14.788,0,0,0,14.772-14.772,14.8,14.8,0,0,0-.8-4.8,1.046,1.046,0,0,1,.651-1.332,1.049,1.049,0,0,1,1.329.651,16.892,16.892,0,0,1,.91,5.481A16.885,16.885,0,0,1,381.9-103.1Z"
          data-name="Path 699"
          fill="#14212e"
          id="Path_699" transform="translate(-365.041 136.828)"/>
        <path d="M371.08-130.789" data-name="Path 700" fill="none" id="Path_700" stroke="#14212e"
              stroke-linecap="round" stroke-linejoin="round" stroke-width="0.75"
              transform="translate(-354.217 147.652)"/>
        <path
          d="M378.314-112.282a11.283,11.283,0,0,1-9.86-5.808,1.042,1.042,0,0,1,.4-1.421,1.041,1.041,0,0,1,1.424.4,9.2,9.2,0,0,0,8.031,4.73,9.191,9.191,0,0,0,9.179-9.178,9.188,9.188,0,0,0-9.179-9.176,9.186,9.186,0,0,0-9.176,9.176,9.128,9.128,0,0,0,.1,1.363,1.047,1.047,0,0,1-.882,1.19,1.064,1.064,0,0,1-1.189-.882,11.346,11.346,0,0,1-.123-1.67,11.284,11.284,0,0,1,11.27-11.27,11.285,11.285,0,0,1,11.273,11.27A11.286,11.286,0,0,1,378.314-112.282Z"
          data-name="Path 701"
          fill="#14212e"
          id="Path_701" transform="translate(-361.451 140.418)"/>
        <g data-name="Group 370" id="Group_370" transform="translate(13.248 12.094)">
          <path
            d="M371.92-122.956A1.048,1.048,0,0,1,370.873-124v-7.447a1.048,1.048,0,0,1,1.047-1.047,1.048,1.048,0,0,1,1.047,1.047V-124A1.048,1.048,0,0,1,371.92-122.956Z"
            data-name="Path 702"
            fill="#14212e"
            id="Path_702" transform="translate(-367.836 132.497)"/>
          <path
            d="M370.831-127.363a1.045,1.045,0,0,1-.74-.307,1.048,1.048,0,0,1,0-1.48l3.038-3.038a1.048,1.048,0,0,1,1.48,0,1.043,1.043,0,0,1,0,1.48l-3.038,3.038A1.044,1.044,0,0,1,370.831-127.363Z"
            data-name="Path 703"
            fill="#14212e"
            id="Path_703" transform="translate(-369.786 132.503)"/>
        </g>
      </g>
      <g data-name="Group 372" id="Group_372">
        <path
          d="M384.549-130.671a1.048,1.048,0,0,1-1.047-1.047V-136.2H370.238v4.135a1.048,1.048,0,0,1-1.047,1.047,1.048,1.048,0,0,1-1.047-1.047v-5.183a1.048,1.048,0,0,1,1.047-1.047h15.358a1.048,1.048,0,0,1,1.047,1.047v5.529A1.048,1.048,0,0,1,384.549-130.671Z"
          data-name="Path 704"
          fill="#14212e"
          id="Path_704" transform="translate(-348.07 163.305)"/>
        <path d="M368.519-138.611" data-name="Path 705" fill="none" id="Path_705"
              stroke="#14212e" stroke-linecap="round" stroke-linejoin="round" stroke-width="0.75"
              transform="translate(-347.398 162.737)"/>
        <path
          d="M374.691-124.783a1.038,1.038,0,0,1-.634-.212,1.049,1.049,0,0,1-.2-1.469l13.526-17.787a1.046,1.046,0,0,1,1.466-.2,1.044,1.044,0,0,1,.2,1.466L375.526-125.2A1.04,1.04,0,0,1,374.691-124.783Z"
          data-name="Path 706"
          fill="#14212e"
          id="Path_706" transform="translate(-338.212 151.888)"/>
        <path
          d="M371.141-120.146a1.049,1.049,0,0,1-.818-.391l-3.035-3.784a1.047,1.047,0,0,1,.159-1.472,1.048,1.048,0,0,1,1.474.162l2.164,2.7L387.909-146.8a1.036,1.036,0,0,1,.854-.447h16.754a1.044,1.044,0,0,1,.938.584,1.041,1.041,0,0,1-.1,1.1l-3.074,4.043a1.043,1.043,0,0,1-1.466.2,1.046,1.046,0,0,1-.2-1.466l1.8-2.362h-14.1L372-120.59a1.038,1.038,0,0,1-.824.444Z"
          data-name="Path 707"
          fill="#14212e"
          id="Path_707" transform="translate(-350.02 147.251)"/>
        <path
          d="M376.966-126.509a1.04,1.04,0,0,1-.815-.394l-14.964-18.645a1.046,1.046,0,0,1-.128-1.109,1.047,1.047,0,0,1,.944-.595h16.64a1.046,1.046,0,0,1,.782.352l11.114,12.507a1.044,1.044,0,0,1-.087,1.477,1.048,1.048,0,0,1-1.48-.087l-10.8-12.155H364.185l13.6,16.944a1.047,1.047,0,0,1-.162,1.472A1.036,1.036,0,0,1,376.966-126.509Z"
          data-name="Path 708"
          fill="#14212e"
          id="Path_708" transform="translate(-360.955 147.251)"/>
        <path
          d="M373.505-132.079a1.022,1.022,0,0,1-.617-.2,1.048,1.048,0,0,1-.226-1.463l6.3-8.6a1.042,1.042,0,0,1,1.463-.223,1.045,1.045,0,0,1,.224,1.463l-6.3,8.6A1.044,1.044,0,0,1,373.505-132.079Z"
          data-name="Path 709"
          fill="#14212e"
          id="Path_709" transform="translate(-340.335 155.278)"/>
        <path
          d="M376.628-136.342a1.044,1.044,0,0,1-.617-.2,1.048,1.048,0,0,1-.226-1.463l6.3-8.6a1.039,1.039,0,0,1,1.463-.226,1.045,1.045,0,0,1,.223,1.463l-6.3,8.6A1.044,1.044,0,0,1,376.628-136.342Z"
          data-name="Path 710"
          fill="#14212e"
          id="Path_710" transform="translate(-334.738 147.637)"/>
        <path
          d="M380.953-127.244a1.045,1.045,0,0,1-.79-.36l-15.534-17.913a1.045,1.045,0,0,1,.106-1.477,1.042,1.042,0,0,1,1.474.106l15.534,17.91a1.045,1.045,0,0,1-.1,1.477A1.036,1.036,0,0,1,380.953-127.244Z"
          data-name="Path 711"
          fill="#14212e"
          id="Path_711" transform="translate(-354.831 147.251)"/>
      </g>
    </g>
  </g>
</svg>
