<svg height="61.097" viewBox="0 0 47.005 61.097" width="47.005" xmlns="http://www.w3.org/2000/svg">
  <g data-name="Group 376" id="Group_376" transform="translate(0)">
    <path
      d="M38.425,56.37a1.268,1.268,0,0,1-1-2.042,27.466,27.466,0,0,0,5.773-16.938,27.8,27.8,0,0,0-3.129-12.8,1.269,1.269,0,0,1,2.248-1.176A30.348,30.348,0,0,1,45.73,37.391a30,30,0,0,1-6.3,18.489A1.265,1.265,0,0,1,38.425,56.37Z"
      data-name="Path 718"
      fill="#14212e"
      id="Path_718" transform="translate(1.275 -17.785)"/>
    <path d="M37.932,22.126" data-name="Path 719" fill="none" id="Path_719" stroke="#14212e"
          stroke-linecap="round" stroke-linejoin="round" stroke-width="0.5" transform="translate(2.723 -18.922)"/>
    <path
      d="M39.336,24.959a1.269,1.269,0,0,1-1.027-.525q-.5-.693-1.038-1.357a1.266,1.266,0,1,1,1.959-1.6c.4.479.771.972,1.136,1.474a1.269,1.269,0,0,1-1.03,2.01Z"
      data-name="Path 720"
      fill="#14212e"
      id="Path_720" transform="translate(0.952 -21.009)"/>
    <path
      d="M37.061,34.537a1.268,1.268,0,0,1-1.1-1.9c.218-.379.422-.766.617-1.159A1.268,1.268,0,0,1,38.856,32.6c-.218.442-.453.875-.7,1.3A1.267,1.267,0,0,1,37.061,34.537Z"
      data-name="Path 721"
      fill="#14212e"
      id="Path_721" transform="translate(-1.273 -2.766)"/>
    <path
      d="M39.725,43.79a1.183,1.183,0,0,1-.341-.049,1.263,1.263,0,0,1-.88-1.557,20.67,20.67,0,0,0-2.79-17.078,1.268,1.268,0,1,1,2.1-1.422,23.186,23.186,0,0,1,3.132,19.178A1.261,1.261,0,0,1,39.725,43.79Z"
      data-name="Path 722"
      fill="#14212e"
      id="Path_722" transform="translate(-1.829 -17.055)"/>
    <path
      d="M35.361,39.851a1.266,1.266,0,0,1-1.167-1.761,13.633,13.633,0,0,0-.215-11.084,1.267,1.267,0,0,1,2.291-1.081,16.146,16.146,0,0,1,.255,13.155A1.266,1.266,0,0,1,35.361,39.851Z"
      data-name="Path 723"
      fill="#14212e"
      id="Path_723" transform="translate(-4.89 -13.182)"/>
    <path d="M31.109,27.825" data-name="Path 724" fill="none" id="Path_724" stroke="#14212e"
          stroke-linecap="round" stroke-linejoin="round" stroke-width="0.5" transform="translate(-10.021 -8.277)"/>
    <path
      d="M33.988,33.513a3.456,3.456,0,0,1-3.146-2.042,1.269,1.269,0,0,1,2.317-1.035.939.939,0,0,0,1.735-.367.909.909,0,0,0-.906-.909,1.268,1.268,0,0,1,0-2.535,3.444,3.444,0,0,1,0,6.889Z"
      data-name="Path 725"
      fill="#14212e"
      id="Path_725" transform="translate(-10.724 -10.52)"/>
    <path
      d="M31.06,56.369a1.261,1.261,0,0,1-1-.49,29.99,29.99,0,0,1-6.3-18.489,30.354,30.354,0,0,1,3.413-13.978,1.269,1.269,0,0,1,2.248,1.176,27.793,27.793,0,0,0-3.126,12.8,27.454,27.454,0,0,0,5.773,16.938,1.268,1.268,0,0,1-1,2.042Z"
      data-name="Path 726"
      fill="#14212e"
      id="Path_726" transform="translate(-23.756 -17.784)"/>
    <path d="M25.97,22.126" data-name="Path 727" fill="none" id="Path_727" stroke="#14212e"
          stroke-linecap="round" stroke-linejoin="round" stroke-width="0.5" transform="translate(-19.621 -18.922)"/>
    <path
      d="M26.922,24.959a1.287,1.287,0,0,1-.743-.241,1.269,1.269,0,0,1-.284-1.769c.364-.5.74-1,1.136-1.474a1.266,1.266,0,1,1,1.959,1.6q-.538.662-1.038,1.357A1.275,1.275,0,0,1,26.922,24.959Z"
      data-name="Path 728"
      fill="#14212e"
      id="Path_728" transform="translate(-20.208 -21.009)"/>
    <path
      d="M28.918,34.539a1.267,1.267,0,0,1-1.1-.637c-.247-.427-.476-.86-.694-1.3A1.268,1.268,0,0,1,29.4,31.482q.293.589.614,1.159a1.268,1.268,0,0,1-1.1,1.9Z"
      data-name="Path 729"
      fill="#14212e"
      id="Path_729" transform="translate(-17.704 -2.768)"/>
    <path
      d="M28.275,43.788a1.266,1.266,0,0,1-1.219-.929,23.2,23.2,0,0,1,3.129-19.178,1.268,1.268,0,1,1,2.1,1.422A20.679,20.679,0,0,0,29.5,42.182a1.265,1.265,0,0,1-.88,1.557A1.183,1.183,0,0,1,28.275,43.788Z"
      data-name="Path 730"
      fill="#14212e"
      id="Path_730" transform="translate(-19.167 -17.053)"/>
    <path
      d="M31.111,39.851a1.26,1.26,0,0,1-1.164-.771A16.146,16.146,0,0,1,30.2,25.924a1.267,1.267,0,0,1,2.291,1.081,13.633,13.633,0,0,0-.215,11.084,1.266,1.266,0,0,1-1.167,1.761Z"
      data-name="Path 731"
      fill="#14212e"
      id="Path_731" transform="translate(-14.577 -13.182)"/>
    <path
      d="M61.27,68.77a1.265,1.265,0,0,1-1.161-.76L44.553,32.488,27.607,68.047a1.266,1.266,0,1,1-2.286-1.09L43.46,28.895a1.1,1.1,0,0,1,1.164-.723,1.262,1.262,0,0,1,1.139.76L62.431,66.994A1.268,1.268,0,0,1,61.27,68.77Z"
      data-name="Path 732"
      fill="#14212e"
      id="Path_732" transform="translate(-21.068 -7.674)"/>
    <path
      d="M41.931,43.626a1.247,1.247,0,0,1-.364-.054l-6.154-1.856a1.267,1.267,0,1,1,.731-2.426L42.3,41.145a1.268,1.268,0,0,1-.367,2.481Z"
      data-name="Path 733"
      fill="#14212e"
      id="Path_733" transform="translate(-3.671 13.041)"/>
    <path d="M34.233,39.388" data-name="Path 734" fill="none" id="Path_734" stroke="#14212e"
          stroke-linecap="round" stroke-linejoin="round" stroke-width="0.5" transform="translate(-4.186 13.322)"/>
    <path
      d="M40.214,43.111a1.247,1.247,0,0,1-.364-.054L28.35,39.59a1.267,1.267,0,0,1,.731-2.426l11.5,3.467a1.268,1.268,0,0,1-.367,2.481Z"
      data-name="Path 735"
      fill="#14212e"
      id="Path_735" transform="translate(-16.858 9.068)"/>
    <path
      d="M27.411,47.8a1.267,1.267,0,0,1-.376-2.478l26.356-8.151a1.266,1.266,0,0,1,.746,2.42L27.784,47.738A1.2,1.2,0,0,1,27.411,47.8Z"
      data-name="Path 736"
      fill="#14212e"
      id="Path_736" transform="translate(-19.301 9.067)"/>
    <path
      d="M29.65,39.858a1.268,1.268,0,0,1-.287-2.5L41.38,34.57a1.269,1.269,0,0,1,.574,2.472L29.937,39.824A1.244,1.244,0,0,1,29.65,39.858Z"
      data-name="Path 737"
      fill="#14212e"
      id="Path_737" transform="translate(-15.116 4.268)"/>
  </g>
</svg>
