<svg xmlns="http://www.w3.org/2000/svg" width="17.607" height="17.607" viewBox="0 0 17.607 17.607">
  <path id="Path_1018" data-name="Path 1018" d="M18.727,12.564a.881.881,0,0,0-.88.88v3.521a.881.881,0,0,1-.88.88H4.641a.881.881,0,0,1-.88-.88V13.445a.88.88,0,0,0-1.761,0v3.521a2.641,2.641,0,0,0,2.641,2.641H16.966a2.641,2.641,0,0,0,2.641-2.641V13.445A.881.881,0,0,0,18.727,12.564ZM10.179,14.07a.884.884,0,0,0,.291.185.827.827,0,0,0,.669,0,.884.884,0,0,0,.291-.185l3.521-3.521A.884.884,0,0,0,13.7,9.3l-2.016,2.025V2.88a.88.88,0,1,0-1.761,0v8.443L7.907,9.3a.884.884,0,0,0-1.25,1.25Z" transform="translate(-2 -2)" fill="#019544"/>
</svg>
