<svg xmlns="http://www.w3.org/2000/svg" width="16.914" height="14.526" viewBox="0 0 16.914 14.526">
  <path id="Path_2087" data-name="Path 2087" d="M16.377,4H4.537A2.635,2.635,0,0,0,2,6.724V15.8a2.635,2.635,0,0,0,2.537,2.724h11.84A2.635,2.635,0,0,0,18.914,15.8V6.724A2.635,2.635,0,0,0,16.377,4ZM4.537,5.816h11.84a.879.879,0,0,1,.846.908l-6.766,4.43L3.691,6.724A.879.879,0,0,1,4.537,5.816ZM17.223,15.8a.879.879,0,0,1-.846.908H4.537a.879.879,0,0,1-.846-.908V8.794l6.326,4.149a.794.794,0,0,0,.846,0l6.36-4.149Z" transform="translate(-2 -4)" fill="#fff"/>
</svg>
