<?xml version="1.0" encoding="UTF-8" standalone="no"?>
<svg xmlns="http://www.w3.org/2000/svg" viewBox="0 0 314 100" width="314" height="100">
	<style>
		tspan { white-space:pre }
		.shp0 { fill: #ffffff } 
		.shp1 { fill: #907d68 } 
		.shp2 { fill: #8f7c68 } 
	</style>
	<path id="Object 204" class="shp0" d="M99.27,9.13c0,-4.63 -3.76,-8.39 -8.39,-8.39l-81.75,0c-4.63,0 -8.39,3.76 -8.39,8.39l0,81.74c0,4.63 3.76,8.39 8.39,8.39h81.75c4.63,0 8.39,-3.76 8.39,-8.39z" />
	<path id="Object 205" class="shp1" d="M90.88,0c5.03,0 9.13,4.09 9.13,9.13l0,81.74c0,5.03 -4.1,9.13 -9.13,9.13h-81.75c-5.03,0 -9.13,-4.1 -9.13,-9.13l0,-81.74c0,-5.03 4.09,-9.13 9.13,-9.13zM9.13,98.52l81.75,0c4.22,0 7.65,-3.43 7.65,-7.65l0,-81.74c0,-4.22 -3.43,-7.65 -7.65,-7.65l-81.75,0c-4.22,0 -7.65,3.43 -7.65,7.65l0,81.74c0,4.22 3.43,7.65 7.65,7.65z" />
	<path id="Object 206" class="shp1" d="M82.63,64.28c0,11.18 -9.1,20.28 -20.29,20.28c-0.46,0 -0.83,-0.37 -0.83,-0.83c0,-0.46 0.37,-0.83 0.83,-0.83c10.27,0 18.63,-8.35 18.63,-18.62c0,-10.27 -8.36,-18.63 -18.63,-18.63c0,0 0,0 0,0c-0.13,8.59 -5.64,16.16 -13.79,18.91c-0.44,0.15 -0.9,-0.09 -1.05,-0.52c-0.15,-0.43 0.09,-0.91 0.52,-1.05c7.57,-2.56 12.66,-9.65 12.66,-17.65c0,-4.74 -1.78,-9.06 -4.7,-12.35l-8.57,20.1l-3.68,22.81c0,0.02 -0.01,0.05 -0.01,0.07c-0.19,0.77 -0.68,1.58 -1.47,1.69c-0.06,0.01 -0.12,0.02 -0.19,0.02c-0.07,0 -0.13,-0.01 -0.19,-0.02c-0.8,-0.11 -1.28,-0.92 -1.47,-1.69c0,-0.02 -0.01,-0.04 -0.01,-0.07l-3.68,-22.81l-8.57,-20.1c-2.92,3.29 -4.7,7.62 -4.7,12.35c0,8 5.09,15.1 12.67,17.65c0.43,0.15 0.67,0.62 0.52,1.05c-0.15,0.43 -0.62,0.67 -1.05,0.52c-8.25,-2.79 -13.8,-10.51 -13.8,-19.23c0,-5.44 2.16,-10.38 5.65,-14.02l-0.38,-0.9c-1.14,-1.27 -1.1,-3.24 0.12,-4.46c0.62,-0.61 1.43,-0.95 2.3,-0.95c0.63,0 1.23,0.18 1.75,0.51c3.22,-2.13 6.96,-3.26 10.85,-3.26c3.89,0 7.63,1.12 10.85,3.26c0.52,-0.33 1.12,-0.51 1.75,-0.51c0.87,0 1.68,0.34 2.3,0.95c0.61,0.61 0.95,1.43 0.95,2.3c0,0.81 -0.3,1.57 -0.83,2.17l-0.38,0.89c3.2,3.34 5.28,7.78 5.6,12.68c0.02,0 0.03,0 0.05,0c11.19,0 20.29,9.1 20.29,20.29zM56.24,28.26c0,-0.42 -0.17,-0.82 -0.47,-1.12c-0.3,-0.3 -0.7,-0.47 -1.12,-0.47c-0.42,0 -0.82,0.17 -1.12,0.47c-0.29,0.29 -0.74,0.32 -1.07,0.09c-3.05,-2.16 -6.65,-3.31 -10.41,-3.31c-3.76,0 -7.35,1.14 -10.41,3.31c-0.33,0.23 -0.78,0.19 -1.06,-0.09c-0.3,-0.3 -0.7,-0.47 -1.13,-0.47c-0.42,0 -0.82,0.17 -1.13,0.47c-0.62,0.62 -0.62,1.63 0,2.25c0.07,0.07 0.13,0.16 0.18,0.26l7.77,18.23l0.08,0.18h2.44c0.46,0 0.83,0.37 0.83,0.83c0,0.46 -0.37,0.83 -0.83,0.83h-1.73l1.2,2.82c0.03,0.06 0.05,0.13 0.06,0.2l3.69,22.86c0.01,0.04 0.02,0.09 0.04,0.13c0.02,-0.05 0.03,-0.09 0.04,-0.13l3.69,-22.86c0.01,-0.07 0.03,-0.13 0.05,-0.2l1.2,-2.82h-1.66c-0.46,0 -0.83,-0.37 -0.83,-0.83c0,-0.46 0.37,-0.83 0.83,-0.83h2.37l0.08,-0.18l7.77,-18.22c0.04,-0.09 0.1,-0.18 0.18,-0.26c0.3,-0.3 0.47,-0.7 0.47,-1.13zM37.6,69.66c0.15,0.43 -0.07,0.91 -0.51,1.06l-4.72,1.66c-0.43,0.15 -0.91,-0.08 -1.06,-0.51c-0.15,-0.43 0.07,-0.91 0.51,-1.06l4.72,-1.66c0.43,-0.16 0.91,0.07 1.06,0.51zM53.76,67.08c0,0.46 -0.37,0.82 -0.83,0.82h-5c-0.46,0 -0.82,-0.37 -0.82,-0.82c0,-0.45 0.37,-0.82 0.82,-0.82h5c0.46,0 0.83,0.37 0.83,0.82zM52.94,71.81c-0.15,0.43 -0.62,0.66 -1.05,0.51l-4.72,-1.64c-0.43,-0.15 -0.66,-0.62 -0.51,-1.05c0.15,-0.43 0.62,-0.66 1.05,-0.51l4.72,1.64c0.43,0.15 0.66,0.62 0.51,1.05zM31.32,67.91c-0.46,0 -0.83,-0.37 -0.83,-0.83c0,-0.46 0.37,-0.83 0.83,-0.83h5c0.46,0 0.83,0.37 0.83,0.83c0,0.46 -0.37,0.83 -0.83,0.83z" />
	<g id="Group 207">
		<path id="Object 208" class="shp1" d="M125.88,46.67c0,1.31 -0.42,2.34 -1.26,3.09c-0.84,0.75 -1.98,1.13 -3.43,1.13h-1.22v4.08l1.7,0.38v0.95h-4.75v-0.95l1.37,-0.35v-10.75l-1.37,-0.38l0,-0.95h3.82c1.75,0 3.04,0.27 3.85,0.82c0.85,0.59 1.28,1.57 1.28,2.94zM124.05,46.85c0,-1.97 -0.99,-2.96 -2.97,-2.96h-1.11v6.03h0.98c2.07,0 3.1,-1.02 3.1,-3.07z" />
		<path id="Object 209" class="shp1" d="M134.49,50.89c0,1.78 -0.36,3.17 -1.08,4.16c-0.72,0.99 -1.68,1.49 -2.87,1.49c-1.22,0 -2.19,-0.44 -2.89,-1.32c-0.71,-0.88 -1.06,-2.13 -1.06,-3.73c0,-1.78 0.37,-3.18 1.1,-4.2c0.71,-0.97 1.66,-1.46 2.85,-1.46c1.22,0 2.19,0.44 2.89,1.32c0.71,0.88 1.06,2.13 1.06,3.73zM132.7,51c0,-2.68 -0.72,-4.02 -2.17,-4.02c-1.44,0 -2.17,1.41 -2.17,4.22c0,1.46 0.17,2.52 0.51,3.2c0.34,0.68 0.89,1.02 1.66,1.02c1.44,0 2.17,-1.47 2.17,-4.42z" />
		<path id="Object 210" class="shp1" d="M139.94,55.32l-1.37,-0.35v-13.56l-3.11,0.4v0.86l1.48,0.27v12.03l-1.38,0.35v0.97h4.39z" />
		<path id="Object 211" class="shp1" d="M145.5,50.83l-1.34,-0.88c-0.87,-0.57 -1.3,-1.12 -1.3,-1.64c0,-0.94 0.57,-1.41 1.7,-1.41c0.18,0 0.42,0.02 0.73,0.07l0.42,1.35h1.35v-1.76c-0.93,-0.42 -1.83,-0.64 -2.69,-0.64c-0.97,0 -1.74,0.25 -2.3,0.74c-0.56,0.49 -0.84,1.15 -0.84,1.98c0,0.6 0.15,1.11 0.44,1.52c0.24,0.32 0.67,0.69 1.3,1.1l1.39,0.93c0.85,0.57 1.28,1.17 1.28,1.79c0,1.02 -0.6,1.52 -1.8,1.52c-0.25,0 -0.53,-0.02 -0.84,-0.07l-0.53,-1.59h-1.33v1.9c0.72,0.51 1.64,0.77 2.74,0.77c1.05,0 1.88,-0.27 2.51,-0.82c0.63,-0.55 0.94,-1.28 0.94,-2.21c0,-0.97 -0.6,-1.86 -1.81,-2.65z" />
		<path id="Object 212" class="shp1" d="M152.77,55.32l-1.37,-0.35v-13.56l-3.11,0.4v0.86l1.48,0.27v12.03l-1.38,0.35v0.97h4.39zM158.07,46.07h-4.15v0.97l1.08,0.35l-3.45,3.38l3.84,5.52l2.63,0v-0.97l-1.44,-0.35l-3.29,-4.46l3.38,-3.11l1.39,-0.35z" />
		<path id="Object 213" class="shp1" d="M163.02,55.32l-1.39,-0.35l0,-9.05l-3.11,0.4v0.84l1.48,0.29l0,7.53l-1.37,0.35v0.97h4.4zM160.74,41.77c-0.72,0 -1.08,0.35 -1.08,1.06c0,0.71 0.36,1.06 1.08,1.06c0.73,0 1.1,-0.35 1.1,-1.06c0,-0.71 -0.37,-1.06 -1.1,-1.06z" />
		<path id="Object 214" class="shp1" d="M171.3,48.34c0,2.06 -1.56,3.09 -4.69,3.09c-0.07,0 -0.18,-0.01 -0.33,-0.03c-0.15,0 -0.26,0 -0.33,0v0.33c0,2.32 0.97,3.47 2.92,3.47c0.69,0 1.47,-0.13 2.32,-0.39v1.02c-1.02,0.44 -2,0.66 -2.94,0.66c-2.73,0 -4.09,-1.61 -4.09,-4.84c0,-1.78 0.4,-3.2 1.21,-4.25c0.81,-1.05 1.88,-1.58 3.2,-1.58c0.84,0 1.5,0.22 1.99,0.67c0.49,0.45 0.73,1.06 0.73,1.84zM169.51,48.5c0,-0.97 -0.46,-1.45 -1.37,-1.45c-1.46,0 -2.19,1.12 -2.19,3.37h0.27c1.15,0 1.99,-0.15 2.51,-0.44c0.52,-0.29 0.79,-0.79 0.79,-1.48z" />
		<path id="Object 215" class="shp1" d="M175.54,45.91l-3.12,0.4v0.84l1.48,0.29v10.56c0,1.18 -0.43,1.82 -1.28,1.92l-0.51,-1.41h-1.55v1.9c0.57,0.29 1.18,0.44 1.81,0.44c2.11,0 3.16,-1.31 3.16,-3.93zM174.65,41.77c-0.72,0 -1.08,0.35 -1.08,1.06c0,0.71 0.36,1.06 1.08,1.06c0.73,0 1.1,-0.35 1.1,-1.06c0,-0.71 -0.37,-1.06 -1.1,-1.06z" />
		<path id="Object 216" class="shp1" d="M193.36,56.29h-4.13v-0.97l1.21,-0.35l-1.1,-4.04h-3.67l-1.24,4.04l1.24,0.35v0.97h-3.8v-0.97l1.08,-0.35l3.95,-12.05h1.83l3.53,12.05l1.08,0.35zM189,49.85l-1.48,-5.28l-1.59,5.28z" />
		<path id="Object 217" class="shp1" d="M198.08,55.32l-1.37,-0.35v-13.56l-3.11,0.4v0.86l1.48,0.27v12.03l-1.38,0.35v0.97h4.39zM203.38,46.07h-4.15v0.97l1.08,0.35l-3.45,3.38l3.84,5.52h2.63v-0.97l-1.44,-0.35l-3.29,-4.46l3.38,-3.11l1.39,-0.35z" />
		<path id="Object 218" class="shp1" d="M212.67,56.08l-3.12,0.31v-1.08c-0.96,0.82 -1.87,1.23 -2.75,1.23c-1,0 -1.79,-0.41 -2.36,-1.24c-0.57,-0.83 -0.86,-2 -0.86,-3.51c0,-1.8 0.38,-3.23 1.15,-4.31c0.76,-1.07 1.73,-1.61 2.91,-1.61c0.66,0 1.34,0.21 2.03,0.62l1.53,-0.63v9.07l1.48,0.31zM209.55,54.29v-6.87c-0.53,-0.22 -1.04,-0.33 -1.52,-0.33c-0.84,0 -1.49,0.39 -1.96,1.18c-0.47,0.79 -0.7,1.93 -0.7,3.43c0,2.34 0.67,3.51 2,3.51c0.56,0 1.28,-0.31 2.18,-0.93z" />
		<path id="Object 219" class="shp1" d="M222.84,56.08l-3.13,0.31v-1.08c-0.96,0.82 -1.87,1.23 -2.75,1.23c-1,0 -1.8,-0.41 -2.38,-1.24c-0.58,-0.83 -0.87,-2 -0.87,-3.51c0,-1.8 0.39,-3.23 1.16,-4.31c0.77,-1.07 1.75,-1.61 2.93,-1.61c0.65,0 1.28,0.19 1.9,0.58v-3.49l-1.48,-0.29v-0.86l3.13,-0.4l0,13.52l1.48,0.31zM219.71,54.29v-6.87c-0.53,-0.22 -1.04,-0.33 -1.53,-0.33c-0.84,0 -1.5,0.39 -1.97,1.18c-0.47,0.79 -0.71,1.93 -0.71,3.43c0,2.34 0.67,3.51 2.02,3.51c0.56,0 1.29,-0.31 2.19,-0.93z" />
		<path id="Object 220" class="shp1" d="M230.96,48.34c0,2.06 -1.56,3.09 -4.69,3.09c-0.07,0 -0.18,-0.01 -0.33,-0.03c-0.15,0 -0.26,0 -0.33,0v0.33c0,2.32 0.97,3.47 2.92,3.47c0.69,0 1.47,-0.13 2.32,-0.39v1.02c-1.02,0.44 -2,0.66 -2.94,0.66c-2.73,0 -4.09,-1.61 -4.09,-4.84c0,-1.78 0.4,-3.2 1.21,-4.25c0.81,-1.05 1.88,-1.58 3.2,-1.58c0.84,0 1.5,0.22 1.99,0.67c0.49,0.45 0.73,1.06 0.73,1.84zM229.17,48.5c0,-0.97 -0.46,-1.45 -1.37,-1.45c-1.46,0 -2.19,1.12 -2.19,3.37h0.27c1.15,0 1.99,-0.15 2.51,-0.44c0.52,-0.29 0.79,-0.79 0.79,-1.48z" />
		<path id="Object 221" class="shp1" d="M248.01,55.32l-1.37,-0.35v-6.38c0,-1.78 -0.82,-2.67 -2.45,-2.67c-0.62,0 -1.22,0.13 -1.81,0.38c-0.38,0.15 -0.95,0.45 -1.7,0.91c-0.37,-0.85 -1.11,-1.28 -2.21,-1.28c-0.99,0 -2.08,0.39 -3.29,1.17v-1.17l-3.12,0.4l0,0.84l1.48,0.29v7.53l-1.39,0.35v0.97h4.42v-0.97l-1.39,-0.35v-6.89c0.87,-0.55 1.67,-0.82 2.41,-0.82c0.6,0 1.04,0.15 1.29,0.46c0.26,0.31 0.39,0.82 0.39,1.52v5.72l-1.37,0.35v0.97h4.4v-0.97l-1.39,-0.35v-6.87c0.91,-0.56 1.72,-0.84 2.43,-0.84c0.6,0 1.03,0.15 1.28,0.46c0.25,0.31 0.38,0.82 0.38,1.52v5.72l-1.37,0.35v0.97h4.39z" />
		<path id="Object 222" class="shp1" d="M253.26,55.32l-1.39,-0.35v-9.05l-3.11,0.4v0.84l1.48,0.29v7.53l-1.37,0.35v0.97h4.4zM250.99,41.77c-0.72,0 -1.08,0.35 -1.08,1.06c0,0.71 0.36,1.06 1.08,1.06c0.73,0 1.1,-0.35 1.1,-1.06c0,-0.71 -0.37,-1.06 -1.1,-1.06z" />
		<path id="Object 223" class="shp1" d="M258.7,55.32l-1.39,-0.35v-9.05l-3.11,0.4v0.84l1.48,0.29v7.53l-1.37,0.35v0.97h4.4zM256.42,41.77c-0.72,0 -1.08,0.35 -1.08,1.06c0,0.71 0.36,1.06 1.08,1.06c0.73,0 1.1,-0.35 1.1,-1.06c0,-0.71 -0.37,-1.06 -1.1,-1.06z" />
		<path id="Object 224" class="shp1" d="M275.76,42.92h-4.04v0.97l1.37,0.35v8.68l-5.59,-10l-3.29,0v0.97l1.41,0.35v10.73l-1.41,0.35v0.97l4.01,0v-0.97l-1.37,-0.35v-9.78l6.23,11.1h1.23v-12.05l1.44,-0.35z" />
		<path id="Object 225" class="shp1" d="M285.69,56.08l-3.12,0.31v-1.08c-0.96,0.82 -1.87,1.23 -2.75,1.23c-1,0 -1.79,-0.41 -2.36,-1.24c-0.57,-0.83 -0.86,-2 -0.86,-3.51c0,-1.8 0.38,-3.23 1.15,-4.31c0.76,-1.07 1.73,-1.61 2.91,-1.61c0.66,0 1.34,0.21 2.03,0.62l1.53,-0.63v9.07l1.48,0.31zM282.57,54.29v-6.87c-0.53,-0.22 -1.04,-0.33 -1.52,-0.33c-0.84,0 -1.49,0.39 -1.96,1.18c-0.47,0.79 -0.7,1.93 -0.7,3.43c0,2.34 0.67,3.51 2,3.51c0.56,0 1.28,-0.31 2.18,-0.93z" />
		<path id="Object 226" class="shp1" d="M296.55,55.21l-1.48,-0.29v-9.01l-3.12,0.31v0.84l1.48,0.31v6.92c-0.85,0.55 -1.68,0.82 -2.48,0.82c-1.07,0 -1.6,-0.66 -1.6,-1.99v-7.2l-3.12,0.31v0.84l1.48,0.31v6.4c0,1.78 0.81,2.67 2.42,2.67c1,0 2.1,-0.39 3.3,-1.16v1.16l3.12,-0.4z" />
		<path id="Object 227" class="shp1" d="M301.75,55.32l-1.37,-0.35v-13.56l-3.11,0.4v0.86l1.48,0.27v12.03l-1.38,0.35v0.97l4.39,0zM307.05,46.07h-4.15v0.97l1.08,0.35l-3.45,3.38l3.84,5.52h2.63v-0.97l-1.44,-0.35l-3.29,-4.46l3.38,-3.11l1.39,-0.35z" />
		<path id="Object 228" class="shp1" d="M125.93,79.13c0,1.15 -0.4,2.04 -1.18,2.69c-0.79,0.65 -1.92,0.97 -3.4,0.97h-4.42l0,-0.97l1.37,-0.35v-10.73l-1.37,-0.37v-0.95h3.56c1.67,0 2.88,0.22 3.65,0.66c0.83,0.49 1.24,1.3 1.24,2.43c0,0.9 -0.23,1.65 -0.7,2.24c-0.46,0.6 -1.11,0.98 -1.94,1.14c1.02,0.07 1.8,0.4 2.36,0.97c0.55,0.57 0.83,1.33 0.83,2.27zM123.49,72.79c0,-1.57 -0.86,-2.36 -2.59,-2.36h-0.91v5.01h0.97c1.68,0 2.52,-0.88 2.52,-2.65zM124.05,79.08c0,-0.93 -0.24,-1.6 -0.72,-2.01c-0.48,-0.41 -1.24,-0.62 -2.29,-0.62h-1.04l0,5.32h1.17c1.92,0 2.88,-0.9 2.88,-2.69z" />
		<path id="Object 229" class="shp1" d="M131.53,81.82l-1.39,-0.35l0,-9.05l-3.11,0.4v0.84l1.48,0.29l0,7.53l-1.37,0.35v0.97h4.4zM129.25,68.26c-0.72,0 -1.08,0.35 -1.08,1.06c0,0.71 0.36,1.06 1.08,1.06c0.73,0 1.1,-0.35 1.1,-1.06c0,-0.71 -0.37,-1.06 -1.1,-1.06z" />
		<path id="Object 230" class="shp1" d="M141.72,82.58l-3.12,0.31v-1.08c-0.96,0.82 -1.87,1.23 -2.75,1.23c-1,0 -1.78,-0.41 -2.36,-1.24c-0.57,-0.82 -0.86,-2 -0.86,-3.51c0,-1.8 0.38,-3.23 1.15,-4.31c0.76,-1.08 1.73,-1.61 2.91,-1.61c0.66,0 1.34,0.21 2.03,0.62l1.53,-0.63v9.07l1.48,0.31zM138.6,80.78v-6.87c-0.53,-0.22 -1.04,-0.33 -1.52,-0.33c-0.84,0 -1.49,0.39 -1.96,1.18c-0.47,0.79 -0.7,1.93 -0.7,3.44c0,2.34 0.67,3.51 2,3.51c0.56,0 1.28,-0.31 2.18,-0.93z" />
		<path id="Object 231" class="shp1" d="M147.63,70.82l-1.79,1.13v-4.04l-3.12,0.4v0.86l1.48,0.26v3.45l-1.44,0.91v1.21l1.44,-0.93v7.4l-1.39,0.35v0.97h4.4v-0.97l-1.37,-0.35v-8.33l1.79,-1.1z" />
		<path id="Object 232" class="shp1" d="M156.66,77.38c0,1.78 -0.36,3.17 -1.08,4.16c-0.72,0.99 -1.68,1.49 -2.87,1.49c-1.22,0 -2.19,-0.44 -2.89,-1.33c-0.71,-0.88 -1.06,-2.13 -1.06,-3.73c0,-1.78 0.37,-3.18 1.1,-4.2c0.71,-0.97 1.66,-1.46 2.85,-1.46c1.22,0 2.19,0.44 2.89,1.33c0.71,0.88 1.06,2.13 1.06,3.73zM154.87,77.49c0,-2.68 -0.72,-4.02 -2.17,-4.02c-1.44,0 -2.17,1.41 -2.17,4.22c0,1.46 0.17,2.52 0.51,3.2c0.34,0.68 0.89,1.02 1.66,1.02c1.44,0 2.17,-1.47 2.17,-4.42z" />
		<path id="Object 233" class="shp1" d="M172.87,72.57l-3.69,0v0.97l1.21,0.31l-1.86,6.87l-2.45,-8.15h-1.19l-2.58,8.19l-1.77,-6.91l1.24,-0.31v-0.97h-4.13v0.97l1.08,0.35l2.65,8.9h1.48l2.39,-7.64l2.32,7.64h1.52l2.72,-8.9l1.06,-0.35z" />
		<path id="Object 234" class="shp1" d="M178.03,81.82l-1.39,-0.35v-9.05l-3.11,0.4v0.84l1.48,0.29v7.53l-1.37,0.35v0.97l4.4,0zM175.76,68.26c-0.72,0 -1.08,0.35 -1.08,1.06c0,0.71 0.36,1.06 1.08,1.06c0.73,0 1.1,-0.35 1.1,-1.06c0,-0.71 -0.37,-1.06 -1.1,-1.06z" />
		<path id="Object 235" class="shp1" d="M186.31,74.84c0,2.06 -1.56,3.09 -4.69,3.09c-0.07,0 -0.18,-0.01 -0.33,-0.03c-0.15,0 -0.26,0 -0.33,0v0.33c0,2.32 0.97,3.47 2.92,3.47c0.69,0 1.47,-0.13 2.32,-0.39v1.02c-1.02,0.44 -2,0.66 -2.94,0.66c-2.73,0 -4.09,-1.61 -4.09,-4.84c0,-1.78 0.41,-3.2 1.22,-4.25c0.81,-1.05 1.88,-1.58 3.2,-1.58c0.84,0 1.5,0.22 1.99,0.67c0.49,0.45 0.73,1.06 0.73,1.84zM184.52,75c0,-0.97 -0.46,-1.45 -1.37,-1.45c-1.46,0 -2.19,1.12 -2.19,3.37h0.27c1.15,0 1.99,-0.15 2.51,-0.44c0.52,-0.29 0.79,-0.79 0.79,-1.48z" />
		<path id="Object 236" class="shp1" d="M194.86,80.34h-1.04l-0.68,1.48h-3.78l5.39,-8.28v-0.97l-6.89,0v2.26h1.08l0.57,-1.28l3.34,0l-5.35,8.23v1.02l7.35,0zM191.35,68.26c-0.72,0 -1.08,0.35 -1.08,1.06c0,0.71 0.36,1.06 1.08,1.06c0.73,0 1.1,-0.35 1.1,-1.06c0,-0.71 -0.37,-1.06 -1.1,-1.06z" />
		<path id="Object 237" class="shp1" d="M205.27,82.58l-3.12,0.31v-1.08c-0.96,0.82 -1.87,1.23 -2.75,1.23c-1,0 -1.79,-0.41 -2.36,-1.24c-0.57,-0.82 -0.86,-2 -0.86,-3.51c0,-1.8 0.38,-3.23 1.15,-4.31c0.76,-1.08 1.73,-1.61 2.91,-1.61c0.66,0 1.34,0.21 2.03,0.62l1.53,-0.63v9.07l1.48,0.31zM202.15,80.78v-6.87c-0.53,-0.22 -1.04,-0.33 -1.52,-0.33c-0.84,0 -1.49,0.39 -1.96,1.18c-0.47,0.79 -0.7,1.93 -0.7,3.44c0,2.34 0.67,3.51 2,3.51c0.56,0 1.28,-0.31 2.18,-0.93z" />
		<path id="Object 238" class="shp2" d="M121.4,29.75h-4.48v-0.98l1.37,-0.36l0,-10.81l-1.37,-0.31l0,-1.02h4.48v1.02l-1.44,0.31l0,10.81l1.44,0.36zM132.44,29.75h-4.4v-0.98l1.37,-0.36v-5.76c0,-0.71 -0.13,-1.22 -0.39,-1.54c-0.26,-0.31 -0.69,-0.47 -1.29,-0.47c-0.74,0 -1.54,0.27 -2.41,0.82l0,6.94l1.39,0.36v0.98h-4.42v-0.98l1.39,-0.36l0,-7.59l-1.48,-0.29v-0.85l3.12,-0.4v1.18c1.21,-0.79 2.31,-1.18 3.29,-1.18c1.62,0 2.43,0.9 2.43,2.69v6.43l1.39,0.36zM139.65,26.92c0,0.93 -0.31,1.68 -0.94,2.22c-0.63,0.55 -1.46,0.82 -2.51,0.82c-1.1,0 -2.02,-0.26 -2.74,-0.78v-1.91h1.33l0.53,1.6c0.31,0.04 0.59,0.07 0.84,0.07c1.21,0 1.81,-0.51 1.81,-1.54c0,-0.62 -0.43,-1.22 -1.28,-1.8l-1.39,-0.93c-0.63,-0.42 -1.07,-0.79 -1.3,-1.11c-0.29,-0.42 -0.44,-0.93 -0.44,-1.54c0,-0.83 0.28,-1.49 0.84,-1.99c0.56,-0.5 1.33,-0.75 2.3,-0.75c0.87,0 1.77,0.21 2.7,0.65v1.78h-1.35l-0.42,-1.36c-0.31,-0.04 -0.55,-0.07 -0.73,-0.07c-1.13,0 -1.7,0.47 -1.7,1.42c0,0.52 0.43,1.07 1.3,1.65l1.35,0.89c1.21,0.8 1.81,1.69 1.81,2.67zM146.56,29.15c-0.9,0.49 -1.69,0.73 -2.36,0.73c-1.43,0 -2.14,-0.83 -2.14,-2.49v-6.92h-1.48v-0.78l1.46,-0.85l0.84,-1.87h0.82v2.47h2.85v1.02h-2.85v6.07c0,0.73 0.11,1.25 0.34,1.56c0.23,0.31 0.64,0.47 1.25,0.47c0.35,0 0.78,-0.07 1.28,-0.2zM157.12,20.43l-1.13,0.31l-3.42,10.54c-0.35,1.08 -0.73,1.84 -1.13,2.27c-0.47,0.52 -1.13,0.78 -1.97,0.78c-0.49,0 -1,-0.15 -1.55,-0.44v-1.91h1.52l0.44,1.25c0.5,-0.06 0.91,-0.53 1.22,-1.4l0.64,-1.82l-3.45,-9.25l-1.1,-0.31v-0.98h4.18v0.98l-1.24,0.31l2.34,7.14l2.1,-7.14l-1.24,-0.31v-0.98h3.78zM163.33,29.15c-0.9,0.49 -1.69,0.73 -2.36,0.73c-1.43,0 -2.14,-0.83 -2.14,-2.49v-6.92h-1.48v-0.78l1.46,-0.85l0.84,-1.87h0.82v2.47h2.85v1.02h-2.85v6.07c0,0.73 0.11,1.25 0.34,1.56c0.23,0.31 0.64,0.47 1.25,0.47c0.35,0 0.78,-0.07 1.28,-0.2zM174.45,29.5l-3.12,0.4v-1.18c-1.21,0.79 -2.31,1.18 -3.31,1.18c-1.62,0 -2.43,-0.9 -2.43,-2.69v-6.45l-1.48,-0.31v-0.85l3.12,-0.31v7.25c0,1.33 0.54,2 1.61,2c0.81,0 1.64,-0.27 2.5,-0.82v-6.96l-1.48,-0.31v-0.85l3.12,-0.31v9.08l1.48,0.29zM181.1,29.15c-0.9,0.49 -1.69,0.73 -2.36,0.73c-1.43,0 -2.14,-0.83 -2.14,-2.49v-6.92h-1.48v-0.78l1.46,-0.85l0.84,-1.87h0.82v2.47h2.85v1.02h-2.85v6.07c0,0.73 0.11,1.25 0.34,1.56c0.23,0.31 0.64,0.47 1.25,0.47c0.35,0 0.78,-0.07 1.28,-0.2zM195.74,26.05c0,1.16 -0.39,2.06 -1.18,2.71c-0.79,0.65 -1.92,0.98 -3.39,0.98h-4.42v-0.98l1.37,-0.36v-10.81l-1.37,-0.38v-0.96h3.56c1.66,0 2.88,0.22 3.65,0.67c0.82,0.49 1.24,1.31 1.24,2.45c0,0.9 -0.23,1.66 -0.7,2.26c-0.46,0.6 -1.11,0.98 -1.93,1.15c1.02,0.07 1.8,0.4 2.35,0.98c0.55,0.58 0.83,1.34 0.83,2.29zM193.31,19.67c0,-1.59 -0.86,-2.38 -2.58,-2.38h-0.91v5.05h0.97c1.68,0 2.52,-0.89 2.52,-2.67zM193.87,26.01c0,-0.93 -0.24,-1.61 -0.72,-2.02c-0.48,-0.42 -1.24,-0.62 -2.29,-0.62h-1.04v5.36h1.17c1.91,0 2.87,-0.9 2.87,-2.71zM200.18,16.18c0,0.71 -0.37,1.07 -1.1,1.07c-0.72,0 -1.08,-0.36 -1.08,-1.07c0,-0.71 0.36,-1.07 1.08,-1.07c0.74,0 1.1,0.36 1.1,1.07zM201.36,29.75h-4.4l0,-0.98l1.37,-0.36l0,-7.59l-1.48,-0.29v-0.85l3.12,-0.4l0,9.12l1.39,0.36zM210.44,24.3c0,1.79 -0.36,3.19 -1.08,4.19c-0.72,1 -1.68,1.5 -2.87,1.5c-1.22,0 -2.19,-0.44 -2.89,-1.33c-0.71,-0.89 -1.06,-2.14 -1.06,-3.76c0,-1.79 0.37,-3.2 1.1,-4.23c0.71,-0.98 1.66,-1.47 2.85,-1.47c1.22,0 2.19,0.44 2.89,1.33c0.71,0.89 1.06,2.14 1.06,3.76zM208.65,24.41c0,-2.7 -0.72,-4.05 -2.17,-4.05c-1.44,0 -2.17,1.42 -2.17,4.25c0,1.47 0.17,2.54 0.51,3.23c0.34,0.68 0.89,1.02 1.66,1.02c1.44,0 2.17,-1.48 2.17,-4.45zM215.89,29.75h-4.4v-0.98l1.39,-0.36l0,-12.12l-1.48,-0.27v-0.87l3.12,-0.4l0,13.66l1.37,0.36zM224.95,24.3c0,1.79 -0.36,3.19 -1.08,4.19c-0.72,1 -1.68,1.5 -2.87,1.5c-1.22,0 -2.19,-0.44 -2.89,-1.33c-0.71,-0.89 -1.06,-2.14 -1.06,-3.76c0,-1.79 0.37,-3.2 1.1,-4.23c0.71,-0.98 1.66,-1.47 2.85,-1.47c1.22,0 2.19,0.44 2.89,1.33c0.71,0.89 1.06,2.14 1.06,3.76zM223.16,24.41c0,-2.7 -0.72,-4.05 -2.17,-4.05c-1.44,0 -2.17,1.42 -2.17,4.25c0,1.47 0.17,2.54 0.51,3.23c0.34,0.68 0.89,1.02 1.66,1.02c1.44,0 2.17,-1.48 2.17,-4.45zM234.03,29.5c0,1.54 -0.17,2.6 -0.51,3.16c-0.68,1.11 -1.91,1.67 -3.71,1.67c-0.99,0 -2.03,-0.29 -3.14,-0.87v-1.87h1.41l0.49,1.56c0.75,0.04 1.1,0.07 1.06,0.07c1.83,0 2.74,-0.99 2.74,-2.96v-1.51c-0.93,0.83 -1.84,1.25 -2.74,1.25c-1,0 -1.79,-0.42 -2.38,-1.25c-0.58,-0.83 -0.87,-2.01 -0.87,-3.54c0,-1.81 0.38,-3.26 1.15,-4.34c0.77,-1.08 1.74,-1.62 2.92,-1.62c0.66,0 1.34,0.21 2.03,0.62l1.55,-0.65zM232.37,27.72v-6.92c-0.53,-0.22 -1.04,-0.33 -1.52,-0.33c-0.84,0 -1.5,0.4 -1.97,1.19c-0.47,0.79 -0.71,1.95 -0.71,3.46c0,2.36 0.67,3.54 2.01,3.54c0.56,0 1.29,-0.31 2.19,-0.93zM239.42,16.18c0,0.71 -0.37,1.07 -1.1,1.07c-0.72,0 -1.08,-0.36 -1.08,-1.07c0,-0.71 0.36,-1.07 1.08,-1.07c0.74,0 1.1,0.36 1.1,1.07zM240.59,29.75h-4.4v-0.98l1.37,-0.36v-7.59l-1.48,-0.29v-0.85l3.12,-0.4v9.12l1.39,0.36zM244.86,16.18c0,0.71 -0.37,1.07 -1.1,1.07c-0.72,0 -1.08,-0.36 -1.08,-1.07c0,-0.71 0.36,-1.07 1.08,-1.07c0.74,0 1.1,0.36 1.1,1.07zM246.03,29.75h-4.4v-0.98l1.37,-0.36v-7.59l-1.48,-0.29v-0.85l3.12,-0.4v9.12l1.39,0.36zM259.46,26.28c0,1.1 -0.38,1.99 -1.13,2.69c-0.75,0.7 -1.75,1.05 -3,1.05c-1,0 -2.13,-0.28 -3.38,-0.85v-2.51h1.28l0.68,2.14c0.68,0.06 1.05,0.09 1.13,0.09c1.77,0 2.65,-0.73 2.65,-2.2c0,-0.85 -0.53,-1.65 -1.59,-2.42l-1.83,-1.33c-0.78,-0.58 -1.33,-1.09 -1.66,-1.53c-0.38,-0.53 -0.57,-1.16 -0.57,-1.89c0,-1.05 0.35,-1.9 1.05,-2.54c0.7,-0.64 1.65,-0.96 2.84,-0.96c0.96,0 2.02,0.24 3.18,0.73l0,2.4h-1.26l-0.73,-2c-0.29,-0.03 -0.64,-0.04 -1.04,-0.04c-0.72,0 -1.29,0.18 -1.71,0.55c-0.42,0.36 -0.63,0.84 -0.63,1.43c0,0.5 0.15,0.95 0.44,1.33c0.22,0.3 0.63,0.65 1.22,1.07l1.94,1.38c0.74,0.52 1.27,1.02 1.59,1.51c0.35,0.55 0.53,1.19 0.53,1.91zM267.19,26.92c0,0.93 -0.31,1.68 -0.94,2.22c-0.63,0.55 -1.46,0.82 -2.51,0.82c-1.1,0 -2.02,-0.26 -2.74,-0.78l0,-1.91l1.33,0l0.53,1.6c0.31,0.04 0.59,0.07 0.84,0.07c1.21,0 1.81,-0.51 1.81,-1.54c0,-0.62 -0.43,-1.22 -1.28,-1.8l-1.39,-0.93c-0.63,-0.42 -1.07,-0.79 -1.3,-1.11c-0.29,-0.42 -0.44,-0.93 -0.44,-1.54c0,-0.83 0.28,-1.49 0.84,-1.99c0.56,-0.5 1.33,-0.75 2.3,-0.75c0.87,0 1.77,0.21 2.7,0.65v1.78h-1.35l-0.42,-1.36c-0.31,-0.04 -0.55,-0.07 -0.73,-0.07c-1.13,0 -1.7,0.47 -1.7,1.42c0,0.52 0.43,1.07 1.3,1.65l1.35,0.89c1.21,0.8 1.81,1.69 1.81,2.67zM277.69,29.52l-3.12,0.31v-1.09c-0.96,0.83 -1.88,1.25 -2.76,1.25c-1,0 -1.79,-0.42 -2.36,-1.25c-0.57,-0.83 -0.86,-2.01 -0.86,-3.54c0,-1.81 0.38,-3.26 1.15,-4.34c0.77,-1.08 1.74,-1.62 2.92,-1.62c0.66,0 1.34,0.21 2.03,0.62l1.52,-0.65v9.14l1.48,0.31zM274.57,27.72v-6.92c-0.53,-0.22 -1.04,-0.33 -1.52,-0.33c-0.84,0 -1.49,0.4 -1.97,1.19c-0.47,0.79 -0.71,1.95 -0.71,3.46c0,2.36 0.67,3.54 2.01,3.54c0.56,0 1.29,-0.31 2.19,-0.93zM288.05,20.43l-1.39,0.36l-3.38,3.14l3.29,4.49l1.44,0.36v0.98h-2.63l-3.84,-5.56l3.45,-3.4l-1.08,-0.36v-0.98h4.15zM282.75,29.75h-4.4v-0.98l1.39,-0.36v-12.12l-1.48,-0.27l0,-0.87l3.12,-0.4v13.66l1.37,0.36zM294.83,15.33l-2.41,2.74h-1.26l1.5,-2.74zM296.23,24.3c0,1.79 -0.36,3.19 -1.08,4.19c-0.72,1 -1.68,1.5 -2.87,1.5c-1.22,0 -2.19,-0.44 -2.89,-1.33c-0.71,-0.89 -1.06,-2.14 -1.06,-3.76c0,-1.79 0.37,-3.2 1.1,-4.23c0.71,-0.98 1.66,-1.47 2.85,-1.47c1.22,0 2.19,0.44 2.89,1.33c0.71,0.89 1.06,2.14 1.06,3.76zM294.44,24.41c0,-2.7 -0.72,-4.05 -2.17,-4.05c-1.44,0 -2.17,1.42 -2.17,4.25c0,1.47 0.17,2.54 0.51,3.23c0.34,0.68 0.89,1.02 1.66,1.02c1.44,0 2.17,-1.48 2.17,-4.45zM312.44,20.43l-1.06,0.36l-2.72,8.97h-1.52l-2.32,-7.7l-2.39,7.7h-1.48l-2.65,-8.97l-1.08,-0.36v-0.98h4.13v0.98l-1.24,0.31l1.77,6.96l2.59,-8.25h1.19l2.45,8.21l1.86,-6.92l-1.22,-0.31v-0.98h3.69z" />
	</g>
</svg>