<svg xmlns="http://www.w3.org/2000/svg" width="17.995" height="20" viewBox="0 0 17.995 20">
  <path id="Path_1988" data-name="Path 1988" d="M20.92,15.62a1.165,1.165,0,0,0-.21-.33l-3-3a1,1,0,0,0-1.42,1.42L17.59,15H12a1,1,0,0,0,0,2h5.59l-1.3,1.29a1,1,0,0,0-.006,1.414l.006.006a1,1,0,0,0,1.414.006l.006-.006,3-3a.925.925,0,0,0,.21-.33A1,1,0,0,0,20.92,15.62ZM14,20H6a1,1,0,0,1-1-1V5A1,1,0,0,1,6,4h5V7a3,3,0,0,0,3,3h4a1.006,1.006,0,0,0,.71-1.71l-6-6h0a1.065,1.065,0,0,0-.28-.19h-.09L12.06,2H6A3,3,0,0,0,3,5V19a3,3,0,0,0,3,3h8a1,1,0,0,0,0-2ZM13,5.41,15.59,8H14a1,1,0,0,1-1-1Z" transform="translate(-3 -2)" fill="#019544"/>
</svg>
