<svg xmlns="http://www.w3.org/2000/svg" width="20" height="12" viewBox="0 0 20 12">
  <path id="Path_1479" data-name="Path 1479" d="M3.71,16.29a1.034,1.034,0,0,0-1.09-.21,1,1,0,0,0-.33.21,1.034,1.034,0,0,0,0,1.42,1.165,1.165,0,0,0,.33.21.94.94,0,0,0,.76,0,1.165,1.165,0,0,0,.33-.21,1.034,1.034,0,0,0,0-1.42ZM7,8H21a1,1,0,0,0,0-2H7A1,1,0,0,0,7,8ZM3.71,11.29a1,1,0,0,0-1.09-.21,1.165,1.165,0,0,0-.33.21,1,1,0,0,0-.21.33.94.94,0,0,0,0,.76,1.165,1.165,0,0,0,.21.33,1.165,1.165,0,0,0,.33.21.94.94,0,0,0,.76,0,1.165,1.165,0,0,0,.33-.21,1.165,1.165,0,0,0,.21-.33.94.94,0,0,0,0-.76A1,1,0,0,0,3.71,11.29ZM21,11H7a1,1,0,0,0,0,2H21a1,1,0,0,0,0-2ZM3.71,6.29a1.034,1.034,0,0,0-1.42,0,1.165,1.165,0,0,0-.21.33.94.94,0,0,0,0,.76,1.165,1.165,0,0,0,.21.33,1.165,1.165,0,0,0,.33.21,1,1,0,0,0,1.09-.21,1.165,1.165,0,0,0,.21-.33.94.94,0,0,0,0-.76A1.165,1.165,0,0,0,3.71,6.29ZM21,16H7a1,1,0,0,0,0,2H21a1,1,0,0,0,0-2Z" transform="translate(-2 -6)" fill="#019544"/>
</svg>
