<svg xmlns="http://www.w3.org/2000/svg" width="110" height="50" viewBox="0 0 110 50">
  <g id="logo" transform="translate(-100 -79)">
    <g id="Group_911" data-name="Group 911" transform="translate(-169.309 -144.59)">
      <path id="Path_2185" data-name="Path 2185" d="M404.1,259.01a2.05,2.05,0,0,0,1-.248,1.789,1.789,0,0,0,.713-.707,2.133,2.133,0,0,0,.265-1.085,1.993,1.993,0,1,0-3.983,0,2.17,2.17,0,0,0,.265,1.085,1.806,1.806,0,0,0,.72.707A2.114,2.114,0,0,0,404.1,259.01Zm0,2.325a4.825,4.825,0,0,1-2.308-.553,4.11,4.11,0,0,1-1.632-1.541,4.661,4.661,0,0,1,0-4.549,4.123,4.123,0,0,1,1.632-1.548,4.825,4.825,0,0,1,2.308-.553,4.766,4.766,0,0,1,2.3.553,4.132,4.132,0,0,1,1.618,1.548,4.66,4.66,0,0,1,0,4.549,4.119,4.119,0,0,1-1.618,1.541A4.766,4.766,0,0,1,404.1,261.335Z" transform="translate(-69.316 -13.283)"/>
      <path id="Path_2186" data-name="Path 2186" d="M424.837,257.014a1.522,1.522,0,0,0,.9-.228.918.918,0,0,0,.325-.8.9.9,0,0,0-.325-.791,1.545,1.545,0,0,0-.9-.228h-.915v2.05ZM421.44,253H425.3a3.547,3.547,0,0,1,2.405.774,3.191,3.191,0,0,1,0,4.431,3.53,3.53,0,0,1-2.405.777h-1.38v2.4H421.44Z" transform="translate(-81.418 -13.507)"/>
      <path id="Path_2187" data-name="Path 2187" d="M438.623,253h6.08v2.087h-3.594v1.149H443.7v1.909h-2.589v1.149H444.7v2.087h-6.08Z" transform="translate(-90.927 -13.507)"/>
      <path id="Path_2188" data-name="Path 2188" d="M454.155,253h2.408l2.616,4.388V253h2.482v8.381h-2.4l-2.626-4.388v4.388h-2.482Z" transform="translate(-99.522 -13.507)"/>
      <path id="Path_2189" data-name="Path 2189" d="M400.11,276.518h6.08V278.6h-3.6v1.152h2.589v1.906h-2.589V284.9H400.11Z" transform="translate(-69.615 -26.522)"/>
      <path id="Path_2190" data-name="Path 2190" d="M418.254,282.53a2.042,2.042,0,0,0,1-.248,1.786,1.786,0,0,0,.714-.707,2.138,2.138,0,0,0,.264-1.085,1.993,1.993,0,1,0-3.983,0,2.17,2.17,0,0,0,.264,1.085,1.8,1.8,0,0,0,.72.707A2.108,2.108,0,0,0,418.254,282.53Zm0,2.325a4.826,4.826,0,0,1-2.308-.553,4.109,4.109,0,0,1-1.631-1.541,4.657,4.657,0,0,1,0-4.549,4.122,4.122,0,0,1,1.631-1.548,4.825,4.825,0,0,1,2.308-.553,4.767,4.767,0,0,1,2.3.553,4.13,4.13,0,0,1,1.618,1.548,4.657,4.657,0,0,1,0,4.549,4.117,4.117,0,0,1-1.618,1.541A4.768,4.768,0,0,1,418.254,284.855Z" transform="translate(-77.148 -26.298)"/>
      <path id="Path_2191" data-name="Path 2191" d="M439,280.477a1.519,1.519,0,0,0,.891-.224,1.1,1.1,0,0,0,0-1.544,1.519,1.519,0,0,0-.891-.224h-.924v1.993Zm-3.407-3.959h3.9a3.522,3.522,0,0,1,2.388.76,2.766,2.766,0,0,1,.874,2.2,3.113,3.113,0,0,1-.389,1.6,2.545,2.545,0,0,1-1.109,1l1.4,2.82h-2.539l-1.226-2.459h-.814V284.9h-2.482Z" transform="translate(-89.25 -26.523)"/>
      <path id="Path_2192" data-name="Path 2192" d="M453.345,276.518h6.08V278.6H455.83v1.149h2.589v1.909H455.83v1.149h3.594V284.9h-6.08Z" transform="translate(-99.074 -26.522)"/>
      <path id="Path_2193" data-name="Path 2193" d="M471.215,284.855a8.357,8.357,0,0,1-1.621-.161,4.868,4.868,0,0,1-1.317-.425v-2.194a5.9,5.9,0,0,0,1.384.54,5.658,5.658,0,0,0,1.36.181q.924,0,.924-.493a.513.513,0,0,0-.138-.355,1.473,1.473,0,0,0-.415-.288c-.181-.091-.476-.225-.874-.4a4.713,4.713,0,0,1-1.685-1.1,2.18,2.18,0,0,1-.523-1.487,2.247,2.247,0,0,1,.415-1.326,2.724,2.724,0,0,1,1.156-.9,4.29,4.29,0,0,1,1.715-.325,7.025,7.025,0,0,1,1.4.127,5.078,5.078,0,0,1,1.186.4v2.124a4.351,4.351,0,0,0-2.134-.576,1.817,1.817,0,0,0-.767.138.434.434,0,0,0-.288.4.489.489,0,0,0,.258.425,7.167,7.167,0,0,0,.978.449l.264.107a6.4,6.4,0,0,1,1.313.69,2,2,0,0,1,.663.794,2.713,2.713,0,0,1,.2,1.132,2.233,2.233,0,0,1-.861,1.859A4.2,4.2,0,0,1,471.215,284.855Z" transform="translate(-107.337 -26.298)"/>
      <path id="Path_2194" data-name="Path 2194" d="M484.812,278.6h-2.254v-2.087h6.991V278.6h-2.254v6.3h-2.482Z" transform="translate(-115.239 -26.522)"/>
      <path id="Path_2195" data-name="Path 2195" d="M403.369,306.334a1.768,1.768,0,0,0,1.42-.576,2.318,2.318,0,0,0,.5-1.571,2.191,2.191,0,0,0-.5-1.474,1.728,1.728,0,0,0-1.38-.59h-.814v4.21Zm-3.259-6.3h3.1a5.517,5.517,0,0,1,2.429.506,3.732,3.732,0,0,1,1.6,1.443,4.159,4.159,0,0,1,.569,2.2,3.97,3.97,0,0,1-1.233,3.162,5.015,5.015,0,0,1-3.393,1.072H400.11Z" transform="translate(-69.615 -39.537)"/>
      <path id="Path_2196" data-name="Path 2196" d="M422.094,304.945l-.8-2.351-.8,2.351Zm-1.993-4.908h2.388l3.343,8.385h-2.539l-.626-1.594h-2.744l-.636,1.594h-2.542Z" transform="translate(-78.82 -39.537)"/>
      <path id="Path_2197" data-name="Path 2197" d="M437.172,302.124h-2.254v-2.087h6.991v2.087h-2.254v6.3h-2.482Z" transform="translate(-88.877 -39.538)"/>
      <path id="Path_2198" data-name="Path 2198" d="M453.752,304.945l-.8-2.351-.8,2.351Zm-1.993-4.908h2.388l3.343,8.385h-2.539l-.627-1.594h-2.743l-.636,1.594H448.4Z" transform="translate(-96.339 -39.537)"/>
      <path id="Path_2199" data-name="Path 2199" d="M314.867,263.918a17.665,17.665,0,1,1,17.691-17.691A17.684,17.684,0,0,1,314.867,263.918Zm0-31.46a13.8,13.8,0,1,0,13.823,13.769A13.785,13.785,0,0,0,314.867,232.458Z" transform="translate(-12.683 0)" fill="#009444"/>
      <path id="Path_2200" data-name="Path 2200" d="M357.243,282.083a9.947,9.947,0,1,1,9.92-9.92A9.958,9.958,0,0,1,357.243,282.083Zm0-16.025a6.078,6.078,0,1,0,6.051,6.1A6.112,6.112,0,0,0,357.243,266.058Z" transform="translate(-40.374 -18.593)" fill="#009444"/>
      <path id="Path_2201" data-name="Path 2201" d="M287.552,274.808a13.27,13.27,0,1,1,13.243-13.3A13.285,13.285,0,0,1,287.552,274.808Zm0-22.671a9.4,9.4,0,1,0,9.374,9.374A9.385,9.385,0,0,0,287.552,252.138Z" transform="translate(0 -10.89)" fill="#009444"/>
      <rect id="Rectangle_309" data-name="Rectangle 309" width="3.869" height="6.539" transform="translate(285.618 261.984)" fill="#009444"/>
      <rect id="Rectangle_310" data-name="Rectangle 310" width="3.869" height="6.539" transform="translate(300.249 261.984)" fill="#009444"/>
      <rect id="Rectangle_311" data-name="Rectangle 311" width="3.869" height="6.967" transform="translate(314.934 261.555)" fill="#009444"/>
    </g>
    <rect id="Rectangle_312" data-name="Rectangle 312" width="110" height="50" transform="translate(100 79)" fill="none"/>
  </g>
</svg>
