<svg xmlns="http://www.w3.org/2000/svg" width="103.466" height="41.859" viewBox="0 0 103.466 41.859">
  <g id="logo_of" transform="translate(0 29)">
    <g id="Group_706" data-name="Group 706" transform="translate(0 -29)">
      <g id="Group_709" data-name="Group 709">
        <g id="Group_707" data-name="Group 707" transform="translate(57.884 11.136)">
          <path id="Path_1728" data-name="Path 1728" d="M386.612,427.455a2.109,2.109,0,0,0,1.036-.258,1.866,1.866,0,0,0,.738-.734,2.229,2.229,0,0,0,.274-1.128,2.042,2.042,0,0,0-.583-1.531,2.009,2.009,0,0,0-1.466-.574,1.993,1.993,0,0,0-2.073,2.105,2.255,2.255,0,0,0,.274,1.128,1.874,1.874,0,0,0,.744.734A2.179,2.179,0,0,0,386.612,427.455Zm0,2.414a4.978,4.978,0,0,1-2.389-.574,4.251,4.251,0,0,1-1.688-1.6,4.863,4.863,0,0,1,0-4.726,4.277,4.277,0,0,1,1.688-1.607,4.979,4.979,0,0,1,2.389-.574,4.916,4.916,0,0,1,2.378.574,4.286,4.286,0,0,1,1.673,1.607,4.854,4.854,0,0,1,0,4.726,4.26,4.26,0,0,1-1.673,1.6A4.915,4.915,0,0,1,386.612,429.868Z" transform="translate(-381.923 -420.787)" fill="#040506"/>
          <path id="Path_1729" data-name="Path 1729" d="M393.814,425.115a1.559,1.559,0,0,0,.929-.237.953.953,0,0,0,.337-.834.938.938,0,0,0-.337-.821,1.6,1.6,0,0,0-.929-.236h-.946v2.129Zm-3.514-4.173h4a3.659,3.659,0,0,1,2.489.8,3.326,3.326,0,0,1,0,4.6,3.648,3.648,0,0,1-2.489.807h-1.428v2.491H390.3Z" transform="translate(-380.194 -420.754)" fill="#040506"/>
          <path id="Path_1730" data-name="Path 1730" d="M396.882,420.942h6.29v2.168h-3.719V424.3h2.679v1.983h-2.679v1.194h3.719v2.168h-6.29Z" transform="translate(-378.836 -420.754)" fill="#040506"/>
          <path id="Path_1731" data-name="Path 1731" d="M402.832,420.942h2.492l2.707,4.558v-4.558H410.6v8.706h-2.482L405.4,425.09v4.558h-2.568Z" transform="translate(-377.608 -420.754)" fill="#040506"/>
          <path id="Path_1732" data-name="Path 1732" d="M382.129,429.952h6.29v2.168H384.7v1.2h2.679v1.98H384.7v3.365h-2.568Z" transform="translate(-381.88 -418.851)" fill="#040506"/>
          <path id="Path_1733" data-name="Path 1733" d="M392.033,436.463a2.121,2.121,0,0,0,1.036-.257,1.846,1.846,0,0,0,.738-.735,2.225,2.225,0,0,0,.274-1.126,2.042,2.042,0,0,0-.583-1.531,2.008,2.008,0,0,0-1.466-.575,2,2,0,0,0-2.072,2.106,2.262,2.262,0,0,0,.274,1.126,1.863,1.863,0,0,0,.746.735A2.183,2.183,0,0,0,392.033,436.463Zm0,2.415a4.971,4.971,0,0,1-2.387-.574,4.263,4.263,0,0,1-1.689-1.6,4.863,4.863,0,0,1,0-4.726,4.272,4.272,0,0,1,1.689-1.607,4.97,4.97,0,0,1,2.387-.574,4.916,4.916,0,0,1,2.378.574,4.281,4.281,0,0,1,1.674,1.607,4.862,4.862,0,0,1,0,4.726,4.272,4.272,0,0,1-1.674,1.6A4.916,4.916,0,0,1,392.033,438.878Z" transform="translate(-380.804 -418.884)" fill="#040506"/>
          <path id="Path_1734" data-name="Path 1734" d="M399.246,434.065a1.569,1.569,0,0,0,.923-.234,1.144,1.144,0,0,0,0-1.6,1.56,1.56,0,0,0-.923-.234h-.957v2.071Zm-3.524-4.113h4.03a3.633,3.633,0,0,1,2.471.79,2.879,2.879,0,0,1,.9,2.287,3.243,3.243,0,0,1-.4,1.659,2.635,2.635,0,0,1-1.147,1.044l1.449,2.93H400.4l-1.268-2.554h-.843v2.554h-2.567Z" transform="translate(-379.076 -418.851)" fill="#040506"/>
          <path id="Path_1735" data-name="Path 1735" d="M402.522,429.952h6.29v2.168h-3.719v1.193h2.679V435.3h-2.679v1.193h3.719v2.168h-6.29Z" transform="translate(-377.672 -418.851)" fill="#040506"/>
          <path id="Path_1736" data-name="Path 1736" d="M411.282,438.878a8.644,8.644,0,0,1-1.678-.167,4.985,4.985,0,0,1-1.362-.442v-2.278a6.054,6.054,0,0,0,1.432.56,5.785,5.785,0,0,0,1.407.188q.957,0,.957-.511a.535.535,0,0,0-.142-.369,1.549,1.549,0,0,0-.429-.3c-.187-.093-.492-.233-.9-.417A4.88,4.88,0,0,1,408.817,434a2.268,2.268,0,0,1-.54-1.544,2.335,2.335,0,0,1,.43-1.378,2.83,2.83,0,0,1,1.2-.94,4.423,4.423,0,0,1,1.774-.337,7.222,7.222,0,0,1,1.452.132,5.241,5.241,0,0,1,1.227.418v2.206a4.491,4.491,0,0,0-2.208-.6,1.867,1.867,0,0,0-.794.143.448.448,0,0,0-.3.417.509.509,0,0,0,.267.442,7.294,7.294,0,0,0,1.012.466l.274.111a6.592,6.592,0,0,1,1.358.717,2.076,2.076,0,0,1,.686.825,2.828,2.828,0,0,1,.211,1.176,2.325,2.325,0,0,1-.89,1.932A4.329,4.329,0,0,1,411.282,438.878Z" transform="translate(-376.492 -418.884)" fill="#040506"/>
          <path id="Path_1737" data-name="Path 1737" d="M416.045,432.12h-2.332v-2.168h7.233v2.168h-2.332v6.542h-2.568Z" transform="translate(-375.363 -418.851)" fill="#040506"/>
          <path id="Path_1738" data-name="Path 1738" d="M385.5,445.5a1.829,1.829,0,0,0,1.469-.6,2.422,2.422,0,0,0,.516-1.633,2.282,2.282,0,0,0-.52-1.531,1.786,1.786,0,0,0-1.428-.613H384.7V445.5Zm-3.373-6.543h3.214a5.7,5.7,0,0,1,2.513.526,3.877,3.877,0,0,1,1.66,1.5,4.338,4.338,0,0,1,.589,2.285,4.134,4.134,0,0,1-1.275,3.285,5.175,5.175,0,0,1-3.51,1.114h-3.19Z" transform="translate(-381.88 -416.949)" fill="#040506"/>
          <path id="Path_1739" data-name="Path 1739" d="M394.037,444.059l-.832-2.442-.831,2.442Zm-2.063-5.1h2.472l3.459,8.711h-2.627l-.648-1.657h-2.839l-.659,1.657H388.5Z" transform="translate(-380.565 -416.949)" fill="#040506"/>
          <path id="Path_1740" data-name="Path 1740" d="M397.8,441.129h-2.333v-2.168H402.7v2.168h-2.332v6.542H397.8Z" transform="translate(-379.129 -416.949)" fill="#040506"/>
          <path id="Path_1741" data-name="Path 1741" d="M406.164,444.059l-.832-2.442-.831,2.442Zm-2.063-5.1h2.472l3.459,8.711H407.4l-.648-1.657h-2.839l-.659,1.657h-2.63Z" transform="translate(-378.063 -416.949)" fill="#040506"/>
        </g>
        <g id="Group_708" data-name="Group 708">
          <path id="Path_1742" data-name="Path 1742" d="M380.94,427.627a18.261,18.261,0,0,0-33.95-6.884,13.79,13.79,0,0,0-1.35,27.4v4.932h4v-4.932a13.44,13.44,0,0,0,4.986-1.79,17.926,17.926,0,0,0,6.15,1.828v4.894h4v-4.89a18.237,18.237,0,0,0,7.107-2.329,10.223,10.223,0,0,0,4.086,1.8v5.424h4v-5.429a10.346,10.346,0,0,0,.965-20.02Zm-33.3,16.648a9.776,9.776,0,0,1-2.459-19.218,18.442,18.442,0,0,0,5.591,18.689A9.505,9.505,0,0,1,347.642,444.275Zm6.742-2.766a14.41,14.41,0,0,1-4.954-16.6,9.771,9.771,0,0,1,4.954,16.6Zm14.717,1.286a14.192,14.192,0,0,1-11.057.663,13.8,13.8,0,0,0-6.608-22.191,14.267,14.267,0,0,1,25.4,5.981,10.359,10.359,0,0,0-9.178,10.3A10.219,10.219,0,0,0,369.1,442.794Zm3.309-2.273a6.228,6.228,0,0,1-.753-2.98,6.339,6.339,0,0,1,5.36-6.268A14.34,14.34,0,0,1,372.41,440.521Zm5.564,3.308a6.282,6.282,0,0,1-2.62-.57,18.352,18.352,0,0,0,5.614-11.283,6.355,6.355,0,0,1,3.268,5.567A6.282,6.282,0,0,1,377.974,443.829Z" transform="translate(-333.94 -411.593)" fill="#278432"/>
        </g>
      </g>
    </g>
  </g>
</svg>
