<svg xmlns="http://www.w3.org/2000/svg" width="20" height="18.011" viewBox="0 0 20 18.011">
  <path id="Path_1481" data-name="Path 1481" d="M21.32,5.05l-6-2h-.07a.655.655,0,0,0-.14,0h-.43L9,5,3.32,3.05A1.008,1.008,0,0,0,2,4V18a1,1,0,0,0,.68.95l6,2h0a1,1,0,0,0,.62,0h0l5.7-1.9L20.68,21A1.224,1.224,0,0,0,21,21a.941.941,0,0,0,.58-.19A1,1,0,0,0,22,20V6A1,1,0,0,0,21.32,5.05ZM8,18.61,4,17.28V5.39L8,6.72Zm6-1.33-4,1.33V6.72l4-1.33Zm6,1.33-4-1.33V5.39l4,1.33Z" transform="translate(-2 -2.999)" fill="#2a2b2c"/>
</svg>
