<svg xmlns="http://www.w3.org/2000/svg" width="107.149" height="39.145" viewBox="0 0 107.149 39.145">
  <defs>
    <style>.a {
      fill: #2a2b2c;
    }</style>
  </defs>
  <g transform="translate(0 0)">
    <g transform="translate(48.175 1.438)">
      <path class="a"
            d="M273.186,51.638a1.259,1.259,0,0,0-1.4-1.438,1.392,1.392,0,0,0-1.585,1.4V52.78a16.164,16.164,0,0,0,1.622.111C273,52.891,273.186,52.264,273.186,51.638Z"
            transform="translate(-219.998 -43.528)"/>
      <path class="a"
            d="M151,50.2a1.514,1.514,0,0,0-1.7,1.622V54.4a1.5,1.5,0,0,0,1.7,1.622,1.514,1.514,0,0,0,1.7-1.622v-2.58A1.531,1.531,0,0,0,151,50.2Z"
            transform="translate(-143.661 -43.528)"/>
      <path class="a"
            d="M216.1,60.606v.074c0,.737.332,1.253,1.364,1.253a2.618,2.618,0,0,0,1.732-.663V59.61a6.08,6.08,0,0,0-1.585-.221C216.358,59.316,216.1,59.905,216.1,60.606Z"
            transform="translate(-185.838 -49.327)"/>
      <path class="a"
            d="M134,32.1V49.129h58.975V32.1Zm10.21,10.91a2.877,2.877,0,0,1-5.75,0V40.43a2.877,2.877,0,0,1,5.75,0Zm5.308,2.691c-2.175,0-2.691-1.069-2.691-3.207v-6.45a.59.59,0,0,1,1.18,0v2.138h1.622a.591.591,0,0,1,0,1.179h-1.622v3.022c0,1.585.147,2.175,1.253,2.175h.295c.369,0,.811.074.811.553C150.4,45.627,149.96,45.7,149.518,45.7Zm11.869-7.261-1.769,6.635c-.147.479-.332.7-.774.7a.679.679,0,0,1-.7-.516l-1.4-5.455-1.364,5.418a.661.661,0,0,1-.737.516.788.788,0,0,1-.774-.7L152.061,38.4v-.111a.606.606,0,0,1,.59-.59.548.548,0,0,1,.553.442l1.437,5.713c.479-1.88.921-3.686,1.4-5.566a.718.718,0,0,1,.7-.553.644.644,0,0,1,.663.553c.442,1.88.921,3.723,1.4,5.566l1.437-5.676a.587.587,0,0,1,.553-.442.606.606,0,0,1,.59.59Zm7.335,7.261a1.235,1.235,0,0,1-1.143-.774,2.951,2.951,0,0,1-2.1.811,2.142,2.142,0,0,1-2.359-2.322v-.074c0-1.511.885-2.285,2.728-2.285a5.239,5.239,0,0,1,1.548.221v-.885a1.452,1.452,0,0,0-1.659-1.659,2.133,2.133,0,0,0-1.18.332,1.428,1.428,0,0,1-.405.111c-.295,0-.405-.295-.442-.516-.074-.7,1.106-1,2.175-1,1.917,0,2.691,1.069,2.691,3.133v3.428c0,.295.111.479.295.479h.111a.466.466,0,0,1,.442.516C169.422,45.554,169.053,45.7,168.722,45.7Zm6.192-6.745a2.855,2.855,0,0,0-1.954.553c0,.147.037.295.037.405v5.234a.59.59,0,1,1-1.179,0V39.914a1.7,1.7,0,0,0-.258-1.069.49.49,0,0,1-.111-.295A.543.543,0,0,1,172,38a.8.8,0,0,1,.627.405,4.619,4.619,0,0,1,2.1-.663c.627,0,.811.258.811.59A.6.6,0,0,1,174.914,38.956Zm5.492,6.745c-2.175,0-2.691-1.069-2.691-3.207v-6.45a.59.59,0,0,1,1.18,0v2.138h1.622a.591.591,0,0,1,0,1.179h-1.622v3.022c0,1.585.147,2.175,1.253,2.175h.295c.369,0,.811.074.811.553C181.291,45.627,180.848,45.7,180.406,45.7Zm5.455-1a3.439,3.439,0,0,0,1.622-.442,1.3,1.3,0,0,1,.221-.037.567.567,0,0,1,.553.553c0,.774-1.659,1-2.506,1a2.529,2.529,0,0,1-2.764-2.58V40.32a2.56,2.56,0,0,1,2.838-2.617,2.31,2.31,0,0,1,2.58,2.506c0,1.438-.774,2.285-2.617,2.285a8.185,8.185,0,0,1-1.585-.147v.921C184.2,44.116,184.755,44.706,185.861,44.706Z"
            transform="translate(-134 -32.1)"/>
    </g>
    <g transform="translate(48.175 19.904)">
      <path class="a"
            d="M176,112.385v.037c0,.516.295.7.958.7a2.006,2.006,0,0,0,1.216-.405v-1.106a5.916,5.916,0,0,0-1.106-.111C176.147,111.5,176,111.905,176,112.385Z"
            transform="translate(-160.519 -100.7)"/>
      <path class="a"
            d="M153.975,103.984a3.969,3.969,0,0,0-1.143-.184c-.774,0-1.032.479-1.032,1.438v1.732c0,.811.332,1.253,1,1.253a2.882,2.882,0,0,0,1.179-.332c0-.111-.037-.184-.037-.295v-3.612Z"
            transform="translate(-145.239 -95.838)"/>
      <path class="a"
            d="M134,82.2V99.229h41.54V82.2Zm10.357,14.043a1.178,1.178,0,0,1-.921-.59,4.51,4.51,0,0,1-2.175.663,2.723,2.723,0,0,1-2.838-3.022V91.562c0-1.843.737-3.207,2.949-3.207a3.26,3.26,0,0,1,1.364.295V86a.962.962,0,0,1,1.069-.958.982.982,0,0,1,1.069.958v8.22c0,.221.111.332.295.553a.669.669,0,0,1,.221.516A.985.985,0,0,1,144.357,96.243Zm9.141.074a1.414,1.414,0,0,1-1.327-.663,3.082,3.082,0,0,1-2.1.7c-1.806,0-2.764-.958-2.764-2.433v-.037c0-1.585,1.032-2.359,3.059-2.359a4.579,4.579,0,0,1,1.216.147v-.479c0-.737-.369-1.069-1.18-1.069a1.983,1.983,0,0,0-1,.258,1.48,1.48,0,0,1-.59.147.844.844,0,0,1-.885-.885c0-.921,1.364-1.29,2.654-1.29,2.248,0,3.17,1.106,3.17,3.207v2.875c0,.479.221.405.479.516a.584.584,0,0,1,.369.59C154.6,95.985,154.31,96.317,153.5,96.317Zm9.62-.921a1.075,1.075,0,0,1-2.138,0V91.341c0-.774-.369-1.253-1-1.253a2.882,2.882,0,0,0-1.179.332c0,.111.037.184.037.295V95.4a.962.962,0,0,1-1.069.958.943.943,0,0,1-1.069-.958V90.715a1.21,1.21,0,0,0-.111-.663c-.221-.295-.258-.405-.258-.59a.937.937,0,0,1,1.032-.885,1.07,1.07,0,0,1,.811.442,3.654,3.654,0,0,1,2.027-.663,2.706,2.706,0,0,1,2.912,3.022Zm5.861-.811a3.373,3.373,0,0,0,1.4-.332.867.867,0,0,1,.479-.111.842.842,0,0,1,.958.848c0,1.069-1.99,1.364-2.986,1.364-2.027,0-3.207-1.179-3.207-2.691v-2.58c0-1.548,1.143-2.764,3.28-2.764,2.027,0,3.022,1.069,3.022,2.617,0,1.474-.921,2.359-2.986,2.359a6.7,6.7,0,0,1-1.18-.111V93.7C167.726,94.253,168.132,94.585,168.98,94.585Z"
            transform="translate(-134 -82.2)"/>
      <path class="a"
            d="M227.664,104.148c0-.627-.332-.848-.921-.848-.737,0-1.143.369-1.143,1v.663c.479.037.958.074,1.106.074C227.3,105.032,227.664,104.811,227.664,104.148Z"
            transform="translate(-191.837 -95.523)"/>
    </g>
    <path class="a"
          d="M40.012,60.784A3.052,3.052,0,0,0,37.1,62.958H32.677V57.687h.037a9.36,9.36,0,0,0,9.325-9.325,9.231,9.231,0,0,0-2.285-6.082,9.713,9.713,0,0,0,.074-1.032,7.118,7.118,0,0,0-7.114-7.114,7.459,7.459,0,0,0-1.585.184A12.008,12.008,0,0,0,20.587,28.2,12.176,12.176,0,0,0,8.423,40.364v.479A9.176,9.176,0,0,0,4.516,48.4a9.318,9.318,0,0,0,8.551,9.289V63h-3.8a3.059,3.059,0,1,0,0,1.769h4.681a.9.9,0,0,0,.885-.885.682.682,0,0,1,0-.442V56.913a.9.9,0,0,0-.885-.885H13.8A7.589,7.589,0,0,1,9.75,42.022a.855.855,0,0,0,.405-.811,5.972,5.972,0,0,1-.037-.811,10.422,10.422,0,0,1,19.757-4.607.861.861,0,0,0,1.069.442,5.515,5.515,0,0,1,1.732-.295,5.388,5.388,0,0,1,5.381,5.381,6,6,0,0,1-.111,1.143.827.827,0,0,0,.221.774,7.394,7.394,0,0,1,2.1,5.2,7.606,7.606,0,0,1-7.593,7.593H29.1a.885.885,0,1,0,0,1.769h1.806v5.676a.682.682,0,0,1,0,.442.9.9,0,0,0,.885.885H37.1a3.062,3.062,0,1,0,2.912-4.018ZM6.322,65.133a1.29,1.29,0,1,1,1.29-1.29A1.239,1.239,0,0,1,6.322,65.133Zm33.689,0a1.29,1.29,0,1,1,1.29-1.29A1.239,1.239,0,0,1,40.012,65.133Z"
          transform="translate(-3.3 -28.2)"/>
    <path class="a"
          d="M49,108.855v-3.686h1.29a.885.885,0,1,0,0-1.769h-4.9a.885.885,0,1,0,0,1.769h1.88v3.686a3.052,3.052,0,1,0,3.944,2.912A3.169,3.169,0,0,0,49,108.855Zm-.848,4.239a1.29,1.29,0,1,1,1.29-1.29A1.306,1.306,0,0,1,48.149,113.094Z"
          transform="translate(-29.314 -75.682)"/>
  </g>
</svg>
