<svg xmlns="http://www.w3.org/2000/svg" width="75.203" height="33.49" viewBox="0 0 75.203 33.49">
  <g id="whiteaster_logo" transform="translate(-19.9 -12.1)">
    <g id="Group_745" data-name="Group 745" transform="translate(39.087 12.1)">
      <path id="Path_1817" data-name="Path 1817" d="M189.345,24.261l-2.81-11.413a.869.869,0,0,1-.035-.265c0-.311.369-.461,1.106-.461h.461c.714,0,1.106.184,1.186.553l1.336,5.712L190.945,20c.035.207.1.518.2.944.058-.369.138-.749.242-1.152s.173-.656.207-.795a3.28,3.28,0,0,1,.081-.322c.035-.1.058-.207.081-.3l1.463-5.9a.4.4,0,0,1,.288-.288,2.142,2.142,0,0,1,.679-.081h.679a2.05,2.05,0,0,1,.679.081.4.4,0,0,1,.288.288l1.405,5.9c.2.864.4,1.762.6,2.683l.357-1.566.253-1.117,1.382-5.724c.081-.369.484-.553,1.186-.553h.2c.737,0,1.106.15,1.106.461a.869.869,0,0,1-.035.265l-2.9,11.413q-.035.173-.311.276a1.911,1.911,0,0,1-.668.092h-1.3a2.226,2.226,0,0,1-.668-.092q-.276-.1-.311-.276l-1.463-6.15-.288-1.209-.3,1.209-1.509,6.15q-.035.173-.311.276a1.911,1.911,0,0,1-.668.092H190.3C189.748,24.63,189.425,24.5,189.345,24.261Z" transform="translate(-186.5 -12.1)" fill="#050606"/>
      <path id="Path_1818" data-name="Path 1818" d="M342.7,24.243V12.864c0-.38.357-.564,1.071-.564h.622c.714,0,1.071.184,1.071.564v4.388h4.8V12.864c0-.38.357-.564,1.071-.564h.622c.714,0,1.071.184,1.071.564V24.243c0,.38-.357.564-1.071.564h-.622c-.714,0-1.071-.184-1.071-.564V19.6h-4.8v4.641c0,.38-.357.564-1.071.564h-.622C343.057,24.807,342.7,24.623,342.7,24.243Z" transform="translate(-324.711 -12.277)" fill="#050606"/>
      <path id="Path_1819" data-name="Path 1819" d="M461.7,24.066V12.687q0-.587,1.071-.587h.622q1.071,0,1.071.587V24.066q0,.587-1.071.587h-.622Q461.7,24.653,461.7,24.066Z" transform="translate(-430.006 -12.1)" fill="#050606"/>
      <path id="Path_1820" data-name="Path 1820" d="M507.851,24.331V14.749H505.03a.421.421,0,0,1-.4-.219,1.417,1.417,0,0,1-.127-.679V13.3a1.449,1.449,0,0,1,.127-.679.442.442,0,0,1,.4-.219h8.407a.421.421,0,0,1,.4.219,1.418,1.418,0,0,1,.127.679v.553a1.45,1.45,0,0,1-.127.679.442.442,0,0,1-.4.219h-2.822v9.582c0,.38-.357.564-1.071.564h-.622C508.208,24.9,507.851,24.711,507.851,24.331Z" transform="translate(-467.877 -12.365)" fill="#050606"/>
      <path id="Path_1821" data-name="Path 1821" d="M607.573,24.777a.727.727,0,0,1-.173-.541V13.214a.619.619,0,0,1,.714-.714h6.242a.421.421,0,0,1,.4.219,1.418,1.418,0,0,1,.127.679v.553a1.45,1.45,0,0,1-.127.679.442.442,0,0,1-.4.219h-4.215v2.58h3.731a.421.421,0,0,1,.4.219,1.417,1.417,0,0,1,.127.679v.553a1.449,1.449,0,0,1-.127.679.442.442,0,0,1-.4.219h-3.731v2.879h4.227a.421.421,0,0,1,.4.219,1.418,1.418,0,0,1,.127.679v.553a1.45,1.45,0,0,1-.127.679.442.442,0,0,1-.4.219h-6.254A1.078,1.078,0,0,1,607.573,24.777Z" transform="translate(-558.927 -12.454)" fill="#050606"/>
    </g>
    <g id="Group_748" data-name="Group 748" transform="translate(19.9 12.192)">
      <path id="Path_1822" data-name="Path 1822" d="M64.53,59.358h-5.85A.673.673,0,0,1,58,58.678V57.193a.668.668,0,0,1,.668-.668h4.457V52.068a.668.668,0,0,1,.668-.668h1.463a.693.693,0,0,1,.691.691v5.85A1.416,1.416,0,0,1,64.53,59.358Z" transform="translate(-53.612 -46.966)" fill="#524c99"/>
      <path id="Path_1823" data-name="Path 1823" d="M21.305,12.9h5.862a.673.673,0,0,1,.679.679v1.486a.668.668,0,0,1-.668.668H22.722V20.19a.668.668,0,0,1-.668.668H20.591a.693.693,0,0,1-.691-.691v-5.85A1.413,1.413,0,0,1,21.305,12.9Z" transform="translate(-19.9 -12.9)" fill="#524c99"/>
      <path id="Path_1824" data-name="Path 1824" d="M576.219,251.645h-11.9a.322.322,0,0,1-.323-.322v-2.2a.322.322,0,0,1,.323-.322h11.9a.322.322,0,0,1,.323.322v2.2A.33.33,0,0,1,576.219,251.645Z" transform="translate(-501.338 -221.632)" fill="#64c1c8"/>
      <g id="Group_747" data-name="Group 747" transform="translate(0 20.638)">
        <g id="Group_746" data-name="Group 746">
          <path id="Path_1825" data-name="Path 1825" d="M19.9,205.25a1.782,1.782,0,0,1,.069-.322l3.916-11.459c.092-.253.438-.368,1.013-.368h.921c.6,0,.933.127,1.013.368l3.916,11.459a1.194,1.194,0,0,1,.058.322c0,.265-.3.392-.887.392h-.783c-.587,0-.91-.127-1-.369L27.42,203.1H23.228l-.714,2.177c-.081.253-.357.369-.818.369h-.714C20.257,205.642,19.9,205.5,19.9,205.25Zm6.76-4.515-1.013-3.167a8.638,8.638,0,0,1-.265-1.14h-.069c-.012.069-.035.23-.081.472a3.771,3.771,0,0,1-.184.668L24,200.735Z" transform="translate(-19.9 -192.985)" fill="#050606"/>
          <path id="Path_1826" data-name="Path 1826" d="M127.869,204.607a4.192,4.192,0,0,1-1.474-.645c-.334-.23-.5-.449-.5-.679a1.542,1.542,0,0,1,.2-.645,2.783,2.783,0,0,1,.461-.656.727.727,0,0,1,.449-.288,1.421,1.421,0,0,1,.5.219,9.129,9.129,0,0,0,1.036.449,3.4,3.4,0,0,0,1.083.161,2.378,2.378,0,0,0,1.186-.276,1.027,1.027,0,0,0,.5-.967,1.053,1.053,0,0,0-.449-.9,7.456,7.456,0,0,0-1.474-.737l-.818-.357a4.93,4.93,0,0,1-1.762-1.324,3.513,3.513,0,0,1-.645-2.257,3.3,3.3,0,0,1,.6-2.027,3.638,3.638,0,0,1,1.555-1.2,5.557,5.557,0,0,1,2.061-.38,6.612,6.612,0,0,1,1.647.184,3.328,3.328,0,0,1,1.163.5c.265.2.392.38.392.576a1.765,1.765,0,0,1-.161.622,2.534,2.534,0,0,1-.392.645.615.615,0,0,1-.426.276,1,1,0,0,1-.3-.092q-.207-.086-.345-.138a4.329,4.329,0,0,0-1.336-.219,2.1,2.1,0,0,0-1.29.3.91.91,0,0,0-.369.691,1.154,1.154,0,0,0,.253.772,1.837,1.837,0,0,0,.61.5c.242.127.587.288,1.048.5a14.1,14.1,0,0,1,1.658.806,3.518,3.518,0,0,1,1.117,1.106,3.34,3.34,0,0,1,.472,1.843,4.062,4.062,0,0,1-.576,2.246,3.415,3.415,0,0,1-1.486,1.267,4.834,4.834,0,0,1-1.958.392A8.435,8.435,0,0,1,127.869,204.607Z" transform="translate(-113.692 -192.1)" fill="#050606"/>
          <path id="Path_1827" data-name="Path 1827" d="M212.074,205.154v-9.6h-2.833a.439.439,0,0,1-.415-.219,1.417,1.417,0,0,1-.127-.68V194.1a1.45,1.45,0,0,1,.127-.68.448.448,0,0,1,.415-.219h8.43a.45.45,0,0,1,.415.219,1.417,1.417,0,0,1,.127.68v.553a1.45,1.45,0,0,1-.127.68.448.448,0,0,1-.415.219h-2.833v9.6c0,.38-.357.564-1.071.564h-.622C212.431,205.73,212.074,205.534,212.074,205.154Z" transform="translate(-186.957 -193.073)" fill="#050606"/>
          <path id="Path_1828" data-name="Path 1828" d="M312.073,205.7a.745.745,0,0,1-.173-.541V194.114a.727.727,0,0,1,.173-.541.745.745,0,0,1,.541-.173h6.253a.45.45,0,0,1,.415.219,1.416,1.416,0,0,1,.127.679v.553a1.448,1.448,0,0,1-.127.679.448.448,0,0,1-.415.219h-4.227v2.58h3.743a.45.45,0,0,1,.415.219,1.417,1.417,0,0,1,.127.679v.553a1.449,1.449,0,0,1-.127.679.448.448,0,0,1-.415.219h-3.743v2.891h4.238a.45.45,0,0,1,.415.219,1.417,1.417,0,0,1,.127.679v.553a1.45,1.45,0,0,1-.127.679.448.448,0,0,1-.415.219H312.6A.945.945,0,0,1,312.073,205.7Z" transform="translate(-278.272 -193.25)" fill="#050606"/>
          <path id="Path_1829" data-name="Path 1829" d="M403,205.243V194.014a.727.727,0,0,1,.173-.541.745.745,0,0,1,.541-.173h3.478q4.44,0,4.434,3.351a2.763,2.763,0,0,1-.564,1.739,3.231,3.231,0,0,1-1.52,1.094v.069a1.61,1.61,0,0,1,.691.6,4.162,4.162,0,0,1,.587,1.036l1.566,3.916a1.133,1.133,0,0,1,.092.334c0,.1-.092.2-.265.253a2.4,2.4,0,0,1-.806.092h-.726c-.587,0-.921-.127-1.036-.369l-1.4-3.478a2.3,2.3,0,0,0-.645-.829,2.064,2.064,0,0,0-1.152-.242h-.691v4.376c0,.38-.357.564-1.071.564h-.61C403.357,205.818,403,205.623,403,205.243Zm4.434-6.714a1.279,1.279,0,0,0,.967-.449,1.533,1.533,0,0,0,.415-1.083,1.284,1.284,0,0,0-.4-.99,1.571,1.571,0,0,0-1.094-.369h-1.566v2.891Z" transform="translate(-358.88 -193.162)" fill="#050606"/>
        </g>
      </g>
    </g>
  </g>
</svg>
