<svg xmlns="http://www.w3.org/2000/svg" width="78.934" height="35.151" viewBox="0 0 78.934 35.151">
  <defs>
    <style>.a {
      fill: #050606;
    }

    .b {
      fill: #524c99;
    }

    .c {
      fill: #64c1c8;
    }</style>
  </defs>
  <g transform="translate(0 0)">
    <g transform="translate(20.138)">
      <path class="a"
            d="M189.486,24.865l-2.949-11.979a.912.912,0,0,1-.036-.278c0-.326.387-.484,1.16-.484h.484c.749,0,1.16.193,1.245.58l1.4,6,.375,1.692c.036.218.109.544.205.991.06-.387.145-.786.254-1.209s.181-.689.218-.834a3.463,3.463,0,0,1,.085-.338c.036-.109.06-.218.085-.314l1.535-6.189a.424.424,0,0,1,.3-.3,2.248,2.248,0,0,1,.713-.085h.713a2.152,2.152,0,0,1,.713.085.423.423,0,0,1,.3.3l1.475,6.189c.205.907.423,1.849.629,2.816l.375-1.644.266-1.173,1.451-6.008c.085-.387.508-.58,1.245-.58h.205c.774,0,1.16.157,1.16.484a.913.913,0,0,1-.036.278l-3.046,11.979q-.036.181-.326.29a2.005,2.005,0,0,1-.7.1h-1.366a2.336,2.336,0,0,1-.7-.1q-.29-.109-.326-.29l-1.535-6.455-.3-1.269-.314,1.269-1.583,6.455q-.036.181-.326.29a2.005,2.005,0,0,1-.7.1h-1.342C189.909,25.251,189.57,25.119,189.486,24.865Z"
            transform="translate(-186.5 -12.1)"/>
      <path class="a"
            d="M342.7,24.835V12.892c0-.4.375-.592,1.124-.592h.653c.749,0,1.124.193,1.124.592V17.5h5.041V12.892c0-.4.375-.592,1.124-.592h.653c.749,0,1.124.193,1.124.592V24.835c0,.4-.375.592-1.124.592h-.653c-.749,0-1.124-.193-1.124-.592V19.964H345.6v4.871c0,.4-.375.592-1.124.592h-.653C343.075,25.427,342.7,25.234,342.7,24.835Z"
            transform="translate(-323.819 -12.276)"/>
      <path class="a"
            d="M461.7,24.659V12.716q0-.616,1.124-.616h.653q1.124,0,1.124.616V24.659q0,.616-1.124.616h-.653Q461.7,25.276,461.7,24.659Z"
            transform="translate(-428.434 -12.1)"/>
      <path class="a"
            d="M508.018,24.923V14.866h-2.962a.442.442,0,0,1-.423-.23,1.487,1.487,0,0,1-.133-.713v-.58a1.521,1.521,0,0,1,.133-.713.464.464,0,0,1,.423-.23h8.824a.442.442,0,0,1,.423.23,1.488,1.488,0,0,1,.133.713v.58a1.522,1.522,0,0,1-.133.713.464.464,0,0,1-.423.23h-2.961V24.923c0,.4-.375.592-1.124.592h-.653C508.392,25.515,508.018,25.322,508.018,24.923Z"
            transform="translate(-466.061 -12.364)"/>
      <path class="a"
            d="M607.581,25.386a.763.763,0,0,1-.181-.568V13.249a.65.65,0,0,1,.749-.749H614.7a.442.442,0,0,1,.423.23,1.487,1.487,0,0,1,.133.713v.58a1.521,1.521,0,0,1-.133.713.464.464,0,0,1-.423.23h-4.424v2.708h3.916a.442.442,0,0,1,.423.23,1.487,1.487,0,0,1,.133.713v.58a1.522,1.522,0,0,1-.133.713.464.464,0,0,1-.423.23h-3.916v3.022h4.436a.442.442,0,0,1,.423.23,1.487,1.487,0,0,1,.133.713v.58a1.521,1.521,0,0,1-.133.713.464.464,0,0,1-.423.23h-6.564A1.132,1.132,0,0,1,607.581,25.386Z"
            transform="translate(-556.522 -12.452)"/>
    </g>
    <g transform="translate(0 0.097)">
      <path class="b"
            d="M64.854,59.753H58.713A.707.707,0,0,1,58,59.039V57.48a.7.7,0,0,1,.7-.7h4.678V52.1a.7.7,0,0,1,.7-.7h1.535a.727.727,0,0,1,.725.725v6.141A1.486,1.486,0,0,1,64.854,59.753Z"
            transform="translate(-53.395 -46.746)"/>
      <path class="b"
            d="M21.375,12.9h6.153a.707.707,0,0,1,.713.713v1.559a.7.7,0,0,1-.7.7H22.862v4.678a.7.7,0,0,1-.7.7H20.625a.727.727,0,0,1-.725-.725V14.387A1.483,1.483,0,0,1,21.375,12.9Z"
            transform="translate(-19.9 -12.9)"/>
      <path class="c"
            d="M576.825,251.786H564.338a.338.338,0,0,1-.338-.338v-2.309a.338.338,0,0,1,.338-.338h12.487a.338.338,0,0,1,.339.338v2.309A.346.346,0,0,1,576.825,251.786Z"
            transform="translate(-498.23 -220.285)"/>
      <g transform="translate(0 21.661)">
        <path class="a"
              d="M19.9,205.853a1.872,1.872,0,0,1,.073-.338l4.11-12.027c.1-.266.459-.387,1.064-.387h.967c.629,0,.979.133,1.064.387l4.11,12.027a1.254,1.254,0,0,1,.06.338c0,.278-.314.411-.931.411h-.822c-.616,0-.955-.133-1.052-.387l-.749-2.285h-4.4l-.749,2.285c-.085.266-.375.387-.858.387h-.749C20.275,206.264,19.9,206.119,19.9,205.853Zm7.1-4.738-1.064-3.324a9.066,9.066,0,0,1-.278-1.2h-.073c-.012.073-.036.242-.085.5a3.959,3.959,0,0,1-.193.7l-1.1,3.324H27Z"
              transform="translate(-19.9 -192.979)"/>
        <path class="a"
              d="M127.967,205.227a4.4,4.4,0,0,1-1.547-.677c-.351-.242-.52-.471-.52-.713a1.619,1.619,0,0,1,.205-.677,2.92,2.92,0,0,1,.484-.689.763.763,0,0,1,.471-.3,1.492,1.492,0,0,1,.52.23,9.572,9.572,0,0,0,1.088.471,3.569,3.569,0,0,0,1.136.169,2.5,2.5,0,0,0,1.245-.29,1.078,1.078,0,0,0,.52-1.015,1.105,1.105,0,0,0-.471-.943,7.824,7.824,0,0,0-1.547-.774l-.858-.375a5.174,5.174,0,0,1-1.849-1.39,3.687,3.687,0,0,1-.677-2.369,3.469,3.469,0,0,1,.629-2.127,3.819,3.819,0,0,1,1.632-1.257,5.833,5.833,0,0,1,2.164-.4,6.94,6.94,0,0,1,1.729.193,3.494,3.494,0,0,1,1.221.52c.278.206.411.4.411.6a1.853,1.853,0,0,1-.169.653,2.659,2.659,0,0,1-.411.677.645.645,0,0,1-.447.29,1.047,1.047,0,0,1-.314-.1q-.218-.091-.363-.145a4.544,4.544,0,0,0-1.4-.23,2.2,2.2,0,0,0-1.354.314.955.955,0,0,0-.387.725,1.211,1.211,0,0,0,.266.81,1.928,1.928,0,0,0,.641.52c.254.133.616.3,1.1.52a14.8,14.8,0,0,1,1.741.846,3.693,3.693,0,0,1,1.173,1.16,3.505,3.505,0,0,1,.5,1.934,4.263,4.263,0,0,1-.6,2.357,3.584,3.584,0,0,1-1.559,1.33,5.074,5.074,0,0,1-2.055.411A8.852,8.852,0,0,1,127.967,205.227Z"
              transform="translate(-113.087 -192.1)"/>
        <path class="a"
              d="M212.242,205.747V195.666h-2.974a.46.46,0,0,1-.435-.23,1.487,1.487,0,0,1-.133-.713v-.58a1.521,1.521,0,0,1,.133-.713.47.47,0,0,1,.435-.23h8.848a.473.473,0,0,1,.435.23,1.487,1.487,0,0,1,.133.713v.58a1.521,1.521,0,0,1-.133.713.47.47,0,0,1-.435.23h-2.974v10.081c0,.4-.375.592-1.124.592h-.653C212.616,206.352,212.242,206.146,212.242,205.747Z"
              transform="translate(-185.878 -193.067)"/>
        <path class="a"
              d="M312.081,206.31a.782.782,0,0,1-.181-.568V194.149a.763.763,0,0,1,.181-.568.782.782,0,0,1,.568-.181h6.564a.473.473,0,0,1,.435.23,1.487,1.487,0,0,1,.133.713v.58a1.521,1.521,0,0,1-.133.713.47.47,0,0,1-.435.23h-4.436v2.708h3.929a.473.473,0,0,1,.435.23,1.488,1.488,0,0,1,.133.713v.58a1.522,1.522,0,0,1-.133.713.47.47,0,0,1-.435.23h-3.929v3.034h4.448a.473.473,0,0,1,.435.23,1.488,1.488,0,0,1,.133.713v.58a1.522,1.522,0,0,1-.133.713.47.47,0,0,1-.435.23h-6.588A.992.992,0,0,1,312.081,206.31Z"
              transform="translate(-276.604 -193.243)"/>
        <path class="a"
              d="M403,205.835V194.049a.763.763,0,0,1,.181-.568.782.782,0,0,1,.568-.181H407.4q4.66,0,4.654,3.518a2.9,2.9,0,0,1-.592,1.825,3.391,3.391,0,0,1-1.6,1.148v.073a1.69,1.69,0,0,1,.725.629,4.368,4.368,0,0,1,.616,1.088l1.644,4.11a1.19,1.19,0,0,1,.1.351c0,.109-.1.206-.278.266a2.523,2.523,0,0,1-.846.1h-.762c-.616,0-.967-.133-1.088-.387l-1.475-3.65a2.416,2.416,0,0,0-.677-.87,2.166,2.166,0,0,0-1.209-.254h-.725v4.593c0,.4-.375.592-1.124.592h-.641C403.375,206.439,403,206.234,403,205.835Zm4.654-7.047a1.342,1.342,0,0,0,1.015-.471,1.609,1.609,0,0,0,.435-1.136,1.348,1.348,0,0,0-.423-1.04,1.649,1.649,0,0,0-1.148-.387h-1.644v3.034Z"
              transform="translate(-356.692 -193.155)"/>
      </g>
    </g>
  </g>
</svg>
