<svg xmlns="http://www.w3.org/2000/svg" width="20" height="20" viewBox="0 0 20 20">
  <path id="Path_1455" data-name="Path 1455" d="M17.34,5.46h0a1.2,1.2,0,1,0,1.2,1.2,1.2,1.2,0,0,0-1.2-1.2Zm4.6,2.42a7.579,7.579,0,0,0-.46-2.43,4.933,4.933,0,0,0-1.16-1.77,4.688,4.688,0,0,0-1.77-1.15,7.288,7.288,0,0,0-2.43-.47C15.06,2,14.72,2,12,2s-3.06,0-4.12.06a7.288,7.288,0,0,0-2.43.47A4.793,4.793,0,0,0,3.68,3.68,4.688,4.688,0,0,0,2.53,5.45a7.288,7.288,0,0,0-.47,2.43C2,8.94,2,9.28,2,12s0,3.06.06,4.12a7.288,7.288,0,0,0,.47,2.43,4.688,4.688,0,0,0,1.15,1.77,4.793,4.793,0,0,0,1.77,1.15,7.288,7.288,0,0,0,2.43.47C8.94,22,9.28,22,12,22s3.06,0,4.12-.06a7.288,7.288,0,0,0,2.43-.47,4.688,4.688,0,0,0,1.77-1.15,4.855,4.855,0,0,0,1.16-1.77,7.579,7.579,0,0,0,.46-2.43c0-1.06.06-1.4.06-4.12S22,8.94,21.94,7.88ZM20.14,16a5.594,5.594,0,0,1-.34,1.86,3.067,3.067,0,0,1-.75,1.15,3.188,3.188,0,0,1-1.15.75,5.594,5.594,0,0,1-1.86.34c-1,.05-1.37.06-4,.06s-3,0-4-.06a5.737,5.737,0,0,1-1.94-.3A3.267,3.267,0,0,1,5,19.05a3,3,0,0,1-.74-1.15,5.533,5.533,0,0,1-.4-1.9c0-1-.06-1.37-.06-4s0-3,.06-4a5.53,5.53,0,0,1,.35-1.9A3,3,0,0,1,5,5a3.136,3.136,0,0,1,1.1-.8A5.729,5.729,0,0,1,8,3.86c1,0,1.37-.06,4-.06s3,0,4,.06a5.594,5.594,0,0,1,1.86.34,3.071,3.071,0,0,1,1.19.8,3.054,3.054,0,0,1,.75,1.1A5.625,5.625,0,0,1,20.14,8c.05,1,.06,1.37.06,4S20.19,15,20.14,16ZM12,6.87a5.125,5.125,0,1,0,.03,0Zm0,8.46A3.33,3.33,0,1,1,15.33,12h0A3.33,3.33,0,0,1,12,15.33Z" transform="translate(-2 -2)" fill="#2a2b2c"/>
</svg>
