<svg xmlns="http://www.w3.org/2000/svg" width="22.007" height="18.72" viewBox="0 0 22.007 18.72">
  <path id="Path_1456" data-name="Path 1456" d="M22.991,3.95a1,1,0,0,0-1.511-.859,7.488,7.488,0,0,1-1.873.793,5.147,5.147,0,0,0-3.374-1.242A5.232,5.232,0,0,0,11.01,7.7,11.031,11.031,0,0,1,4.2,3.781a1.01,1.01,0,0,0-.857-.365,1,1,0,0,0-.785.5,5.273,5.273,0,0,0-.242,4.769h0a1.043,1.043,0,0,0-.5.889,3.085,3.085,0,0,0,.027.44,5.185,5.185,0,0,0,1.568,3.312,1,1,0,0,0-.066.77A5.2,5.2,0,0,0,5.7,17.019a7.475,7.475,0,0,1-3.59.448A1,1,0,0,0,1.45,19.3a12.938,12.938,0,0,0,7.01,2.061A12.786,12.786,0,0,0,20.925,12a12.828,12.828,0,0,0,.535-3.646c0-.066,0-.133,0-.2A5.766,5.766,0,0,0,22.991,3.95ZM19.685,7.162a.993.993,0,0,0-.234.7c.01.165.009.331.009.488a10.829,10.829,0,0,1-.454,3.081A10.684,10.684,0,0,1,8.46,19.361a10.908,10.908,0,0,1-2.551-.3A9.489,9.489,0,0,0,8.852,17.5a1,1,0,0,0-.6-1.786,3.208,3.208,0,0,1-2.214-.935c.15-.028.3-.063.445-.105a1,1,0,0,0-.08-1.943A3.2,3.2,0,0,1,4.151,11a5.247,5.247,0,0,0,.545.046,1.022,1.022,0,0,0,.984-.7,1,1,0,0,0-.4-1.137A3.2,3.2,0,0,1,3.855,6.542c0-.066,0-.133.006-.2A13.017,13.017,0,0,0,12.07,9.823a1.021,1.021,0,0,0,.818-.358,1,1,0,0,0,.206-.868,3.139,3.139,0,0,1-.087-.729,3.229,3.229,0,0,1,3.226-3.226,3.182,3.182,0,0,1,2.345,1.02,1,1,0,0,0,.921.3,9.365,9.365,0,0,0,1.212-.322A6.682,6.682,0,0,1,19.685,7.162Z" transform="translate(-0.991 -2.642)" fill="#2a2b2c"/>
</svg>
